%TF.GenerationSoftware,KiCad,Pcbnew,9.0.6*%
%TF.CreationDate,2026-08-16T15:46:55+08:00*%
%TF.ProjectId,MQTT-Module-PumpController,4d515454-2d4d-46f6-9475-6c652d50756d,rev?*%
%TF.SameCoordinates,Original*%
%TF.FileFunction,Soldermask,Top*%
%TF.FilePolarity,Negative*%
%FSLAX45Y45*%
G04 Gerber Fmt 4.5, Leading zero omitted, Abs format (unit mm)*
G04 Created by KiCad (PCBNEW 9.0.6) date 2026-08-16 15:46:55*
%MOMM*%
%LPD*%
G01*
G04 APERTURE LIST*
G04 APERTURE END LIST*
G36*
X13263827Y-12055761D02*
G01*
X13267071Y-12057929D01*
X13269239Y-12061173D01*
X13270000Y-12065000D01*
X13270000Y-12335000D01*
X13269239Y-12338827D01*
X13267071Y-12342071D01*
X13263827Y-12344239D01*
X13260000Y-12345000D01*
X12880000Y-12345000D01*
X12876173Y-12344239D01*
X12872929Y-12342071D01*
X12870761Y-12338827D01*
X12870000Y-12335000D01*
X12870000Y-12065000D01*
X12870761Y-12061173D01*
X12872929Y-12057929D01*
X12876173Y-12055761D01*
X12880000Y-12055000D01*
X13260000Y-12055000D01*
X13263827Y-12055761D01*
G37*
G36*
X13872928Y-11748261D02*
G01*
X13876172Y-11750429D01*
X13878340Y-11753673D01*
X13879101Y-11757500D01*
X13879101Y-11952500D01*
X13878340Y-11956327D01*
X13876172Y-11959571D01*
X13872928Y-11961739D01*
X13869101Y-11962500D01*
X13674101Y-11962500D01*
X13670274Y-11961739D01*
X13667030Y-11959571D01*
X13664862Y-11956327D01*
X13664101Y-11952500D01*
X13664101Y-11757500D01*
X13664862Y-11753673D01*
X13667030Y-11750429D01*
X13670274Y-11748261D01*
X13674101Y-11747500D01*
X13869101Y-11747500D01*
X13872928Y-11748261D01*
G37*
G36*
X14304697Y-11750470D02*
G01*
X14320740Y-11755683D01*
X14335770Y-11763341D01*
X14349417Y-11773256D01*
X14361345Y-11785184D01*
X14371260Y-11798831D01*
X14378918Y-11813861D01*
X14384131Y-11829905D01*
X14386770Y-11846566D01*
X14386770Y-11863434D01*
X14384131Y-11880095D01*
X14378918Y-11896138D01*
X14371260Y-11911169D01*
X14361345Y-11924816D01*
X14349417Y-11936744D01*
X14335770Y-11946659D01*
X14320740Y-11954317D01*
X14304697Y-11959530D01*
X14288036Y-11962169D01*
X14271167Y-11962169D01*
X14254506Y-11959530D01*
X14238463Y-11954317D01*
X14223433Y-11946659D01*
X14209785Y-11936744D01*
X14197858Y-11924816D01*
X14187942Y-11911169D01*
X14180284Y-11896138D01*
X14175071Y-11880095D01*
X14172433Y-11863434D01*
X14172433Y-11846566D01*
X14175071Y-11829905D01*
X14180284Y-11813861D01*
X14187942Y-11798831D01*
X14197858Y-11785184D01*
X14209785Y-11773256D01*
X14223433Y-11763341D01*
X14238463Y-11755683D01*
X14254506Y-11750470D01*
X14271167Y-11747831D01*
X14288036Y-11747831D01*
X14304697Y-11750470D01*
G37*
G36*
X13263827Y-11355761D02*
G01*
X13267071Y-11357929D01*
X13269239Y-11361173D01*
X13270000Y-11365000D01*
X13270000Y-11635000D01*
X13269239Y-11638827D01*
X13267071Y-11642071D01*
X13263827Y-11644239D01*
X13260000Y-11645000D01*
X12880000Y-11645000D01*
X12876173Y-11644239D01*
X12872929Y-11642071D01*
X12870761Y-11638827D01*
X12870000Y-11635000D01*
X12870000Y-11365000D01*
X12870761Y-11361173D01*
X12872929Y-11357929D01*
X12876173Y-11355761D01*
X12880000Y-11355000D01*
X13260000Y-11355000D01*
X13263827Y-11355761D01*
G37*
G36*
X12683827Y-11410761D02*
G01*
X12687071Y-11412929D01*
X12689239Y-11416173D01*
X12690000Y-11420000D01*
X12690000Y-11620000D01*
X12689239Y-11623827D01*
X12687071Y-11627071D01*
X12683827Y-11629239D01*
X12680000Y-11630000D01*
X12480000Y-11630000D01*
X12476173Y-11629239D01*
X12472929Y-11627071D01*
X12470761Y-11623827D01*
X12470000Y-11620000D01*
X12470000Y-11420000D01*
X12470761Y-11416173D01*
X12472929Y-11412929D01*
X12476173Y-11410761D01*
X12480000Y-11410000D01*
X12680000Y-11410000D01*
X12683827Y-11410761D01*
G37*
G36*
X12088827Y-10911761D02*
G01*
X12092071Y-10913929D01*
X12094239Y-10917173D01*
X12095000Y-10921000D01*
X12095000Y-11091000D01*
X12094239Y-11094827D01*
X12092071Y-11098071D01*
X12088827Y-11100239D01*
X12085000Y-11101000D01*
X11915000Y-11101000D01*
X11911173Y-11100239D01*
X11907929Y-11098071D01*
X11905761Y-11094827D01*
X11905000Y-11091000D01*
X11905000Y-10921000D01*
X11905761Y-10917173D01*
X11907929Y-10913929D01*
X11911173Y-10911761D01*
X11915000Y-10911000D01*
X12085000Y-10911000D01*
X12088827Y-10911761D01*
G37*
G36*
X16088827Y-10911761D02*
G01*
X16092071Y-10913929D01*
X16094239Y-10917173D01*
X16095000Y-10921000D01*
X16095000Y-11091000D01*
X16094239Y-11094827D01*
X16092071Y-11098071D01*
X16088827Y-11100239D01*
X16085000Y-11101000D01*
X15915000Y-11101000D01*
X15911173Y-11100239D01*
X15907929Y-11098071D01*
X15905761Y-11094827D01*
X15905000Y-11091000D01*
X15905000Y-10921000D01*
X15905761Y-10917173D01*
X15907929Y-10913929D01*
X15911173Y-10911761D01*
X15915000Y-10911000D01*
X16085000Y-10911000D01*
X16088827Y-10911761D01*
G37*
G36*
X12658827Y-10800761D02*
G01*
X12662071Y-10802929D01*
X12664239Y-10806173D01*
X12665000Y-10810000D01*
X12665000Y-11050000D01*
X12664239Y-11053827D01*
X12662071Y-11057071D01*
X12658827Y-11059239D01*
X12655000Y-11060000D01*
X12425000Y-11060000D01*
X12421173Y-11059239D01*
X12417929Y-11057071D01*
X12415761Y-11053827D01*
X12415000Y-11050000D01*
X12415000Y-10810000D01*
X12415761Y-10806173D01*
X12417929Y-10802929D01*
X12421173Y-10800761D01*
X12425000Y-10800000D01*
X12655000Y-10800000D01*
X12658827Y-10800761D01*
G37*
G36*
X13694428Y-10874261D02*
G01*
X13697672Y-10876429D01*
X13699840Y-10879673D01*
X13700601Y-10883500D01*
X13700601Y-11043500D01*
X13699840Y-11047327D01*
X13697672Y-11050571D01*
X13694428Y-11052739D01*
X13690601Y-11053500D01*
X13390601Y-11053500D01*
X13386774Y-11052739D01*
X13383530Y-11050571D01*
X13381362Y-11047327D01*
X13380601Y-11043500D01*
X13380601Y-10883500D01*
X13381362Y-10879673D01*
X13383530Y-10876429D01*
X13386774Y-10874261D01*
X13390601Y-10873500D01*
X13690601Y-10873500D01*
X13694428Y-10874261D01*
G37*
G36*
X14572428Y-10435761D02*
G01*
X14575672Y-10437929D01*
X14577840Y-10441173D01*
X14578601Y-10445000D01*
X14578601Y-11025000D01*
X14577840Y-11028827D01*
X14575672Y-11032071D01*
X14572428Y-11034239D01*
X14568601Y-11035000D01*
X13948601Y-11035000D01*
X13944774Y-11034239D01*
X13941530Y-11032071D01*
X13939362Y-11028827D01*
X13938601Y-11025000D01*
X13938601Y-10445000D01*
X13939362Y-10441173D01*
X13941530Y-10437929D01*
X13944774Y-10435761D01*
X13948601Y-10435000D01*
X14568601Y-10435000D01*
X14572428Y-10435761D01*
G37*
G36*
X13073327Y-10797261D02*
G01*
X13076571Y-10799429D01*
X13078739Y-10802673D01*
X13079500Y-10806500D01*
X13079500Y-10897500D01*
X13078739Y-10901327D01*
X13076571Y-10904571D01*
X13073327Y-10906739D01*
X13069500Y-10907500D01*
X12930500Y-10907500D01*
X12926673Y-10906739D01*
X12923429Y-10904571D01*
X12921261Y-10901327D01*
X12920500Y-10897500D01*
X12920500Y-10806500D01*
X12921261Y-10802673D01*
X12923429Y-10799429D01*
X12926673Y-10797261D01*
X12930500Y-10796500D01*
X13069500Y-10796500D01*
X13073327Y-10797261D01*
G37*
G36*
X13230827Y-10795261D02*
G01*
X13234071Y-10797429D01*
X13236239Y-10800673D01*
X13237000Y-10804500D01*
X13237000Y-10887500D01*
X13236239Y-10891327D01*
X13234071Y-10894571D01*
X13230827Y-10896739D01*
X13227000Y-10897500D01*
X13133000Y-10897500D01*
X13129173Y-10896739D01*
X13125929Y-10894571D01*
X13123761Y-10891327D01*
X13123000Y-10887500D01*
X13123000Y-10804500D01*
X13123761Y-10800673D01*
X13125929Y-10797429D01*
X13129173Y-10795261D01*
X13133000Y-10794500D01*
X13227000Y-10794500D01*
X13230827Y-10795261D01*
G37*
G36*
X12027577Y-10661091D02*
G01*
X12044783Y-10668218D01*
X12060267Y-10678564D01*
X12073436Y-10691733D01*
X12083782Y-10707217D01*
X12090909Y-10724423D01*
X12094542Y-10742688D01*
X12094542Y-10761312D01*
X12090909Y-10779577D01*
X12083782Y-10796783D01*
X12073436Y-10812267D01*
X12060267Y-10825436D01*
X12044783Y-10835783D01*
X12027577Y-10842909D01*
X12009312Y-10846543D01*
X11990688Y-10846543D01*
X11972423Y-10842909D01*
X11955217Y-10835783D01*
X11939733Y-10825436D01*
X11926564Y-10812267D01*
X11916217Y-10796783D01*
X11909091Y-10779577D01*
X11905457Y-10761312D01*
X11905457Y-10742688D01*
X11909091Y-10724423D01*
X11916217Y-10707217D01*
X11926564Y-10691733D01*
X11939733Y-10678564D01*
X11955217Y-10668218D01*
X11972423Y-10661091D01*
X11990688Y-10657458D01*
X12009312Y-10657458D01*
X12027577Y-10661091D01*
G37*
G36*
X16027577Y-10661091D02*
G01*
X16044783Y-10668218D01*
X16060267Y-10678564D01*
X16073436Y-10691733D01*
X16083782Y-10707217D01*
X16090909Y-10724423D01*
X16094542Y-10742688D01*
X16094542Y-10761312D01*
X16090909Y-10779577D01*
X16083782Y-10796783D01*
X16073436Y-10812267D01*
X16060267Y-10825436D01*
X16044783Y-10835783D01*
X16027577Y-10842909D01*
X16009312Y-10846543D01*
X15990688Y-10846543D01*
X15972423Y-10842909D01*
X15955217Y-10835783D01*
X15939733Y-10825436D01*
X15926564Y-10812267D01*
X15916217Y-10796783D01*
X15909091Y-10779577D01*
X15905457Y-10761312D01*
X15905457Y-10742688D01*
X15909091Y-10724423D01*
X15916217Y-10707217D01*
X15926564Y-10691733D01*
X15939733Y-10678564D01*
X15955217Y-10668218D01*
X15972423Y-10661091D01*
X15990688Y-10657458D01*
X16009312Y-10657458D01*
X16027577Y-10661091D01*
G37*
G36*
X13230827Y-10663261D02*
G01*
X13234071Y-10665429D01*
X13236239Y-10668673D01*
X13237000Y-10672500D01*
X13237000Y-10755500D01*
X13236239Y-10759327D01*
X13234071Y-10762571D01*
X13230827Y-10764739D01*
X13227000Y-10765500D01*
X13133000Y-10765500D01*
X13129173Y-10764739D01*
X13125929Y-10762571D01*
X13123761Y-10759327D01*
X13123000Y-10755500D01*
X13123000Y-10672500D01*
X13123761Y-10668673D01*
X13125929Y-10665429D01*
X13129173Y-10663261D01*
X13133000Y-10662500D01*
X13227000Y-10662500D01*
X13230827Y-10663261D01*
G37*
G36*
X13073327Y-10633261D02*
G01*
X13076571Y-10635429D01*
X13078739Y-10638673D01*
X13079500Y-10642500D01*
X13079500Y-10733500D01*
X13078739Y-10737327D01*
X13076571Y-10740571D01*
X13073327Y-10742739D01*
X13069500Y-10743500D01*
X12930500Y-10743500D01*
X12926673Y-10742739D01*
X12923429Y-10740571D01*
X12921261Y-10737327D01*
X12920500Y-10733500D01*
X12920500Y-10642500D01*
X12921261Y-10638673D01*
X12923429Y-10635429D01*
X12926673Y-10633261D01*
X12930500Y-10632500D01*
X13069500Y-10632500D01*
X13073327Y-10633261D01*
G37*
G36*
X13694428Y-10417261D02*
G01*
X13697672Y-10419429D01*
X13699840Y-10422673D01*
X13700601Y-10426500D01*
X13700601Y-10586500D01*
X13699840Y-10590327D01*
X13697672Y-10593571D01*
X13694428Y-10595739D01*
X13690601Y-10596500D01*
X13390601Y-10596500D01*
X13386774Y-10595739D01*
X13383530Y-10593571D01*
X13381362Y-10590327D01*
X13380601Y-10586500D01*
X13380601Y-10426500D01*
X13381362Y-10422673D01*
X13383530Y-10419429D01*
X13386774Y-10417261D01*
X13390601Y-10416500D01*
X13690601Y-10416500D01*
X13694428Y-10417261D01*
G37*
G36*
X12027577Y-10407091D02*
G01*
X12044783Y-10414218D01*
X12060267Y-10424564D01*
X12073436Y-10437733D01*
X12083782Y-10453217D01*
X12090909Y-10470423D01*
X12094542Y-10488688D01*
X12094542Y-10507312D01*
X12090909Y-10525577D01*
X12083782Y-10542783D01*
X12073436Y-10558267D01*
X12060267Y-10571436D01*
X12044783Y-10581783D01*
X12027577Y-10588909D01*
X12009312Y-10592543D01*
X11990688Y-10592543D01*
X11972423Y-10588909D01*
X11955217Y-10581783D01*
X11939733Y-10571436D01*
X11926564Y-10558267D01*
X11916217Y-10542783D01*
X11909091Y-10525577D01*
X11905457Y-10507312D01*
X11905457Y-10488688D01*
X11909091Y-10470423D01*
X11916217Y-10453217D01*
X11926564Y-10437733D01*
X11939733Y-10424564D01*
X11955217Y-10414218D01*
X11972423Y-10407091D01*
X11990688Y-10403458D01*
X12009312Y-10403458D01*
X12027577Y-10407091D01*
G37*
G36*
X16027577Y-10407091D02*
G01*
X16044783Y-10414218D01*
X16060267Y-10424564D01*
X16073436Y-10437733D01*
X16083782Y-10453217D01*
X16090909Y-10470423D01*
X16094542Y-10488688D01*
X16094542Y-10507312D01*
X16090909Y-10525577D01*
X16083782Y-10542783D01*
X16073436Y-10558267D01*
X16060267Y-10571436D01*
X16044783Y-10581783D01*
X16027577Y-10588909D01*
X16009312Y-10592543D01*
X15990688Y-10592543D01*
X15972423Y-10588909D01*
X15955217Y-10581783D01*
X15939733Y-10571436D01*
X15926564Y-10558267D01*
X15916217Y-10542783D01*
X15909091Y-10525577D01*
X15905457Y-10507312D01*
X15905457Y-10488688D01*
X15909091Y-10470423D01*
X15916217Y-10453217D01*
X15926564Y-10437733D01*
X15939733Y-10424564D01*
X15955217Y-10414218D01*
X15972423Y-10407091D01*
X15990688Y-10403458D01*
X16009312Y-10403458D01*
X16027577Y-10407091D01*
G37*
G36*
X12658827Y-10320761D02*
G01*
X12662071Y-10322929D01*
X12664239Y-10326173D01*
X12665000Y-10330000D01*
X12665000Y-10570000D01*
X12664239Y-10573827D01*
X12662071Y-10577071D01*
X12658827Y-10579239D01*
X12655000Y-10580000D01*
X12425000Y-10580000D01*
X12421173Y-10579239D01*
X12417929Y-10577071D01*
X12415761Y-10573827D01*
X12415000Y-10570000D01*
X12415000Y-10330000D01*
X12415761Y-10326173D01*
X12417929Y-10322929D01*
X12421173Y-10320761D01*
X12425000Y-10320000D01*
X12655000Y-10320000D01*
X12658827Y-10320761D01*
G37*
G36*
X15473327Y-10437261D02*
G01*
X15476571Y-10439429D01*
X15478739Y-10442673D01*
X15479500Y-10446500D01*
X15479500Y-10537500D01*
X15478739Y-10541327D01*
X15476571Y-10544571D01*
X15473327Y-10546739D01*
X15469500Y-10547500D01*
X15330500Y-10547500D01*
X15326673Y-10546739D01*
X15323429Y-10544571D01*
X15321261Y-10541327D01*
X15320500Y-10537500D01*
X15320500Y-10446500D01*
X15321261Y-10442673D01*
X15323429Y-10439429D01*
X15326673Y-10437261D01*
X15330500Y-10436500D01*
X15469500Y-10436500D01*
X15473327Y-10437261D01*
G37*
G36*
X13103827Y-10320761D02*
G01*
X13107071Y-10322929D01*
X13109239Y-10326173D01*
X13110000Y-10330000D01*
X13110000Y-10530000D01*
X13109239Y-10533827D01*
X13107071Y-10537071D01*
X13103827Y-10539239D01*
X13100000Y-10540000D01*
X12900000Y-10540000D01*
X12896173Y-10539239D01*
X12892929Y-10537071D01*
X12890761Y-10533827D01*
X12890000Y-10530000D01*
X12890000Y-10330000D01*
X12890761Y-10326173D01*
X12892929Y-10322929D01*
X12896173Y-10320761D01*
X12900000Y-10320000D01*
X13100000Y-10320000D01*
X13103827Y-10320761D01*
G37*
G36*
X15473327Y-10273261D02*
G01*
X15476571Y-10275429D01*
X15478739Y-10278673D01*
X15479500Y-10282500D01*
X15479500Y-10373500D01*
X15478739Y-10377327D01*
X15476571Y-10380571D01*
X15473327Y-10382739D01*
X15469500Y-10383500D01*
X15330500Y-10383500D01*
X15326673Y-10382739D01*
X15323429Y-10380571D01*
X15321261Y-10377327D01*
X15320500Y-10373500D01*
X15320500Y-10282500D01*
X15321261Y-10278673D01*
X15323429Y-10275429D01*
X15326673Y-10273261D01*
X15330500Y-10272500D01*
X15469500Y-10272500D01*
X15473327Y-10273261D01*
G37*
G36*
X13666327Y-10235761D02*
G01*
X13669571Y-10237929D01*
X13671739Y-10241173D01*
X13672500Y-10245000D01*
X13672500Y-10345000D01*
X13671739Y-10348827D01*
X13669571Y-10352071D01*
X13666327Y-10354239D01*
X13662500Y-10355000D01*
X13517500Y-10355000D01*
X13513673Y-10354239D01*
X13510429Y-10352071D01*
X13508261Y-10348827D01*
X13507500Y-10345000D01*
X13507500Y-10245000D01*
X13508261Y-10241173D01*
X13510429Y-10237929D01*
X13513673Y-10235761D01*
X13517500Y-10235000D01*
X13662500Y-10235000D01*
X13666327Y-10235761D01*
G37*
G36*
X12027577Y-10153091D02*
G01*
X12044783Y-10160218D01*
X12060267Y-10170564D01*
X12073436Y-10183733D01*
X12083782Y-10199217D01*
X12090909Y-10216423D01*
X12094542Y-10234688D01*
X12094542Y-10253312D01*
X12090909Y-10271577D01*
X12083782Y-10288783D01*
X12073436Y-10304267D01*
X12060267Y-10317436D01*
X12044783Y-10327783D01*
X12027577Y-10334909D01*
X12009312Y-10338543D01*
X11990688Y-10338543D01*
X11972423Y-10334909D01*
X11955217Y-10327783D01*
X11939733Y-10317436D01*
X11926564Y-10304267D01*
X11916217Y-10288783D01*
X11909091Y-10271577D01*
X11905457Y-10253312D01*
X11905457Y-10234688D01*
X11909091Y-10216423D01*
X11916217Y-10199217D01*
X11926564Y-10183733D01*
X11939733Y-10170564D01*
X11955217Y-10160218D01*
X11972423Y-10153091D01*
X11990688Y-10149458D01*
X12009312Y-10149458D01*
X12027577Y-10153091D01*
G37*
G36*
X16027577Y-10153091D02*
G01*
X16044783Y-10160218D01*
X16060267Y-10170564D01*
X16073436Y-10183733D01*
X16083782Y-10199217D01*
X16090909Y-10216423D01*
X16094542Y-10234688D01*
X16094542Y-10253312D01*
X16090909Y-10271577D01*
X16083782Y-10288783D01*
X16073436Y-10304267D01*
X16060267Y-10317436D01*
X16044783Y-10327783D01*
X16027577Y-10334909D01*
X16009312Y-10338543D01*
X15990688Y-10338543D01*
X15972423Y-10334909D01*
X15955217Y-10327783D01*
X15939733Y-10317436D01*
X15926564Y-10304267D01*
X15916217Y-10288783D01*
X15909091Y-10271577D01*
X15905457Y-10253312D01*
X15905457Y-10234688D01*
X15909091Y-10216423D01*
X15916217Y-10199217D01*
X15926564Y-10183733D01*
X15939733Y-10170564D01*
X15955217Y-10160218D01*
X15972423Y-10153091D01*
X15990688Y-10149458D01*
X16009312Y-10149458D01*
X16027577Y-10153091D01*
G37*
G36*
X14606327Y-10195761D02*
G01*
X14609571Y-10197929D01*
X14611739Y-10201173D01*
X14612500Y-10205000D01*
X14612500Y-10305000D01*
X14611739Y-10308827D01*
X14609571Y-10312071D01*
X14606327Y-10314239D01*
X14602500Y-10315000D01*
X14457500Y-10315000D01*
X14453673Y-10314239D01*
X14450429Y-10312071D01*
X14448261Y-10308827D01*
X14447500Y-10305000D01*
X14447500Y-10205000D01*
X14448261Y-10201173D01*
X14450429Y-10197929D01*
X14453673Y-10195761D01*
X14457500Y-10195000D01*
X14602500Y-10195000D01*
X14606327Y-10195761D01*
G37*
G36*
X13848827Y-10038261D02*
G01*
X13852071Y-10040429D01*
X13854239Y-10043673D01*
X13855000Y-10047500D01*
X13855000Y-10192500D01*
X13854239Y-10196327D01*
X13852071Y-10199571D01*
X13848827Y-10201739D01*
X13845000Y-10202500D01*
X13745000Y-10202500D01*
X13741173Y-10201739D01*
X13737929Y-10199571D01*
X13735761Y-10196327D01*
X13735000Y-10192500D01*
X13735000Y-10047500D01*
X13735761Y-10043673D01*
X13737929Y-10040429D01*
X13741173Y-10038261D01*
X13745000Y-10037500D01*
X13845000Y-10037500D01*
X13848827Y-10038261D01*
G37*
G36*
X14038827Y-10038261D02*
G01*
X14042071Y-10040429D01*
X14044239Y-10043673D01*
X14045000Y-10047500D01*
X14045000Y-10192500D01*
X14044239Y-10196327D01*
X14042071Y-10199571D01*
X14038827Y-10201739D01*
X14035000Y-10202500D01*
X13935000Y-10202500D01*
X13931173Y-10201739D01*
X13927929Y-10199571D01*
X13925761Y-10196327D01*
X13925000Y-10192500D01*
X13925000Y-10047500D01*
X13925761Y-10043673D01*
X13927929Y-10040429D01*
X13931173Y-10038261D01*
X13935000Y-10037500D01*
X14035000Y-10037500D01*
X14038827Y-10038261D01*
G37*
G36*
X15176327Y-10055761D02*
G01*
X15179571Y-10057929D01*
X15181739Y-10061173D01*
X15182500Y-10065000D01*
X15182500Y-10165000D01*
X15181739Y-10168827D01*
X15179571Y-10172071D01*
X15176327Y-10174239D01*
X15172500Y-10175000D01*
X15027500Y-10175000D01*
X15023673Y-10174239D01*
X15020429Y-10172071D01*
X15018261Y-10168827D01*
X15017500Y-10165000D01*
X15017500Y-10065000D01*
X15018261Y-10061173D01*
X15020429Y-10057929D01*
X15023673Y-10055761D01*
X15027500Y-10055000D01*
X15172500Y-10055000D01*
X15176327Y-10055761D01*
G37*
G36*
X13666327Y-10045761D02*
G01*
X13669571Y-10047929D01*
X13671739Y-10051173D01*
X13672500Y-10055000D01*
X13672500Y-10155000D01*
X13671739Y-10158827D01*
X13669571Y-10162071D01*
X13666327Y-10164239D01*
X13662500Y-10165000D01*
X13517500Y-10165000D01*
X13513673Y-10164239D01*
X13510429Y-10162071D01*
X13508261Y-10158827D01*
X13507500Y-10155000D01*
X13507500Y-10055000D01*
X13508261Y-10051173D01*
X13510429Y-10047929D01*
X13513673Y-10045761D01*
X13517500Y-10045000D01*
X13662500Y-10045000D01*
X13666327Y-10045761D01*
G37*
G36*
X14189327Y-10033761D02*
G01*
X14192571Y-10035929D01*
X14194739Y-10039173D01*
X14195500Y-10043000D01*
X14195500Y-10137000D01*
X14194739Y-10140827D01*
X14192571Y-10144071D01*
X14189327Y-10146239D01*
X14185500Y-10147000D01*
X14102500Y-10147000D01*
X14098673Y-10146239D01*
X14095429Y-10144071D01*
X14093261Y-10140827D01*
X14092500Y-10137000D01*
X14092500Y-10043000D01*
X14093261Y-10039173D01*
X14095429Y-10035929D01*
X14098673Y-10033761D01*
X14102500Y-10033000D01*
X14185500Y-10033000D01*
X14189327Y-10033761D01*
G37*
G36*
X14321327Y-10033761D02*
G01*
X14324571Y-10035929D01*
X14326739Y-10039173D01*
X14327500Y-10043000D01*
X14327500Y-10137000D01*
X14326739Y-10140827D01*
X14324571Y-10144071D01*
X14321327Y-10146239D01*
X14317500Y-10147000D01*
X14234500Y-10147000D01*
X14230673Y-10146239D01*
X14227429Y-10144071D01*
X14225261Y-10140827D01*
X14224500Y-10137000D01*
X14224500Y-10043000D01*
X14225261Y-10039173D01*
X14227429Y-10035929D01*
X14230673Y-10033761D01*
X14234500Y-10033000D01*
X14317500Y-10033000D01*
X14321327Y-10033761D01*
G37*
G36*
X14606327Y-10005761D02*
G01*
X14609571Y-10007929D01*
X14611739Y-10011173D01*
X14612500Y-10015000D01*
X14612500Y-10115000D01*
X14611739Y-10118827D01*
X14609571Y-10122071D01*
X14606327Y-10124239D01*
X14602500Y-10125000D01*
X14457500Y-10125000D01*
X14453673Y-10124239D01*
X14450429Y-10122071D01*
X14448261Y-10118827D01*
X14447500Y-10115000D01*
X14447500Y-10015000D01*
X14448261Y-10011173D01*
X14450429Y-10007929D01*
X14453673Y-10005761D01*
X14457500Y-10005000D01*
X14602500Y-10005000D01*
X14606327Y-10005761D01*
G37*
G36*
X12027577Y-9899091D02*
G01*
X12044783Y-9906218D01*
X12060267Y-9916564D01*
X12073436Y-9929733D01*
X12083782Y-9945217D01*
X12090909Y-9962423D01*
X12094542Y-9980688D01*
X12094542Y-9999312D01*
X12090909Y-10017577D01*
X12083782Y-10034783D01*
X12073436Y-10050267D01*
X12060267Y-10063436D01*
X12044783Y-10073783D01*
X12027577Y-10080909D01*
X12009312Y-10084543D01*
X11990688Y-10084543D01*
X11972423Y-10080909D01*
X11955217Y-10073783D01*
X11939733Y-10063436D01*
X11926564Y-10050267D01*
X11916217Y-10034783D01*
X11909091Y-10017577D01*
X11905457Y-9999312D01*
X11905457Y-9980688D01*
X11909091Y-9962423D01*
X11916217Y-9945217D01*
X11926564Y-9929733D01*
X11939733Y-9916564D01*
X11955217Y-9906218D01*
X11972423Y-9899091D01*
X11990688Y-9895458D01*
X12009312Y-9895458D01*
X12027577Y-9899091D01*
G37*
G36*
X16027577Y-9899091D02*
G01*
X16044783Y-9906218D01*
X16060267Y-9916564D01*
X16073436Y-9929733D01*
X16083782Y-9945217D01*
X16090909Y-9962423D01*
X16094542Y-9980688D01*
X16094542Y-9999312D01*
X16090909Y-10017577D01*
X16083782Y-10034783D01*
X16073436Y-10050267D01*
X16060267Y-10063436D01*
X16044783Y-10073783D01*
X16027577Y-10080909D01*
X16009312Y-10084543D01*
X15990688Y-10084543D01*
X15972423Y-10080909D01*
X15955217Y-10073783D01*
X15939733Y-10063436D01*
X15926564Y-10050267D01*
X15916217Y-10034783D01*
X15909091Y-10017577D01*
X15905457Y-9999312D01*
X15905457Y-9980688D01*
X15909091Y-9962423D01*
X15916217Y-9945217D01*
X15926564Y-9929733D01*
X15939733Y-9916564D01*
X15955217Y-9906218D01*
X15972423Y-9899091D01*
X15990688Y-9895458D01*
X16009312Y-9895458D01*
X16027577Y-9899091D01*
G37*
G36*
X14951327Y-9910761D02*
G01*
X14954571Y-9912929D01*
X14956739Y-9916173D01*
X14957500Y-9920000D01*
X14957500Y-10020000D01*
X14956739Y-10023827D01*
X14954571Y-10027071D01*
X14951327Y-10029239D01*
X14947500Y-10030000D01*
X14772500Y-10030000D01*
X14768673Y-10029239D01*
X14765429Y-10027071D01*
X14763261Y-10023827D01*
X14762500Y-10020000D01*
X14762500Y-9920000D01*
X14763261Y-9916173D01*
X14765429Y-9912929D01*
X14768673Y-9910761D01*
X14772500Y-9910000D01*
X14947500Y-9910000D01*
X14951327Y-9910761D01*
G37*
G36*
X15176327Y-9865761D02*
G01*
X15179571Y-9867929D01*
X15181739Y-9871173D01*
X15182500Y-9875000D01*
X15182500Y-9975000D01*
X15181739Y-9978827D01*
X15179571Y-9982071D01*
X15176327Y-9984239D01*
X15172500Y-9985000D01*
X15027500Y-9985000D01*
X15023673Y-9984239D01*
X15020429Y-9982071D01*
X15018261Y-9978827D01*
X15017500Y-9975000D01*
X15017500Y-9875000D01*
X15018261Y-9871173D01*
X15020429Y-9867929D01*
X15023673Y-9865761D01*
X15027500Y-9865000D01*
X15172500Y-9865000D01*
X15176327Y-9865761D01*
G37*
G36*
X13910855Y-9902690D02*
G01*
X13911667Y-9903232D01*
X13912208Y-9904043D01*
X13912399Y-9905000D01*
X13912399Y-9935000D01*
X13912208Y-9935957D01*
X13911667Y-9936768D01*
X13910855Y-9937310D01*
X13909899Y-9937500D01*
X13769899Y-9937500D01*
X13768942Y-9937310D01*
X13768131Y-9936768D01*
X13767589Y-9935957D01*
X13767399Y-9935000D01*
X13767399Y-9905000D01*
X13767589Y-9904043D01*
X13768131Y-9903232D01*
X13768942Y-9902690D01*
X13769899Y-9902500D01*
X13909899Y-9902500D01*
X13910855Y-9902690D01*
G37*
G36*
X14350855Y-9902690D02*
G01*
X14351667Y-9903232D01*
X14352208Y-9904043D01*
X14352399Y-9905000D01*
X14352399Y-9935000D01*
X14352208Y-9935957D01*
X14351667Y-9936768D01*
X14350855Y-9937310D01*
X14349899Y-9937500D01*
X14209899Y-9937500D01*
X14208942Y-9937310D01*
X14208131Y-9936768D01*
X14207589Y-9935957D01*
X14207399Y-9935000D01*
X14207399Y-9905000D01*
X14207589Y-9904043D01*
X14208131Y-9903232D01*
X14208942Y-9902690D01*
X14209899Y-9902500D01*
X14349899Y-9902500D01*
X14350855Y-9902690D01*
G37*
G36*
X13910855Y-9852690D02*
G01*
X13911667Y-9853232D01*
X13912208Y-9854043D01*
X13912399Y-9855000D01*
X13912399Y-9885000D01*
X13912208Y-9885957D01*
X13911667Y-9886768D01*
X13910855Y-9887310D01*
X13909899Y-9887500D01*
X13769899Y-9887500D01*
X13768942Y-9887310D01*
X13768131Y-9886768D01*
X13767589Y-9885957D01*
X13767399Y-9885000D01*
X13767399Y-9855000D01*
X13767589Y-9854043D01*
X13768131Y-9853232D01*
X13768942Y-9852690D01*
X13769899Y-9852500D01*
X13909899Y-9852500D01*
X13910855Y-9852690D01*
G37*
G36*
X14350855Y-9852690D02*
G01*
X14351667Y-9853232D01*
X14352208Y-9854043D01*
X14352399Y-9855000D01*
X14352399Y-9885000D01*
X14352208Y-9885957D01*
X14351667Y-9886768D01*
X14350855Y-9887310D01*
X14349899Y-9887500D01*
X14209899Y-9887500D01*
X14208942Y-9887310D01*
X14208131Y-9886768D01*
X14207589Y-9885957D01*
X14207399Y-9885000D01*
X14207399Y-9855000D01*
X14207589Y-9854043D01*
X14208131Y-9853232D01*
X14208942Y-9852690D01*
X14209899Y-9852500D01*
X14349899Y-9852500D01*
X14350855Y-9852690D01*
G37*
G36*
X13910855Y-9802690D02*
G01*
X13911667Y-9803232D01*
X13912208Y-9804043D01*
X13912399Y-9805000D01*
X13912399Y-9835000D01*
X13912208Y-9835957D01*
X13911667Y-9836768D01*
X13910855Y-9837310D01*
X13909899Y-9837500D01*
X13769899Y-9837500D01*
X13768942Y-9837310D01*
X13768131Y-9836768D01*
X13767589Y-9835957D01*
X13767399Y-9835000D01*
X13767399Y-9805000D01*
X13767589Y-9804043D01*
X13768131Y-9803232D01*
X13768942Y-9802690D01*
X13769899Y-9802500D01*
X13909899Y-9802500D01*
X13910855Y-9802690D01*
G37*
G36*
X14350855Y-9802690D02*
G01*
X14351667Y-9803232D01*
X14352208Y-9804043D01*
X14352399Y-9805000D01*
X14352399Y-9835000D01*
X14352208Y-9835957D01*
X14351667Y-9836768D01*
X14350855Y-9837310D01*
X14349899Y-9837500D01*
X14209899Y-9837500D01*
X14208942Y-9837310D01*
X14208131Y-9836768D01*
X14207589Y-9835957D01*
X14207399Y-9835000D01*
X14207399Y-9805000D01*
X14207589Y-9804043D01*
X14208131Y-9803232D01*
X14208942Y-9802690D01*
X14209899Y-9802500D01*
X14349899Y-9802500D01*
X14350855Y-9802690D01*
G37*
G36*
X12027577Y-9645091D02*
G01*
X12044783Y-9652218D01*
X12060267Y-9662564D01*
X12073436Y-9675733D01*
X12083782Y-9691217D01*
X12090909Y-9708423D01*
X12094542Y-9726688D01*
X12094542Y-9745312D01*
X12090909Y-9763577D01*
X12083782Y-9780783D01*
X12073436Y-9796267D01*
X12060267Y-9809436D01*
X12044783Y-9819783D01*
X12027577Y-9826909D01*
X12009312Y-9830543D01*
X11990688Y-9830543D01*
X11972423Y-9826909D01*
X11955217Y-9819783D01*
X11939733Y-9809436D01*
X11926564Y-9796267D01*
X11916217Y-9780783D01*
X11909091Y-9763577D01*
X11905457Y-9745312D01*
X11905457Y-9726688D01*
X11909091Y-9708423D01*
X11916217Y-9691217D01*
X11926564Y-9675733D01*
X11939733Y-9662564D01*
X11955217Y-9652218D01*
X11972423Y-9645091D01*
X11990688Y-9641458D01*
X12009312Y-9641458D01*
X12027577Y-9645091D01*
G37*
G36*
X16027577Y-9645091D02*
G01*
X16044783Y-9652218D01*
X16060267Y-9662564D01*
X16073436Y-9675733D01*
X16083782Y-9691217D01*
X16090909Y-9708423D01*
X16094542Y-9726688D01*
X16094542Y-9745312D01*
X16090909Y-9763577D01*
X16083782Y-9780783D01*
X16073436Y-9796267D01*
X16060267Y-9809436D01*
X16044783Y-9819783D01*
X16027577Y-9826909D01*
X16009312Y-9830543D01*
X15990688Y-9830543D01*
X15972423Y-9826909D01*
X15955217Y-9819783D01*
X15939733Y-9809436D01*
X15926564Y-9796267D01*
X15916217Y-9780783D01*
X15909091Y-9763577D01*
X15905457Y-9745312D01*
X15905457Y-9726688D01*
X15909091Y-9708423D01*
X15916217Y-9691217D01*
X15926564Y-9675733D01*
X15939733Y-9662564D01*
X15955217Y-9652218D01*
X15972423Y-9645091D01*
X15990688Y-9641458D01*
X16009312Y-9641458D01*
X16027577Y-9645091D01*
G37*
G36*
X13910855Y-9752690D02*
G01*
X13911667Y-9753232D01*
X13912208Y-9754043D01*
X13912399Y-9755000D01*
X13912399Y-9785000D01*
X13912208Y-9785957D01*
X13911667Y-9786768D01*
X13910855Y-9787310D01*
X13909899Y-9787500D01*
X13769899Y-9787500D01*
X13768942Y-9787310D01*
X13768131Y-9786768D01*
X13767589Y-9785957D01*
X13767399Y-9785000D01*
X13767399Y-9755000D01*
X13767589Y-9754043D01*
X13768131Y-9753232D01*
X13768942Y-9752690D01*
X13769899Y-9752500D01*
X13909899Y-9752500D01*
X13910855Y-9752690D01*
G37*
G36*
X14350855Y-9752690D02*
G01*
X14351667Y-9753232D01*
X14352208Y-9754043D01*
X14352399Y-9755000D01*
X14352399Y-9785000D01*
X14352208Y-9785957D01*
X14351667Y-9786768D01*
X14350855Y-9787310D01*
X14349899Y-9787500D01*
X14209899Y-9787500D01*
X14208942Y-9787310D01*
X14208131Y-9786768D01*
X14207589Y-9785957D01*
X14207399Y-9785000D01*
X14207399Y-9755000D01*
X14207589Y-9754043D01*
X14208131Y-9753232D01*
X14208942Y-9752690D01*
X14209899Y-9752500D01*
X14349899Y-9752500D01*
X14350855Y-9752690D01*
G37*
G36*
X15176327Y-9655761D02*
G01*
X15179571Y-9657929D01*
X15181739Y-9661173D01*
X15182500Y-9665000D01*
X15182500Y-9765000D01*
X15181739Y-9768827D01*
X15179571Y-9772071D01*
X15176327Y-9774239D01*
X15172500Y-9775000D01*
X15027500Y-9775000D01*
X15023673Y-9774239D01*
X15020429Y-9772071D01*
X15018261Y-9768827D01*
X15017500Y-9765000D01*
X15017500Y-9665000D01*
X15018261Y-9661173D01*
X15020429Y-9657929D01*
X15023673Y-9655761D01*
X15027500Y-9655000D01*
X15172500Y-9655000D01*
X15176327Y-9655761D01*
G37*
G36*
X13910855Y-9702690D02*
G01*
X13911667Y-9703232D01*
X13912208Y-9704043D01*
X13912399Y-9705000D01*
X13912399Y-9735000D01*
X13912208Y-9735957D01*
X13911667Y-9736768D01*
X13910855Y-9737310D01*
X13909899Y-9737500D01*
X13769899Y-9737500D01*
X13768942Y-9737310D01*
X13768131Y-9736768D01*
X13767589Y-9735957D01*
X13767399Y-9735000D01*
X13767399Y-9705000D01*
X13767589Y-9704043D01*
X13768131Y-9703232D01*
X13768942Y-9702690D01*
X13769899Y-9702500D01*
X13909899Y-9702500D01*
X13910855Y-9702690D01*
G37*
G36*
X14350855Y-9702690D02*
G01*
X14351667Y-9703232D01*
X14352208Y-9704043D01*
X14352399Y-9705000D01*
X14352399Y-9735000D01*
X14352208Y-9735957D01*
X14351667Y-9736768D01*
X14350855Y-9737310D01*
X14349899Y-9737500D01*
X14209899Y-9737500D01*
X14208942Y-9737310D01*
X14208131Y-9736768D01*
X14207589Y-9735957D01*
X14207399Y-9735000D01*
X14207399Y-9705000D01*
X14207589Y-9704043D01*
X14208131Y-9703232D01*
X14208942Y-9702690D01*
X14209899Y-9702500D01*
X14349899Y-9702500D01*
X14350855Y-9702690D01*
G37*
G36*
X14951327Y-9610761D02*
G01*
X14954571Y-9612929D01*
X14956739Y-9616173D01*
X14957500Y-9620000D01*
X14957500Y-9720000D01*
X14956739Y-9723827D01*
X14954571Y-9727071D01*
X14951327Y-9729239D01*
X14947500Y-9730000D01*
X14772500Y-9730000D01*
X14768673Y-9729239D01*
X14765429Y-9727071D01*
X14763261Y-9723827D01*
X14762500Y-9720000D01*
X14762500Y-9620000D01*
X14763261Y-9616173D01*
X14765429Y-9612929D01*
X14768673Y-9610761D01*
X14772500Y-9610000D01*
X14947500Y-9610000D01*
X14951327Y-9610761D01*
G37*
G36*
X13613327Y-9567261D02*
G01*
X13616571Y-9569429D01*
X13618739Y-9572673D01*
X13619500Y-9576500D01*
X13619500Y-9667500D01*
X13618739Y-9671327D01*
X13616571Y-9674571D01*
X13613327Y-9676739D01*
X13609500Y-9677500D01*
X13470500Y-9677500D01*
X13466673Y-9676739D01*
X13463429Y-9674571D01*
X13461261Y-9671327D01*
X13460500Y-9667500D01*
X13460500Y-9576500D01*
X13461261Y-9572673D01*
X13463429Y-9569429D01*
X13466673Y-9567261D01*
X13470500Y-9566500D01*
X13609500Y-9566500D01*
X13613327Y-9567261D01*
G37*
G36*
X13410827Y-9535261D02*
G01*
X13414071Y-9537429D01*
X13416239Y-9540673D01*
X13417000Y-9544500D01*
X13417000Y-9627500D01*
X13416239Y-9631327D01*
X13414071Y-9634571D01*
X13410827Y-9636739D01*
X13407000Y-9637500D01*
X13313000Y-9637500D01*
X13309173Y-9636739D01*
X13305929Y-9634571D01*
X13303761Y-9631327D01*
X13303000Y-9627500D01*
X13303000Y-9544500D01*
X13303761Y-9540673D01*
X13305929Y-9537429D01*
X13309173Y-9535261D01*
X13313000Y-9534500D01*
X13407000Y-9534500D01*
X13410827Y-9535261D01*
G37*
G36*
X15176327Y-9465761D02*
G01*
X15179571Y-9467929D01*
X15181739Y-9471173D01*
X15182500Y-9475000D01*
X15182500Y-9575000D01*
X15181739Y-9578827D01*
X15179571Y-9582071D01*
X15176327Y-9584239D01*
X15172500Y-9585000D01*
X15027500Y-9585000D01*
X15023673Y-9584239D01*
X15020429Y-9582071D01*
X15018261Y-9578827D01*
X15017500Y-9575000D01*
X15017500Y-9475000D01*
X15018261Y-9471173D01*
X15020429Y-9467929D01*
X15023673Y-9465761D01*
X15027500Y-9465000D01*
X15172500Y-9465000D01*
X15176327Y-9465761D01*
G37*
G36*
X12027577Y-9391091D02*
G01*
X12044783Y-9398218D01*
X12060267Y-9408564D01*
X12073436Y-9421733D01*
X12083782Y-9437217D01*
X12090909Y-9454423D01*
X12094542Y-9472688D01*
X12094542Y-9491312D01*
X12090909Y-9509577D01*
X12083782Y-9526783D01*
X12073436Y-9542267D01*
X12060267Y-9555436D01*
X12044783Y-9565783D01*
X12027577Y-9572909D01*
X12009312Y-9576543D01*
X11990688Y-9576543D01*
X11972423Y-9572909D01*
X11955217Y-9565783D01*
X11939733Y-9555436D01*
X11926564Y-9542267D01*
X11916217Y-9526783D01*
X11909091Y-9509577D01*
X11905457Y-9491312D01*
X11905457Y-9472688D01*
X11909091Y-9454423D01*
X11916217Y-9437217D01*
X11926564Y-9421733D01*
X11939733Y-9408564D01*
X11955217Y-9398218D01*
X11972423Y-9391091D01*
X11990688Y-9387458D01*
X12009312Y-9387458D01*
X12027577Y-9391091D01*
G37*
G36*
X16027577Y-9391091D02*
G01*
X16044783Y-9398218D01*
X16060267Y-9408564D01*
X16073436Y-9421733D01*
X16083782Y-9437217D01*
X16090909Y-9454423D01*
X16094542Y-9472688D01*
X16094542Y-9491312D01*
X16090909Y-9509577D01*
X16083782Y-9526783D01*
X16073436Y-9542267D01*
X16060267Y-9555436D01*
X16044783Y-9565783D01*
X16027577Y-9572909D01*
X16009312Y-9576543D01*
X15990688Y-9576543D01*
X15972423Y-9572909D01*
X15955217Y-9565783D01*
X15939733Y-9555436D01*
X15926564Y-9542267D01*
X15916217Y-9526783D01*
X15909091Y-9509577D01*
X15905457Y-9491312D01*
X15905457Y-9472688D01*
X15909091Y-9454423D01*
X15916217Y-9437217D01*
X15926564Y-9421733D01*
X15939733Y-9408564D01*
X15955217Y-9398218D01*
X15972423Y-9391091D01*
X15990688Y-9387458D01*
X16009312Y-9387458D01*
X16027577Y-9391091D01*
G37*
G36*
X14936327Y-9440761D02*
G01*
X14939571Y-9442929D01*
X14941739Y-9446173D01*
X14942500Y-9450000D01*
X14942500Y-9550000D01*
X14941739Y-9553827D01*
X14939571Y-9557071D01*
X14936327Y-9559239D01*
X14932500Y-9560000D01*
X14787500Y-9560000D01*
X14783673Y-9559239D01*
X14780429Y-9557071D01*
X14778261Y-9553827D01*
X14777500Y-9550000D01*
X14777500Y-9450000D01*
X14778261Y-9446173D01*
X14780429Y-9442929D01*
X14783673Y-9440761D01*
X14787500Y-9440000D01*
X14932500Y-9440000D01*
X14936327Y-9440761D01*
G37*
G36*
X13613327Y-9403261D02*
G01*
X13616571Y-9405429D01*
X13618739Y-9408673D01*
X13619500Y-9412500D01*
X13619500Y-9503500D01*
X13618739Y-9507327D01*
X13616571Y-9510571D01*
X13613327Y-9512739D01*
X13609500Y-9513500D01*
X13470500Y-9513500D01*
X13466673Y-9512739D01*
X13463429Y-9510571D01*
X13461261Y-9507327D01*
X13460500Y-9503500D01*
X13460500Y-9412500D01*
X13461261Y-9408673D01*
X13463429Y-9405429D01*
X13466673Y-9403261D01*
X13470500Y-9402500D01*
X13609500Y-9402500D01*
X13613327Y-9403261D01*
G37*
G36*
X13410827Y-9403261D02*
G01*
X13414071Y-9405429D01*
X13416239Y-9408673D01*
X13417000Y-9412500D01*
X13417000Y-9495500D01*
X13416239Y-9499327D01*
X13414071Y-9502571D01*
X13410827Y-9504739D01*
X13407000Y-9505500D01*
X13313000Y-9505500D01*
X13309173Y-9504739D01*
X13305929Y-9502571D01*
X13303761Y-9499327D01*
X13303000Y-9495500D01*
X13303000Y-9412500D01*
X13303761Y-9408673D01*
X13305929Y-9405429D01*
X13309173Y-9403261D01*
X13313000Y-9402500D01*
X13407000Y-9402500D01*
X13410827Y-9403261D01*
G37*
G36*
X14936327Y-9250761D02*
G01*
X14939571Y-9252929D01*
X14941739Y-9256173D01*
X14942500Y-9260000D01*
X14942500Y-9360000D01*
X14941739Y-9363827D01*
X14939571Y-9367071D01*
X14936327Y-9369239D01*
X14932500Y-9370000D01*
X14787500Y-9370000D01*
X14783673Y-9369239D01*
X14780429Y-9367071D01*
X14778261Y-9363827D01*
X14777500Y-9360000D01*
X14777500Y-9260000D01*
X14778261Y-9256173D01*
X14780429Y-9252929D01*
X14783673Y-9250761D01*
X14787500Y-9250000D01*
X14932500Y-9250000D01*
X14936327Y-9250761D01*
G37*
G36*
X12027577Y-9137091D02*
G01*
X12044783Y-9144218D01*
X12060267Y-9154564D01*
X12073436Y-9167733D01*
X12083782Y-9183217D01*
X12090909Y-9200423D01*
X12094542Y-9218688D01*
X12094542Y-9237312D01*
X12090909Y-9255577D01*
X12083782Y-9272783D01*
X12073436Y-9288267D01*
X12060267Y-9301436D01*
X12044783Y-9311783D01*
X12027577Y-9318909D01*
X12009312Y-9322543D01*
X11990688Y-9322543D01*
X11972423Y-9318909D01*
X11955217Y-9311783D01*
X11939733Y-9301436D01*
X11926564Y-9288267D01*
X11916217Y-9272783D01*
X11909091Y-9255577D01*
X11905457Y-9237312D01*
X11905457Y-9218688D01*
X11909091Y-9200423D01*
X11916217Y-9183217D01*
X11926564Y-9167733D01*
X11939733Y-9154564D01*
X11955217Y-9144218D01*
X11972423Y-9137091D01*
X11990688Y-9133458D01*
X12009312Y-9133458D01*
X12027577Y-9137091D01*
G37*
G36*
X16027577Y-9137091D02*
G01*
X16044783Y-9144218D01*
X16060267Y-9154564D01*
X16073436Y-9167733D01*
X16083782Y-9183217D01*
X16090909Y-9200423D01*
X16094542Y-9218688D01*
X16094542Y-9237312D01*
X16090909Y-9255577D01*
X16083782Y-9272783D01*
X16073436Y-9288267D01*
X16060267Y-9301436D01*
X16044783Y-9311783D01*
X16027577Y-9318909D01*
X16009312Y-9322543D01*
X15990688Y-9322543D01*
X15972423Y-9318909D01*
X15955217Y-9311783D01*
X15939733Y-9301436D01*
X15926564Y-9288267D01*
X15916217Y-9272783D01*
X15909091Y-9255577D01*
X15905457Y-9237312D01*
X15905457Y-9218688D01*
X15909091Y-9200423D01*
X15916217Y-9183217D01*
X15926564Y-9167733D01*
X15939733Y-9154564D01*
X15955217Y-9144218D01*
X15972423Y-9137091D01*
X15990688Y-9133458D01*
X16009312Y-9133458D01*
X16027577Y-9137091D01*
G37*
G36*
X14035405Y-9091081D02*
G01*
X14040541Y-9091676D01*
X14042295Y-9092451D01*
X14044567Y-9092903D01*
X14046999Y-9094528D01*
X14049079Y-9095447D01*
X14050500Y-9096867D01*
X14052678Y-9098322D01*
X14054133Y-9100500D01*
X14055553Y-9101921D01*
X14056472Y-9104001D01*
X14058097Y-9106433D01*
X14058549Y-9108705D01*
X14059323Y-9110459D01*
X14059919Y-9115594D01*
X14060000Y-9116000D01*
X14060000Y-9146000D01*
X14059919Y-9146406D01*
X14059323Y-9151541D01*
X14058549Y-9153295D01*
X14058097Y-9155567D01*
X14056472Y-9158000D01*
X14055553Y-9160079D01*
X14054133Y-9161500D01*
X14052678Y-9163678D01*
X14050500Y-9165133D01*
X14049079Y-9166553D01*
X14046999Y-9167472D01*
X14044567Y-9169097D01*
X14042295Y-9169549D01*
X14040541Y-9170324D01*
X14035406Y-9170919D01*
X14035000Y-9171000D01*
X13870000Y-9171000D01*
X13869594Y-9170919D01*
X13864459Y-9170324D01*
X13862705Y-9169549D01*
X13860433Y-9169097D01*
X13858001Y-9167472D01*
X13855921Y-9166553D01*
X13854500Y-9165133D01*
X13852322Y-9163678D01*
X13850867Y-9161500D01*
X13849446Y-9160079D01*
X13848528Y-9157999D01*
X13846903Y-9155567D01*
X13846451Y-9153295D01*
X13845676Y-9151541D01*
X13845080Y-9146405D01*
X13845000Y-9146000D01*
X13845000Y-9116000D01*
X13845080Y-9115595D01*
X13845676Y-9110459D01*
X13846451Y-9108704D01*
X13846903Y-9106433D01*
X13848528Y-9104001D01*
X13849446Y-9101921D01*
X13850867Y-9100500D01*
X13852322Y-9098322D01*
X13854500Y-9096867D01*
X13855921Y-9095447D01*
X13858001Y-9094528D01*
X13860433Y-9092903D01*
X13862704Y-9092451D01*
X13864459Y-9091676D01*
X13869595Y-9091081D01*
X13870000Y-9091000D01*
X14035000Y-9091000D01*
X14035405Y-9091081D01*
G37*
G36*
X14530405Y-9091081D02*
G01*
X14535541Y-9091676D01*
X14537295Y-9092451D01*
X14539567Y-9092903D01*
X14541999Y-9094528D01*
X14544079Y-9095447D01*
X14545500Y-9096867D01*
X14547678Y-9098322D01*
X14549133Y-9100500D01*
X14550553Y-9101921D01*
X14551472Y-9104001D01*
X14553097Y-9106433D01*
X14553549Y-9108705D01*
X14554323Y-9110459D01*
X14554919Y-9115594D01*
X14555000Y-9116000D01*
X14555000Y-9146000D01*
X14554919Y-9146406D01*
X14554323Y-9151541D01*
X14553549Y-9153295D01*
X14553097Y-9155567D01*
X14551472Y-9158000D01*
X14550553Y-9160079D01*
X14549133Y-9161500D01*
X14547678Y-9163678D01*
X14545500Y-9165133D01*
X14544079Y-9166553D01*
X14541999Y-9167472D01*
X14539567Y-9169097D01*
X14537295Y-9169549D01*
X14535541Y-9170324D01*
X14530406Y-9170919D01*
X14530000Y-9171000D01*
X14365000Y-9171000D01*
X14364594Y-9170919D01*
X14359459Y-9170324D01*
X14357705Y-9169549D01*
X14355433Y-9169097D01*
X14353001Y-9167472D01*
X14350921Y-9166553D01*
X14349500Y-9165133D01*
X14347322Y-9163678D01*
X14345867Y-9161500D01*
X14344446Y-9160079D01*
X14343528Y-9157999D01*
X14341903Y-9155567D01*
X14341451Y-9153295D01*
X14340676Y-9151541D01*
X14340080Y-9146405D01*
X14340000Y-9146000D01*
X14340000Y-9116000D01*
X14340080Y-9115595D01*
X14340676Y-9110459D01*
X14341451Y-9108704D01*
X14341903Y-9106433D01*
X14343528Y-9104001D01*
X14344446Y-9101921D01*
X14345867Y-9100500D01*
X14347322Y-9098322D01*
X14349500Y-9096867D01*
X14350921Y-9095447D01*
X14353001Y-9094528D01*
X14355433Y-9092903D01*
X14357704Y-9092451D01*
X14359459Y-9091676D01*
X14364595Y-9091081D01*
X14365000Y-9091000D01*
X14530000Y-9091000D01*
X14530405Y-9091081D01*
G37*
G36*
X12027577Y-8883091D02*
G01*
X12044783Y-8890218D01*
X12060267Y-8900564D01*
X12073436Y-8913733D01*
X12083782Y-8929217D01*
X12090909Y-8946423D01*
X12094542Y-8964688D01*
X12094542Y-8983312D01*
X12090909Y-9001577D01*
X12083782Y-9018783D01*
X12073436Y-9034267D01*
X12060267Y-9047436D01*
X12044783Y-9057783D01*
X12027577Y-9064909D01*
X12009312Y-9068543D01*
X11990688Y-9068543D01*
X11972423Y-9064909D01*
X11955217Y-9057783D01*
X11939733Y-9047436D01*
X11926564Y-9034267D01*
X11916217Y-9018783D01*
X11909091Y-9001577D01*
X11905457Y-8983312D01*
X11905457Y-8964688D01*
X11909091Y-8946423D01*
X11916217Y-8929217D01*
X11926564Y-8913733D01*
X11939733Y-8900564D01*
X11955217Y-8890218D01*
X11972423Y-8883091D01*
X11990688Y-8879458D01*
X12009312Y-8879458D01*
X12027577Y-8883091D01*
G37*
G36*
X16027577Y-8883091D02*
G01*
X16044783Y-8890218D01*
X16060267Y-8900564D01*
X16073436Y-8913733D01*
X16083782Y-8929217D01*
X16090909Y-8946423D01*
X16094542Y-8964688D01*
X16094542Y-8983312D01*
X16090909Y-9001577D01*
X16083782Y-9018783D01*
X16073436Y-9034267D01*
X16060267Y-9047436D01*
X16044783Y-9057783D01*
X16027577Y-9064909D01*
X16009312Y-9068543D01*
X15990688Y-9068543D01*
X15972423Y-9064909D01*
X15955217Y-9057783D01*
X15939733Y-9047436D01*
X15926564Y-9034267D01*
X15916217Y-9018783D01*
X15909091Y-9001577D01*
X15905457Y-8983312D01*
X15905457Y-8964688D01*
X15909091Y-8946423D01*
X15916217Y-8929217D01*
X15926564Y-8913733D01*
X15939733Y-8900564D01*
X15955217Y-8890218D01*
X15972423Y-8883091D01*
X15990688Y-8879458D01*
X16009312Y-8879458D01*
X16027577Y-8883091D01*
G37*
G36*
X14035405Y-8964081D02*
G01*
X14040541Y-8964676D01*
X14042295Y-8965451D01*
X14044567Y-8965903D01*
X14046999Y-8967528D01*
X14049079Y-8968447D01*
X14050500Y-8969867D01*
X14052678Y-8971322D01*
X14054133Y-8973500D01*
X14055553Y-8974921D01*
X14056472Y-8977001D01*
X14058097Y-8979433D01*
X14058549Y-8981705D01*
X14059323Y-8983459D01*
X14059919Y-8988594D01*
X14060000Y-8989000D01*
X14060000Y-9019000D01*
X14059919Y-9019406D01*
X14059323Y-9024541D01*
X14058549Y-9026295D01*
X14058097Y-9028567D01*
X14056472Y-9031000D01*
X14055553Y-9033079D01*
X14054133Y-9034500D01*
X14052678Y-9036678D01*
X14050500Y-9038133D01*
X14049079Y-9039553D01*
X14046999Y-9040472D01*
X14044567Y-9042097D01*
X14042295Y-9042549D01*
X14040541Y-9043324D01*
X14035406Y-9043919D01*
X14035000Y-9044000D01*
X13870000Y-9044000D01*
X13869594Y-9043919D01*
X13864459Y-9043324D01*
X13862705Y-9042549D01*
X13860433Y-9042097D01*
X13858001Y-9040472D01*
X13855921Y-9039553D01*
X13854500Y-9038133D01*
X13852322Y-9036678D01*
X13850867Y-9034500D01*
X13849446Y-9033079D01*
X13848528Y-9030999D01*
X13846903Y-9028567D01*
X13846451Y-9026295D01*
X13845676Y-9024541D01*
X13845080Y-9019405D01*
X13845000Y-9019000D01*
X13845000Y-8989000D01*
X13845080Y-8988595D01*
X13845676Y-8983459D01*
X13846451Y-8981704D01*
X13846903Y-8979433D01*
X13848528Y-8977001D01*
X13849446Y-8974921D01*
X13850867Y-8973500D01*
X13852322Y-8971322D01*
X13854500Y-8969867D01*
X13855921Y-8968447D01*
X13858001Y-8967528D01*
X13860433Y-8965903D01*
X13862704Y-8965451D01*
X13864459Y-8964676D01*
X13869595Y-8964081D01*
X13870000Y-8964000D01*
X14035000Y-8964000D01*
X14035405Y-8964081D01*
G37*
G36*
X14530405Y-8964081D02*
G01*
X14535541Y-8964676D01*
X14537295Y-8965451D01*
X14539567Y-8965903D01*
X14541999Y-8967528D01*
X14544079Y-8968447D01*
X14545500Y-8969867D01*
X14547678Y-8971322D01*
X14549133Y-8973500D01*
X14550553Y-8974921D01*
X14551472Y-8977001D01*
X14553097Y-8979433D01*
X14553549Y-8981705D01*
X14554323Y-8983459D01*
X14554919Y-8988594D01*
X14555000Y-8989000D01*
X14555000Y-9019000D01*
X14554919Y-9019406D01*
X14554323Y-9024541D01*
X14553549Y-9026295D01*
X14553097Y-9028567D01*
X14551472Y-9031000D01*
X14550553Y-9033079D01*
X14549133Y-9034500D01*
X14547678Y-9036678D01*
X14545500Y-9038133D01*
X14544079Y-9039553D01*
X14541999Y-9040472D01*
X14539567Y-9042097D01*
X14537295Y-9042549D01*
X14535541Y-9043324D01*
X14530406Y-9043919D01*
X14530000Y-9044000D01*
X14365000Y-9044000D01*
X14364594Y-9043919D01*
X14359459Y-9043324D01*
X14357705Y-9042549D01*
X14355433Y-9042097D01*
X14353001Y-9040472D01*
X14350921Y-9039553D01*
X14349500Y-9038133D01*
X14347322Y-9036678D01*
X14345867Y-9034500D01*
X14344446Y-9033079D01*
X14343528Y-9030999D01*
X14341903Y-9028567D01*
X14341451Y-9026295D01*
X14340676Y-9024541D01*
X14340080Y-9019405D01*
X14340000Y-9019000D01*
X14340000Y-8989000D01*
X14340080Y-8988595D01*
X14340676Y-8983459D01*
X14341451Y-8981704D01*
X14341903Y-8979433D01*
X14343528Y-8977001D01*
X14344446Y-8974921D01*
X14345867Y-8973500D01*
X14347322Y-8971322D01*
X14349500Y-8969867D01*
X14350921Y-8968447D01*
X14353001Y-8967528D01*
X14355433Y-8965903D01*
X14357704Y-8965451D01*
X14359459Y-8964676D01*
X14364595Y-8964081D01*
X14365000Y-8964000D01*
X14530000Y-8964000D01*
X14530405Y-8964081D01*
G37*
G36*
X14035405Y-8837081D02*
G01*
X14040541Y-8837676D01*
X14042295Y-8838451D01*
X14044567Y-8838903D01*
X14046999Y-8840528D01*
X14049079Y-8841447D01*
X14050500Y-8842867D01*
X14052678Y-8844322D01*
X14054133Y-8846500D01*
X14055553Y-8847921D01*
X14056472Y-8850001D01*
X14058097Y-8852433D01*
X14058549Y-8854705D01*
X14059323Y-8856459D01*
X14059919Y-8861594D01*
X14060000Y-8862000D01*
X14060000Y-8892000D01*
X14059919Y-8892406D01*
X14059323Y-8897541D01*
X14058549Y-8899295D01*
X14058097Y-8901567D01*
X14056472Y-8904000D01*
X14055553Y-8906079D01*
X14054133Y-8907500D01*
X14052678Y-8909678D01*
X14050500Y-8911133D01*
X14049079Y-8912553D01*
X14046999Y-8913472D01*
X14044567Y-8915097D01*
X14042295Y-8915549D01*
X14040541Y-8916324D01*
X14035406Y-8916919D01*
X14035000Y-8917000D01*
X13870000Y-8917000D01*
X13869594Y-8916919D01*
X13864459Y-8916324D01*
X13862705Y-8915549D01*
X13860433Y-8915097D01*
X13858001Y-8913472D01*
X13855921Y-8912553D01*
X13854500Y-8911133D01*
X13852322Y-8909678D01*
X13850867Y-8907500D01*
X13849446Y-8906079D01*
X13848528Y-8903999D01*
X13846903Y-8901567D01*
X13846451Y-8899295D01*
X13845676Y-8897541D01*
X13845080Y-8892405D01*
X13845000Y-8892000D01*
X13845000Y-8862000D01*
X13845080Y-8861595D01*
X13845676Y-8856459D01*
X13846451Y-8854704D01*
X13846903Y-8852433D01*
X13848528Y-8850001D01*
X13849446Y-8847921D01*
X13850867Y-8846500D01*
X13852322Y-8844322D01*
X13854500Y-8842867D01*
X13855921Y-8841447D01*
X13858001Y-8840528D01*
X13860433Y-8838903D01*
X13862704Y-8838451D01*
X13864459Y-8837676D01*
X13869595Y-8837081D01*
X13870000Y-8837000D01*
X14035000Y-8837000D01*
X14035405Y-8837081D01*
G37*
G36*
X14530405Y-8837081D02*
G01*
X14535541Y-8837676D01*
X14537295Y-8838451D01*
X14539567Y-8838903D01*
X14541999Y-8840528D01*
X14544079Y-8841447D01*
X14545500Y-8842867D01*
X14547678Y-8844322D01*
X14549133Y-8846500D01*
X14550553Y-8847921D01*
X14551472Y-8850001D01*
X14553097Y-8852433D01*
X14553549Y-8854705D01*
X14554323Y-8856459D01*
X14554919Y-8861594D01*
X14555000Y-8862000D01*
X14555000Y-8892000D01*
X14554919Y-8892406D01*
X14554323Y-8897541D01*
X14553549Y-8899295D01*
X14553097Y-8901567D01*
X14551472Y-8904000D01*
X14550553Y-8906079D01*
X14549133Y-8907500D01*
X14547678Y-8909678D01*
X14545500Y-8911133D01*
X14544079Y-8912553D01*
X14541999Y-8913472D01*
X14539567Y-8915097D01*
X14537295Y-8915549D01*
X14535541Y-8916324D01*
X14530406Y-8916919D01*
X14530000Y-8917000D01*
X14365000Y-8917000D01*
X14364594Y-8916919D01*
X14359459Y-8916324D01*
X14357705Y-8915549D01*
X14355433Y-8915097D01*
X14353001Y-8913472D01*
X14350921Y-8912553D01*
X14349500Y-8911133D01*
X14347322Y-8909678D01*
X14345867Y-8907500D01*
X14344446Y-8906079D01*
X14343528Y-8903999D01*
X14341903Y-8901567D01*
X14341451Y-8899295D01*
X14340676Y-8897541D01*
X14340080Y-8892405D01*
X14340000Y-8892000D01*
X14340000Y-8862000D01*
X14340080Y-8861595D01*
X14340676Y-8856459D01*
X14341451Y-8854704D01*
X14341903Y-8852433D01*
X14343528Y-8850001D01*
X14344446Y-8847921D01*
X14345867Y-8846500D01*
X14347322Y-8844322D01*
X14349500Y-8842867D01*
X14350921Y-8841447D01*
X14353001Y-8840528D01*
X14355433Y-8838903D01*
X14357704Y-8838451D01*
X14359459Y-8837676D01*
X14364595Y-8837081D01*
X14365000Y-8837000D01*
X14530000Y-8837000D01*
X14530405Y-8837081D01*
G37*
G36*
X12027577Y-8629091D02*
G01*
X12044783Y-8636218D01*
X12060267Y-8646564D01*
X12073436Y-8659733D01*
X12083782Y-8675217D01*
X12090909Y-8692423D01*
X12094542Y-8710688D01*
X12094542Y-8729312D01*
X12090909Y-8747577D01*
X12083782Y-8764783D01*
X12073436Y-8780267D01*
X12060267Y-8793436D01*
X12044783Y-8803783D01*
X12027577Y-8810909D01*
X12009312Y-8814543D01*
X11990688Y-8814543D01*
X11972423Y-8810909D01*
X11955217Y-8803783D01*
X11939733Y-8793436D01*
X11926564Y-8780267D01*
X11916217Y-8764783D01*
X11909091Y-8747577D01*
X11905457Y-8729312D01*
X11905457Y-8710688D01*
X11909091Y-8692423D01*
X11916217Y-8675217D01*
X11926564Y-8659733D01*
X11939733Y-8646564D01*
X11955217Y-8636218D01*
X11972423Y-8629091D01*
X11990688Y-8625458D01*
X12009312Y-8625458D01*
X12027577Y-8629091D01*
G37*
G36*
X16027577Y-8629091D02*
G01*
X16044783Y-8636218D01*
X16060267Y-8646564D01*
X16073436Y-8659733D01*
X16083782Y-8675217D01*
X16090909Y-8692423D01*
X16094542Y-8710688D01*
X16094542Y-8729312D01*
X16090909Y-8747577D01*
X16083782Y-8764783D01*
X16073436Y-8780267D01*
X16060267Y-8793436D01*
X16044783Y-8803783D01*
X16027577Y-8810909D01*
X16009312Y-8814543D01*
X15990688Y-8814543D01*
X15972423Y-8810909D01*
X15955217Y-8803783D01*
X15939733Y-8793436D01*
X15926564Y-8780267D01*
X15916217Y-8764783D01*
X15909091Y-8747577D01*
X15905457Y-8729312D01*
X15905457Y-8710688D01*
X15909091Y-8692423D01*
X15916217Y-8675217D01*
X15926564Y-8659733D01*
X15939733Y-8646564D01*
X15955217Y-8636218D01*
X15972423Y-8629091D01*
X15990688Y-8625458D01*
X16009312Y-8625458D01*
X16027577Y-8629091D01*
G37*
G36*
X14035405Y-8710081D02*
G01*
X14040541Y-8710676D01*
X14042295Y-8711451D01*
X14044567Y-8711903D01*
X14046999Y-8713528D01*
X14049079Y-8714447D01*
X14050500Y-8715867D01*
X14052678Y-8717322D01*
X14054133Y-8719500D01*
X14055553Y-8720921D01*
X14056472Y-8723001D01*
X14058097Y-8725433D01*
X14058549Y-8727705D01*
X14059323Y-8729459D01*
X14059919Y-8734594D01*
X14060000Y-8735000D01*
X14060000Y-8765000D01*
X14059919Y-8765406D01*
X14059323Y-8770541D01*
X14058549Y-8772295D01*
X14058097Y-8774567D01*
X14056472Y-8777000D01*
X14055553Y-8779079D01*
X14054133Y-8780500D01*
X14052678Y-8782678D01*
X14050500Y-8784133D01*
X14049079Y-8785553D01*
X14046999Y-8786472D01*
X14044567Y-8788097D01*
X14042295Y-8788549D01*
X14040541Y-8789324D01*
X14035406Y-8789919D01*
X14035000Y-8790000D01*
X13870000Y-8790000D01*
X13869594Y-8789919D01*
X13864459Y-8789324D01*
X13862705Y-8788549D01*
X13860433Y-8788097D01*
X13858001Y-8786472D01*
X13855921Y-8785553D01*
X13854500Y-8784133D01*
X13852322Y-8782678D01*
X13850867Y-8780500D01*
X13849446Y-8779079D01*
X13848528Y-8776999D01*
X13846903Y-8774567D01*
X13846451Y-8772295D01*
X13845676Y-8770541D01*
X13845080Y-8765405D01*
X13845000Y-8765000D01*
X13845000Y-8735000D01*
X13845080Y-8734595D01*
X13845676Y-8729459D01*
X13846451Y-8727704D01*
X13846903Y-8725433D01*
X13848528Y-8723001D01*
X13849446Y-8720921D01*
X13850867Y-8719500D01*
X13852322Y-8717322D01*
X13854500Y-8715867D01*
X13855921Y-8714447D01*
X13858001Y-8713528D01*
X13860433Y-8711903D01*
X13862704Y-8711451D01*
X13864459Y-8710676D01*
X13869595Y-8710081D01*
X13870000Y-8710000D01*
X14035000Y-8710000D01*
X14035405Y-8710081D01*
G37*
G36*
X14530405Y-8710081D02*
G01*
X14535541Y-8710676D01*
X14537295Y-8711451D01*
X14539567Y-8711903D01*
X14541999Y-8713528D01*
X14544079Y-8714447D01*
X14545500Y-8715867D01*
X14547678Y-8717322D01*
X14549133Y-8719500D01*
X14550553Y-8720921D01*
X14551472Y-8723001D01*
X14553097Y-8725433D01*
X14553549Y-8727705D01*
X14554323Y-8729459D01*
X14554919Y-8734594D01*
X14555000Y-8735000D01*
X14555000Y-8765000D01*
X14554919Y-8765406D01*
X14554323Y-8770541D01*
X14553549Y-8772295D01*
X14553097Y-8774567D01*
X14551472Y-8777000D01*
X14550553Y-8779079D01*
X14549133Y-8780500D01*
X14547678Y-8782678D01*
X14545500Y-8784133D01*
X14544079Y-8785553D01*
X14541999Y-8786472D01*
X14539567Y-8788097D01*
X14537295Y-8788549D01*
X14535541Y-8789324D01*
X14530406Y-8789919D01*
X14530000Y-8790000D01*
X14365000Y-8790000D01*
X14364594Y-8789919D01*
X14359459Y-8789324D01*
X14357705Y-8788549D01*
X14355433Y-8788097D01*
X14353001Y-8786472D01*
X14350921Y-8785553D01*
X14349500Y-8784133D01*
X14347322Y-8782678D01*
X14345867Y-8780500D01*
X14344446Y-8779079D01*
X14343528Y-8776999D01*
X14341903Y-8774567D01*
X14341451Y-8772295D01*
X14340676Y-8770541D01*
X14340080Y-8765405D01*
X14340000Y-8765000D01*
X14340000Y-8735000D01*
X14340080Y-8734595D01*
X14340676Y-8729459D01*
X14341451Y-8727704D01*
X14341903Y-8725433D01*
X14343528Y-8723001D01*
X14344446Y-8720921D01*
X14345867Y-8719500D01*
X14347322Y-8717322D01*
X14349500Y-8715867D01*
X14350921Y-8714447D01*
X14353001Y-8713528D01*
X14355433Y-8711903D01*
X14357704Y-8711451D01*
X14359459Y-8710676D01*
X14364595Y-8710081D01*
X14365000Y-8710000D01*
X14530000Y-8710000D01*
X14530405Y-8710081D01*
G37*
G36*
X14035405Y-8583081D02*
G01*
X14040541Y-8583676D01*
X14042295Y-8584451D01*
X14044567Y-8584903D01*
X14046999Y-8586528D01*
X14049079Y-8587447D01*
X14050500Y-8588867D01*
X14052678Y-8590322D01*
X14054133Y-8592500D01*
X14055553Y-8593921D01*
X14056472Y-8596001D01*
X14058097Y-8598433D01*
X14058549Y-8600705D01*
X14059323Y-8602459D01*
X14059919Y-8607594D01*
X14060000Y-8608000D01*
X14060000Y-8638000D01*
X14059919Y-8638406D01*
X14059323Y-8643541D01*
X14058549Y-8645295D01*
X14058097Y-8647567D01*
X14056472Y-8650000D01*
X14055553Y-8652079D01*
X14054133Y-8653500D01*
X14052678Y-8655678D01*
X14050500Y-8657133D01*
X14049079Y-8658553D01*
X14046999Y-8659472D01*
X14044567Y-8661097D01*
X14042295Y-8661549D01*
X14040541Y-8662324D01*
X14035406Y-8662919D01*
X14035000Y-8663000D01*
X13870000Y-8663000D01*
X13869594Y-8662919D01*
X13864459Y-8662324D01*
X13862705Y-8661549D01*
X13860433Y-8661097D01*
X13858001Y-8659472D01*
X13855921Y-8658553D01*
X13854500Y-8657133D01*
X13852322Y-8655678D01*
X13850867Y-8653500D01*
X13849446Y-8652079D01*
X13848528Y-8649999D01*
X13846903Y-8647567D01*
X13846451Y-8645295D01*
X13845676Y-8643541D01*
X13845080Y-8638405D01*
X13845000Y-8638000D01*
X13845000Y-8608000D01*
X13845080Y-8607595D01*
X13845676Y-8602459D01*
X13846451Y-8600704D01*
X13846903Y-8598433D01*
X13848528Y-8596001D01*
X13849446Y-8593921D01*
X13850867Y-8592500D01*
X13852322Y-8590322D01*
X13854500Y-8588867D01*
X13855921Y-8587447D01*
X13858001Y-8586528D01*
X13860433Y-8584903D01*
X13862704Y-8584451D01*
X13864459Y-8583676D01*
X13869595Y-8583081D01*
X13870000Y-8583000D01*
X14035000Y-8583000D01*
X14035405Y-8583081D01*
G37*
G36*
X14530405Y-8583081D02*
G01*
X14535541Y-8583676D01*
X14537295Y-8584451D01*
X14539567Y-8584903D01*
X14541999Y-8586528D01*
X14544079Y-8587447D01*
X14545500Y-8588867D01*
X14547678Y-8590322D01*
X14549133Y-8592500D01*
X14550553Y-8593921D01*
X14551472Y-8596001D01*
X14553097Y-8598433D01*
X14553549Y-8600705D01*
X14554323Y-8602459D01*
X14554919Y-8607594D01*
X14555000Y-8608000D01*
X14555000Y-8638000D01*
X14554919Y-8638406D01*
X14554323Y-8643541D01*
X14553549Y-8645295D01*
X14553097Y-8647567D01*
X14551472Y-8650000D01*
X14550553Y-8652079D01*
X14549133Y-8653500D01*
X14547678Y-8655678D01*
X14545500Y-8657133D01*
X14544079Y-8658553D01*
X14541999Y-8659472D01*
X14539567Y-8661097D01*
X14537295Y-8661549D01*
X14535541Y-8662324D01*
X14530406Y-8662919D01*
X14530000Y-8663000D01*
X14365000Y-8663000D01*
X14364594Y-8662919D01*
X14359459Y-8662324D01*
X14357705Y-8661549D01*
X14355433Y-8661097D01*
X14353001Y-8659472D01*
X14350921Y-8658553D01*
X14349500Y-8657133D01*
X14347322Y-8655678D01*
X14345867Y-8653500D01*
X14344446Y-8652079D01*
X14343528Y-8649999D01*
X14341903Y-8647567D01*
X14341451Y-8645295D01*
X14340676Y-8643541D01*
X14340080Y-8638405D01*
X14340000Y-8638000D01*
X14340000Y-8608000D01*
X14340080Y-8607595D01*
X14340676Y-8602459D01*
X14341451Y-8600704D01*
X14341903Y-8598433D01*
X14343528Y-8596001D01*
X14344446Y-8593921D01*
X14345867Y-8592500D01*
X14347322Y-8590322D01*
X14349500Y-8588867D01*
X14350921Y-8587447D01*
X14353001Y-8586528D01*
X14355433Y-8584903D01*
X14357704Y-8584451D01*
X14359459Y-8583676D01*
X14364595Y-8583081D01*
X14365000Y-8583000D01*
X14530000Y-8583000D01*
X14530405Y-8583081D01*
G37*
G36*
X14035405Y-8456081D02*
G01*
X14040541Y-8456676D01*
X14042295Y-8457451D01*
X14044567Y-8457903D01*
X14046999Y-8459528D01*
X14049079Y-8460447D01*
X14050500Y-8461867D01*
X14052678Y-8463322D01*
X14054133Y-8465500D01*
X14055553Y-8466921D01*
X14056472Y-8469001D01*
X14058097Y-8471433D01*
X14058549Y-8473705D01*
X14059323Y-8475459D01*
X14059919Y-8480594D01*
X14060000Y-8481000D01*
X14060000Y-8511000D01*
X14059919Y-8511406D01*
X14059323Y-8516541D01*
X14058549Y-8518295D01*
X14058097Y-8520567D01*
X14056472Y-8523000D01*
X14055553Y-8525079D01*
X14054133Y-8526500D01*
X14052678Y-8528678D01*
X14050500Y-8530133D01*
X14049079Y-8531553D01*
X14046999Y-8532472D01*
X14044567Y-8534097D01*
X14042295Y-8534549D01*
X14040541Y-8535324D01*
X14035406Y-8535919D01*
X14035000Y-8536000D01*
X13870000Y-8536000D01*
X13869594Y-8535919D01*
X13864459Y-8535324D01*
X13862705Y-8534549D01*
X13860433Y-8534097D01*
X13858001Y-8532472D01*
X13855921Y-8531553D01*
X13854500Y-8530133D01*
X13852322Y-8528678D01*
X13850867Y-8526500D01*
X13849446Y-8525079D01*
X13848528Y-8522999D01*
X13846903Y-8520567D01*
X13846451Y-8518295D01*
X13845676Y-8516541D01*
X13845080Y-8511405D01*
X13845000Y-8511000D01*
X13845000Y-8481000D01*
X13845080Y-8480595D01*
X13845676Y-8475459D01*
X13846451Y-8473704D01*
X13846903Y-8471433D01*
X13848528Y-8469001D01*
X13849446Y-8466921D01*
X13850867Y-8465500D01*
X13852322Y-8463322D01*
X13854500Y-8461867D01*
X13855921Y-8460447D01*
X13858001Y-8459528D01*
X13860433Y-8457903D01*
X13862704Y-8457451D01*
X13864459Y-8456676D01*
X13869595Y-8456081D01*
X13870000Y-8456000D01*
X14035000Y-8456000D01*
X14035405Y-8456081D01*
G37*
G36*
X14530405Y-8456081D02*
G01*
X14535541Y-8456676D01*
X14537295Y-8457451D01*
X14539567Y-8457903D01*
X14541999Y-8459528D01*
X14544079Y-8460447D01*
X14545500Y-8461867D01*
X14547678Y-8463322D01*
X14549133Y-8465500D01*
X14550553Y-8466921D01*
X14551472Y-8469001D01*
X14553097Y-8471433D01*
X14553549Y-8473705D01*
X14554323Y-8475459D01*
X14554919Y-8480594D01*
X14555000Y-8481000D01*
X14555000Y-8511000D01*
X14554919Y-8511406D01*
X14554323Y-8516541D01*
X14553549Y-8518295D01*
X14553097Y-8520567D01*
X14551472Y-8523000D01*
X14550553Y-8525079D01*
X14549133Y-8526500D01*
X14547678Y-8528678D01*
X14545500Y-8530133D01*
X14544079Y-8531553D01*
X14541999Y-8532472D01*
X14539567Y-8534097D01*
X14537295Y-8534549D01*
X14535541Y-8535324D01*
X14530406Y-8535919D01*
X14530000Y-8536000D01*
X14365000Y-8536000D01*
X14364594Y-8535919D01*
X14359459Y-8535324D01*
X14357705Y-8534549D01*
X14355433Y-8534097D01*
X14353001Y-8532472D01*
X14350921Y-8531553D01*
X14349500Y-8530133D01*
X14347322Y-8528678D01*
X14345867Y-8526500D01*
X14344446Y-8525079D01*
X14343528Y-8522999D01*
X14341903Y-8520567D01*
X14341451Y-8518295D01*
X14340676Y-8516541D01*
X14340080Y-8511405D01*
X14340000Y-8511000D01*
X14340000Y-8481000D01*
X14340080Y-8480595D01*
X14340676Y-8475459D01*
X14341451Y-8473704D01*
X14341903Y-8471433D01*
X14343528Y-8469001D01*
X14344446Y-8466921D01*
X14345867Y-8465500D01*
X14347322Y-8463322D01*
X14349500Y-8461867D01*
X14350921Y-8460447D01*
X14353001Y-8459528D01*
X14355433Y-8457903D01*
X14357704Y-8457451D01*
X14359459Y-8456676D01*
X14364595Y-8456081D01*
X14365000Y-8456000D01*
X14530000Y-8456000D01*
X14530405Y-8456081D01*
G37*
G36*
X14035405Y-8329080D02*
G01*
X14040541Y-8329676D01*
X14042295Y-8330451D01*
X14044567Y-8330903D01*
X14046999Y-8332528D01*
X14049079Y-8333446D01*
X14050500Y-8334867D01*
X14052678Y-8336322D01*
X14054133Y-8338500D01*
X14055553Y-8339921D01*
X14056472Y-8342001D01*
X14058097Y-8344433D01*
X14058549Y-8346705D01*
X14059323Y-8348459D01*
X14059919Y-8353594D01*
X14060000Y-8354000D01*
X14060000Y-8384000D01*
X14059919Y-8384406D01*
X14059323Y-8389541D01*
X14058549Y-8391295D01*
X14058097Y-8393567D01*
X14056472Y-8396000D01*
X14055553Y-8398079D01*
X14054133Y-8399500D01*
X14052678Y-8401678D01*
X14050500Y-8403133D01*
X14049079Y-8404553D01*
X14046999Y-8405472D01*
X14044567Y-8407097D01*
X14042295Y-8407549D01*
X14040541Y-8408324D01*
X14035406Y-8408919D01*
X14035000Y-8409000D01*
X13870000Y-8409000D01*
X13869594Y-8408919D01*
X13864459Y-8408324D01*
X13862705Y-8407549D01*
X13860433Y-8407097D01*
X13858001Y-8405472D01*
X13855921Y-8404553D01*
X13854500Y-8403133D01*
X13852322Y-8401678D01*
X13850867Y-8399500D01*
X13849446Y-8398079D01*
X13848528Y-8395999D01*
X13846903Y-8393567D01*
X13846451Y-8391295D01*
X13845676Y-8389541D01*
X13845080Y-8384405D01*
X13845000Y-8384000D01*
X13845000Y-8354000D01*
X13845080Y-8353595D01*
X13845676Y-8348459D01*
X13846451Y-8346704D01*
X13846903Y-8344433D01*
X13848528Y-8342001D01*
X13849446Y-8339921D01*
X13850867Y-8338500D01*
X13852322Y-8336322D01*
X13854500Y-8334867D01*
X13855921Y-8333446D01*
X13858001Y-8332528D01*
X13860433Y-8330903D01*
X13862704Y-8330451D01*
X13864459Y-8329676D01*
X13869595Y-8329080D01*
X13870000Y-8329000D01*
X14035000Y-8329000D01*
X14035405Y-8329080D01*
G37*
G36*
X14530405Y-8329080D02*
G01*
X14535541Y-8329676D01*
X14537295Y-8330451D01*
X14539567Y-8330903D01*
X14541999Y-8332528D01*
X14544079Y-8333446D01*
X14545500Y-8334867D01*
X14547678Y-8336322D01*
X14549133Y-8338500D01*
X14550553Y-8339921D01*
X14551472Y-8342001D01*
X14553097Y-8344433D01*
X14553549Y-8346705D01*
X14554323Y-8348459D01*
X14554919Y-8353594D01*
X14555000Y-8354000D01*
X14555000Y-8384000D01*
X14554919Y-8384406D01*
X14554323Y-8389541D01*
X14553549Y-8391295D01*
X14553097Y-8393567D01*
X14551472Y-8396000D01*
X14550553Y-8398079D01*
X14549133Y-8399500D01*
X14547678Y-8401678D01*
X14545500Y-8403133D01*
X14544079Y-8404553D01*
X14541999Y-8405472D01*
X14539567Y-8407097D01*
X14537295Y-8407549D01*
X14535541Y-8408324D01*
X14530406Y-8408919D01*
X14530000Y-8409000D01*
X14365000Y-8409000D01*
X14364594Y-8408919D01*
X14359459Y-8408324D01*
X14357705Y-8407549D01*
X14355433Y-8407097D01*
X14353001Y-8405472D01*
X14350921Y-8404553D01*
X14349500Y-8403133D01*
X14347322Y-8401678D01*
X14345867Y-8399500D01*
X14344446Y-8398079D01*
X14343528Y-8395999D01*
X14341903Y-8393567D01*
X14341451Y-8391295D01*
X14340676Y-8389541D01*
X14340080Y-8384405D01*
X14340000Y-8384000D01*
X14340000Y-8354000D01*
X14340080Y-8353595D01*
X14340676Y-8348459D01*
X14341451Y-8346704D01*
X14341903Y-8344433D01*
X14343528Y-8342001D01*
X14344446Y-8339921D01*
X14345867Y-8338500D01*
X14347322Y-8336322D01*
X14349500Y-8334867D01*
X14350921Y-8333446D01*
X14353001Y-8332528D01*
X14355433Y-8330903D01*
X14357704Y-8330451D01*
X14359459Y-8329676D01*
X14364595Y-8329080D01*
X14365000Y-8329000D01*
X14530000Y-8329000D01*
X14530405Y-8329080D01*
G37*
G36*
X13659327Y-8293761D02*
G01*
X13662571Y-8295929D01*
X13664739Y-8299173D01*
X13665500Y-8303000D01*
X13665500Y-8397000D01*
X13664739Y-8400827D01*
X13662571Y-8404071D01*
X13659327Y-8406239D01*
X13655500Y-8407000D01*
X13572500Y-8407000D01*
X13568673Y-8406239D01*
X13565429Y-8404071D01*
X13563261Y-8400827D01*
X13562500Y-8397000D01*
X13562500Y-8303000D01*
X13563261Y-8299173D01*
X13565429Y-8295929D01*
X13568673Y-8293761D01*
X13572500Y-8293000D01*
X13655500Y-8293000D01*
X13659327Y-8293761D01*
G37*
G36*
X13791327Y-8293761D02*
G01*
X13794571Y-8295929D01*
X13796739Y-8299173D01*
X13797500Y-8303000D01*
X13797500Y-8397000D01*
X13796739Y-8400827D01*
X13794571Y-8404071D01*
X13791327Y-8406239D01*
X13787500Y-8407000D01*
X13704500Y-8407000D01*
X13700673Y-8406239D01*
X13697429Y-8404071D01*
X13695261Y-8400827D01*
X13694500Y-8397000D01*
X13694500Y-8303000D01*
X13695261Y-8299173D01*
X13697429Y-8295929D01*
X13700673Y-8293761D01*
X13704500Y-8293000D01*
X13787500Y-8293000D01*
X13791327Y-8293761D01*
G37*
G36*
X13537327Y-8049761D02*
G01*
X13540571Y-8051929D01*
X13542739Y-8055173D01*
X13543500Y-8059000D01*
X13543500Y-8241000D01*
X13542739Y-8244827D01*
X13540571Y-8248071D01*
X13537327Y-8250239D01*
X13533500Y-8251000D01*
X13428500Y-8251000D01*
X13424673Y-8250239D01*
X13421429Y-8248071D01*
X13419261Y-8244827D01*
X13418500Y-8241000D01*
X13418500Y-8059000D01*
X13419261Y-8055173D01*
X13421429Y-8051929D01*
X13424673Y-8049761D01*
X13428500Y-8049000D01*
X13533500Y-8049000D01*
X13537327Y-8049761D01*
G37*
G36*
X13815327Y-8049761D02*
G01*
X13818571Y-8051929D01*
X13820739Y-8055173D01*
X13821500Y-8059000D01*
X13821500Y-8241000D01*
X13820739Y-8244827D01*
X13818571Y-8248071D01*
X13815327Y-8250239D01*
X13811500Y-8251000D01*
X13706500Y-8251000D01*
X13702673Y-8250239D01*
X13699429Y-8248071D01*
X13697261Y-8244827D01*
X13696500Y-8241000D01*
X13696500Y-8059000D01*
X13697261Y-8055173D01*
X13699429Y-8051929D01*
X13702673Y-8049761D01*
X13706500Y-8049000D01*
X13811500Y-8049000D01*
X13815327Y-8049761D01*
G37*
G36*
X12446327Y-7805761D02*
G01*
X12449571Y-7807929D01*
X12451739Y-7811173D01*
X12452500Y-7815000D01*
X12452500Y-7915000D01*
X12451739Y-7918827D01*
X12449571Y-7922071D01*
X12446327Y-7924239D01*
X12442500Y-7925000D01*
X12297500Y-7925000D01*
X12293673Y-7924239D01*
X12290429Y-7922071D01*
X12288261Y-7918827D01*
X12287500Y-7915000D01*
X12287500Y-7815000D01*
X12288261Y-7811173D01*
X12290429Y-7807929D01*
X12293673Y-7805761D01*
X12297500Y-7805000D01*
X12442500Y-7805000D01*
X12446327Y-7805761D01*
G37*
G36*
X12886327Y-7805761D02*
G01*
X12889571Y-7807929D01*
X12891739Y-7811173D01*
X12892500Y-7815000D01*
X12892500Y-7915000D01*
X12891739Y-7918827D01*
X12889571Y-7922071D01*
X12886327Y-7924239D01*
X12882500Y-7925000D01*
X12737500Y-7925000D01*
X12733673Y-7924239D01*
X12730429Y-7922071D01*
X12728261Y-7918827D01*
X12727500Y-7915000D01*
X12727500Y-7815000D01*
X12728261Y-7811173D01*
X12730429Y-7807929D01*
X12733673Y-7805761D01*
X12737500Y-7805000D01*
X12882500Y-7805000D01*
X12886327Y-7805761D01*
G37*
G36*
X14508827Y-7708261D02*
G01*
X14512071Y-7710429D01*
X14514239Y-7713673D01*
X14515000Y-7717500D01*
X14515000Y-7862500D01*
X14514239Y-7866327D01*
X14512071Y-7869571D01*
X14508827Y-7871739D01*
X14505000Y-7872500D01*
X14405000Y-7872500D01*
X14401173Y-7871739D01*
X14397929Y-7869571D01*
X14395761Y-7866327D01*
X14395000Y-7862500D01*
X14395000Y-7717500D01*
X14395761Y-7713673D01*
X14397929Y-7710429D01*
X14401173Y-7708261D01*
X14405000Y-7707500D01*
X14505000Y-7707500D01*
X14508827Y-7708261D01*
G37*
G36*
X14698827Y-7708261D02*
G01*
X14702071Y-7710429D01*
X14704239Y-7713673D01*
X14705000Y-7717500D01*
X14705000Y-7862500D01*
X14704239Y-7866327D01*
X14702071Y-7869571D01*
X14698827Y-7871739D01*
X14695000Y-7872500D01*
X14595000Y-7872500D01*
X14591173Y-7871739D01*
X14587929Y-7869571D01*
X14585761Y-7866327D01*
X14585000Y-7862500D01*
X14585000Y-7717500D01*
X14585761Y-7713673D01*
X14587929Y-7710429D01*
X14591173Y-7708261D01*
X14595000Y-7707500D01*
X14695000Y-7707500D01*
X14698827Y-7708261D01*
G37*
G36*
X14958827Y-7708261D02*
G01*
X14962071Y-7710429D01*
X14964239Y-7713673D01*
X14965000Y-7717500D01*
X14965000Y-7862500D01*
X14964239Y-7866327D01*
X14962071Y-7869571D01*
X14958827Y-7871739D01*
X14955000Y-7872500D01*
X14855000Y-7872500D01*
X14851173Y-7871739D01*
X14847929Y-7869571D01*
X14845761Y-7866327D01*
X14845000Y-7862500D01*
X14845000Y-7717500D01*
X14845761Y-7713673D01*
X14847929Y-7710429D01*
X14851173Y-7708261D01*
X14855000Y-7707500D01*
X14955000Y-7707500D01*
X14958827Y-7708261D01*
G37*
G36*
X15148827Y-7708261D02*
G01*
X15152071Y-7710429D01*
X15154239Y-7713673D01*
X15155000Y-7717500D01*
X15155000Y-7862500D01*
X15154239Y-7866327D01*
X15152071Y-7869571D01*
X15148827Y-7871739D01*
X15145000Y-7872500D01*
X15045000Y-7872500D01*
X15041173Y-7871739D01*
X15037929Y-7869571D01*
X15035761Y-7866327D01*
X15035000Y-7862500D01*
X15035000Y-7717500D01*
X15035761Y-7713673D01*
X15037929Y-7710429D01*
X15041173Y-7708261D01*
X15045000Y-7707500D01*
X15145000Y-7707500D01*
X15148827Y-7708261D01*
G37*
G36*
X15753827Y-7620761D02*
G01*
X15757071Y-7622929D01*
X15759239Y-7626173D01*
X15760000Y-7630000D01*
X15760000Y-7765000D01*
X15759239Y-7768827D01*
X15757071Y-7772071D01*
X15753827Y-7774239D01*
X15750000Y-7775000D01*
X15550000Y-7775000D01*
X15546173Y-7774239D01*
X15542929Y-7772071D01*
X15540761Y-7768827D01*
X15540000Y-7765000D01*
X15540000Y-7630000D01*
X15540761Y-7626173D01*
X15542929Y-7622929D01*
X15546173Y-7620761D01*
X15550000Y-7620000D01*
X15750000Y-7620000D01*
X15753827Y-7620761D01*
G37*
G36*
X12446327Y-7615761D02*
G01*
X12449571Y-7617929D01*
X12451739Y-7621173D01*
X12452500Y-7625000D01*
X12452500Y-7725000D01*
X12451739Y-7728827D01*
X12449571Y-7732071D01*
X12446327Y-7734239D01*
X12442500Y-7735000D01*
X12297500Y-7735000D01*
X12293673Y-7734239D01*
X12290429Y-7732071D01*
X12288261Y-7728827D01*
X12287500Y-7725000D01*
X12287500Y-7625000D01*
X12288261Y-7621173D01*
X12290429Y-7617929D01*
X12293673Y-7615761D01*
X12297500Y-7615000D01*
X12442500Y-7615000D01*
X12446327Y-7615761D01*
G37*
G36*
X12886327Y-7615761D02*
G01*
X12889571Y-7617929D01*
X12891739Y-7621173D01*
X12892500Y-7625000D01*
X12892500Y-7725000D01*
X12891739Y-7728827D01*
X12889571Y-7732071D01*
X12886327Y-7734239D01*
X12882500Y-7735000D01*
X12737500Y-7735000D01*
X12733673Y-7734239D01*
X12730429Y-7732071D01*
X12728261Y-7728827D01*
X12727500Y-7725000D01*
X12727500Y-7625000D01*
X12728261Y-7621173D01*
X12730429Y-7617929D01*
X12733673Y-7615761D01*
X12737500Y-7615000D01*
X12882500Y-7615000D01*
X12886327Y-7615761D01*
G37*
G36*
X15380827Y-7495261D02*
G01*
X15384071Y-7497429D01*
X15386239Y-7500673D01*
X15387000Y-7504500D01*
X15387000Y-7587500D01*
X15386239Y-7591327D01*
X15384071Y-7594571D01*
X15380827Y-7596739D01*
X15377000Y-7597500D01*
X15283000Y-7597500D01*
X15279173Y-7596739D01*
X15275929Y-7594571D01*
X15273761Y-7591327D01*
X15273000Y-7587500D01*
X15273000Y-7504500D01*
X15273761Y-7500673D01*
X15275929Y-7497429D01*
X15279173Y-7495261D01*
X15283000Y-7494500D01*
X15377000Y-7494500D01*
X15380827Y-7495261D01*
G37*
G36*
X15380827Y-7363261D02*
G01*
X15384071Y-7365429D01*
X15386239Y-7368673D01*
X15387000Y-7372500D01*
X15387000Y-7455500D01*
X15386239Y-7459327D01*
X15384071Y-7462571D01*
X15380827Y-7464739D01*
X15377000Y-7465500D01*
X15283000Y-7465500D01*
X15279173Y-7464739D01*
X15275929Y-7462571D01*
X15273761Y-7459327D01*
X15273000Y-7455500D01*
X15273000Y-7372500D01*
X15273761Y-7368673D01*
X15275929Y-7365429D01*
X15279173Y-7363261D01*
X15283000Y-7362500D01*
X15377000Y-7362500D01*
X15380827Y-7363261D01*
G37*
G36*
X12883827Y-7312011D02*
G01*
X12887071Y-7314179D01*
X12889239Y-7317423D01*
X12890000Y-7321250D01*
X12890000Y-7418750D01*
X12889239Y-7422577D01*
X12887071Y-7425821D01*
X12883827Y-7427989D01*
X12880000Y-7428750D01*
X12740000Y-7428750D01*
X12736173Y-7427989D01*
X12732929Y-7425821D01*
X12730761Y-7422577D01*
X12730000Y-7418750D01*
X12730000Y-7321250D01*
X12730761Y-7317423D01*
X12732929Y-7314179D01*
X12736173Y-7312011D01*
X12740000Y-7311250D01*
X12880000Y-7311250D01*
X12883827Y-7312011D01*
G37*
G36*
X12443827Y-7310761D02*
G01*
X12447071Y-7312929D01*
X12449239Y-7316173D01*
X12450000Y-7320000D01*
X12450000Y-7417500D01*
X12449239Y-7421327D01*
X12447071Y-7424571D01*
X12443827Y-7426739D01*
X12440000Y-7427500D01*
X12300000Y-7427500D01*
X12296173Y-7426739D01*
X12292929Y-7424571D01*
X12290761Y-7421327D01*
X12290000Y-7417500D01*
X12290000Y-7320000D01*
X12290761Y-7316173D01*
X12292929Y-7312929D01*
X12296173Y-7310761D01*
X12300000Y-7310000D01*
X12440000Y-7310000D01*
X12443827Y-7310761D01*
G37*
G36*
X15753827Y-7205761D02*
G01*
X15757071Y-7207929D01*
X15759239Y-7211173D01*
X15760000Y-7215000D01*
X15760000Y-7350000D01*
X15759239Y-7353827D01*
X15757071Y-7357071D01*
X15753827Y-7359239D01*
X15750000Y-7360000D01*
X15550000Y-7360000D01*
X15546173Y-7359239D01*
X15542929Y-7357071D01*
X15540761Y-7353827D01*
X15540000Y-7350000D01*
X15540000Y-7215000D01*
X15540761Y-7211173D01*
X15542929Y-7207929D01*
X15546173Y-7205761D01*
X15550000Y-7205000D01*
X15750000Y-7205000D01*
X15753827Y-7205761D01*
G37*
G36*
X14224827Y-7165761D02*
G01*
X14228071Y-7167929D01*
X14230239Y-7171173D01*
X14231000Y-7175000D01*
X14231000Y-7345000D01*
X14230239Y-7348827D01*
X14228071Y-7352071D01*
X14224827Y-7354239D01*
X14221000Y-7355000D01*
X14051000Y-7355000D01*
X14047173Y-7354239D01*
X14043929Y-7352071D01*
X14041761Y-7348827D01*
X14041000Y-7345000D01*
X14041000Y-7175000D01*
X14041761Y-7171173D01*
X14043929Y-7167929D01*
X14047173Y-7165761D01*
X14051000Y-7165000D01*
X14221000Y-7165000D01*
X14224827Y-7165761D01*
G37*
G36*
X14417577Y-7169091D02*
G01*
X14434783Y-7176217D01*
X14450267Y-7186564D01*
X14463436Y-7199733D01*
X14473782Y-7215217D01*
X14480909Y-7232423D01*
X14484542Y-7250688D01*
X14484542Y-7269312D01*
X14480909Y-7287577D01*
X14473782Y-7304783D01*
X14463436Y-7320267D01*
X14450267Y-7333436D01*
X14434783Y-7343782D01*
X14417577Y-7350909D01*
X14399312Y-7354542D01*
X14380688Y-7354542D01*
X14362423Y-7350909D01*
X14345217Y-7343782D01*
X14329733Y-7333436D01*
X14316564Y-7320267D01*
X14306217Y-7304783D01*
X14299091Y-7287577D01*
X14295457Y-7269312D01*
X14295457Y-7250688D01*
X14299091Y-7232423D01*
X14306217Y-7215217D01*
X14316564Y-7199733D01*
X14329733Y-7186564D01*
X14345217Y-7176217D01*
X14362423Y-7169091D01*
X14380688Y-7165457D01*
X14399312Y-7165457D01*
X14417577Y-7169091D01*
G37*
G36*
X14671577Y-7169091D02*
G01*
X14688783Y-7176217D01*
X14704267Y-7186564D01*
X14717436Y-7199733D01*
X14727782Y-7215217D01*
X14734909Y-7232423D01*
X14738542Y-7250688D01*
X14738542Y-7269312D01*
X14734909Y-7287577D01*
X14727782Y-7304783D01*
X14717436Y-7320267D01*
X14704267Y-7333436D01*
X14688783Y-7343782D01*
X14671577Y-7350909D01*
X14653312Y-7354542D01*
X14634688Y-7354542D01*
X14616423Y-7350909D01*
X14599217Y-7343782D01*
X14583733Y-7333436D01*
X14570564Y-7320267D01*
X14560217Y-7304783D01*
X14553091Y-7287577D01*
X14549457Y-7269312D01*
X14549457Y-7250688D01*
X14553091Y-7232423D01*
X14560217Y-7215217D01*
X14570564Y-7199733D01*
X14583733Y-7186564D01*
X14599217Y-7176217D01*
X14616423Y-7169091D01*
X14634688Y-7165457D01*
X14653312Y-7165457D01*
X14671577Y-7169091D01*
G37*
G36*
X12883827Y-7124511D02*
G01*
X12887071Y-7126679D01*
X12889239Y-7129923D01*
X12890000Y-7133750D01*
X12890000Y-7231250D01*
X12889239Y-7235077D01*
X12887071Y-7238321D01*
X12883827Y-7240489D01*
X12880000Y-7241250D01*
X12740000Y-7241250D01*
X12736173Y-7240489D01*
X12732929Y-7238321D01*
X12730761Y-7235077D01*
X12730000Y-7231250D01*
X12730000Y-7133750D01*
X12730761Y-7129923D01*
X12732929Y-7126679D01*
X12736173Y-7124511D01*
X12740000Y-7123750D01*
X12880000Y-7123750D01*
X12883827Y-7124511D01*
G37*
G36*
X12443827Y-7123261D02*
G01*
X12447071Y-7125429D01*
X12449239Y-7128673D01*
X12450000Y-7132500D01*
X12450000Y-7230000D01*
X12449239Y-7233827D01*
X12447071Y-7237071D01*
X12443827Y-7239239D01*
X12440000Y-7240000D01*
X12300000Y-7240000D01*
X12296173Y-7239239D01*
X12292929Y-7237071D01*
X12290761Y-7233827D01*
X12290000Y-7230000D01*
X12290000Y-7132500D01*
X12290761Y-7128673D01*
X12292929Y-7125429D01*
X12296173Y-7123261D01*
X12300000Y-7122500D01*
X12440000Y-7122500D01*
X12443827Y-7123261D01*
G37*
M02*
