M48
; DRILL file {KiCad 9.0.6} date 2026-08-16T15:46:55+0800
; FORMAT={-:-/ absolute / metric / decimal}
; #@! TF.CreationDate,2026-08-16T15:46:55+08:00
; #@! TF.GenerationSoftware,Kicad,Pcbnew,9.0.6
; #@! TF.FileFunction,Plated,1,4,PTH
FMAT,2
METRIC
; #@! TA.AperFunction,Plated,PTH,ViaDrill
T1C0.300
; #@! TA.AperFunction,Plated,PTH,ComponentDrill
T2C1.000
; #@! TA.AperFunction,Plated,PTH,ComponentDrill
T3C1.300
%
G90
G05
T1
X123.2Y-70.6
X124.5Y-102.7
X126.2Y-102.7
X127.2Y-103.6
X127.2Y-105.1
X128.2Y-121.0
X128.2Y-122.0
X128.2Y-123.0
X128.6Y-70.6
X130.0Y-105.9
X131.8Y-106.2
X132.4Y-79.0
X132.4Y-81.3
X133.1Y-80.1
X133.1Y-82.6
X133.2Y-121.0
X133.2Y-122.0
X133.2Y-123.0
X133.6Y-93.4
X133.7Y-79.0
X133.7Y-81.3
X133.7Y-83.7
X134.4Y-80.1
X134.5Y-98.6
X134.5Y-100.2
X135.0Y-79.0
X135.0Y-83.5
X135.4Y-93.4
X138.4Y-96.4
X138.7Y-80.9
X138.7Y-82.7
X140.1Y-80.9
X140.1Y-82.5
X141.0Y-118.0
X141.0Y-119.0
X141.2Y-87.5
X141.2Y-88.8
X141.4Y-102.0
X142.2Y-116.8
X142.2Y-120.3
X143.2Y-116.8
X143.2Y-120.3
X144.5Y-118.0
X144.5Y-119.0
X146.1Y-83.7
X146.4Y-81.0
X147.0Y-105.2
X147.0Y-106.3
X147.0Y-107.4
X147.0Y-108.5
X147.0Y-109.6
X148.4Y-105.7
X148.4Y-106.8
X148.4Y-107.9
X148.4Y-109.0
X148.6Y-92.0
X149.9Y-105.2
X149.9Y-106.3
X149.9Y-107.4
X149.9Y-108.5
X149.9Y-109.6
X151.0Y-94.1
X151.3Y-105.7
X151.3Y-106.8
X151.3Y-107.9
X151.3Y-109.0
X153.2Y-100.8
X153.3Y-73.1
X154.0Y-102.2
X155.0Y-100.8
X155.2Y-90.0
X156.5Y-71.5
X156.6Y-93.6
T2
X120.0Y-87.2
X120.0Y-89.74
X120.0Y-92.28
X120.0Y-94.82
X120.0Y-97.36
X120.0Y-99.9
X120.0Y-102.44
X120.0Y-104.98
X120.0Y-107.52
X120.0Y-110.06
X141.36Y-72.6
X143.9Y-72.6
X146.44Y-72.6
X160.0Y-87.2
X160.0Y-89.74
X160.0Y-92.28
X160.0Y-94.82
X160.0Y-97.36
X160.0Y-99.9
X160.0Y-102.44
X160.0Y-104.98
X160.0Y-107.52
X160.0Y-110.06
T3
X137.716Y-118.55
X142.796Y-118.55
M30
