%TF.GenerationSoftware,KiCad,Pcbnew,9.0.6*%
%TF.CreationDate,2026-08-16T15:46:55+08:00*%
%TF.ProjectId,MQTT-Module-PumpController,4d515454-2d4d-46f6-9475-6c652d50756d,rev?*%
%TF.SameCoordinates,Original*%
%TF.FileFunction,Copper,L1,Top*%
%TF.FilePolarity,Positive*%
%FSLAX45Y45*%
G04 Gerber Fmt 4.5, Leading zero omitted, Abs format (unit mm)*
G04 Created by KiCad (PCBNEW 9.0.6) date 2026-08-16 15:46:55*
%MOMM*%
%LPD*%
G01*
G04 APERTURE LIST*
G04 Aperture macros list*
%AMRoundRect*
0 Rectangle with rounded corners*
0 $1 Rounding radius*
0 $2 $3 $4 $5 $6 $7 $8 $9 X,Y pos of 4 corners*
0 Add a 4 corners polygon primitive as box body*
4,1,4,$2,$3,$4,$5,$6,$7,$8,$9,$2,$3,0*
0 Add four circle primitives for the rounded corners*
1,1,$1+$1,$2,$3*
1,1,$1+$1,$4,$5*
1,1,$1+$1,$6,$7*
1,1,$1+$1,$8,$9*
0 Add four rect primitives between the rounded corners*
20,1,$1+$1,$2,$3,$4,$5,0*
20,1,$1+$1,$4,$5,$6,$7,0*
20,1,$1+$1,$6,$7,$8,$9,0*
20,1,$1+$1,$8,$9,$2,$3,0*%
G04 Aperture macros list end*
%TA.AperFunction,SMDPad,CuDef*%
%ADD10R,1.450000X1.000000*%
%TD*%
%TA.AperFunction,SMDPad,CuDef*%
%ADD11R,2.000000X2.000000*%
%TD*%
%TA.AperFunction,SMDPad,CuDef*%
%ADD12R,1.000000X1.450000*%
%TD*%
%TA.AperFunction,SMDPad,CuDef*%
%ADD13R,1.750000X1.000000*%
%TD*%
%TA.AperFunction,SMDPad,CuDef*%
%ADD14R,1.400000X0.975000*%
%TD*%
%TA.AperFunction,SMDPad,CuDef*%
%ADD15R,3.000000X1.600000*%
%TD*%
%TA.AperFunction,SMDPad,CuDef*%
%ADD16R,6.200000X5.800000*%
%TD*%
%TA.AperFunction,SMDPad,CuDef*%
%ADD17R,1.390000X0.910000*%
%TD*%
%TA.AperFunction,SMDPad,CuDef*%
%ADD18R,2.300000X2.400000*%
%TD*%
%TA.AperFunction,SMDPad,CuDef*%
%ADD19R,1.050000X1.820000*%
%TD*%
%TA.AperFunction,SMDPad,CuDef*%
%ADD20R,3.800000X2.700000*%
%TD*%
%TA.AperFunction,SMDPad,CuDef*%
%ADD21RoundRect,0.150000X-0.825000X-0.150000X0.825000X-0.150000X0.825000X0.150000X-0.825000X0.150000X0*%
%TD*%
%TA.AperFunction,SMDPad,CuDef*%
%ADD22R,1.400000X0.300000*%
%TD*%
%TA.AperFunction,SMDPad,CuDef*%
%ADD23R,0.830000X0.940000*%
%TD*%
%TA.AperFunction,SMDPad,CuDef*%
%ADD24R,0.940000X0.830000*%
%TD*%
%TA.AperFunction,SMDPad,CuDef*%
%ADD25R,2.000000X1.350000*%
%TD*%
%TA.AperFunction,ComponentPad*%
%ADD26R,1.700000X1.700000*%
%TD*%
%TA.AperFunction,ComponentPad*%
%ADD27C,1.700000*%
%TD*%
%TA.AperFunction,ComponentPad*%
%ADD28R,1.950000X1.950000*%
%TD*%
%TA.AperFunction,ComponentPad*%
%ADD29C,1.950000*%
%TD*%
%TA.AperFunction,ViaPad*%
%ADD30C,0.600000*%
%TD*%
%TA.AperFunction,Conductor*%
%ADD31C,0.250000*%
%TD*%
%TA.AperFunction,Conductor*%
%ADD32C,0.400000*%
%TD*%
G04 APERTURE END LIST*
D10*
%TO.P,R801,1,1*%
%TO.N,GND*%
X14860000Y-9310000D03*
%TO.P,R801,2,2*%
%TO.N,Net-(IC801-UVLO)*%
X14860000Y-9500000D03*
%TD*%
D11*
%TO.P,TP401,1,1*%
%TO.N,/Headers/PMP+*%
X12580000Y-11520000D03*
%TD*%
D12*
%TO.P,R202,1,1*%
%TO.N,/Controller/UPDI*%
X14455000Y-7790000D03*
%TO.P,R202,2,2*%
%TO.N,/Controller/UDPI_C*%
X14645000Y-7790000D03*
%TD*%
D10*
%TO.P,R804,1,1*%
%TO.N,Net-(IC801-OVP)*%
X15100000Y-9925000D03*
%TO.P,R804,2,2*%
%TO.N,+12V*%
X15100000Y-10115000D03*
%TD*%
D13*
%TO.P,R803,1,1*%
%TO.N,Net-(IC801-UVLO)*%
X14860000Y-9670000D03*
%TO.P,R803,2,2*%
%TO.N,+12V*%
X14860000Y-9970000D03*
%TD*%
D14*
%TO.P,D202,1,A*%
%TO.N,Net-(D202-A)*%
X12370000Y-7368750D03*
%TO.P,D202,2,K*%
%TO.N,GND*%
X12370000Y-7181250D03*
%TD*%
D10*
%TO.P,R203,1,1*%
%TO.N,/Controller/P_ON*%
X12370000Y-7865000D03*
%TO.P,R203,2,2*%
%TO.N,Net-(D202-A)*%
X12370000Y-7675000D03*
%TD*%
D14*
%TO.P,D201,1,A*%
%TO.N,Net-(D201-A)*%
X12810000Y-7370000D03*
%TO.P,D201,2,K*%
%TO.N,GND*%
X12810000Y-7182500D03*
%TD*%
D15*
%TO.P,Q801,1,G*%
%TO.N,Net-(IC801-GATE)*%
X13540601Y-10506500D03*
D16*
%TO.P,Q801,2,D*%
%TO.N,+12V*%
X14258601Y-10735000D03*
D15*
%TO.P,Q801,3,S*%
%TO.N,/Headers/PMP+*%
X13540601Y-10963500D03*
%TD*%
D10*
%TO.P,R806,1,1*%
%TO.N,Net-(IC801-SENSE)*%
X14530000Y-10065000D03*
%TO.P,R806,2,2*%
%TO.N,+12V*%
X14530000Y-10255000D03*
%TD*%
D17*
%TO.P,C809,1,1*%
%TO.N,Net-(IC801-TIMER)*%
X13540000Y-9622000D03*
%TO.P,C809,2,2*%
%TO.N,GND*%
X13540000Y-9458000D03*
%TD*%
D12*
%TO.P,R204,1,1*%
%TO.N,/Controller/RESET*%
X15095000Y-7790000D03*
%TO.P,R204,2,2*%
%TO.N,+3V3*%
X14905000Y-7790000D03*
%TD*%
D18*
%TO.P,D303,1,A1*%
%TO.N,GND*%
X12540000Y-10450000D03*
%TO.P,D303,2,A2*%
%TO.N,/Headers/PMP+*%
X12540000Y-10930000D03*
%TD*%
D19*
%TO.P,C203,1,1*%
%TO.N,+3V3*%
X13759000Y-8150000D03*
%TO.P,C203,2,2*%
%TO.N,GND*%
X13481000Y-8150000D03*
%TD*%
D10*
%TO.P,R401,1,1*%
%TO.N,Net-(IC801-OUT)*%
X13590000Y-10105000D03*
%TO.P,R401,2,2*%
%TO.N,/Headers/PMP+*%
X13590000Y-10295000D03*
%TD*%
D20*
%TO.P,D602,1,A1*%
%TO.N,/Headers/PMP+*%
X13070000Y-11500000D03*
%TO.P,D602,2,A2*%
%TO.N,GND*%
X13070000Y-12200000D03*
%TD*%
D21*
%TO.P,U201,1,VCC*%
%TO.N,+3V3*%
X13952500Y-8369000D03*
%TO.P,U201,2,PA4*%
%TO.N,/Controller/P_WARN*%
X13952500Y-8496000D03*
%TO.P,U201,3,PA5*%
%TO.N,/Controller/P_ON*%
X13952500Y-8623000D03*
%TO.P,U201,4,PA6*%
%TO.N,/Controller/MOD*%
X13952500Y-8750000D03*
%TO.P,U201,5,PA7*%
%TO.N,/Controller/SNS*%
X13952500Y-8877000D03*
%TO.P,U201,6,PB3*%
%TO.N,unconnected-(U201-PB3-Pad6)*%
X13952500Y-9004000D03*
%TO.P,U201,7,PB2*%
%TO.N,unconnected-(U201-PB2-Pad7)*%
X13952500Y-9131000D03*
%TO.P,U201,8,PB1*%
%TO.N,/Controller/PMP_EN*%
X14447500Y-9131000D03*
%TO.P,U201,9,PB0*%
%TO.N,/Controller/PMP_Status*%
X14447500Y-9004000D03*
%TO.P,U201,10,~{RESET}/PA0*%
%TO.N,/Controller/UPDI*%
X14447500Y-8877000D03*
%TO.P,U201,11,PA1*%
%TO.N,/Controller/SDA*%
X14447500Y-8750000D03*
%TO.P,U201,12,PA2*%
%TO.N,/Controller/SCL*%
X14447500Y-8623000D03*
%TO.P,U201,13,PA3*%
%TO.N,/Controller/RESET*%
X14447500Y-8496000D03*
%TO.P,U201,14,GND*%
%TO.N,GND*%
X14447500Y-8369000D03*
%TD*%
D22*
%TO.P,IC801,1,SENSE*%
%TO.N,Net-(IC801-SENSE)*%
X14279899Y-9920000D03*
%TO.P,IC801,2,VIN*%
%TO.N,+12V*%
X14279899Y-9870000D03*
%TO.P,IC801,3,OVP*%
%TO.N,Net-(IC801-OVP)*%
X14279899Y-9820000D03*
%TO.P,IC801,4,UVLO*%
%TO.N,Net-(IC801-UVLO)*%
X14279899Y-9770000D03*
%TO.P,IC801,5,EN*%
%TO.N,/Controller/PMP_EN*%
X14279899Y-9720000D03*
%TO.P,IC801,6,GND*%
%TO.N,GND*%
X13839899Y-9720000D03*
%TO.P,IC801,7,TIMER*%
%TO.N,Net-(IC801-TIMER)*%
X13839899Y-9770000D03*
%TO.P,IC801,8,NPGD*%
%TO.N,/Controller/PMP_Status*%
X13839899Y-9820000D03*
%TO.P,IC801,9,OUT*%
%TO.N,Net-(IC801-OUT)*%
X13839899Y-9870000D03*
%TO.P,IC801,10,GATE*%
%TO.N,Net-(IC801-GATE)*%
X13839899Y-9920000D03*
%TD*%
D23*
%TO.P,C201,1,1*%
%TO.N,GND*%
X13614000Y-8350000D03*
%TO.P,C201,2,2*%
%TO.N,+3V3*%
X13746000Y-8350000D03*
%TD*%
%TO.P,C801,1,1*%
%TO.N,+12V*%
X14276000Y-10090000D03*
%TO.P,C801,2,2*%
%TO.N,GND*%
X14144000Y-10090000D03*
%TD*%
D24*
%TO.P,C802,1,1*%
%TO.N,Net-(IC801-GATE)*%
X13360000Y-9586000D03*
%TO.P,C802,2,2*%
%TO.N,GND*%
X13360000Y-9454000D03*
%TD*%
D11*
%TO.P,TP202,1,1*%
%TO.N,GND*%
X13000000Y-10430000D03*
%TD*%
D17*
%TO.P,C806,1,1*%
%TO.N,/Headers/PMP+*%
X13000000Y-10852000D03*
%TO.P,C806,2,2*%
%TO.N,GND*%
X13000000Y-10688000D03*
%TD*%
D25*
%TO.P,S201,1*%
%TO.N,/Controller/RESET*%
X15650000Y-7697500D03*
%TO.P,S201,2*%
%TO.N,GND*%
X15650000Y-7282500D03*
%TD*%
D10*
%TO.P,R802,1,1*%
%TO.N,GND*%
X15100000Y-9525000D03*
%TO.P,R802,2,2*%
%TO.N,Net-(IC801-OVP)*%
X15100000Y-9715000D03*
%TD*%
D24*
%TO.P,C205,1,1*%
%TO.N,/Controller/RESET*%
X15330000Y-7546000D03*
%TO.P,C205,2,2*%
%TO.N,GND*%
X15330000Y-7414000D03*
%TD*%
D17*
%TO.P,C804,1,1*%
%TO.N,+12V*%
X15400000Y-10492000D03*
%TO.P,C804,2,2*%
%TO.N,GND*%
X15400000Y-10328000D03*
%TD*%
D10*
%TO.P,R201,1,1*%
%TO.N,/Controller/P_WARN*%
X12810000Y-7865000D03*
%TO.P,R201,2,2*%
%TO.N,Net-(D201-A)*%
X12810000Y-7675000D03*
%TD*%
D12*
%TO.P,R805,1,1*%
%TO.N,/Controller/PMP_Status*%
X13985000Y-10120000D03*
%TO.P,R805,2,2*%
%TO.N,+12V*%
X13795000Y-10120000D03*
%TD*%
D24*
%TO.P,C805,1,1*%
%TO.N,/Headers/PMP+*%
X13180000Y-10846000D03*
%TO.P,C805,2,2*%
%TO.N,GND*%
X13180000Y-10714000D03*
%TD*%
D26*
%TO.P,J304,1,Pin_1*%
%TO.N,+3V3*%
X14136000Y-7260000D03*
D27*
%TO.P,J304,2,Pin_2*%
%TO.N,GND*%
X14390000Y-7260000D03*
%TO.P,J304,3,Pin_3*%
%TO.N,/Controller/UDPI_C*%
X14644000Y-7260000D03*
%TD*%
D28*
%TO.P,J303,1,Pin_1*%
%TO.N,/Headers/PMP+*%
X13771601Y-11855000D03*
D29*
%TO.P,J303,2,Pin_2*%
%TO.N,GND*%
X14279601Y-11855000D03*
%TD*%
D26*
%TO.P,J301,1,Pin_1*%
%TO.N,+12V*%
X12000000Y-11006000D03*
D27*
%TO.P,J301,2,Pin_2*%
X12000000Y-10752000D03*
%TO.P,J301,3,Pin_3*%
%TO.N,/Headers/+5V_1*%
X12000000Y-10498000D03*
%TO.P,J301,4,Pin_4*%
%TO.N,+3V3*%
X12000000Y-10244000D03*
%TO.P,J301,5,Pin_5*%
%TO.N,GND*%
X12000000Y-9990000D03*
%TO.P,J301,6,Pin_6*%
X12000000Y-9736000D03*
%TO.P,J301,7,Pin_7*%
%TO.N,/Headers/CS*%
X12000000Y-9482000D03*
%TO.P,J301,8,Pin_8*%
%TO.N,/Headers/MISO*%
X12000000Y-9228000D03*
%TO.P,J301,9,Pin_9*%
%TO.N,/Headers/SCK*%
X12000000Y-8974000D03*
%TO.P,J301,10,Pin_10*%
%TO.N,/Headers/MOSI*%
X12000000Y-8720000D03*
%TD*%
D26*
%TO.P,J302,1,Pin_1*%
%TO.N,+12V*%
X16000000Y-11006000D03*
D27*
%TO.P,J302,2,Pin_2*%
X16000000Y-10752000D03*
%TO.P,J302,3,Pin_3*%
%TO.N,/Headers/+5V_2*%
X16000000Y-10498000D03*
%TO.P,J302,4,Pin_4*%
%TO.N,+3V3*%
X16000000Y-10244000D03*
%TO.P,J302,5,Pin_5*%
%TO.N,GND*%
X16000000Y-9990000D03*
%TO.P,J302,6,Pin_6*%
X16000000Y-9736000D03*
%TO.P,J302,7,Pin_7*%
%TO.N,/Controller/MOD*%
X16000000Y-9482000D03*
%TO.P,J302,8,Pin_8*%
%TO.N,/Controller/SNS*%
X16000000Y-9228000D03*
%TO.P,J302,9,Pin_9*%
%TO.N,/Controller/SDA*%
X16000000Y-8974000D03*
%TO.P,J302,10,Pin_10*%
%TO.N,/Controller/SCL*%
X16000000Y-8720000D03*
%TD*%
D30*
%TO.N,GND*%
X15650000Y-7150000D03*
X13360000Y-9340000D03*
X13500000Y-7900000D03*
X13320000Y-12300000D03*
X14220000Y-12030000D03*
X14860000Y-9200000D03*
X13240000Y-7900000D03*
X13540000Y-9340000D03*
X15330000Y-7310000D03*
X12620000Y-10270000D03*
X13370000Y-7900000D03*
X13370000Y-8370000D03*
X14610000Y-8370000D03*
X13310000Y-8260000D03*
X13310000Y-8010000D03*
X13320000Y-12100000D03*
X12820000Y-12300000D03*
X13500000Y-8350000D03*
X13840000Y-9640000D03*
X13320000Y-12200000D03*
X12860000Y-7060000D03*
X12820000Y-12200000D03*
X15500000Y-10080000D03*
X14450000Y-11900000D03*
X13440000Y-8010000D03*
X12820000Y-12100000D03*
X12320000Y-7060000D03*
X14320000Y-11680000D03*
X15400000Y-10220000D03*
X14320000Y-12030000D03*
X14140000Y-10200000D03*
X15320000Y-10080000D03*
X14100000Y-11900000D03*
X14220000Y-11680000D03*
X13240000Y-8130000D03*
X12720000Y-10360000D03*
X14450000Y-11800000D03*
X12720000Y-10510000D03*
X13370000Y-8130000D03*
X14100000Y-11800000D03*
X13180000Y-10620000D03*
X13000000Y-10590000D03*
X15100000Y-9410000D03*
X12450000Y-10270000D03*
%TO.N,/Controller/MOD*%
X15660000Y-9360000D03*
X14120000Y-8750000D03*
%TO.N,/Controller/SNS*%
X14120000Y-8880000D03*
X15520000Y-9000000D03*
%TO.N,+3V3*%
X13870000Y-8090000D03*
X14640000Y-8100000D03*
X13870000Y-8270000D03*
X14010000Y-8250000D03*
X14010000Y-8090000D03*
%TO.N,+12V*%
X14700000Y-10850000D03*
X14700000Y-10630000D03*
X14990000Y-10740000D03*
X15130000Y-10680000D03*
X14700000Y-10960000D03*
X14990000Y-10630000D03*
X14700000Y-10520000D03*
X15130000Y-10900000D03*
X14840000Y-10570000D03*
X15130000Y-10570000D03*
X14840000Y-10900000D03*
X14840000Y-10790000D03*
X14990000Y-10520000D03*
X15130000Y-10790000D03*
X14990000Y-10850000D03*
X14700000Y-10740000D03*
X14990000Y-10960000D03*
X14840000Y-10680000D03*
%TO.N,Net-(IC801-OUT)*%
X13450000Y-9860000D03*
X13450000Y-10020000D03*
%TD*%
D31*
%TO.N,GND*%
X14448500Y-8370000D02*
X14447500Y-8369000D01*
X12810000Y-7182500D02*
X12810000Y-7110000D01*
X12810000Y-7110000D02*
X12860000Y-7060000D01*
X12370000Y-7110000D02*
X12370000Y-7181250D01*
X12320000Y-7060000D02*
X12370000Y-7110000D01*
X14140000Y-10200000D02*
X14140000Y-10094000D01*
X13839899Y-9720000D02*
X13839899Y-9640101D01*
X13839899Y-9640101D02*
X13840000Y-9640000D01*
X14140000Y-10094000D02*
X14144000Y-10090000D01*
X15100000Y-9410000D02*
X15100000Y-9525000D01*
X15400000Y-10220000D02*
X15400000Y-10328000D01*
X14860000Y-9200000D02*
X14860000Y-9310000D01*
X15330000Y-7310000D02*
X15330000Y-7414000D01*
X13360000Y-9340000D02*
X13360000Y-9454000D01*
X15650000Y-7150000D02*
X15650000Y-7282500D01*
X14610000Y-8370000D02*
X14448500Y-8370000D01*
X13540000Y-9340000D02*
X13540000Y-9438000D01*
X14450000Y-8366500D02*
X14447500Y-8369000D01*
%TO.N,Net-(IC801-GATE)*%
X13700000Y-9920000D02*
X13680000Y-9940000D01*
X13390000Y-9940000D02*
X13410000Y-9940000D01*
X13839899Y-9920000D02*
X13700000Y-9920000D01*
X13360000Y-10390000D02*
X13360000Y-9970000D01*
X13410000Y-9940000D02*
X13680000Y-9940000D01*
X13540601Y-10506500D02*
X13476500Y-10506500D01*
X13390000Y-9940000D02*
X13360000Y-9910000D01*
X13360000Y-9910000D02*
X13360000Y-9586000D01*
X13360000Y-9970000D02*
X13390000Y-9940000D01*
X13476500Y-10506500D02*
X13360000Y-10390000D01*
%TO.N,/Headers/PMP+*%
X13800000Y-10410000D02*
X13800000Y-10704101D01*
X13695000Y-10305000D02*
X13800000Y-10410000D01*
X13580000Y-10305000D02*
X13695000Y-10305000D01*
X13800000Y-10704101D02*
X13540601Y-10963500D01*
%TO.N,/Controller/MOD*%
X15660000Y-9360000D02*
X15782000Y-9482000D01*
X15782000Y-9482000D02*
X16000000Y-9482000D01*
X13952500Y-8750000D02*
X14120000Y-8750000D01*
%TO.N,Net-(IC801-TIMER)*%
X13640000Y-9770000D02*
X13540000Y-9670000D01*
X13839899Y-9770000D02*
X13640000Y-9770000D01*
X13540000Y-9670000D02*
X13540000Y-9622000D01*
%TO.N,/Controller/SNS*%
X15520000Y-9000000D02*
X15750000Y-9230000D01*
X13955500Y-8880000D02*
X13952500Y-8877000D01*
X15750000Y-9230000D02*
X15998000Y-9230000D01*
X15998000Y-9230000D02*
X16000000Y-9228000D01*
X14120000Y-8880000D02*
X13955500Y-8880000D01*
%TO.N,+3V3*%
X14905000Y-7995000D02*
X14905000Y-7790000D01*
X14140000Y-8300000D02*
X14140000Y-7264000D01*
X14800000Y-8100000D02*
X14905000Y-7995000D01*
X13952500Y-8369000D02*
X14071000Y-8369000D01*
X14140000Y-7264000D02*
X14136000Y-7260000D01*
X14071000Y-8369000D02*
X14140000Y-8300000D01*
X14640000Y-8100000D02*
X14800000Y-8100000D01*
%TO.N,Net-(D201-A)*%
X12810000Y-7370000D02*
X12810000Y-7675000D01*
%TO.N,Net-(D202-A)*%
X12370000Y-7675000D02*
X12370000Y-7368750D01*
%TO.N,/Controller/PMP_EN*%
X14280000Y-9410000D02*
X14447500Y-9242500D01*
X14280000Y-9719899D02*
X14280000Y-9410000D01*
X14447500Y-9242500D02*
X14447500Y-9131000D01*
X14279899Y-9720000D02*
X14280000Y-9719899D01*
%TO.N,Net-(IC801-SENSE)*%
X14480000Y-9920000D02*
X14530000Y-9970000D01*
X14279899Y-9920000D02*
X14480000Y-9920000D01*
X14530000Y-9970000D02*
X14530000Y-10065000D01*
%TO.N,Net-(IC801-UVLO)*%
X14279899Y-9770000D02*
X14420000Y-9770000D01*
X14860000Y-9570000D02*
X14860000Y-9590000D01*
X14860000Y-9570000D02*
X14860000Y-9670000D01*
X14860000Y-9500000D02*
X14860000Y-9570000D01*
X14420000Y-9770000D02*
X14600000Y-9590000D01*
X14600000Y-9590000D02*
X14860000Y-9590000D01*
%TO.N,/Controller/PMP_Status*%
X14190000Y-9260000D02*
X14190000Y-9110000D01*
X14020000Y-10085000D02*
X13985000Y-10120000D01*
X13990000Y-9820000D02*
X14020000Y-9850000D01*
X14190000Y-9110000D02*
X14296000Y-9004000D01*
X13950000Y-9820000D02*
X13990000Y-9820000D01*
X14020000Y-9790000D02*
X14020000Y-9430000D01*
X13990000Y-9820000D02*
X14020000Y-9790000D01*
X14020000Y-9430000D02*
X14190000Y-9260000D01*
X14020000Y-9850000D02*
X14020000Y-10085000D01*
X13839899Y-9820000D02*
X13950000Y-9820000D01*
X14296000Y-9004000D02*
X14447500Y-9004000D01*
%TO.N,Net-(IC801-OVP)*%
X15100000Y-9715000D02*
X15100000Y-9820000D01*
X15100000Y-9820000D02*
X15100000Y-9925000D01*
X15100000Y-9820000D02*
X14279899Y-9820000D01*
%TO.N,/Controller/SDA*%
X15660000Y-8750000D02*
X15880000Y-8970000D01*
X15996000Y-8970000D02*
X16000000Y-8974000D01*
X14447500Y-8750000D02*
X15660000Y-8750000D01*
X15880000Y-8970000D02*
X15996000Y-8970000D01*
%TO.N,/Controller/SCL*%
X15753000Y-8623000D02*
X15850000Y-8720000D01*
X14447500Y-8623000D02*
X15753000Y-8623000D01*
X15850000Y-8720000D02*
X16000000Y-8720000D01*
%TO.N,+12V*%
X15100000Y-10570000D02*
X14940000Y-10730000D01*
X15100000Y-10115000D02*
X15100000Y-10570000D01*
X14750000Y-10640000D02*
X14660000Y-10730000D01*
X14276000Y-10717601D02*
X14258601Y-10735000D01*
X14530000Y-10255000D02*
X14530000Y-10463601D01*
X14140000Y-9950000D02*
X14180000Y-9990000D01*
X14880000Y-10590000D02*
X14830000Y-10640000D01*
X14860000Y-10530000D02*
X14880000Y-10550000D01*
X14230000Y-9990000D02*
X14276000Y-10036000D01*
X14880000Y-10550000D02*
X14880000Y-10590000D01*
X14530000Y-10463601D02*
X14258601Y-10735000D01*
X14276000Y-10090000D02*
X14276000Y-10717601D01*
X14276000Y-10036000D02*
X14276000Y-10090000D01*
X14940000Y-10730000D02*
X14760000Y-10730000D01*
X14180000Y-9870000D02*
X14140000Y-9910000D01*
X13795000Y-10120000D02*
X13795000Y-10285000D01*
X14263601Y-10730000D02*
X14258601Y-10735000D01*
X13795000Y-10285000D02*
X14245000Y-10735000D01*
X14140000Y-9910000D02*
X14140000Y-9950000D01*
X14180000Y-9990000D02*
X14230000Y-9990000D01*
X14660000Y-10730000D02*
X14263601Y-10730000D01*
X14760000Y-10730000D02*
X14715000Y-10685000D01*
D32*
X12000000Y-10752000D02*
X12002000Y-10750000D01*
D31*
X14860000Y-9970000D02*
X14860000Y-10530000D01*
X14245000Y-10735000D02*
X14258601Y-10735000D01*
X14830000Y-10640000D02*
X14750000Y-10640000D01*
X14279899Y-9870000D02*
X14180000Y-9870000D01*
%TO.N,/Controller/UDPI_C*%
X14645000Y-7790000D02*
X14645000Y-7261000D01*
X14645000Y-7261000D02*
X14644000Y-7260000D01*
%TO.N,/Controller/P_WARN*%
X12810000Y-8170000D02*
X12810000Y-7865000D01*
X13952500Y-8496000D02*
X13136000Y-8496000D01*
X13136000Y-8496000D02*
X12810000Y-8170000D01*
%TO.N,/Controller/UPDI*%
X14455000Y-7800000D02*
X14455000Y-7790000D01*
X14260000Y-7995000D02*
X14455000Y-7800000D01*
X14260000Y-8810000D02*
X14260000Y-7995000D01*
X14447500Y-8877000D02*
X14327000Y-8877000D01*
X14327000Y-8877000D02*
X14260000Y-8810000D01*
%TO.N,/Controller/P_ON*%
X12760000Y-8620000D02*
X13949500Y-8620000D01*
X13949500Y-8620000D02*
X13952500Y-8623000D01*
X12370000Y-8230000D02*
X12760000Y-8620000D01*
X12370000Y-7865000D02*
X12370000Y-8230000D01*
%TO.N,/Controller/RESET*%
X15396000Y-7546000D02*
X15547500Y-7697500D01*
X15330000Y-8166000D02*
X15330000Y-7546000D01*
X15547500Y-7697500D02*
X15650000Y-7697500D01*
X15330000Y-7546000D02*
X15396000Y-7546000D01*
X15095000Y-7790000D02*
X15095000Y-7675000D01*
X14447500Y-8496000D02*
X15000000Y-8496000D01*
X15000000Y-8496000D02*
X15330000Y-8166000D01*
X15224000Y-7546000D02*
X15330000Y-7546000D01*
X15095000Y-7675000D02*
X15224000Y-7546000D01*
%TO.N,Net-(IC801-OUT)*%
X13450000Y-10020000D02*
X13470000Y-10020000D01*
X13450000Y-9860000D02*
X13460000Y-9870000D01*
X13565000Y-10115000D02*
X13580000Y-10115000D01*
X13470000Y-10020000D02*
X13565000Y-10115000D01*
X13460000Y-9870000D02*
X13839899Y-9870000D01*
%TD*%
%TA.AperFunction,Conductor*%
%TO.N,GND*%
G36*
X13684304Y-8981969D02*
G01*
X13688879Y-8987249D01*
X13690000Y-8992400D01*
X13690000Y-9357600D01*
X13688031Y-9364304D01*
X13682751Y-9368879D01*
X13677600Y-9370000D01*
X13200000Y-9370000D01*
X13120000Y-9440000D01*
X13120000Y-9940000D01*
X13120000Y-9940000D01*
X13227066Y-10066533D01*
X13229894Y-10072922D01*
X13230000Y-10074542D01*
X13230000Y-10679944D01*
X13230000Y-10680048D01*
X13229517Y-10737704D01*
X13227493Y-10744391D01*
X13222174Y-10748922D01*
X13217118Y-10750000D01*
X13133754Y-10750000D01*
X13127050Y-10748032D01*
X13126876Y-10747917D01*
X13111556Y-10737704D01*
X13100000Y-10730000D01*
X12935372Y-10730000D01*
X12928668Y-10728032D01*
X12926326Y-10726081D01*
X12883170Y-10680048D01*
X12780000Y-10570000D01*
X12780000Y-10570000D01*
X12435429Y-10570000D01*
X12428725Y-10568032D01*
X12426318Y-10566011D01*
X12313288Y-10443562D01*
X12310188Y-10437301D01*
X12310000Y-10435152D01*
X12310000Y-10170000D01*
X12241428Y-10118571D01*
X12190000Y-10080000D01*
X12190000Y-10080000D01*
X11872400Y-10080000D01*
X11865696Y-10078032D01*
X11861121Y-10072751D01*
X11860000Y-10067600D01*
X11860000Y-9662400D01*
X11861968Y-9655696D01*
X11867249Y-9651121D01*
X11872400Y-9650000D01*
X12190000Y-9650000D01*
X12350000Y-9540000D01*
X12350000Y-9406200D01*
X12351968Y-9399496D01*
X12354960Y-9396280D01*
X12510000Y-9280000D01*
X12510000Y-9086106D01*
X12511968Y-9079402D01*
X12514840Y-9076277D01*
X12636657Y-8982572D01*
X12643171Y-8980044D01*
X12644217Y-8980000D01*
X13677600Y-8980000D01*
X13684304Y-8981969D01*
G37*
%TD.AperFunction*%
%TD*%
%TA.AperFunction,Conductor*%
%TO.N,+12V*%
G36*
X15631568Y-10441969D02*
G01*
X15633632Y-10443632D01*
X15860000Y-10670000D01*
X16127600Y-10670000D01*
X16134304Y-10671969D01*
X16138879Y-10677249D01*
X16140000Y-10682400D01*
X16140000Y-12317600D01*
X16138031Y-12324304D01*
X16132751Y-12328879D01*
X16127600Y-12330000D01*
X14732400Y-12330000D01*
X14725696Y-12328031D01*
X14721121Y-12322751D01*
X14720000Y-12317600D01*
X14720000Y-11420000D01*
X14152400Y-11420000D01*
X14145696Y-11418031D01*
X14141121Y-11412751D01*
X14140000Y-11407600D01*
X14140000Y-11250000D01*
X13961824Y-11033433D01*
X13959085Y-11027005D01*
X13959000Y-11025555D01*
X13959000Y-10452400D01*
X13960968Y-10445696D01*
X13966249Y-10441121D01*
X13971400Y-10440000D01*
X15624864Y-10440000D01*
X15631568Y-10441969D01*
G37*
%TD.AperFunction*%
%TD*%
%TA.AperFunction,Conductor*%
%TO.N,GND*%
G36*
X14514304Y-11641968D02*
G01*
X14518879Y-11647249D01*
X14520000Y-11652400D01*
X14520000Y-12317600D01*
X14518031Y-12324304D01*
X14512751Y-12328879D01*
X14507600Y-12330000D01*
X12652400Y-12330000D01*
X12645696Y-12328031D01*
X12641121Y-12322751D01*
X12640000Y-12317600D01*
X12640000Y-12082400D01*
X12641968Y-12075696D01*
X12647249Y-12071121D01*
X12652400Y-12070000D01*
X14040000Y-12070000D01*
X14040000Y-11652400D01*
X14041968Y-11645696D01*
X14047249Y-11641121D01*
X14052400Y-11640000D01*
X14507600Y-11640000D01*
X14514304Y-11641968D01*
G37*
%TD.AperFunction*%
%TD*%
%TA.AperFunction,Conductor*%
%TO.N,+3V3*%
G36*
X14044304Y-8061968D02*
G01*
X14048879Y-8067249D01*
X14050000Y-8072400D01*
X14050000Y-8387600D01*
X14048031Y-8394304D01*
X14042751Y-8398879D01*
X14037600Y-8400000D01*
X13722400Y-8400000D01*
X13715696Y-8398032D01*
X13711121Y-8392751D01*
X13710000Y-8387600D01*
X13710000Y-8072400D01*
X13711968Y-8065696D01*
X13717249Y-8061121D01*
X13722400Y-8060000D01*
X14037600Y-8060000D01*
X14044304Y-8061968D01*
G37*
%TD.AperFunction*%
%TD*%
%TA.AperFunction,Conductor*%
%TO.N,GND*%
G36*
X13524304Y-7871968D02*
G01*
X13528879Y-7877249D01*
X13530000Y-7882400D01*
X13530000Y-8240000D01*
X13530000Y-8240000D01*
X13643145Y-8296573D01*
X13648261Y-8301331D01*
X13650000Y-8307664D01*
X13650000Y-8387600D01*
X13648031Y-8394304D01*
X13642751Y-8398879D01*
X13637600Y-8400000D01*
X13356065Y-8400000D01*
X13349361Y-8398032D01*
X13346277Y-8395213D01*
X13212612Y-8223358D01*
X13210050Y-8216858D01*
X13210000Y-8215745D01*
X13210000Y-7882400D01*
X13211968Y-7875696D01*
X13217249Y-7871121D01*
X13222400Y-7870000D01*
X13517600Y-7870000D01*
X13524304Y-7871968D01*
G37*
%TD.AperFunction*%
%TD*%
%TA.AperFunction,Conductor*%
%TO.N,/Headers/PMP+*%
G36*
X13272949Y-10801969D02*
G01*
X13273124Y-10802083D01*
X13390000Y-10880000D01*
X13677600Y-10880000D01*
X13684304Y-10881969D01*
X13688879Y-10887249D01*
X13690000Y-10892400D01*
X13690000Y-11050000D01*
X13866817Y-11246463D01*
X13869838Y-11252763D01*
X13870000Y-11254758D01*
X13870000Y-11937600D01*
X13868031Y-11944304D01*
X13862751Y-11948879D01*
X13857600Y-11950000D01*
X13485455Y-11950000D01*
X13478751Y-11948031D01*
X13476314Y-11945979D01*
X13260000Y-11710000D01*
X12302400Y-11710000D01*
X12295696Y-11708031D01*
X12291121Y-11702751D01*
X12290000Y-11697600D01*
X12290000Y-10812400D01*
X12291968Y-10805696D01*
X12297249Y-10801121D01*
X12302400Y-10800000D01*
X13266246Y-10800000D01*
X13272949Y-10801969D01*
G37*
%TD.AperFunction*%
%TD*%
%TA.AperFunction,Conductor*%
%TO.N,GND*%
G36*
X15554304Y-10031969D02*
G01*
X15558879Y-10037249D01*
X15560000Y-10042400D01*
X15560000Y-10357600D01*
X15558031Y-10364304D01*
X15552751Y-10368879D01*
X15547600Y-10370000D01*
X15490000Y-10370000D01*
X15282400Y-10370000D01*
X15275696Y-10368032D01*
X15271121Y-10362751D01*
X15270000Y-10357600D01*
X15270000Y-10042400D01*
X15271968Y-10035696D01*
X15277249Y-10031121D01*
X15282400Y-10030000D01*
X15547600Y-10030000D01*
X15554304Y-10031969D01*
G37*
%TD.AperFunction*%
%TD*%
M02*
