%TF.GenerationSoftware,KiCad,Pcbnew,9.0.6*%
%TF.CreationDate,2026-08-16T15:46:55+08:00*%
%TF.ProjectId,MQTT-Module-PumpController,4d515454-2d4d-46f6-9475-6c652d50756d,rev?*%
%TF.SameCoordinates,Original*%
%TF.FileFunction,Legend,Top*%
%TF.FilePolarity,Positive*%
%FSLAX45Y45*%
G04 Gerber Fmt 4.5, Leading zero omitted, Abs format (unit mm)*
G04 Created by KiCad (PCBNEW 9.0.6) date 2026-08-16 15:46:55*
%MOMM*%
%LPD*%
G01*
G04 APERTURE LIST*
%ADD10C,0.400000*%
%ADD11C,0.100000*%
%ADD12C,0.250000*%
%ADD13C,0.200000*%
%ADD14C,0.000000*%
G04 APERTURE END LIST*
D10*
X14190000Y-11200000D02*
X14370000Y-11200000D01*
X13690000Y-11200000D02*
X13870000Y-11200000D01*
D11*
X14210000Y-10210000D02*
X14210000Y-10160000D01*
D10*
X13780000Y-11290000D02*
X13780000Y-11110000D01*
D12*
X15479781Y-7991567D02*
X15433114Y-7924900D01*
X15399781Y-7991567D02*
X15399781Y-7851567D01*
X15399781Y-7851567D02*
X15453114Y-7851567D01*
X15453114Y-7851567D02*
X15466447Y-7858233D01*
X15466447Y-7858233D02*
X15473114Y-7864900D01*
X15473114Y-7864900D02*
X15479781Y-7878233D01*
X15479781Y-7878233D02*
X15479781Y-7898233D01*
X15479781Y-7898233D02*
X15473114Y-7911567D01*
X15473114Y-7911567D02*
X15466447Y-7918233D01*
X15466447Y-7918233D02*
X15453114Y-7924900D01*
X15453114Y-7924900D02*
X15399781Y-7924900D01*
X15539781Y-7918233D02*
X15586447Y-7918233D01*
X15606447Y-7991567D02*
X15539781Y-7991567D01*
X15539781Y-7991567D02*
X15539781Y-7851567D01*
X15539781Y-7851567D02*
X15606447Y-7851567D01*
X15659781Y-7984900D02*
X15679781Y-7991567D01*
X15679781Y-7991567D02*
X15713114Y-7991567D01*
X15713114Y-7991567D02*
X15726447Y-7984900D01*
X15726447Y-7984900D02*
X15733114Y-7978233D01*
X15733114Y-7978233D02*
X15739781Y-7964900D01*
X15739781Y-7964900D02*
X15739781Y-7951567D01*
X15739781Y-7951567D02*
X15733114Y-7938233D01*
X15733114Y-7938233D02*
X15726447Y-7931567D01*
X15726447Y-7931567D02*
X15713114Y-7924900D01*
X15713114Y-7924900D02*
X15686447Y-7918233D01*
X15686447Y-7918233D02*
X15673114Y-7911567D01*
X15673114Y-7911567D02*
X15666447Y-7904900D01*
X15666447Y-7904900D02*
X15659781Y-7891567D01*
X15659781Y-7891567D02*
X15659781Y-7878233D01*
X15659781Y-7878233D02*
X15666447Y-7864900D01*
X15666447Y-7864900D02*
X15673114Y-7858233D01*
X15673114Y-7858233D02*
X15686447Y-7851567D01*
X15686447Y-7851567D02*
X15719781Y-7851567D01*
X15719781Y-7851567D02*
X15739781Y-7858233D01*
X15799781Y-7918233D02*
X15846447Y-7918233D01*
X15866447Y-7991567D02*
X15799781Y-7991567D01*
X15799781Y-7991567D02*
X15799781Y-7851567D01*
X15799781Y-7851567D02*
X15866447Y-7851567D01*
X15906447Y-7851567D02*
X15986447Y-7851567D01*
X15946447Y-7991567D02*
X15946447Y-7851567D01*
X14734962Y-9511905D02*
X14687343Y-9545238D01*
X14734962Y-9569048D02*
X14634962Y-9569048D01*
X14634962Y-9569048D02*
X14634962Y-9530952D01*
X14634962Y-9530952D02*
X14639724Y-9521429D01*
X14639724Y-9521429D02*
X14644486Y-9516667D01*
X14644486Y-9516667D02*
X14654009Y-9511905D01*
X14654009Y-9511905D02*
X14668295Y-9511905D01*
X14668295Y-9511905D02*
X14677819Y-9516667D01*
X14677819Y-9516667D02*
X14682581Y-9521429D01*
X14682581Y-9521429D02*
X14687343Y-9530952D01*
X14687343Y-9530952D02*
X14687343Y-9569048D01*
X14677819Y-9454762D02*
X14673057Y-9464286D01*
X14673057Y-9464286D02*
X14668295Y-9469048D01*
X14668295Y-9469048D02*
X14658771Y-9473809D01*
X14658771Y-9473809D02*
X14654009Y-9473809D01*
X14654009Y-9473809D02*
X14644486Y-9469048D01*
X14644486Y-9469048D02*
X14639724Y-9464286D01*
X14639724Y-9464286D02*
X14634962Y-9454762D01*
X14634962Y-9454762D02*
X14634962Y-9435714D01*
X14634962Y-9435714D02*
X14639724Y-9426190D01*
X14639724Y-9426190D02*
X14644486Y-9421429D01*
X14644486Y-9421429D02*
X14654009Y-9416667D01*
X14654009Y-9416667D02*
X14658771Y-9416667D01*
X14658771Y-9416667D02*
X14668295Y-9421429D01*
X14668295Y-9421429D02*
X14673057Y-9426190D01*
X14673057Y-9426190D02*
X14677819Y-9435714D01*
X14677819Y-9435714D02*
X14677819Y-9454762D01*
X14677819Y-9454762D02*
X14682581Y-9464286D01*
X14682581Y-9464286D02*
X14687343Y-9469048D01*
X14687343Y-9469048D02*
X14696867Y-9473809D01*
X14696867Y-9473809D02*
X14715914Y-9473809D01*
X14715914Y-9473809D02*
X14725438Y-9469048D01*
X14725438Y-9469048D02*
X14730200Y-9464286D01*
X14730200Y-9464286D02*
X14734962Y-9454762D01*
X14734962Y-9454762D02*
X14734962Y-9435714D01*
X14734962Y-9435714D02*
X14730200Y-9426190D01*
X14730200Y-9426190D02*
X14725438Y-9421429D01*
X14725438Y-9421429D02*
X14715914Y-9416667D01*
X14715914Y-9416667D02*
X14696867Y-9416667D01*
X14696867Y-9416667D02*
X14687343Y-9421429D01*
X14687343Y-9421429D02*
X14682581Y-9426190D01*
X14682581Y-9426190D02*
X14677819Y-9435714D01*
X14634962Y-9354762D02*
X14634962Y-9345238D01*
X14634962Y-9345238D02*
X14639724Y-9335714D01*
X14639724Y-9335714D02*
X14644486Y-9330952D01*
X14644486Y-9330952D02*
X14654009Y-9326190D01*
X14654009Y-9326190D02*
X14673057Y-9321429D01*
X14673057Y-9321429D02*
X14696867Y-9321429D01*
X14696867Y-9321429D02*
X14715914Y-9326190D01*
X14715914Y-9326190D02*
X14725438Y-9330952D01*
X14725438Y-9330952D02*
X14730200Y-9335714D01*
X14730200Y-9335714D02*
X14734962Y-9345238D01*
X14734962Y-9345238D02*
X14734962Y-9354762D01*
X14734962Y-9354762D02*
X14730200Y-9364286D01*
X14730200Y-9364286D02*
X14725438Y-9369048D01*
X14725438Y-9369048D02*
X14715914Y-9373809D01*
X14715914Y-9373809D02*
X14696867Y-9378571D01*
X14696867Y-9378571D02*
X14673057Y-9378571D01*
X14673057Y-9378571D02*
X14654009Y-9373809D01*
X14654009Y-9373809D02*
X14644486Y-9369048D01*
X14644486Y-9369048D02*
X14639724Y-9364286D01*
X14639724Y-9364286D02*
X14634962Y-9354762D01*
X14734962Y-9226190D02*
X14734962Y-9283333D01*
X14734962Y-9254762D02*
X14634962Y-9254762D01*
X14634962Y-9254762D02*
X14649248Y-9264286D01*
X14649248Y-9264286D02*
X14658771Y-9273809D01*
X14658771Y-9273809D02*
X14663533Y-9283333D01*
X11988571Y-11464962D02*
X12045714Y-11464962D01*
X12017143Y-11564962D02*
X12017143Y-11464962D01*
X12079048Y-11564962D02*
X12079048Y-11464962D01*
X12079048Y-11464962D02*
X12117143Y-11464962D01*
X12117143Y-11464962D02*
X12126667Y-11469724D01*
X12126667Y-11469724D02*
X12131428Y-11474486D01*
X12131428Y-11474486D02*
X12136190Y-11484009D01*
X12136190Y-11484009D02*
X12136190Y-11498295D01*
X12136190Y-11498295D02*
X12131428Y-11507819D01*
X12131428Y-11507819D02*
X12126667Y-11512581D01*
X12126667Y-11512581D02*
X12117143Y-11517343D01*
X12117143Y-11517343D02*
X12079048Y-11517343D01*
X12221905Y-11498295D02*
X12221905Y-11564962D01*
X12198095Y-11460200D02*
X12174286Y-11531628D01*
X12174286Y-11531628D02*
X12236190Y-11531628D01*
X12293333Y-11464962D02*
X12302857Y-11464962D01*
X12302857Y-11464962D02*
X12312381Y-11469724D01*
X12312381Y-11469724D02*
X12317143Y-11474486D01*
X12317143Y-11474486D02*
X12321905Y-11484009D01*
X12321905Y-11484009D02*
X12326667Y-11503057D01*
X12326667Y-11503057D02*
X12326667Y-11526867D01*
X12326667Y-11526867D02*
X12321905Y-11545914D01*
X12321905Y-11545914D02*
X12317143Y-11555438D01*
X12317143Y-11555438D02*
X12312381Y-11560200D01*
X12312381Y-11560200D02*
X12302857Y-11564962D01*
X12302857Y-11564962D02*
X12293333Y-11564962D01*
X12293333Y-11564962D02*
X12283809Y-11560200D01*
X12283809Y-11560200D02*
X12279048Y-11555438D01*
X12279048Y-11555438D02*
X12274286Y-11545914D01*
X12274286Y-11545914D02*
X12269524Y-11526867D01*
X12269524Y-11526867D02*
X12269524Y-11503057D01*
X12269524Y-11503057D02*
X12274286Y-11484009D01*
X12274286Y-11484009D02*
X12279048Y-11474486D01*
X12279048Y-11474486D02*
X12283809Y-11469724D01*
X12283809Y-11469724D02*
X12293333Y-11464962D01*
X12421905Y-11564962D02*
X12364762Y-11564962D01*
X12393333Y-11564962D02*
X12393333Y-11464962D01*
X12393333Y-11464962D02*
X12383809Y-11479248D01*
X12383809Y-11479248D02*
X12374286Y-11488771D01*
X12374286Y-11488771D02*
X12364762Y-11493533D01*
X14438095Y-8024962D02*
X14404762Y-7977343D01*
X14380952Y-8024962D02*
X14380952Y-7924962D01*
X14380952Y-7924962D02*
X14419048Y-7924962D01*
X14419048Y-7924962D02*
X14428571Y-7929724D01*
X14428571Y-7929724D02*
X14433333Y-7934486D01*
X14433333Y-7934486D02*
X14438095Y-7944009D01*
X14438095Y-7944009D02*
X14438095Y-7958295D01*
X14438095Y-7958295D02*
X14433333Y-7967819D01*
X14433333Y-7967819D02*
X14428571Y-7972581D01*
X14428571Y-7972581D02*
X14419048Y-7977343D01*
X14419048Y-7977343D02*
X14380952Y-7977343D01*
X14476190Y-7934486D02*
X14480952Y-7929724D01*
X14480952Y-7929724D02*
X14490476Y-7924962D01*
X14490476Y-7924962D02*
X14514286Y-7924962D01*
X14514286Y-7924962D02*
X14523809Y-7929724D01*
X14523809Y-7929724D02*
X14528571Y-7934486D01*
X14528571Y-7934486D02*
X14533333Y-7944009D01*
X14533333Y-7944009D02*
X14533333Y-7953533D01*
X14533333Y-7953533D02*
X14528571Y-7967819D01*
X14528571Y-7967819D02*
X14471429Y-8024962D01*
X14471429Y-8024962D02*
X14533333Y-8024962D01*
X14595238Y-7924962D02*
X14604762Y-7924962D01*
X14604762Y-7924962D02*
X14614286Y-7929724D01*
X14614286Y-7929724D02*
X14619048Y-7934486D01*
X14619048Y-7934486D02*
X14623809Y-7944009D01*
X14623809Y-7944009D02*
X14628571Y-7963057D01*
X14628571Y-7963057D02*
X14628571Y-7986867D01*
X14628571Y-7986867D02*
X14623809Y-8005914D01*
X14623809Y-8005914D02*
X14619048Y-8015438D01*
X14619048Y-8015438D02*
X14614286Y-8020200D01*
X14614286Y-8020200D02*
X14604762Y-8024962D01*
X14604762Y-8024962D02*
X14595238Y-8024962D01*
X14595238Y-8024962D02*
X14585714Y-8020200D01*
X14585714Y-8020200D02*
X14580952Y-8015438D01*
X14580952Y-8015438D02*
X14576190Y-8005914D01*
X14576190Y-8005914D02*
X14571429Y-7986867D01*
X14571429Y-7986867D02*
X14571429Y-7963057D01*
X14571429Y-7963057D02*
X14576190Y-7944009D01*
X14576190Y-7944009D02*
X14580952Y-7934486D01*
X14580952Y-7934486D02*
X14585714Y-7929724D01*
X14585714Y-7929724D02*
X14595238Y-7924962D01*
X14666667Y-7934486D02*
X14671429Y-7929724D01*
X14671429Y-7929724D02*
X14680952Y-7924962D01*
X14680952Y-7924962D02*
X14704762Y-7924962D01*
X14704762Y-7924962D02*
X14714286Y-7929724D01*
X14714286Y-7929724D02*
X14719048Y-7934486D01*
X14719048Y-7934486D02*
X14723809Y-7944009D01*
X14723809Y-7944009D02*
X14723809Y-7953533D01*
X14723809Y-7953533D02*
X14719048Y-7967819D01*
X14719048Y-7967819D02*
X14661905Y-8024962D01*
X14661905Y-8024962D02*
X14723809Y-8024962D01*
X15278095Y-10064962D02*
X15244762Y-10017343D01*
X15220952Y-10064962D02*
X15220952Y-9964962D01*
X15220952Y-9964962D02*
X15259048Y-9964962D01*
X15259048Y-9964962D02*
X15268571Y-9969724D01*
X15268571Y-9969724D02*
X15273333Y-9974486D01*
X15273333Y-9974486D02*
X15278095Y-9984010D01*
X15278095Y-9984010D02*
X15278095Y-9998295D01*
X15278095Y-9998295D02*
X15273333Y-10007819D01*
X15273333Y-10007819D02*
X15268571Y-10012581D01*
X15268571Y-10012581D02*
X15259048Y-10017343D01*
X15259048Y-10017343D02*
X15220952Y-10017343D01*
X15335238Y-10007819D02*
X15325714Y-10003057D01*
X15325714Y-10003057D02*
X15320952Y-9998295D01*
X15320952Y-9998295D02*
X15316190Y-9988771D01*
X15316190Y-9988771D02*
X15316190Y-9984010D01*
X15316190Y-9984010D02*
X15320952Y-9974486D01*
X15320952Y-9974486D02*
X15325714Y-9969724D01*
X15325714Y-9969724D02*
X15335238Y-9964962D01*
X15335238Y-9964962D02*
X15354286Y-9964962D01*
X15354286Y-9964962D02*
X15363809Y-9969724D01*
X15363809Y-9969724D02*
X15368571Y-9974486D01*
X15368571Y-9974486D02*
X15373333Y-9984010D01*
X15373333Y-9984010D02*
X15373333Y-9988771D01*
X15373333Y-9988771D02*
X15368571Y-9998295D01*
X15368571Y-9998295D02*
X15363809Y-10003057D01*
X15363809Y-10003057D02*
X15354286Y-10007819D01*
X15354286Y-10007819D02*
X15335238Y-10007819D01*
X15335238Y-10007819D02*
X15325714Y-10012581D01*
X15325714Y-10012581D02*
X15320952Y-10017343D01*
X15320952Y-10017343D02*
X15316190Y-10026867D01*
X15316190Y-10026867D02*
X15316190Y-10045914D01*
X15316190Y-10045914D02*
X15320952Y-10055438D01*
X15320952Y-10055438D02*
X15325714Y-10060200D01*
X15325714Y-10060200D02*
X15335238Y-10064962D01*
X15335238Y-10064962D02*
X15354286Y-10064962D01*
X15354286Y-10064962D02*
X15363809Y-10060200D01*
X15363809Y-10060200D02*
X15368571Y-10055438D01*
X15368571Y-10055438D02*
X15373333Y-10045914D01*
X15373333Y-10045914D02*
X15373333Y-10026867D01*
X15373333Y-10026867D02*
X15368571Y-10017343D01*
X15368571Y-10017343D02*
X15363809Y-10012581D01*
X15363809Y-10012581D02*
X15354286Y-10007819D01*
X15435238Y-9964962D02*
X15444762Y-9964962D01*
X15444762Y-9964962D02*
X15454286Y-9969724D01*
X15454286Y-9969724D02*
X15459048Y-9974486D01*
X15459048Y-9974486D02*
X15463809Y-9984010D01*
X15463809Y-9984010D02*
X15468571Y-10003057D01*
X15468571Y-10003057D02*
X15468571Y-10026867D01*
X15468571Y-10026867D02*
X15463809Y-10045914D01*
X15463809Y-10045914D02*
X15459048Y-10055438D01*
X15459048Y-10055438D02*
X15454286Y-10060200D01*
X15454286Y-10060200D02*
X15444762Y-10064962D01*
X15444762Y-10064962D02*
X15435238Y-10064962D01*
X15435238Y-10064962D02*
X15425714Y-10060200D01*
X15425714Y-10060200D02*
X15420952Y-10055438D01*
X15420952Y-10055438D02*
X15416190Y-10045914D01*
X15416190Y-10045914D02*
X15411429Y-10026867D01*
X15411429Y-10026867D02*
X15411429Y-10003057D01*
X15411429Y-10003057D02*
X15416190Y-9984010D01*
X15416190Y-9984010D02*
X15420952Y-9974486D01*
X15420952Y-9974486D02*
X15425714Y-9969724D01*
X15425714Y-9969724D02*
X15435238Y-9964962D01*
X15554286Y-9998295D02*
X15554286Y-10064962D01*
X15530476Y-9960200D02*
X15506667Y-10031629D01*
X15506667Y-10031629D02*
X15568571Y-10031629D01*
X14734962Y-9941905D02*
X14687343Y-9975238D01*
X14734962Y-9999048D02*
X14634962Y-9999048D01*
X14634962Y-9999048D02*
X14634962Y-9960952D01*
X14634962Y-9960952D02*
X14639724Y-9951429D01*
X14639724Y-9951429D02*
X14644486Y-9946667D01*
X14644486Y-9946667D02*
X14654009Y-9941905D01*
X14654009Y-9941905D02*
X14668295Y-9941905D01*
X14668295Y-9941905D02*
X14677819Y-9946667D01*
X14677819Y-9946667D02*
X14682581Y-9951429D01*
X14682581Y-9951429D02*
X14687343Y-9960952D01*
X14687343Y-9960952D02*
X14687343Y-9999048D01*
X14677819Y-9884762D02*
X14673057Y-9894286D01*
X14673057Y-9894286D02*
X14668295Y-9899048D01*
X14668295Y-9899048D02*
X14658771Y-9903809D01*
X14658771Y-9903809D02*
X14654009Y-9903809D01*
X14654009Y-9903809D02*
X14644486Y-9899048D01*
X14644486Y-9899048D02*
X14639724Y-9894286D01*
X14639724Y-9894286D02*
X14634962Y-9884762D01*
X14634962Y-9884762D02*
X14634962Y-9865714D01*
X14634962Y-9865714D02*
X14639724Y-9856190D01*
X14639724Y-9856190D02*
X14644486Y-9851429D01*
X14644486Y-9851429D02*
X14654009Y-9846667D01*
X14654009Y-9846667D02*
X14658771Y-9846667D01*
X14658771Y-9846667D02*
X14668295Y-9851429D01*
X14668295Y-9851429D02*
X14673057Y-9856190D01*
X14673057Y-9856190D02*
X14677819Y-9865714D01*
X14677819Y-9865714D02*
X14677819Y-9884762D01*
X14677819Y-9884762D02*
X14682581Y-9894286D01*
X14682581Y-9894286D02*
X14687343Y-9899048D01*
X14687343Y-9899048D02*
X14696867Y-9903809D01*
X14696867Y-9903809D02*
X14715914Y-9903809D01*
X14715914Y-9903809D02*
X14725438Y-9899048D01*
X14725438Y-9899048D02*
X14730200Y-9894286D01*
X14730200Y-9894286D02*
X14734962Y-9884762D01*
X14734962Y-9884762D02*
X14734962Y-9865714D01*
X14734962Y-9865714D02*
X14730200Y-9856190D01*
X14730200Y-9856190D02*
X14725438Y-9851429D01*
X14725438Y-9851429D02*
X14715914Y-9846667D01*
X14715914Y-9846667D02*
X14696867Y-9846667D01*
X14696867Y-9846667D02*
X14687343Y-9851429D01*
X14687343Y-9851429D02*
X14682581Y-9856190D01*
X14682581Y-9856190D02*
X14677819Y-9865714D01*
X14634962Y-9784762D02*
X14634962Y-9775238D01*
X14634962Y-9775238D02*
X14639724Y-9765714D01*
X14639724Y-9765714D02*
X14644486Y-9760952D01*
X14644486Y-9760952D02*
X14654009Y-9756190D01*
X14654009Y-9756190D02*
X14673057Y-9751429D01*
X14673057Y-9751429D02*
X14696867Y-9751429D01*
X14696867Y-9751429D02*
X14715914Y-9756190D01*
X14715914Y-9756190D02*
X14725438Y-9760952D01*
X14725438Y-9760952D02*
X14730200Y-9765714D01*
X14730200Y-9765714D02*
X14734962Y-9775238D01*
X14734962Y-9775238D02*
X14734962Y-9784762D01*
X14734962Y-9784762D02*
X14730200Y-9794286D01*
X14730200Y-9794286D02*
X14725438Y-9799048D01*
X14725438Y-9799048D02*
X14715914Y-9803809D01*
X14715914Y-9803809D02*
X14696867Y-9808571D01*
X14696867Y-9808571D02*
X14673057Y-9808571D01*
X14673057Y-9808571D02*
X14654009Y-9803809D01*
X14654009Y-9803809D02*
X14644486Y-9799048D01*
X14644486Y-9799048D02*
X14639724Y-9794286D01*
X14639724Y-9794286D02*
X14634962Y-9784762D01*
X14634962Y-9718095D02*
X14634962Y-9656190D01*
X14634962Y-9656190D02*
X14673057Y-9689524D01*
X14673057Y-9689524D02*
X14673057Y-9675238D01*
X14673057Y-9675238D02*
X14677819Y-9665714D01*
X14677819Y-9665714D02*
X14682581Y-9660952D01*
X14682581Y-9660952D02*
X14692105Y-9656190D01*
X14692105Y-9656190D02*
X14715914Y-9656190D01*
X14715914Y-9656190D02*
X14725438Y-9660952D01*
X14725438Y-9660952D02*
X14730200Y-9665714D01*
X14730200Y-9665714D02*
X14734962Y-9675238D01*
X14734962Y-9675238D02*
X14734962Y-9703809D01*
X14734962Y-9703809D02*
X14730200Y-9713333D01*
X14730200Y-9713333D02*
X14725438Y-9718095D01*
X11910952Y-7319962D02*
X11910952Y-7219962D01*
X11910952Y-7219962D02*
X11934762Y-7219962D01*
X11934762Y-7219962D02*
X11949048Y-7224724D01*
X11949048Y-7224724D02*
X11958571Y-7234248D01*
X11958571Y-7234248D02*
X11963333Y-7243771D01*
X11963333Y-7243771D02*
X11968095Y-7262819D01*
X11968095Y-7262819D02*
X11968095Y-7277105D01*
X11968095Y-7277105D02*
X11963333Y-7296152D01*
X11963333Y-7296152D02*
X11958571Y-7305676D01*
X11958571Y-7305676D02*
X11949048Y-7315200D01*
X11949048Y-7315200D02*
X11934762Y-7319962D01*
X11934762Y-7319962D02*
X11910952Y-7319962D01*
X12006190Y-7229486D02*
X12010952Y-7224724D01*
X12010952Y-7224724D02*
X12020476Y-7219962D01*
X12020476Y-7219962D02*
X12044286Y-7219962D01*
X12044286Y-7219962D02*
X12053809Y-7224724D01*
X12053809Y-7224724D02*
X12058571Y-7229486D01*
X12058571Y-7229486D02*
X12063333Y-7239009D01*
X12063333Y-7239009D02*
X12063333Y-7248533D01*
X12063333Y-7248533D02*
X12058571Y-7262819D01*
X12058571Y-7262819D02*
X12001429Y-7319962D01*
X12001429Y-7319962D02*
X12063333Y-7319962D01*
X12125238Y-7219962D02*
X12134762Y-7219962D01*
X12134762Y-7219962D02*
X12144286Y-7224724D01*
X12144286Y-7224724D02*
X12149048Y-7229486D01*
X12149048Y-7229486D02*
X12153809Y-7239009D01*
X12153809Y-7239009D02*
X12158571Y-7258057D01*
X12158571Y-7258057D02*
X12158571Y-7281867D01*
X12158571Y-7281867D02*
X12153809Y-7300914D01*
X12153809Y-7300914D02*
X12149048Y-7310438D01*
X12149048Y-7310438D02*
X12144286Y-7315200D01*
X12144286Y-7315200D02*
X12134762Y-7319962D01*
X12134762Y-7319962D02*
X12125238Y-7319962D01*
X12125238Y-7319962D02*
X12115714Y-7315200D01*
X12115714Y-7315200D02*
X12110952Y-7310438D01*
X12110952Y-7310438D02*
X12106190Y-7300914D01*
X12106190Y-7300914D02*
X12101429Y-7281867D01*
X12101429Y-7281867D02*
X12101429Y-7258057D01*
X12101429Y-7258057D02*
X12106190Y-7239009D01*
X12106190Y-7239009D02*
X12110952Y-7229486D01*
X12110952Y-7229486D02*
X12115714Y-7224724D01*
X12115714Y-7224724D02*
X12125238Y-7219962D01*
X12196667Y-7229486D02*
X12201429Y-7224724D01*
X12201429Y-7224724D02*
X12210952Y-7219962D01*
X12210952Y-7219962D02*
X12234762Y-7219962D01*
X12234762Y-7219962D02*
X12244286Y-7224724D01*
X12244286Y-7224724D02*
X12249048Y-7229486D01*
X12249048Y-7229486D02*
X12253809Y-7239009D01*
X12253809Y-7239009D02*
X12253809Y-7248533D01*
X12253809Y-7248533D02*
X12249048Y-7262819D01*
X12249048Y-7262819D02*
X12191905Y-7319962D01*
X12191905Y-7319962D02*
X12253809Y-7319962D01*
X11968095Y-7814962D02*
X11934762Y-7767343D01*
X11910952Y-7814962D02*
X11910952Y-7714962D01*
X11910952Y-7714962D02*
X11949048Y-7714962D01*
X11949048Y-7714962D02*
X11958571Y-7719724D01*
X11958571Y-7719724D02*
X11963333Y-7724486D01*
X11963333Y-7724486D02*
X11968095Y-7734009D01*
X11968095Y-7734009D02*
X11968095Y-7748295D01*
X11968095Y-7748295D02*
X11963333Y-7757819D01*
X11963333Y-7757819D02*
X11958571Y-7762581D01*
X11958571Y-7762581D02*
X11949048Y-7767343D01*
X11949048Y-7767343D02*
X11910952Y-7767343D01*
X12006190Y-7724486D02*
X12010952Y-7719724D01*
X12010952Y-7719724D02*
X12020476Y-7714962D01*
X12020476Y-7714962D02*
X12044286Y-7714962D01*
X12044286Y-7714962D02*
X12053809Y-7719724D01*
X12053809Y-7719724D02*
X12058571Y-7724486D01*
X12058571Y-7724486D02*
X12063333Y-7734009D01*
X12063333Y-7734009D02*
X12063333Y-7743533D01*
X12063333Y-7743533D02*
X12058571Y-7757819D01*
X12058571Y-7757819D02*
X12001429Y-7814962D01*
X12001429Y-7814962D02*
X12063333Y-7814962D01*
X12125238Y-7714962D02*
X12134762Y-7714962D01*
X12134762Y-7714962D02*
X12144286Y-7719724D01*
X12144286Y-7719724D02*
X12149048Y-7724486D01*
X12149048Y-7724486D02*
X12153809Y-7734009D01*
X12153809Y-7734009D02*
X12158571Y-7753057D01*
X12158571Y-7753057D02*
X12158571Y-7776867D01*
X12158571Y-7776867D02*
X12153809Y-7795914D01*
X12153809Y-7795914D02*
X12149048Y-7805438D01*
X12149048Y-7805438D02*
X12144286Y-7810200D01*
X12144286Y-7810200D02*
X12134762Y-7814962D01*
X12134762Y-7814962D02*
X12125238Y-7814962D01*
X12125238Y-7814962D02*
X12115714Y-7810200D01*
X12115714Y-7810200D02*
X12110952Y-7805438D01*
X12110952Y-7805438D02*
X12106190Y-7795914D01*
X12106190Y-7795914D02*
X12101429Y-7776867D01*
X12101429Y-7776867D02*
X12101429Y-7753057D01*
X12101429Y-7753057D02*
X12106190Y-7734009D01*
X12106190Y-7734009D02*
X12110952Y-7724486D01*
X12110952Y-7724486D02*
X12115714Y-7719724D01*
X12115714Y-7719724D02*
X12125238Y-7714962D01*
X12191905Y-7714962D02*
X12253809Y-7714962D01*
X12253809Y-7714962D02*
X12220476Y-7753057D01*
X12220476Y-7753057D02*
X12234762Y-7753057D01*
X12234762Y-7753057D02*
X12244286Y-7757819D01*
X12244286Y-7757819D02*
X12249048Y-7762581D01*
X12249048Y-7762581D02*
X12253809Y-7772105D01*
X12253809Y-7772105D02*
X12253809Y-7795914D01*
X12253809Y-7795914D02*
X12249048Y-7805438D01*
X12249048Y-7805438D02*
X12244286Y-7810200D01*
X12244286Y-7810200D02*
X12234762Y-7814962D01*
X12234762Y-7814962D02*
X12206190Y-7814962D01*
X12206190Y-7814962D02*
X12196667Y-7810200D01*
X12196667Y-7810200D02*
X12191905Y-7805438D01*
X12920952Y-7321212D02*
X12920952Y-7221212D01*
X12920952Y-7221212D02*
X12944762Y-7221212D01*
X12944762Y-7221212D02*
X12959048Y-7225974D01*
X12959048Y-7225974D02*
X12968571Y-7235498D01*
X12968571Y-7235498D02*
X12973333Y-7245021D01*
X12973333Y-7245021D02*
X12978095Y-7264069D01*
X12978095Y-7264069D02*
X12978095Y-7278355D01*
X12978095Y-7278355D02*
X12973333Y-7297402D01*
X12973333Y-7297402D02*
X12968571Y-7306926D01*
X12968571Y-7306926D02*
X12959048Y-7316450D01*
X12959048Y-7316450D02*
X12944762Y-7321212D01*
X12944762Y-7321212D02*
X12920952Y-7321212D01*
X13016190Y-7230736D02*
X13020952Y-7225974D01*
X13020952Y-7225974D02*
X13030476Y-7221212D01*
X13030476Y-7221212D02*
X13054286Y-7221212D01*
X13054286Y-7221212D02*
X13063809Y-7225974D01*
X13063809Y-7225974D02*
X13068571Y-7230736D01*
X13068571Y-7230736D02*
X13073333Y-7240259D01*
X13073333Y-7240259D02*
X13073333Y-7249783D01*
X13073333Y-7249783D02*
X13068571Y-7264069D01*
X13068571Y-7264069D02*
X13011429Y-7321212D01*
X13011429Y-7321212D02*
X13073333Y-7321212D01*
X13135238Y-7221212D02*
X13144762Y-7221212D01*
X13144762Y-7221212D02*
X13154286Y-7225974D01*
X13154286Y-7225974D02*
X13159048Y-7230736D01*
X13159048Y-7230736D02*
X13163809Y-7240259D01*
X13163809Y-7240259D02*
X13168571Y-7259307D01*
X13168571Y-7259307D02*
X13168571Y-7283117D01*
X13168571Y-7283117D02*
X13163809Y-7302164D01*
X13163809Y-7302164D02*
X13159048Y-7311688D01*
X13159048Y-7311688D02*
X13154286Y-7316450D01*
X13154286Y-7316450D02*
X13144762Y-7321212D01*
X13144762Y-7321212D02*
X13135238Y-7321212D01*
X13135238Y-7321212D02*
X13125714Y-7316450D01*
X13125714Y-7316450D02*
X13120952Y-7311688D01*
X13120952Y-7311688D02*
X13116190Y-7302164D01*
X13116190Y-7302164D02*
X13111429Y-7283117D01*
X13111429Y-7283117D02*
X13111429Y-7259307D01*
X13111429Y-7259307D02*
X13116190Y-7240259D01*
X13116190Y-7240259D02*
X13120952Y-7230736D01*
X13120952Y-7230736D02*
X13125714Y-7225974D01*
X13125714Y-7225974D02*
X13135238Y-7221212D01*
X13263809Y-7321212D02*
X13206667Y-7321212D01*
X13235238Y-7321212D02*
X13235238Y-7221212D01*
X13235238Y-7221212D02*
X13225714Y-7235498D01*
X13225714Y-7235498D02*
X13216190Y-7245021D01*
X13216190Y-7245021D02*
X13206667Y-7249783D01*
X14685238Y-11004486D02*
X14675714Y-10999724D01*
X14675714Y-10999724D02*
X14666190Y-10990200D01*
X14666190Y-10990200D02*
X14651905Y-10975914D01*
X14651905Y-10975914D02*
X14642381Y-10971152D01*
X14642381Y-10971152D02*
X14632857Y-10971152D01*
X14637619Y-10994962D02*
X14628095Y-10990200D01*
X14628095Y-10990200D02*
X14618571Y-10980676D01*
X14618571Y-10980676D02*
X14613809Y-10961629D01*
X14613809Y-10961629D02*
X14613809Y-10928295D01*
X14613809Y-10928295D02*
X14618571Y-10909248D01*
X14618571Y-10909248D02*
X14628095Y-10899724D01*
X14628095Y-10899724D02*
X14637619Y-10894962D01*
X14637619Y-10894962D02*
X14656667Y-10894962D01*
X14656667Y-10894962D02*
X14666190Y-10899724D01*
X14666190Y-10899724D02*
X14675714Y-10909248D01*
X14675714Y-10909248D02*
X14680476Y-10928295D01*
X14680476Y-10928295D02*
X14680476Y-10961629D01*
X14680476Y-10961629D02*
X14675714Y-10980676D01*
X14675714Y-10980676D02*
X14666190Y-10990200D01*
X14666190Y-10990200D02*
X14656667Y-10994962D01*
X14656667Y-10994962D02*
X14637619Y-10994962D01*
X14737619Y-10937819D02*
X14728095Y-10933057D01*
X14728095Y-10933057D02*
X14723333Y-10928295D01*
X14723333Y-10928295D02*
X14718571Y-10918771D01*
X14718571Y-10918771D02*
X14718571Y-10914010D01*
X14718571Y-10914010D02*
X14723333Y-10904486D01*
X14723333Y-10904486D02*
X14728095Y-10899724D01*
X14728095Y-10899724D02*
X14737619Y-10894962D01*
X14737619Y-10894962D02*
X14756667Y-10894962D01*
X14756667Y-10894962D02*
X14766190Y-10899724D01*
X14766190Y-10899724D02*
X14770952Y-10904486D01*
X14770952Y-10904486D02*
X14775714Y-10914010D01*
X14775714Y-10914010D02*
X14775714Y-10918771D01*
X14775714Y-10918771D02*
X14770952Y-10928295D01*
X14770952Y-10928295D02*
X14766190Y-10933057D01*
X14766190Y-10933057D02*
X14756667Y-10937819D01*
X14756667Y-10937819D02*
X14737619Y-10937819D01*
X14737619Y-10937819D02*
X14728095Y-10942581D01*
X14728095Y-10942581D02*
X14723333Y-10947343D01*
X14723333Y-10947343D02*
X14718571Y-10956867D01*
X14718571Y-10956867D02*
X14718571Y-10975914D01*
X14718571Y-10975914D02*
X14723333Y-10985438D01*
X14723333Y-10985438D02*
X14728095Y-10990200D01*
X14728095Y-10990200D02*
X14737619Y-10994962D01*
X14737619Y-10994962D02*
X14756667Y-10994962D01*
X14756667Y-10994962D02*
X14766190Y-10990200D01*
X14766190Y-10990200D02*
X14770952Y-10985438D01*
X14770952Y-10985438D02*
X14775714Y-10975914D01*
X14775714Y-10975914D02*
X14775714Y-10956867D01*
X14775714Y-10956867D02*
X14770952Y-10947343D01*
X14770952Y-10947343D02*
X14766190Y-10942581D01*
X14766190Y-10942581D02*
X14756667Y-10937819D01*
X14837619Y-10894962D02*
X14847143Y-10894962D01*
X14847143Y-10894962D02*
X14856667Y-10899724D01*
X14856667Y-10899724D02*
X14861428Y-10904486D01*
X14861428Y-10904486D02*
X14866190Y-10914010D01*
X14866190Y-10914010D02*
X14870952Y-10933057D01*
X14870952Y-10933057D02*
X14870952Y-10956867D01*
X14870952Y-10956867D02*
X14866190Y-10975914D01*
X14866190Y-10975914D02*
X14861428Y-10985438D01*
X14861428Y-10985438D02*
X14856667Y-10990200D01*
X14856667Y-10990200D02*
X14847143Y-10994962D01*
X14847143Y-10994962D02*
X14837619Y-10994962D01*
X14837619Y-10994962D02*
X14828095Y-10990200D01*
X14828095Y-10990200D02*
X14823333Y-10985438D01*
X14823333Y-10985438D02*
X14818571Y-10975914D01*
X14818571Y-10975914D02*
X14813809Y-10956867D01*
X14813809Y-10956867D02*
X14813809Y-10933057D01*
X14813809Y-10933057D02*
X14818571Y-10914010D01*
X14818571Y-10914010D02*
X14823333Y-10904486D01*
X14823333Y-10904486D02*
X14828095Y-10899724D01*
X14828095Y-10899724D02*
X14837619Y-10894962D01*
X14966190Y-10994962D02*
X14909048Y-10994962D01*
X14937619Y-10994962D02*
X14937619Y-10894962D01*
X14937619Y-10894962D02*
X14928095Y-10909248D01*
X14928095Y-10909248D02*
X14918571Y-10918771D01*
X14918571Y-10918771D02*
X14909048Y-10923533D01*
X14688095Y-10214962D02*
X14654762Y-10167343D01*
X14630952Y-10214962D02*
X14630952Y-10114962D01*
X14630952Y-10114962D02*
X14669048Y-10114962D01*
X14669048Y-10114962D02*
X14678571Y-10119724D01*
X14678571Y-10119724D02*
X14683333Y-10124486D01*
X14683333Y-10124486D02*
X14688095Y-10134010D01*
X14688095Y-10134010D02*
X14688095Y-10148295D01*
X14688095Y-10148295D02*
X14683333Y-10157819D01*
X14683333Y-10157819D02*
X14678571Y-10162581D01*
X14678571Y-10162581D02*
X14669048Y-10167343D01*
X14669048Y-10167343D02*
X14630952Y-10167343D01*
X14745238Y-10157819D02*
X14735714Y-10153057D01*
X14735714Y-10153057D02*
X14730952Y-10148295D01*
X14730952Y-10148295D02*
X14726190Y-10138771D01*
X14726190Y-10138771D02*
X14726190Y-10134010D01*
X14726190Y-10134010D02*
X14730952Y-10124486D01*
X14730952Y-10124486D02*
X14735714Y-10119724D01*
X14735714Y-10119724D02*
X14745238Y-10114962D01*
X14745238Y-10114962D02*
X14764286Y-10114962D01*
X14764286Y-10114962D02*
X14773809Y-10119724D01*
X14773809Y-10119724D02*
X14778571Y-10124486D01*
X14778571Y-10124486D02*
X14783333Y-10134010D01*
X14783333Y-10134010D02*
X14783333Y-10138771D01*
X14783333Y-10138771D02*
X14778571Y-10148295D01*
X14778571Y-10148295D02*
X14773809Y-10153057D01*
X14773809Y-10153057D02*
X14764286Y-10157819D01*
X14764286Y-10157819D02*
X14745238Y-10157819D01*
X14745238Y-10157819D02*
X14735714Y-10162581D01*
X14735714Y-10162581D02*
X14730952Y-10167343D01*
X14730952Y-10167343D02*
X14726190Y-10176867D01*
X14726190Y-10176867D02*
X14726190Y-10195914D01*
X14726190Y-10195914D02*
X14730952Y-10205438D01*
X14730952Y-10205438D02*
X14735714Y-10210200D01*
X14735714Y-10210200D02*
X14745238Y-10214962D01*
X14745238Y-10214962D02*
X14764286Y-10214962D01*
X14764286Y-10214962D02*
X14773809Y-10210200D01*
X14773809Y-10210200D02*
X14778571Y-10205438D01*
X14778571Y-10205438D02*
X14783333Y-10195914D01*
X14783333Y-10195914D02*
X14783333Y-10176867D01*
X14783333Y-10176867D02*
X14778571Y-10167343D01*
X14778571Y-10167343D02*
X14773809Y-10162581D01*
X14773809Y-10162581D02*
X14764286Y-10157819D01*
X14845238Y-10114962D02*
X14854762Y-10114962D01*
X14854762Y-10114962D02*
X14864286Y-10119724D01*
X14864286Y-10119724D02*
X14869048Y-10124486D01*
X14869048Y-10124486D02*
X14873809Y-10134010D01*
X14873809Y-10134010D02*
X14878571Y-10153057D01*
X14878571Y-10153057D02*
X14878571Y-10176867D01*
X14878571Y-10176867D02*
X14873809Y-10195914D01*
X14873809Y-10195914D02*
X14869048Y-10205438D01*
X14869048Y-10205438D02*
X14864286Y-10210200D01*
X14864286Y-10210200D02*
X14854762Y-10214962D01*
X14854762Y-10214962D02*
X14845238Y-10214962D01*
X14845238Y-10214962D02*
X14835714Y-10210200D01*
X14835714Y-10210200D02*
X14830952Y-10205438D01*
X14830952Y-10205438D02*
X14826190Y-10195914D01*
X14826190Y-10195914D02*
X14821429Y-10176867D01*
X14821429Y-10176867D02*
X14821429Y-10153057D01*
X14821429Y-10153057D02*
X14826190Y-10134010D01*
X14826190Y-10134010D02*
X14830952Y-10124486D01*
X14830952Y-10124486D02*
X14835714Y-10119724D01*
X14835714Y-10119724D02*
X14845238Y-10114962D01*
X14964286Y-10114962D02*
X14945238Y-10114962D01*
X14945238Y-10114962D02*
X14935714Y-10119724D01*
X14935714Y-10119724D02*
X14930952Y-10124486D01*
X14930952Y-10124486D02*
X14921429Y-10138771D01*
X14921429Y-10138771D02*
X14916667Y-10157819D01*
X14916667Y-10157819D02*
X14916667Y-10195914D01*
X14916667Y-10195914D02*
X14921429Y-10205438D01*
X14921429Y-10205438D02*
X14926190Y-10210200D01*
X14926190Y-10210200D02*
X14935714Y-10214962D01*
X14935714Y-10214962D02*
X14954762Y-10214962D01*
X14954762Y-10214962D02*
X14964286Y-10210200D01*
X14964286Y-10210200D02*
X14969048Y-10205438D01*
X14969048Y-10205438D02*
X14973809Y-10195914D01*
X14973809Y-10195914D02*
X14973809Y-10172105D01*
X14973809Y-10172105D02*
X14969048Y-10162581D01*
X14969048Y-10162581D02*
X14964286Y-10157819D01*
X14964286Y-10157819D02*
X14954762Y-10153057D01*
X14954762Y-10153057D02*
X14935714Y-10153057D01*
X14935714Y-10153057D02*
X14926190Y-10157819D01*
X14926190Y-10157819D02*
X14921429Y-10162581D01*
X14921429Y-10162581D02*
X14916667Y-10172105D01*
X13745438Y-9651905D02*
X13750200Y-9656667D01*
X13750200Y-9656667D02*
X13754962Y-9670952D01*
X13754962Y-9670952D02*
X13754962Y-9680476D01*
X13754962Y-9680476D02*
X13750200Y-9694762D01*
X13750200Y-9694762D02*
X13740676Y-9704286D01*
X13740676Y-9704286D02*
X13731152Y-9709048D01*
X13731152Y-9709048D02*
X13712105Y-9713809D01*
X13712105Y-9713809D02*
X13697819Y-9713809D01*
X13697819Y-9713809D02*
X13678771Y-9709048D01*
X13678771Y-9709048D02*
X13669248Y-9704286D01*
X13669248Y-9704286D02*
X13659724Y-9694762D01*
X13659724Y-9694762D02*
X13654962Y-9680476D01*
X13654962Y-9680476D02*
X13654962Y-9670952D01*
X13654962Y-9670952D02*
X13659724Y-9656667D01*
X13659724Y-9656667D02*
X13664486Y-9651905D01*
X13697819Y-9594762D02*
X13693057Y-9604286D01*
X13693057Y-9604286D02*
X13688295Y-9609048D01*
X13688295Y-9609048D02*
X13678771Y-9613809D01*
X13678771Y-9613809D02*
X13674009Y-9613809D01*
X13674009Y-9613809D02*
X13664486Y-9609048D01*
X13664486Y-9609048D02*
X13659724Y-9604286D01*
X13659724Y-9604286D02*
X13654962Y-9594762D01*
X13654962Y-9594762D02*
X13654962Y-9575714D01*
X13654962Y-9575714D02*
X13659724Y-9566190D01*
X13659724Y-9566190D02*
X13664486Y-9561429D01*
X13664486Y-9561429D02*
X13674009Y-9556667D01*
X13674009Y-9556667D02*
X13678771Y-9556667D01*
X13678771Y-9556667D02*
X13688295Y-9561429D01*
X13688295Y-9561429D02*
X13693057Y-9566190D01*
X13693057Y-9566190D02*
X13697819Y-9575714D01*
X13697819Y-9575714D02*
X13697819Y-9594762D01*
X13697819Y-9594762D02*
X13702581Y-9604286D01*
X13702581Y-9604286D02*
X13707343Y-9609048D01*
X13707343Y-9609048D02*
X13716867Y-9613809D01*
X13716867Y-9613809D02*
X13735914Y-9613809D01*
X13735914Y-9613809D02*
X13745438Y-9609048D01*
X13745438Y-9609048D02*
X13750200Y-9604286D01*
X13750200Y-9604286D02*
X13754962Y-9594762D01*
X13754962Y-9594762D02*
X13754962Y-9575714D01*
X13754962Y-9575714D02*
X13750200Y-9566190D01*
X13750200Y-9566190D02*
X13745438Y-9561429D01*
X13745438Y-9561429D02*
X13735914Y-9556667D01*
X13735914Y-9556667D02*
X13716867Y-9556667D01*
X13716867Y-9556667D02*
X13707343Y-9561429D01*
X13707343Y-9561429D02*
X13702581Y-9566190D01*
X13702581Y-9566190D02*
X13697819Y-9575714D01*
X13654962Y-9494762D02*
X13654962Y-9485238D01*
X13654962Y-9485238D02*
X13659724Y-9475714D01*
X13659724Y-9475714D02*
X13664486Y-9470952D01*
X13664486Y-9470952D02*
X13674009Y-9466190D01*
X13674009Y-9466190D02*
X13693057Y-9461429D01*
X13693057Y-9461429D02*
X13716867Y-9461429D01*
X13716867Y-9461429D02*
X13735914Y-9466190D01*
X13735914Y-9466190D02*
X13745438Y-9470952D01*
X13745438Y-9470952D02*
X13750200Y-9475714D01*
X13750200Y-9475714D02*
X13754962Y-9485238D01*
X13754962Y-9485238D02*
X13754962Y-9494762D01*
X13754962Y-9494762D02*
X13750200Y-9504286D01*
X13750200Y-9504286D02*
X13745438Y-9509048D01*
X13745438Y-9509048D02*
X13735914Y-9513809D01*
X13735914Y-9513809D02*
X13716867Y-9518571D01*
X13716867Y-9518571D02*
X13693057Y-9518571D01*
X13693057Y-9518571D02*
X13674009Y-9513809D01*
X13674009Y-9513809D02*
X13664486Y-9509048D01*
X13664486Y-9509048D02*
X13659724Y-9504286D01*
X13659724Y-9504286D02*
X13654962Y-9494762D01*
X13754962Y-9413809D02*
X13754962Y-9394762D01*
X13754962Y-9394762D02*
X13750200Y-9385238D01*
X13750200Y-9385238D02*
X13745438Y-9380476D01*
X13745438Y-9380476D02*
X13731152Y-9370952D01*
X13731152Y-9370952D02*
X13712105Y-9366190D01*
X13712105Y-9366190D02*
X13674009Y-9366190D01*
X13674009Y-9366190D02*
X13664486Y-9370952D01*
X13664486Y-9370952D02*
X13659724Y-9375714D01*
X13659724Y-9375714D02*
X13654962Y-9385238D01*
X13654962Y-9385238D02*
X13654962Y-9404286D01*
X13654962Y-9404286D02*
X13659724Y-9413809D01*
X13659724Y-9413809D02*
X13664486Y-9418571D01*
X13664486Y-9418571D02*
X13674009Y-9423333D01*
X13674009Y-9423333D02*
X13697819Y-9423333D01*
X13697819Y-9423333D02*
X13707343Y-9418571D01*
X13707343Y-9418571D02*
X13712105Y-9413809D01*
X13712105Y-9413809D02*
X13716867Y-9404286D01*
X13716867Y-9404286D02*
X13716867Y-9385238D01*
X13716867Y-9385238D02*
X13712105Y-9375714D01*
X13712105Y-9375714D02*
X13707343Y-9370952D01*
X13707343Y-9370952D02*
X13697819Y-9366190D01*
X14888095Y-8024962D02*
X14854762Y-7977343D01*
X14830952Y-8024962D02*
X14830952Y-7924962D01*
X14830952Y-7924962D02*
X14869048Y-7924962D01*
X14869048Y-7924962D02*
X14878571Y-7929724D01*
X14878571Y-7929724D02*
X14883333Y-7934486D01*
X14883333Y-7934486D02*
X14888095Y-7944009D01*
X14888095Y-7944009D02*
X14888095Y-7958295D01*
X14888095Y-7958295D02*
X14883333Y-7967819D01*
X14883333Y-7967819D02*
X14878571Y-7972581D01*
X14878571Y-7972581D02*
X14869048Y-7977343D01*
X14869048Y-7977343D02*
X14830952Y-7977343D01*
X14926190Y-7934486D02*
X14930952Y-7929724D01*
X14930952Y-7929724D02*
X14940476Y-7924962D01*
X14940476Y-7924962D02*
X14964286Y-7924962D01*
X14964286Y-7924962D02*
X14973809Y-7929724D01*
X14973809Y-7929724D02*
X14978571Y-7934486D01*
X14978571Y-7934486D02*
X14983333Y-7944009D01*
X14983333Y-7944009D02*
X14983333Y-7953533D01*
X14983333Y-7953533D02*
X14978571Y-7967819D01*
X14978571Y-7967819D02*
X14921429Y-8024962D01*
X14921429Y-8024962D02*
X14983333Y-8024962D01*
X15045238Y-7924962D02*
X15054762Y-7924962D01*
X15054762Y-7924962D02*
X15064286Y-7929724D01*
X15064286Y-7929724D02*
X15069048Y-7934486D01*
X15069048Y-7934486D02*
X15073809Y-7944009D01*
X15073809Y-7944009D02*
X15078571Y-7963057D01*
X15078571Y-7963057D02*
X15078571Y-7986867D01*
X15078571Y-7986867D02*
X15073809Y-8005914D01*
X15073809Y-8005914D02*
X15069048Y-8015438D01*
X15069048Y-8015438D02*
X15064286Y-8020200D01*
X15064286Y-8020200D02*
X15054762Y-8024962D01*
X15054762Y-8024962D02*
X15045238Y-8024962D01*
X15045238Y-8024962D02*
X15035714Y-8020200D01*
X15035714Y-8020200D02*
X15030952Y-8015438D01*
X15030952Y-8015438D02*
X15026190Y-8005914D01*
X15026190Y-8005914D02*
X15021429Y-7986867D01*
X15021429Y-7986867D02*
X15021429Y-7963057D01*
X15021429Y-7963057D02*
X15026190Y-7944009D01*
X15026190Y-7944009D02*
X15030952Y-7934486D01*
X15030952Y-7934486D02*
X15035714Y-7929724D01*
X15035714Y-7929724D02*
X15045238Y-7924962D01*
X15164286Y-7958295D02*
X15164286Y-8024962D01*
X15140476Y-7920200D02*
X15116667Y-7991628D01*
X15116667Y-7991628D02*
X15178571Y-7991628D01*
X12330952Y-10264962D02*
X12330952Y-10164962D01*
X12330952Y-10164962D02*
X12354762Y-10164962D01*
X12354762Y-10164962D02*
X12369048Y-10169724D01*
X12369048Y-10169724D02*
X12378571Y-10179248D01*
X12378571Y-10179248D02*
X12383333Y-10188771D01*
X12383333Y-10188771D02*
X12388095Y-10207819D01*
X12388095Y-10207819D02*
X12388095Y-10222105D01*
X12388095Y-10222105D02*
X12383333Y-10241152D01*
X12383333Y-10241152D02*
X12378571Y-10250676D01*
X12378571Y-10250676D02*
X12369048Y-10260200D01*
X12369048Y-10260200D02*
X12354762Y-10264962D01*
X12354762Y-10264962D02*
X12330952Y-10264962D01*
X12421429Y-10164962D02*
X12483333Y-10164962D01*
X12483333Y-10164962D02*
X12450000Y-10203057D01*
X12450000Y-10203057D02*
X12464286Y-10203057D01*
X12464286Y-10203057D02*
X12473809Y-10207819D01*
X12473809Y-10207819D02*
X12478571Y-10212581D01*
X12478571Y-10212581D02*
X12483333Y-10222105D01*
X12483333Y-10222105D02*
X12483333Y-10245914D01*
X12483333Y-10245914D02*
X12478571Y-10255438D01*
X12478571Y-10255438D02*
X12473809Y-10260200D01*
X12473809Y-10260200D02*
X12464286Y-10264962D01*
X12464286Y-10264962D02*
X12435714Y-10264962D01*
X12435714Y-10264962D02*
X12426190Y-10260200D01*
X12426190Y-10260200D02*
X12421429Y-10255438D01*
X12545238Y-10164962D02*
X12554762Y-10164962D01*
X12554762Y-10164962D02*
X12564286Y-10169724D01*
X12564286Y-10169724D02*
X12569048Y-10174486D01*
X12569048Y-10174486D02*
X12573809Y-10184010D01*
X12573809Y-10184010D02*
X12578571Y-10203057D01*
X12578571Y-10203057D02*
X12578571Y-10226867D01*
X12578571Y-10226867D02*
X12573809Y-10245914D01*
X12573809Y-10245914D02*
X12569048Y-10255438D01*
X12569048Y-10255438D02*
X12564286Y-10260200D01*
X12564286Y-10260200D02*
X12554762Y-10264962D01*
X12554762Y-10264962D02*
X12545238Y-10264962D01*
X12545238Y-10264962D02*
X12535714Y-10260200D01*
X12535714Y-10260200D02*
X12530952Y-10255438D01*
X12530952Y-10255438D02*
X12526190Y-10245914D01*
X12526190Y-10245914D02*
X12521429Y-10226867D01*
X12521429Y-10226867D02*
X12521429Y-10203057D01*
X12521429Y-10203057D02*
X12526190Y-10184010D01*
X12526190Y-10184010D02*
X12530952Y-10174486D01*
X12530952Y-10174486D02*
X12535714Y-10169724D01*
X12535714Y-10169724D02*
X12545238Y-10164962D01*
X12611905Y-10164962D02*
X12673809Y-10164962D01*
X12673809Y-10164962D02*
X12640476Y-10203057D01*
X12640476Y-10203057D02*
X12654762Y-10203057D01*
X12654762Y-10203057D02*
X12664286Y-10207819D01*
X12664286Y-10207819D02*
X12669048Y-10212581D01*
X12669048Y-10212581D02*
X12673809Y-10222105D01*
X12673809Y-10222105D02*
X12673809Y-10245914D01*
X12673809Y-10245914D02*
X12669048Y-10255438D01*
X12669048Y-10255438D02*
X12664286Y-10260200D01*
X12664286Y-10260200D02*
X12654762Y-10264962D01*
X12654762Y-10264962D02*
X12626190Y-10264962D01*
X12626190Y-10264962D02*
X12616667Y-10260200D01*
X12616667Y-10260200D02*
X12611905Y-10255438D01*
X13508095Y-8015438D02*
X13503333Y-8020200D01*
X13503333Y-8020200D02*
X13489048Y-8024962D01*
X13489048Y-8024962D02*
X13479524Y-8024962D01*
X13479524Y-8024962D02*
X13465238Y-8020200D01*
X13465238Y-8020200D02*
X13455714Y-8010676D01*
X13455714Y-8010676D02*
X13450952Y-8001152D01*
X13450952Y-8001152D02*
X13446190Y-7982105D01*
X13446190Y-7982105D02*
X13446190Y-7967819D01*
X13446190Y-7967819D02*
X13450952Y-7948771D01*
X13450952Y-7948771D02*
X13455714Y-7939248D01*
X13455714Y-7939248D02*
X13465238Y-7929724D01*
X13465238Y-7929724D02*
X13479524Y-7924962D01*
X13479524Y-7924962D02*
X13489048Y-7924962D01*
X13489048Y-7924962D02*
X13503333Y-7929724D01*
X13503333Y-7929724D02*
X13508095Y-7934486D01*
X13546190Y-7934486D02*
X13550952Y-7929724D01*
X13550952Y-7929724D02*
X13560476Y-7924962D01*
X13560476Y-7924962D02*
X13584286Y-7924962D01*
X13584286Y-7924962D02*
X13593809Y-7929724D01*
X13593809Y-7929724D02*
X13598571Y-7934486D01*
X13598571Y-7934486D02*
X13603333Y-7944009D01*
X13603333Y-7944009D02*
X13603333Y-7953533D01*
X13603333Y-7953533D02*
X13598571Y-7967819D01*
X13598571Y-7967819D02*
X13541429Y-8024962D01*
X13541429Y-8024962D02*
X13603333Y-8024962D01*
X13665238Y-7924962D02*
X13674762Y-7924962D01*
X13674762Y-7924962D02*
X13684286Y-7929724D01*
X13684286Y-7929724D02*
X13689048Y-7934486D01*
X13689048Y-7934486D02*
X13693809Y-7944009D01*
X13693809Y-7944009D02*
X13698571Y-7963057D01*
X13698571Y-7963057D02*
X13698571Y-7986867D01*
X13698571Y-7986867D02*
X13693809Y-8005914D01*
X13693809Y-8005914D02*
X13689048Y-8015438D01*
X13689048Y-8015438D02*
X13684286Y-8020200D01*
X13684286Y-8020200D02*
X13674762Y-8024962D01*
X13674762Y-8024962D02*
X13665238Y-8024962D01*
X13665238Y-8024962D02*
X13655714Y-8020200D01*
X13655714Y-8020200D02*
X13650952Y-8015438D01*
X13650952Y-8015438D02*
X13646190Y-8005914D01*
X13646190Y-8005914D02*
X13641429Y-7986867D01*
X13641429Y-7986867D02*
X13641429Y-7963057D01*
X13641429Y-7963057D02*
X13646190Y-7944009D01*
X13646190Y-7944009D02*
X13650952Y-7934486D01*
X13650952Y-7934486D02*
X13655714Y-7929724D01*
X13655714Y-7929724D02*
X13665238Y-7924962D01*
X13731905Y-7924962D02*
X13793809Y-7924962D01*
X13793809Y-7924962D02*
X13760476Y-7963057D01*
X13760476Y-7963057D02*
X13774762Y-7963057D01*
X13774762Y-7963057D02*
X13784286Y-7967819D01*
X13784286Y-7967819D02*
X13789048Y-7972581D01*
X13789048Y-7972581D02*
X13793809Y-7982105D01*
X13793809Y-7982105D02*
X13793809Y-8005914D01*
X13793809Y-8005914D02*
X13789048Y-8015438D01*
X13789048Y-8015438D02*
X13784286Y-8020200D01*
X13784286Y-8020200D02*
X13774762Y-8024962D01*
X13774762Y-8024962D02*
X13746190Y-8024962D01*
X13746190Y-8024962D02*
X13736667Y-8020200D01*
X13736667Y-8020200D02*
X13731905Y-8015438D01*
X13474962Y-10311905D02*
X13427343Y-10345238D01*
X13474962Y-10369048D02*
X13374962Y-10369048D01*
X13374962Y-10369048D02*
X13374962Y-10330952D01*
X13374962Y-10330952D02*
X13379724Y-10321429D01*
X13379724Y-10321429D02*
X13384486Y-10316667D01*
X13384486Y-10316667D02*
X13394009Y-10311905D01*
X13394009Y-10311905D02*
X13408295Y-10311905D01*
X13408295Y-10311905D02*
X13417819Y-10316667D01*
X13417819Y-10316667D02*
X13422581Y-10321429D01*
X13422581Y-10321429D02*
X13427343Y-10330952D01*
X13427343Y-10330952D02*
X13427343Y-10369048D01*
X13408295Y-10226190D02*
X13474962Y-10226190D01*
X13370200Y-10250000D02*
X13441628Y-10273809D01*
X13441628Y-10273809D02*
X13441628Y-10211905D01*
X13374962Y-10154762D02*
X13374962Y-10145238D01*
X13374962Y-10145238D02*
X13379724Y-10135714D01*
X13379724Y-10135714D02*
X13384486Y-10130952D01*
X13384486Y-10130952D02*
X13394009Y-10126190D01*
X13394009Y-10126190D02*
X13413057Y-10121429D01*
X13413057Y-10121429D02*
X13436867Y-10121429D01*
X13436867Y-10121429D02*
X13455914Y-10126190D01*
X13455914Y-10126190D02*
X13465438Y-10130952D01*
X13465438Y-10130952D02*
X13470200Y-10135714D01*
X13470200Y-10135714D02*
X13474962Y-10145238D01*
X13474962Y-10145238D02*
X13474962Y-10154762D01*
X13474962Y-10154762D02*
X13470200Y-10164286D01*
X13470200Y-10164286D02*
X13465438Y-10169048D01*
X13465438Y-10169048D02*
X13455914Y-10173809D01*
X13455914Y-10173809D02*
X13436867Y-10178571D01*
X13436867Y-10178571D02*
X13413057Y-10178571D01*
X13413057Y-10178571D02*
X13394009Y-10173809D01*
X13394009Y-10173809D02*
X13384486Y-10169048D01*
X13384486Y-10169048D02*
X13379724Y-10164286D01*
X13379724Y-10164286D02*
X13374962Y-10154762D01*
X13474962Y-10026190D02*
X13474962Y-10083333D01*
X13474962Y-10054762D02*
X13374962Y-10054762D01*
X13374962Y-10054762D02*
X13389248Y-10064286D01*
X13389248Y-10064286D02*
X13398771Y-10073809D01*
X13398771Y-10073809D02*
X13403533Y-10083333D01*
X12380952Y-12284962D02*
X12380952Y-12184962D01*
X12380952Y-12184962D02*
X12404762Y-12184962D01*
X12404762Y-12184962D02*
X12419048Y-12189724D01*
X12419048Y-12189724D02*
X12428571Y-12199248D01*
X12428571Y-12199248D02*
X12433333Y-12208771D01*
X12433333Y-12208771D02*
X12438095Y-12227819D01*
X12438095Y-12227819D02*
X12438095Y-12242105D01*
X12438095Y-12242105D02*
X12433333Y-12261152D01*
X12433333Y-12261152D02*
X12428571Y-12270676D01*
X12428571Y-12270676D02*
X12419048Y-12280200D01*
X12419048Y-12280200D02*
X12404762Y-12284962D01*
X12404762Y-12284962D02*
X12380952Y-12284962D01*
X12523809Y-12184962D02*
X12504762Y-12184962D01*
X12504762Y-12184962D02*
X12495238Y-12189724D01*
X12495238Y-12189724D02*
X12490476Y-12194486D01*
X12490476Y-12194486D02*
X12480952Y-12208771D01*
X12480952Y-12208771D02*
X12476190Y-12227819D01*
X12476190Y-12227819D02*
X12476190Y-12265914D01*
X12476190Y-12265914D02*
X12480952Y-12275438D01*
X12480952Y-12275438D02*
X12485714Y-12280200D01*
X12485714Y-12280200D02*
X12495238Y-12284962D01*
X12495238Y-12284962D02*
X12514286Y-12284962D01*
X12514286Y-12284962D02*
X12523809Y-12280200D01*
X12523809Y-12280200D02*
X12528571Y-12275438D01*
X12528571Y-12275438D02*
X12533333Y-12265914D01*
X12533333Y-12265914D02*
X12533333Y-12242105D01*
X12533333Y-12242105D02*
X12528571Y-12232581D01*
X12528571Y-12232581D02*
X12523809Y-12227819D01*
X12523809Y-12227819D02*
X12514286Y-12223057D01*
X12514286Y-12223057D02*
X12495238Y-12223057D01*
X12495238Y-12223057D02*
X12485714Y-12227819D01*
X12485714Y-12227819D02*
X12480952Y-12232581D01*
X12480952Y-12232581D02*
X12476190Y-12242105D01*
X12595238Y-12184962D02*
X12604762Y-12184962D01*
X12604762Y-12184962D02*
X12614286Y-12189724D01*
X12614286Y-12189724D02*
X12619048Y-12194486D01*
X12619048Y-12194486D02*
X12623809Y-12204009D01*
X12623809Y-12204009D02*
X12628571Y-12223057D01*
X12628571Y-12223057D02*
X12628571Y-12246867D01*
X12628571Y-12246867D02*
X12623809Y-12265914D01*
X12623809Y-12265914D02*
X12619048Y-12275438D01*
X12619048Y-12275438D02*
X12614286Y-12280200D01*
X12614286Y-12280200D02*
X12604762Y-12284962D01*
X12604762Y-12284962D02*
X12595238Y-12284962D01*
X12595238Y-12284962D02*
X12585714Y-12280200D01*
X12585714Y-12280200D02*
X12580952Y-12275438D01*
X12580952Y-12275438D02*
X12576190Y-12265914D01*
X12576190Y-12265914D02*
X12571429Y-12246867D01*
X12571429Y-12246867D02*
X12571429Y-12223057D01*
X12571429Y-12223057D02*
X12576190Y-12204009D01*
X12576190Y-12204009D02*
X12580952Y-12194486D01*
X12580952Y-12194486D02*
X12585714Y-12189724D01*
X12585714Y-12189724D02*
X12595238Y-12184962D01*
X12666667Y-12194486D02*
X12671429Y-12189724D01*
X12671429Y-12189724D02*
X12680952Y-12184962D01*
X12680952Y-12184962D02*
X12704762Y-12184962D01*
X12704762Y-12184962D02*
X12714286Y-12189724D01*
X12714286Y-12189724D02*
X12719048Y-12194486D01*
X12719048Y-12194486D02*
X12723809Y-12204009D01*
X12723809Y-12204009D02*
X12723809Y-12213533D01*
X12723809Y-12213533D02*
X12719048Y-12227819D01*
X12719048Y-12227819D02*
X12661905Y-12284962D01*
X12661905Y-12284962D02*
X12723809Y-12284962D01*
X14028571Y-8144962D02*
X14028571Y-8225914D01*
X14028571Y-8225914D02*
X14033333Y-8235438D01*
X14033333Y-8235438D02*
X14038095Y-8240200D01*
X14038095Y-8240200D02*
X14047619Y-8244962D01*
X14047619Y-8244962D02*
X14066667Y-8244962D01*
X14066667Y-8244962D02*
X14076190Y-8240200D01*
X14076190Y-8240200D02*
X14080952Y-8235438D01*
X14080952Y-8235438D02*
X14085714Y-8225914D01*
X14085714Y-8225914D02*
X14085714Y-8144962D01*
X14128571Y-8154486D02*
X14133333Y-8149724D01*
X14133333Y-8149724D02*
X14142857Y-8144962D01*
X14142857Y-8144962D02*
X14166667Y-8144962D01*
X14166667Y-8144962D02*
X14176190Y-8149724D01*
X14176190Y-8149724D02*
X14180952Y-8154486D01*
X14180952Y-8154486D02*
X14185714Y-8164009D01*
X14185714Y-8164009D02*
X14185714Y-8173533D01*
X14185714Y-8173533D02*
X14180952Y-8187819D01*
X14180952Y-8187819D02*
X14123809Y-8244962D01*
X14123809Y-8244962D02*
X14185714Y-8244962D01*
X14247619Y-8144962D02*
X14257143Y-8144962D01*
X14257143Y-8144962D02*
X14266667Y-8149724D01*
X14266667Y-8149724D02*
X14271428Y-8154486D01*
X14271428Y-8154486D02*
X14276190Y-8164009D01*
X14276190Y-8164009D02*
X14280952Y-8183057D01*
X14280952Y-8183057D02*
X14280952Y-8206867D01*
X14280952Y-8206867D02*
X14276190Y-8225914D01*
X14276190Y-8225914D02*
X14271428Y-8235438D01*
X14271428Y-8235438D02*
X14266667Y-8240200D01*
X14266667Y-8240200D02*
X14257143Y-8244962D01*
X14257143Y-8244962D02*
X14247619Y-8244962D01*
X14247619Y-8244962D02*
X14238095Y-8240200D01*
X14238095Y-8240200D02*
X14233333Y-8235438D01*
X14233333Y-8235438D02*
X14228571Y-8225914D01*
X14228571Y-8225914D02*
X14223809Y-8206867D01*
X14223809Y-8206867D02*
X14223809Y-8183057D01*
X14223809Y-8183057D02*
X14228571Y-8164009D01*
X14228571Y-8164009D02*
X14233333Y-8154486D01*
X14233333Y-8154486D02*
X14238095Y-8149724D01*
X14238095Y-8149724D02*
X14247619Y-8144962D01*
X14376190Y-8244962D02*
X14319048Y-8244962D01*
X14347619Y-8244962D02*
X14347619Y-8144962D01*
X14347619Y-8144962D02*
X14338095Y-8159248D01*
X14338095Y-8159248D02*
X14328571Y-8168771D01*
X14328571Y-8168771D02*
X14319048Y-8173533D01*
X13867143Y-9624962D02*
X13867143Y-9524962D01*
X13971905Y-9615438D02*
X13967143Y-9620200D01*
X13967143Y-9620200D02*
X13952857Y-9624962D01*
X13952857Y-9624962D02*
X13943333Y-9624962D01*
X13943333Y-9624962D02*
X13929048Y-9620200D01*
X13929048Y-9620200D02*
X13919524Y-9610676D01*
X13919524Y-9610676D02*
X13914762Y-9601152D01*
X13914762Y-9601152D02*
X13910000Y-9582105D01*
X13910000Y-9582105D02*
X13910000Y-9567819D01*
X13910000Y-9567819D02*
X13914762Y-9548771D01*
X13914762Y-9548771D02*
X13919524Y-9539248D01*
X13919524Y-9539248D02*
X13929048Y-9529724D01*
X13929048Y-9529724D02*
X13943333Y-9524962D01*
X13943333Y-9524962D02*
X13952857Y-9524962D01*
X13952857Y-9524962D02*
X13967143Y-9529724D01*
X13967143Y-9529724D02*
X13971905Y-9534486D01*
X14029048Y-9567819D02*
X14019524Y-9563057D01*
X14019524Y-9563057D02*
X14014762Y-9558295D01*
X14014762Y-9558295D02*
X14010000Y-9548771D01*
X14010000Y-9548771D02*
X14010000Y-9544010D01*
X14010000Y-9544010D02*
X14014762Y-9534486D01*
X14014762Y-9534486D02*
X14019524Y-9529724D01*
X14019524Y-9529724D02*
X14029048Y-9524962D01*
X14029048Y-9524962D02*
X14048095Y-9524962D01*
X14048095Y-9524962D02*
X14057619Y-9529724D01*
X14057619Y-9529724D02*
X14062381Y-9534486D01*
X14062381Y-9534486D02*
X14067143Y-9544010D01*
X14067143Y-9544010D02*
X14067143Y-9548771D01*
X14067143Y-9548771D02*
X14062381Y-9558295D01*
X14062381Y-9558295D02*
X14057619Y-9563057D01*
X14057619Y-9563057D02*
X14048095Y-9567819D01*
X14048095Y-9567819D02*
X14029048Y-9567819D01*
X14029048Y-9567819D02*
X14019524Y-9572581D01*
X14019524Y-9572581D02*
X14014762Y-9577343D01*
X14014762Y-9577343D02*
X14010000Y-9586867D01*
X14010000Y-9586867D02*
X14010000Y-9605914D01*
X14010000Y-9605914D02*
X14014762Y-9615438D01*
X14014762Y-9615438D02*
X14019524Y-9620200D01*
X14019524Y-9620200D02*
X14029048Y-9624962D01*
X14029048Y-9624962D02*
X14048095Y-9624962D01*
X14048095Y-9624962D02*
X14057619Y-9620200D01*
X14057619Y-9620200D02*
X14062381Y-9615438D01*
X14062381Y-9615438D02*
X14067143Y-9605914D01*
X14067143Y-9605914D02*
X14067143Y-9586867D01*
X14067143Y-9586867D02*
X14062381Y-9577343D01*
X14062381Y-9577343D02*
X14057619Y-9572581D01*
X14057619Y-9572581D02*
X14048095Y-9567819D01*
X14129048Y-9524962D02*
X14138571Y-9524962D01*
X14138571Y-9524962D02*
X14148095Y-9529724D01*
X14148095Y-9529724D02*
X14152857Y-9534486D01*
X14152857Y-9534486D02*
X14157619Y-9544010D01*
X14157619Y-9544010D02*
X14162381Y-9563057D01*
X14162381Y-9563057D02*
X14162381Y-9586867D01*
X14162381Y-9586867D02*
X14157619Y-9605914D01*
X14157619Y-9605914D02*
X14152857Y-9615438D01*
X14152857Y-9615438D02*
X14148095Y-9620200D01*
X14148095Y-9620200D02*
X14138571Y-9624962D01*
X14138571Y-9624962D02*
X14129048Y-9624962D01*
X14129048Y-9624962D02*
X14119524Y-9620200D01*
X14119524Y-9620200D02*
X14114762Y-9615438D01*
X14114762Y-9615438D02*
X14110000Y-9605914D01*
X14110000Y-9605914D02*
X14105238Y-9586867D01*
X14105238Y-9586867D02*
X14105238Y-9563057D01*
X14105238Y-9563057D02*
X14110000Y-9544010D01*
X14110000Y-9544010D02*
X14114762Y-9534486D01*
X14114762Y-9534486D02*
X14119524Y-9529724D01*
X14119524Y-9529724D02*
X14129048Y-9524962D01*
X14257619Y-9624962D02*
X14200476Y-9624962D01*
X14229048Y-9624962D02*
X14229048Y-9524962D01*
X14229048Y-9524962D02*
X14219524Y-9539248D01*
X14219524Y-9539248D02*
X14210000Y-9548771D01*
X14210000Y-9548771D02*
X14200476Y-9553533D01*
X13508095Y-8525438D02*
X13503333Y-8530200D01*
X13503333Y-8530200D02*
X13489048Y-8534962D01*
X13489048Y-8534962D02*
X13479524Y-8534962D01*
X13479524Y-8534962D02*
X13465238Y-8530200D01*
X13465238Y-8530200D02*
X13455714Y-8520676D01*
X13455714Y-8520676D02*
X13450952Y-8511152D01*
X13450952Y-8511152D02*
X13446190Y-8492105D01*
X13446190Y-8492105D02*
X13446190Y-8477819D01*
X13446190Y-8477819D02*
X13450952Y-8458771D01*
X13450952Y-8458771D02*
X13455714Y-8449248D01*
X13455714Y-8449248D02*
X13465238Y-8439724D01*
X13465238Y-8439724D02*
X13479524Y-8434962D01*
X13479524Y-8434962D02*
X13489048Y-8434962D01*
X13489048Y-8434962D02*
X13503333Y-8439724D01*
X13503333Y-8439724D02*
X13508095Y-8444486D01*
X13546190Y-8444486D02*
X13550952Y-8439724D01*
X13550952Y-8439724D02*
X13560476Y-8434962D01*
X13560476Y-8434962D02*
X13584286Y-8434962D01*
X13584286Y-8434962D02*
X13593809Y-8439724D01*
X13593809Y-8439724D02*
X13598571Y-8444486D01*
X13598571Y-8444486D02*
X13603333Y-8454010D01*
X13603333Y-8454010D02*
X13603333Y-8463533D01*
X13603333Y-8463533D02*
X13598571Y-8477819D01*
X13598571Y-8477819D02*
X13541429Y-8534962D01*
X13541429Y-8534962D02*
X13603333Y-8534962D01*
X13665238Y-8434962D02*
X13674762Y-8434962D01*
X13674762Y-8434962D02*
X13684286Y-8439724D01*
X13684286Y-8439724D02*
X13689048Y-8444486D01*
X13689048Y-8444486D02*
X13693809Y-8454010D01*
X13693809Y-8454010D02*
X13698571Y-8473057D01*
X13698571Y-8473057D02*
X13698571Y-8496867D01*
X13698571Y-8496867D02*
X13693809Y-8515914D01*
X13693809Y-8515914D02*
X13689048Y-8525438D01*
X13689048Y-8525438D02*
X13684286Y-8530200D01*
X13684286Y-8530200D02*
X13674762Y-8534962D01*
X13674762Y-8534962D02*
X13665238Y-8534962D01*
X13665238Y-8534962D02*
X13655714Y-8530200D01*
X13655714Y-8530200D02*
X13650952Y-8525438D01*
X13650952Y-8525438D02*
X13646190Y-8515914D01*
X13646190Y-8515914D02*
X13641429Y-8496867D01*
X13641429Y-8496867D02*
X13641429Y-8473057D01*
X13641429Y-8473057D02*
X13646190Y-8454010D01*
X13646190Y-8454010D02*
X13650952Y-8444486D01*
X13650952Y-8444486D02*
X13655714Y-8439724D01*
X13655714Y-8439724D02*
X13665238Y-8434962D01*
X13793809Y-8534962D02*
X13736667Y-8534962D01*
X13765238Y-8534962D02*
X13765238Y-8434962D01*
X13765238Y-8434962D02*
X13755714Y-8449248D01*
X13755714Y-8449248D02*
X13746190Y-8458771D01*
X13746190Y-8458771D02*
X13736667Y-8463533D01*
X14168095Y-10325438D02*
X14163333Y-10330200D01*
X14163333Y-10330200D02*
X14149048Y-10334962D01*
X14149048Y-10334962D02*
X14139524Y-10334962D01*
X14139524Y-10334962D02*
X14125238Y-10330200D01*
X14125238Y-10330200D02*
X14115714Y-10320676D01*
X14115714Y-10320676D02*
X14110952Y-10311152D01*
X14110952Y-10311152D02*
X14106190Y-10292105D01*
X14106190Y-10292105D02*
X14106190Y-10277819D01*
X14106190Y-10277819D02*
X14110952Y-10258771D01*
X14110952Y-10258771D02*
X14115714Y-10249248D01*
X14115714Y-10249248D02*
X14125238Y-10239724D01*
X14125238Y-10239724D02*
X14139524Y-10234962D01*
X14139524Y-10234962D02*
X14149048Y-10234962D01*
X14149048Y-10234962D02*
X14163333Y-10239724D01*
X14163333Y-10239724D02*
X14168095Y-10244486D01*
X14225238Y-10277819D02*
X14215714Y-10273057D01*
X14215714Y-10273057D02*
X14210952Y-10268295D01*
X14210952Y-10268295D02*
X14206190Y-10258771D01*
X14206190Y-10258771D02*
X14206190Y-10254010D01*
X14206190Y-10254010D02*
X14210952Y-10244486D01*
X14210952Y-10244486D02*
X14215714Y-10239724D01*
X14215714Y-10239724D02*
X14225238Y-10234962D01*
X14225238Y-10234962D02*
X14244286Y-10234962D01*
X14244286Y-10234962D02*
X14253809Y-10239724D01*
X14253809Y-10239724D02*
X14258571Y-10244486D01*
X14258571Y-10244486D02*
X14263333Y-10254010D01*
X14263333Y-10254010D02*
X14263333Y-10258771D01*
X14263333Y-10258771D02*
X14258571Y-10268295D01*
X14258571Y-10268295D02*
X14253809Y-10273057D01*
X14253809Y-10273057D02*
X14244286Y-10277819D01*
X14244286Y-10277819D02*
X14225238Y-10277819D01*
X14225238Y-10277819D02*
X14215714Y-10282581D01*
X14215714Y-10282581D02*
X14210952Y-10287343D01*
X14210952Y-10287343D02*
X14206190Y-10296867D01*
X14206190Y-10296867D02*
X14206190Y-10315914D01*
X14206190Y-10315914D02*
X14210952Y-10325438D01*
X14210952Y-10325438D02*
X14215714Y-10330200D01*
X14215714Y-10330200D02*
X14225238Y-10334962D01*
X14225238Y-10334962D02*
X14244286Y-10334962D01*
X14244286Y-10334962D02*
X14253809Y-10330200D01*
X14253809Y-10330200D02*
X14258571Y-10325438D01*
X14258571Y-10325438D02*
X14263333Y-10315914D01*
X14263333Y-10315914D02*
X14263333Y-10296867D01*
X14263333Y-10296867D02*
X14258571Y-10287343D01*
X14258571Y-10287343D02*
X14253809Y-10282581D01*
X14253809Y-10282581D02*
X14244286Y-10277819D01*
X14325238Y-10234962D02*
X14334762Y-10234962D01*
X14334762Y-10234962D02*
X14344286Y-10239724D01*
X14344286Y-10239724D02*
X14349048Y-10244486D01*
X14349048Y-10244486D02*
X14353809Y-10254010D01*
X14353809Y-10254010D02*
X14358571Y-10273057D01*
X14358571Y-10273057D02*
X14358571Y-10296867D01*
X14358571Y-10296867D02*
X14353809Y-10315914D01*
X14353809Y-10315914D02*
X14349048Y-10325438D01*
X14349048Y-10325438D02*
X14344286Y-10330200D01*
X14344286Y-10330200D02*
X14334762Y-10334962D01*
X14334762Y-10334962D02*
X14325238Y-10334962D01*
X14325238Y-10334962D02*
X14315714Y-10330200D01*
X14315714Y-10330200D02*
X14310952Y-10325438D01*
X14310952Y-10325438D02*
X14306190Y-10315914D01*
X14306190Y-10315914D02*
X14301429Y-10296867D01*
X14301429Y-10296867D02*
X14301429Y-10273057D01*
X14301429Y-10273057D02*
X14306190Y-10254010D01*
X14306190Y-10254010D02*
X14310952Y-10244486D01*
X14310952Y-10244486D02*
X14315714Y-10239724D01*
X14315714Y-10239724D02*
X14325238Y-10234962D01*
X14453809Y-10334962D02*
X14396667Y-10334962D01*
X14425238Y-10334962D02*
X14425238Y-10234962D01*
X14425238Y-10234962D02*
X14415714Y-10249248D01*
X14415714Y-10249248D02*
X14406190Y-10258771D01*
X14406190Y-10258771D02*
X14396667Y-10263533D01*
X13265438Y-9631905D02*
X13270200Y-9636667D01*
X13270200Y-9636667D02*
X13274962Y-9650952D01*
X13274962Y-9650952D02*
X13274962Y-9660476D01*
X13274962Y-9660476D02*
X13270200Y-9674762D01*
X13270200Y-9674762D02*
X13260676Y-9684286D01*
X13260676Y-9684286D02*
X13251152Y-9689048D01*
X13251152Y-9689048D02*
X13232105Y-9693809D01*
X13232105Y-9693809D02*
X13217819Y-9693809D01*
X13217819Y-9693809D02*
X13198771Y-9689048D01*
X13198771Y-9689048D02*
X13189248Y-9684286D01*
X13189248Y-9684286D02*
X13179724Y-9674762D01*
X13179724Y-9674762D02*
X13174962Y-9660476D01*
X13174962Y-9660476D02*
X13174962Y-9650952D01*
X13174962Y-9650952D02*
X13179724Y-9636667D01*
X13179724Y-9636667D02*
X13184486Y-9631905D01*
X13217819Y-9574762D02*
X13213057Y-9584286D01*
X13213057Y-9584286D02*
X13208295Y-9589048D01*
X13208295Y-9589048D02*
X13198771Y-9593809D01*
X13198771Y-9593809D02*
X13194009Y-9593809D01*
X13194009Y-9593809D02*
X13184486Y-9589048D01*
X13184486Y-9589048D02*
X13179724Y-9584286D01*
X13179724Y-9584286D02*
X13174962Y-9574762D01*
X13174962Y-9574762D02*
X13174962Y-9555714D01*
X13174962Y-9555714D02*
X13179724Y-9546190D01*
X13179724Y-9546190D02*
X13184486Y-9541429D01*
X13184486Y-9541429D02*
X13194009Y-9536667D01*
X13194009Y-9536667D02*
X13198771Y-9536667D01*
X13198771Y-9536667D02*
X13208295Y-9541429D01*
X13208295Y-9541429D02*
X13213057Y-9546190D01*
X13213057Y-9546190D02*
X13217819Y-9555714D01*
X13217819Y-9555714D02*
X13217819Y-9574762D01*
X13217819Y-9574762D02*
X13222581Y-9584286D01*
X13222581Y-9584286D02*
X13227343Y-9589048D01*
X13227343Y-9589048D02*
X13236867Y-9593809D01*
X13236867Y-9593809D02*
X13255914Y-9593809D01*
X13255914Y-9593809D02*
X13265438Y-9589048D01*
X13265438Y-9589048D02*
X13270200Y-9584286D01*
X13270200Y-9584286D02*
X13274962Y-9574762D01*
X13274962Y-9574762D02*
X13274962Y-9555714D01*
X13274962Y-9555714D02*
X13270200Y-9546190D01*
X13270200Y-9546190D02*
X13265438Y-9541429D01*
X13265438Y-9541429D02*
X13255914Y-9536667D01*
X13255914Y-9536667D02*
X13236867Y-9536667D01*
X13236867Y-9536667D02*
X13227343Y-9541429D01*
X13227343Y-9541429D02*
X13222581Y-9546190D01*
X13222581Y-9546190D02*
X13217819Y-9555714D01*
X13174962Y-9474762D02*
X13174962Y-9465238D01*
X13174962Y-9465238D02*
X13179724Y-9455714D01*
X13179724Y-9455714D02*
X13184486Y-9450952D01*
X13184486Y-9450952D02*
X13194009Y-9446190D01*
X13194009Y-9446190D02*
X13213057Y-9441429D01*
X13213057Y-9441429D02*
X13236867Y-9441429D01*
X13236867Y-9441429D02*
X13255914Y-9446190D01*
X13255914Y-9446190D02*
X13265438Y-9450952D01*
X13265438Y-9450952D02*
X13270200Y-9455714D01*
X13270200Y-9455714D02*
X13274962Y-9465238D01*
X13274962Y-9465238D02*
X13274962Y-9474762D01*
X13274962Y-9474762D02*
X13270200Y-9484286D01*
X13270200Y-9484286D02*
X13265438Y-9489048D01*
X13265438Y-9489048D02*
X13255914Y-9493809D01*
X13255914Y-9493809D02*
X13236867Y-9498571D01*
X13236867Y-9498571D02*
X13213057Y-9498571D01*
X13213057Y-9498571D02*
X13194009Y-9493809D01*
X13194009Y-9493809D02*
X13184486Y-9489048D01*
X13184486Y-9489048D02*
X13179724Y-9484286D01*
X13179724Y-9484286D02*
X13174962Y-9474762D01*
X13184486Y-9403333D02*
X13179724Y-9398571D01*
X13179724Y-9398571D02*
X13174962Y-9389048D01*
X13174962Y-9389048D02*
X13174962Y-9365238D01*
X13174962Y-9365238D02*
X13179724Y-9355714D01*
X13179724Y-9355714D02*
X13184486Y-9350952D01*
X13184486Y-9350952D02*
X13194009Y-9346190D01*
X13194009Y-9346190D02*
X13203533Y-9346190D01*
X13203533Y-9346190D02*
X13217819Y-9350952D01*
X13217819Y-9350952D02*
X13274962Y-9408095D01*
X13274962Y-9408095D02*
X13274962Y-9346190D01*
X12788571Y-10164962D02*
X12845714Y-10164962D01*
X12817143Y-10264962D02*
X12817143Y-10164962D01*
X12879048Y-10264962D02*
X12879048Y-10164962D01*
X12879048Y-10164962D02*
X12917143Y-10164962D01*
X12917143Y-10164962D02*
X12926667Y-10169724D01*
X12926667Y-10169724D02*
X12931428Y-10174486D01*
X12931428Y-10174486D02*
X12936190Y-10184010D01*
X12936190Y-10184010D02*
X12936190Y-10198295D01*
X12936190Y-10198295D02*
X12931428Y-10207819D01*
X12931428Y-10207819D02*
X12926667Y-10212581D01*
X12926667Y-10212581D02*
X12917143Y-10217343D01*
X12917143Y-10217343D02*
X12879048Y-10217343D01*
X12974286Y-10174486D02*
X12979048Y-10169724D01*
X12979048Y-10169724D02*
X12988571Y-10164962D01*
X12988571Y-10164962D02*
X13012381Y-10164962D01*
X13012381Y-10164962D02*
X13021905Y-10169724D01*
X13021905Y-10169724D02*
X13026667Y-10174486D01*
X13026667Y-10174486D02*
X13031428Y-10184010D01*
X13031428Y-10184010D02*
X13031428Y-10193533D01*
X13031428Y-10193533D02*
X13026667Y-10207819D01*
X13026667Y-10207819D02*
X12969524Y-10264962D01*
X12969524Y-10264962D02*
X13031428Y-10264962D01*
X13093333Y-10164962D02*
X13102857Y-10164962D01*
X13102857Y-10164962D02*
X13112381Y-10169724D01*
X13112381Y-10169724D02*
X13117143Y-10174486D01*
X13117143Y-10174486D02*
X13121905Y-10184010D01*
X13121905Y-10184010D02*
X13126667Y-10203057D01*
X13126667Y-10203057D02*
X13126667Y-10226867D01*
X13126667Y-10226867D02*
X13121905Y-10245914D01*
X13121905Y-10245914D02*
X13117143Y-10255438D01*
X13117143Y-10255438D02*
X13112381Y-10260200D01*
X13112381Y-10260200D02*
X13102857Y-10264962D01*
X13102857Y-10264962D02*
X13093333Y-10264962D01*
X13093333Y-10264962D02*
X13083809Y-10260200D01*
X13083809Y-10260200D02*
X13079048Y-10255438D01*
X13079048Y-10255438D02*
X13074286Y-10245914D01*
X13074286Y-10245914D02*
X13069524Y-10226867D01*
X13069524Y-10226867D02*
X13069524Y-10203057D01*
X13069524Y-10203057D02*
X13074286Y-10184010D01*
X13074286Y-10184010D02*
X13079048Y-10174486D01*
X13079048Y-10174486D02*
X13083809Y-10169724D01*
X13083809Y-10169724D02*
X13093333Y-10164962D01*
X13164762Y-10174486D02*
X13169524Y-10169724D01*
X13169524Y-10169724D02*
X13179048Y-10164962D01*
X13179048Y-10164962D02*
X13202857Y-10164962D01*
X13202857Y-10164962D02*
X13212381Y-10169724D01*
X13212381Y-10169724D02*
X13217143Y-10174486D01*
X13217143Y-10174486D02*
X13221905Y-10184010D01*
X13221905Y-10184010D02*
X13221905Y-10193533D01*
X13221905Y-10193533D02*
X13217143Y-10207819D01*
X13217143Y-10207819D02*
X13160000Y-10264962D01*
X13160000Y-10264962D02*
X13221905Y-10264962D01*
X12885438Y-10891905D02*
X12890200Y-10896667D01*
X12890200Y-10896667D02*
X12894962Y-10910952D01*
X12894962Y-10910952D02*
X12894962Y-10920476D01*
X12894962Y-10920476D02*
X12890200Y-10934762D01*
X12890200Y-10934762D02*
X12880676Y-10944286D01*
X12880676Y-10944286D02*
X12871152Y-10949048D01*
X12871152Y-10949048D02*
X12852105Y-10953809D01*
X12852105Y-10953809D02*
X12837819Y-10953809D01*
X12837819Y-10953809D02*
X12818771Y-10949048D01*
X12818771Y-10949048D02*
X12809248Y-10944286D01*
X12809248Y-10944286D02*
X12799724Y-10934762D01*
X12799724Y-10934762D02*
X12794962Y-10920476D01*
X12794962Y-10920476D02*
X12794962Y-10910952D01*
X12794962Y-10910952D02*
X12799724Y-10896667D01*
X12799724Y-10896667D02*
X12804486Y-10891905D01*
X12837819Y-10834762D02*
X12833057Y-10844286D01*
X12833057Y-10844286D02*
X12828295Y-10849048D01*
X12828295Y-10849048D02*
X12818771Y-10853809D01*
X12818771Y-10853809D02*
X12814009Y-10853809D01*
X12814009Y-10853809D02*
X12804486Y-10849048D01*
X12804486Y-10849048D02*
X12799724Y-10844286D01*
X12799724Y-10844286D02*
X12794962Y-10834762D01*
X12794962Y-10834762D02*
X12794962Y-10815714D01*
X12794962Y-10815714D02*
X12799724Y-10806190D01*
X12799724Y-10806190D02*
X12804486Y-10801429D01*
X12804486Y-10801429D02*
X12814009Y-10796667D01*
X12814009Y-10796667D02*
X12818771Y-10796667D01*
X12818771Y-10796667D02*
X12828295Y-10801429D01*
X12828295Y-10801429D02*
X12833057Y-10806190D01*
X12833057Y-10806190D02*
X12837819Y-10815714D01*
X12837819Y-10815714D02*
X12837819Y-10834762D01*
X12837819Y-10834762D02*
X12842581Y-10844286D01*
X12842581Y-10844286D02*
X12847343Y-10849048D01*
X12847343Y-10849048D02*
X12856867Y-10853809D01*
X12856867Y-10853809D02*
X12875914Y-10853809D01*
X12875914Y-10853809D02*
X12885438Y-10849048D01*
X12885438Y-10849048D02*
X12890200Y-10844286D01*
X12890200Y-10844286D02*
X12894962Y-10834762D01*
X12894962Y-10834762D02*
X12894962Y-10815714D01*
X12894962Y-10815714D02*
X12890200Y-10806190D01*
X12890200Y-10806190D02*
X12885438Y-10801429D01*
X12885438Y-10801429D02*
X12875914Y-10796667D01*
X12875914Y-10796667D02*
X12856867Y-10796667D01*
X12856867Y-10796667D02*
X12847343Y-10801429D01*
X12847343Y-10801429D02*
X12842581Y-10806190D01*
X12842581Y-10806190D02*
X12837819Y-10815714D01*
X12794962Y-10734762D02*
X12794962Y-10725238D01*
X12794962Y-10725238D02*
X12799724Y-10715714D01*
X12799724Y-10715714D02*
X12804486Y-10710952D01*
X12804486Y-10710952D02*
X12814009Y-10706190D01*
X12814009Y-10706190D02*
X12833057Y-10701429D01*
X12833057Y-10701429D02*
X12856867Y-10701429D01*
X12856867Y-10701429D02*
X12875914Y-10706190D01*
X12875914Y-10706190D02*
X12885438Y-10710952D01*
X12885438Y-10710952D02*
X12890200Y-10715714D01*
X12890200Y-10715714D02*
X12894962Y-10725238D01*
X12894962Y-10725238D02*
X12894962Y-10734762D01*
X12894962Y-10734762D02*
X12890200Y-10744286D01*
X12890200Y-10744286D02*
X12885438Y-10749048D01*
X12885438Y-10749048D02*
X12875914Y-10753809D01*
X12875914Y-10753809D02*
X12856867Y-10758571D01*
X12856867Y-10758571D02*
X12833057Y-10758571D01*
X12833057Y-10758571D02*
X12814009Y-10753809D01*
X12814009Y-10753809D02*
X12804486Y-10749048D01*
X12804486Y-10749048D02*
X12799724Y-10744286D01*
X12799724Y-10744286D02*
X12794962Y-10734762D01*
X12794962Y-10615714D02*
X12794962Y-10634762D01*
X12794962Y-10634762D02*
X12799724Y-10644286D01*
X12799724Y-10644286D02*
X12804486Y-10649048D01*
X12804486Y-10649048D02*
X12818771Y-10658571D01*
X12818771Y-10658571D02*
X12837819Y-10663333D01*
X12837819Y-10663333D02*
X12875914Y-10663333D01*
X12875914Y-10663333D02*
X12885438Y-10658571D01*
X12885438Y-10658571D02*
X12890200Y-10653809D01*
X12890200Y-10653809D02*
X12894962Y-10644286D01*
X12894962Y-10644286D02*
X12894962Y-10625238D01*
X12894962Y-10625238D02*
X12890200Y-10615714D01*
X12890200Y-10615714D02*
X12885438Y-10610952D01*
X12885438Y-10610952D02*
X12875914Y-10606190D01*
X12875914Y-10606190D02*
X12852105Y-10606190D01*
X12852105Y-10606190D02*
X12842581Y-10610952D01*
X12842581Y-10610952D02*
X12837819Y-10615714D01*
X12837819Y-10615714D02*
X12833057Y-10625238D01*
X12833057Y-10625238D02*
X12833057Y-10644286D01*
X12833057Y-10644286D02*
X12837819Y-10653809D01*
X12837819Y-10653809D02*
X12842581Y-10658571D01*
X12842581Y-10658571D02*
X12852105Y-10663333D01*
X15478571Y-7190200D02*
X15492857Y-7194962D01*
X15492857Y-7194962D02*
X15516667Y-7194962D01*
X15516667Y-7194962D02*
X15526190Y-7190200D01*
X15526190Y-7190200D02*
X15530952Y-7185438D01*
X15530952Y-7185438D02*
X15535714Y-7175914D01*
X15535714Y-7175914D02*
X15535714Y-7166390D01*
X15535714Y-7166390D02*
X15530952Y-7156867D01*
X15530952Y-7156867D02*
X15526190Y-7152105D01*
X15526190Y-7152105D02*
X15516667Y-7147343D01*
X15516667Y-7147343D02*
X15497619Y-7142581D01*
X15497619Y-7142581D02*
X15488095Y-7137819D01*
X15488095Y-7137819D02*
X15483333Y-7133057D01*
X15483333Y-7133057D02*
X15478571Y-7123533D01*
X15478571Y-7123533D02*
X15478571Y-7114009D01*
X15478571Y-7114009D02*
X15483333Y-7104486D01*
X15483333Y-7104486D02*
X15488095Y-7099724D01*
X15488095Y-7099724D02*
X15497619Y-7094962D01*
X15497619Y-7094962D02*
X15521428Y-7094962D01*
X15521428Y-7094962D02*
X15535714Y-7099724D01*
X15573809Y-7104486D02*
X15578571Y-7099724D01*
X15578571Y-7099724D02*
X15588095Y-7094962D01*
X15588095Y-7094962D02*
X15611905Y-7094962D01*
X15611905Y-7094962D02*
X15621428Y-7099724D01*
X15621428Y-7099724D02*
X15626190Y-7104486D01*
X15626190Y-7104486D02*
X15630952Y-7114009D01*
X15630952Y-7114009D02*
X15630952Y-7123533D01*
X15630952Y-7123533D02*
X15626190Y-7137819D01*
X15626190Y-7137819D02*
X15569048Y-7194962D01*
X15569048Y-7194962D02*
X15630952Y-7194962D01*
X15692857Y-7094962D02*
X15702381Y-7094962D01*
X15702381Y-7094962D02*
X15711905Y-7099724D01*
X15711905Y-7099724D02*
X15716667Y-7104486D01*
X15716667Y-7104486D02*
X15721428Y-7114009D01*
X15721428Y-7114009D02*
X15726190Y-7133057D01*
X15726190Y-7133057D02*
X15726190Y-7156867D01*
X15726190Y-7156867D02*
X15721428Y-7175914D01*
X15721428Y-7175914D02*
X15716667Y-7185438D01*
X15716667Y-7185438D02*
X15711905Y-7190200D01*
X15711905Y-7190200D02*
X15702381Y-7194962D01*
X15702381Y-7194962D02*
X15692857Y-7194962D01*
X15692857Y-7194962D02*
X15683333Y-7190200D01*
X15683333Y-7190200D02*
X15678571Y-7185438D01*
X15678571Y-7185438D02*
X15673809Y-7175914D01*
X15673809Y-7175914D02*
X15669048Y-7156867D01*
X15669048Y-7156867D02*
X15669048Y-7133057D01*
X15669048Y-7133057D02*
X15673809Y-7114009D01*
X15673809Y-7114009D02*
X15678571Y-7104486D01*
X15678571Y-7104486D02*
X15683333Y-7099724D01*
X15683333Y-7099724D02*
X15692857Y-7094962D01*
X15821428Y-7194962D02*
X15764286Y-7194962D01*
X15792857Y-7194962D02*
X15792857Y-7094962D01*
X15792857Y-7094962D02*
X15783333Y-7109248D01*
X15783333Y-7109248D02*
X15773809Y-7118771D01*
X15773809Y-7118771D02*
X15764286Y-7123533D01*
X15268095Y-9674962D02*
X15234762Y-9627343D01*
X15210952Y-9674962D02*
X15210952Y-9574962D01*
X15210952Y-9574962D02*
X15249048Y-9574962D01*
X15249048Y-9574962D02*
X15258571Y-9579724D01*
X15258571Y-9579724D02*
X15263333Y-9584486D01*
X15263333Y-9584486D02*
X15268095Y-9594010D01*
X15268095Y-9594010D02*
X15268095Y-9608295D01*
X15268095Y-9608295D02*
X15263333Y-9617819D01*
X15263333Y-9617819D02*
X15258571Y-9622581D01*
X15258571Y-9622581D02*
X15249048Y-9627343D01*
X15249048Y-9627343D02*
X15210952Y-9627343D01*
X15325238Y-9617819D02*
X15315714Y-9613057D01*
X15315714Y-9613057D02*
X15310952Y-9608295D01*
X15310952Y-9608295D02*
X15306190Y-9598771D01*
X15306190Y-9598771D02*
X15306190Y-9594010D01*
X15306190Y-9594010D02*
X15310952Y-9584486D01*
X15310952Y-9584486D02*
X15315714Y-9579724D01*
X15315714Y-9579724D02*
X15325238Y-9574962D01*
X15325238Y-9574962D02*
X15344286Y-9574962D01*
X15344286Y-9574962D02*
X15353809Y-9579724D01*
X15353809Y-9579724D02*
X15358571Y-9584486D01*
X15358571Y-9584486D02*
X15363333Y-9594010D01*
X15363333Y-9594010D02*
X15363333Y-9598771D01*
X15363333Y-9598771D02*
X15358571Y-9608295D01*
X15358571Y-9608295D02*
X15353809Y-9613057D01*
X15353809Y-9613057D02*
X15344286Y-9617819D01*
X15344286Y-9617819D02*
X15325238Y-9617819D01*
X15325238Y-9617819D02*
X15315714Y-9622581D01*
X15315714Y-9622581D02*
X15310952Y-9627343D01*
X15310952Y-9627343D02*
X15306190Y-9636867D01*
X15306190Y-9636867D02*
X15306190Y-9655914D01*
X15306190Y-9655914D02*
X15310952Y-9665438D01*
X15310952Y-9665438D02*
X15315714Y-9670200D01*
X15315714Y-9670200D02*
X15325238Y-9674962D01*
X15325238Y-9674962D02*
X15344286Y-9674962D01*
X15344286Y-9674962D02*
X15353809Y-9670200D01*
X15353809Y-9670200D02*
X15358571Y-9665438D01*
X15358571Y-9665438D02*
X15363333Y-9655914D01*
X15363333Y-9655914D02*
X15363333Y-9636867D01*
X15363333Y-9636867D02*
X15358571Y-9627343D01*
X15358571Y-9627343D02*
X15353809Y-9622581D01*
X15353809Y-9622581D02*
X15344286Y-9617819D01*
X15425238Y-9574962D02*
X15434762Y-9574962D01*
X15434762Y-9574962D02*
X15444286Y-9579724D01*
X15444286Y-9579724D02*
X15449048Y-9584486D01*
X15449048Y-9584486D02*
X15453809Y-9594010D01*
X15453809Y-9594010D02*
X15458571Y-9613057D01*
X15458571Y-9613057D02*
X15458571Y-9636867D01*
X15458571Y-9636867D02*
X15453809Y-9655914D01*
X15453809Y-9655914D02*
X15449048Y-9665438D01*
X15449048Y-9665438D02*
X15444286Y-9670200D01*
X15444286Y-9670200D02*
X15434762Y-9674962D01*
X15434762Y-9674962D02*
X15425238Y-9674962D01*
X15425238Y-9674962D02*
X15415714Y-9670200D01*
X15415714Y-9670200D02*
X15410952Y-9665438D01*
X15410952Y-9665438D02*
X15406190Y-9655914D01*
X15406190Y-9655914D02*
X15401429Y-9636867D01*
X15401429Y-9636867D02*
X15401429Y-9613057D01*
X15401429Y-9613057D02*
X15406190Y-9594010D01*
X15406190Y-9594010D02*
X15410952Y-9584486D01*
X15410952Y-9584486D02*
X15415714Y-9579724D01*
X15415714Y-9579724D02*
X15425238Y-9574962D01*
X15496667Y-9584486D02*
X15501429Y-9579724D01*
X15501429Y-9579724D02*
X15510952Y-9574962D01*
X15510952Y-9574962D02*
X15534762Y-9574962D01*
X15534762Y-9574962D02*
X15544286Y-9579724D01*
X15544286Y-9579724D02*
X15549048Y-9584486D01*
X15549048Y-9584486D02*
X15553809Y-9594010D01*
X15553809Y-9594010D02*
X15553809Y-9603533D01*
X15553809Y-9603533D02*
X15549048Y-9617819D01*
X15549048Y-9617819D02*
X15491905Y-9674962D01*
X15491905Y-9674962D02*
X15553809Y-9674962D01*
X15225438Y-7591905D02*
X15230200Y-7596667D01*
X15230200Y-7596667D02*
X15234962Y-7610952D01*
X15234962Y-7610952D02*
X15234962Y-7620476D01*
X15234962Y-7620476D02*
X15230200Y-7634762D01*
X15230200Y-7634762D02*
X15220676Y-7644286D01*
X15220676Y-7644286D02*
X15211152Y-7649047D01*
X15211152Y-7649047D02*
X15192105Y-7653809D01*
X15192105Y-7653809D02*
X15177819Y-7653809D01*
X15177819Y-7653809D02*
X15158771Y-7649047D01*
X15158771Y-7649047D02*
X15149248Y-7644286D01*
X15149248Y-7644286D02*
X15139724Y-7634762D01*
X15139724Y-7634762D02*
X15134962Y-7620476D01*
X15134962Y-7620476D02*
X15134962Y-7610952D01*
X15134962Y-7610952D02*
X15139724Y-7596667D01*
X15139724Y-7596667D02*
X15144486Y-7591905D01*
X15144486Y-7553809D02*
X15139724Y-7549047D01*
X15139724Y-7549047D02*
X15134962Y-7539524D01*
X15134962Y-7539524D02*
X15134962Y-7515714D01*
X15134962Y-7515714D02*
X15139724Y-7506190D01*
X15139724Y-7506190D02*
X15144486Y-7501428D01*
X15144486Y-7501428D02*
X15154009Y-7496667D01*
X15154009Y-7496667D02*
X15163533Y-7496667D01*
X15163533Y-7496667D02*
X15177819Y-7501428D01*
X15177819Y-7501428D02*
X15234962Y-7558571D01*
X15234962Y-7558571D02*
X15234962Y-7496667D01*
X15134962Y-7434762D02*
X15134962Y-7425238D01*
X15134962Y-7425238D02*
X15139724Y-7415714D01*
X15139724Y-7415714D02*
X15144486Y-7410952D01*
X15144486Y-7410952D02*
X15154009Y-7406190D01*
X15154009Y-7406190D02*
X15173057Y-7401428D01*
X15173057Y-7401428D02*
X15196867Y-7401428D01*
X15196867Y-7401428D02*
X15215914Y-7406190D01*
X15215914Y-7406190D02*
X15225438Y-7410952D01*
X15225438Y-7410952D02*
X15230200Y-7415714D01*
X15230200Y-7415714D02*
X15234962Y-7425238D01*
X15234962Y-7425238D02*
X15234962Y-7434762D01*
X15234962Y-7434762D02*
X15230200Y-7444286D01*
X15230200Y-7444286D02*
X15225438Y-7449047D01*
X15225438Y-7449047D02*
X15215914Y-7453809D01*
X15215914Y-7453809D02*
X15196867Y-7458571D01*
X15196867Y-7458571D02*
X15173057Y-7458571D01*
X15173057Y-7458571D02*
X15154009Y-7453809D01*
X15154009Y-7453809D02*
X15144486Y-7449047D01*
X15144486Y-7449047D02*
X15139724Y-7444286D01*
X15139724Y-7444286D02*
X15134962Y-7434762D01*
X15134962Y-7310952D02*
X15134962Y-7358571D01*
X15134962Y-7358571D02*
X15182581Y-7363333D01*
X15182581Y-7363333D02*
X15177819Y-7358571D01*
X15177819Y-7358571D02*
X15173057Y-7349047D01*
X15173057Y-7349047D02*
X15173057Y-7325238D01*
X15173057Y-7325238D02*
X15177819Y-7315714D01*
X15177819Y-7315714D02*
X15182581Y-7310952D01*
X15182581Y-7310952D02*
X15192105Y-7306190D01*
X15192105Y-7306190D02*
X15215914Y-7306190D01*
X15215914Y-7306190D02*
X15225438Y-7310952D01*
X15225438Y-7310952D02*
X15230200Y-7315714D01*
X15230200Y-7315714D02*
X15234962Y-7325238D01*
X15234962Y-7325238D02*
X15234962Y-7349047D01*
X15234962Y-7349047D02*
X15230200Y-7358571D01*
X15230200Y-7358571D02*
X15225438Y-7363333D01*
X15008095Y-10445438D02*
X15003333Y-10450200D01*
X15003333Y-10450200D02*
X14989048Y-10454962D01*
X14989048Y-10454962D02*
X14979524Y-10454962D01*
X14979524Y-10454962D02*
X14965238Y-10450200D01*
X14965238Y-10450200D02*
X14955714Y-10440676D01*
X14955714Y-10440676D02*
X14950952Y-10431152D01*
X14950952Y-10431152D02*
X14946190Y-10412105D01*
X14946190Y-10412105D02*
X14946190Y-10397819D01*
X14946190Y-10397819D02*
X14950952Y-10378771D01*
X14950952Y-10378771D02*
X14955714Y-10369248D01*
X14955714Y-10369248D02*
X14965238Y-10359724D01*
X14965238Y-10359724D02*
X14979524Y-10354962D01*
X14979524Y-10354962D02*
X14989048Y-10354962D01*
X14989048Y-10354962D02*
X15003333Y-10359724D01*
X15003333Y-10359724D02*
X15008095Y-10364486D01*
X15065238Y-10397819D02*
X15055714Y-10393057D01*
X15055714Y-10393057D02*
X15050952Y-10388295D01*
X15050952Y-10388295D02*
X15046190Y-10378771D01*
X15046190Y-10378771D02*
X15046190Y-10374010D01*
X15046190Y-10374010D02*
X15050952Y-10364486D01*
X15050952Y-10364486D02*
X15055714Y-10359724D01*
X15055714Y-10359724D02*
X15065238Y-10354962D01*
X15065238Y-10354962D02*
X15084286Y-10354962D01*
X15084286Y-10354962D02*
X15093809Y-10359724D01*
X15093809Y-10359724D02*
X15098571Y-10364486D01*
X15098571Y-10364486D02*
X15103333Y-10374010D01*
X15103333Y-10374010D02*
X15103333Y-10378771D01*
X15103333Y-10378771D02*
X15098571Y-10388295D01*
X15098571Y-10388295D02*
X15093809Y-10393057D01*
X15093809Y-10393057D02*
X15084286Y-10397819D01*
X15084286Y-10397819D02*
X15065238Y-10397819D01*
X15065238Y-10397819D02*
X15055714Y-10402581D01*
X15055714Y-10402581D02*
X15050952Y-10407343D01*
X15050952Y-10407343D02*
X15046190Y-10416867D01*
X15046190Y-10416867D02*
X15046190Y-10435914D01*
X15046190Y-10435914D02*
X15050952Y-10445438D01*
X15050952Y-10445438D02*
X15055714Y-10450200D01*
X15055714Y-10450200D02*
X15065238Y-10454962D01*
X15065238Y-10454962D02*
X15084286Y-10454962D01*
X15084286Y-10454962D02*
X15093809Y-10450200D01*
X15093809Y-10450200D02*
X15098571Y-10445438D01*
X15098571Y-10445438D02*
X15103333Y-10435914D01*
X15103333Y-10435914D02*
X15103333Y-10416867D01*
X15103333Y-10416867D02*
X15098571Y-10407343D01*
X15098571Y-10407343D02*
X15093809Y-10402581D01*
X15093809Y-10402581D02*
X15084286Y-10397819D01*
X15165238Y-10354962D02*
X15174762Y-10354962D01*
X15174762Y-10354962D02*
X15184286Y-10359724D01*
X15184286Y-10359724D02*
X15189048Y-10364486D01*
X15189048Y-10364486D02*
X15193809Y-10374010D01*
X15193809Y-10374010D02*
X15198571Y-10393057D01*
X15198571Y-10393057D02*
X15198571Y-10416867D01*
X15198571Y-10416867D02*
X15193809Y-10435914D01*
X15193809Y-10435914D02*
X15189048Y-10445438D01*
X15189048Y-10445438D02*
X15184286Y-10450200D01*
X15184286Y-10450200D02*
X15174762Y-10454962D01*
X15174762Y-10454962D02*
X15165238Y-10454962D01*
X15165238Y-10454962D02*
X15155714Y-10450200D01*
X15155714Y-10450200D02*
X15150952Y-10445438D01*
X15150952Y-10445438D02*
X15146190Y-10435914D01*
X15146190Y-10435914D02*
X15141429Y-10416867D01*
X15141429Y-10416867D02*
X15141429Y-10393057D01*
X15141429Y-10393057D02*
X15146190Y-10374010D01*
X15146190Y-10374010D02*
X15150952Y-10364486D01*
X15150952Y-10364486D02*
X15155714Y-10359724D01*
X15155714Y-10359724D02*
X15165238Y-10354962D01*
X15284286Y-10388295D02*
X15284286Y-10454962D01*
X15260476Y-10350200D02*
X15236667Y-10421629D01*
X15236667Y-10421629D02*
X15298571Y-10421629D01*
X12988095Y-7814962D02*
X12954762Y-7767343D01*
X12930952Y-7814962D02*
X12930952Y-7714962D01*
X12930952Y-7714962D02*
X12969048Y-7714962D01*
X12969048Y-7714962D02*
X12978571Y-7719724D01*
X12978571Y-7719724D02*
X12983333Y-7724486D01*
X12983333Y-7724486D02*
X12988095Y-7734009D01*
X12988095Y-7734009D02*
X12988095Y-7748295D01*
X12988095Y-7748295D02*
X12983333Y-7757819D01*
X12983333Y-7757819D02*
X12978571Y-7762581D01*
X12978571Y-7762581D02*
X12969048Y-7767343D01*
X12969048Y-7767343D02*
X12930952Y-7767343D01*
X13026190Y-7724486D02*
X13030952Y-7719724D01*
X13030952Y-7719724D02*
X13040476Y-7714962D01*
X13040476Y-7714962D02*
X13064286Y-7714962D01*
X13064286Y-7714962D02*
X13073809Y-7719724D01*
X13073809Y-7719724D02*
X13078571Y-7724486D01*
X13078571Y-7724486D02*
X13083333Y-7734009D01*
X13083333Y-7734009D02*
X13083333Y-7743533D01*
X13083333Y-7743533D02*
X13078571Y-7757819D01*
X13078571Y-7757819D02*
X13021429Y-7814962D01*
X13021429Y-7814962D02*
X13083333Y-7814962D01*
X13145238Y-7714962D02*
X13154762Y-7714962D01*
X13154762Y-7714962D02*
X13164286Y-7719724D01*
X13164286Y-7719724D02*
X13169048Y-7724486D01*
X13169048Y-7724486D02*
X13173809Y-7734009D01*
X13173809Y-7734009D02*
X13178571Y-7753057D01*
X13178571Y-7753057D02*
X13178571Y-7776867D01*
X13178571Y-7776867D02*
X13173809Y-7795914D01*
X13173809Y-7795914D02*
X13169048Y-7805438D01*
X13169048Y-7805438D02*
X13164286Y-7810200D01*
X13164286Y-7810200D02*
X13154762Y-7814962D01*
X13154762Y-7814962D02*
X13145238Y-7814962D01*
X13145238Y-7814962D02*
X13135714Y-7810200D01*
X13135714Y-7810200D02*
X13130952Y-7805438D01*
X13130952Y-7805438D02*
X13126190Y-7795914D01*
X13126190Y-7795914D02*
X13121429Y-7776867D01*
X13121429Y-7776867D02*
X13121429Y-7753057D01*
X13121429Y-7753057D02*
X13126190Y-7734009D01*
X13126190Y-7734009D02*
X13130952Y-7724486D01*
X13130952Y-7724486D02*
X13135714Y-7719724D01*
X13135714Y-7719724D02*
X13145238Y-7714962D01*
X13273809Y-7814962D02*
X13216667Y-7814962D01*
X13245238Y-7814962D02*
X13245238Y-7714962D01*
X13245238Y-7714962D02*
X13235714Y-7729248D01*
X13235714Y-7729248D02*
X13226190Y-7738771D01*
X13226190Y-7738771D02*
X13216667Y-7743533D01*
X13768095Y-10334962D02*
X13734762Y-10287343D01*
X13710952Y-10334962D02*
X13710952Y-10234962D01*
X13710952Y-10234962D02*
X13749048Y-10234962D01*
X13749048Y-10234962D02*
X13758571Y-10239724D01*
X13758571Y-10239724D02*
X13763333Y-10244486D01*
X13763333Y-10244486D02*
X13768095Y-10254010D01*
X13768095Y-10254010D02*
X13768095Y-10268295D01*
X13768095Y-10268295D02*
X13763333Y-10277819D01*
X13763333Y-10277819D02*
X13758571Y-10282581D01*
X13758571Y-10282581D02*
X13749048Y-10287343D01*
X13749048Y-10287343D02*
X13710952Y-10287343D01*
X13825238Y-10277819D02*
X13815714Y-10273057D01*
X13815714Y-10273057D02*
X13810952Y-10268295D01*
X13810952Y-10268295D02*
X13806190Y-10258771D01*
X13806190Y-10258771D02*
X13806190Y-10254010D01*
X13806190Y-10254010D02*
X13810952Y-10244486D01*
X13810952Y-10244486D02*
X13815714Y-10239724D01*
X13815714Y-10239724D02*
X13825238Y-10234962D01*
X13825238Y-10234962D02*
X13844286Y-10234962D01*
X13844286Y-10234962D02*
X13853809Y-10239724D01*
X13853809Y-10239724D02*
X13858571Y-10244486D01*
X13858571Y-10244486D02*
X13863333Y-10254010D01*
X13863333Y-10254010D02*
X13863333Y-10258771D01*
X13863333Y-10258771D02*
X13858571Y-10268295D01*
X13858571Y-10268295D02*
X13853809Y-10273057D01*
X13853809Y-10273057D02*
X13844286Y-10277819D01*
X13844286Y-10277819D02*
X13825238Y-10277819D01*
X13825238Y-10277819D02*
X13815714Y-10282581D01*
X13815714Y-10282581D02*
X13810952Y-10287343D01*
X13810952Y-10287343D02*
X13806190Y-10296867D01*
X13806190Y-10296867D02*
X13806190Y-10315914D01*
X13806190Y-10315914D02*
X13810952Y-10325438D01*
X13810952Y-10325438D02*
X13815714Y-10330200D01*
X13815714Y-10330200D02*
X13825238Y-10334962D01*
X13825238Y-10334962D02*
X13844286Y-10334962D01*
X13844286Y-10334962D02*
X13853809Y-10330200D01*
X13853809Y-10330200D02*
X13858571Y-10325438D01*
X13858571Y-10325438D02*
X13863333Y-10315914D01*
X13863333Y-10315914D02*
X13863333Y-10296867D01*
X13863333Y-10296867D02*
X13858571Y-10287343D01*
X13858571Y-10287343D02*
X13853809Y-10282581D01*
X13853809Y-10282581D02*
X13844286Y-10277819D01*
X13925238Y-10234962D02*
X13934762Y-10234962D01*
X13934762Y-10234962D02*
X13944286Y-10239724D01*
X13944286Y-10239724D02*
X13949048Y-10244486D01*
X13949048Y-10244486D02*
X13953809Y-10254010D01*
X13953809Y-10254010D02*
X13958571Y-10273057D01*
X13958571Y-10273057D02*
X13958571Y-10296867D01*
X13958571Y-10296867D02*
X13953809Y-10315914D01*
X13953809Y-10315914D02*
X13949048Y-10325438D01*
X13949048Y-10325438D02*
X13944286Y-10330200D01*
X13944286Y-10330200D02*
X13934762Y-10334962D01*
X13934762Y-10334962D02*
X13925238Y-10334962D01*
X13925238Y-10334962D02*
X13915714Y-10330200D01*
X13915714Y-10330200D02*
X13910952Y-10325438D01*
X13910952Y-10325438D02*
X13906190Y-10315914D01*
X13906190Y-10315914D02*
X13901429Y-10296867D01*
X13901429Y-10296867D02*
X13901429Y-10273057D01*
X13901429Y-10273057D02*
X13906190Y-10254010D01*
X13906190Y-10254010D02*
X13910952Y-10244486D01*
X13910952Y-10244486D02*
X13915714Y-10239724D01*
X13915714Y-10239724D02*
X13925238Y-10234962D01*
X14049048Y-10234962D02*
X14001429Y-10234962D01*
X14001429Y-10234962D02*
X13996667Y-10282581D01*
X13996667Y-10282581D02*
X14001429Y-10277819D01*
X14001429Y-10277819D02*
X14010952Y-10273057D01*
X14010952Y-10273057D02*
X14034762Y-10273057D01*
X14034762Y-10273057D02*
X14044286Y-10277819D01*
X14044286Y-10277819D02*
X14049048Y-10282581D01*
X14049048Y-10282581D02*
X14053809Y-10292105D01*
X14053809Y-10292105D02*
X14053809Y-10315914D01*
X14053809Y-10315914D02*
X14049048Y-10325438D01*
X14049048Y-10325438D02*
X14044286Y-10330200D01*
X14044286Y-10330200D02*
X14034762Y-10334962D01*
X14034762Y-10334962D02*
X14010952Y-10334962D01*
X14010952Y-10334962D02*
X14001429Y-10330200D01*
X14001429Y-10330200D02*
X13996667Y-10325438D01*
X13345438Y-10891905D02*
X13350200Y-10896667D01*
X13350200Y-10896667D02*
X13354962Y-10910952D01*
X13354962Y-10910952D02*
X13354962Y-10920476D01*
X13354962Y-10920476D02*
X13350200Y-10934762D01*
X13350200Y-10934762D02*
X13340676Y-10944286D01*
X13340676Y-10944286D02*
X13331152Y-10949048D01*
X13331152Y-10949048D02*
X13312105Y-10953809D01*
X13312105Y-10953809D02*
X13297819Y-10953809D01*
X13297819Y-10953809D02*
X13278771Y-10949048D01*
X13278771Y-10949048D02*
X13269248Y-10944286D01*
X13269248Y-10944286D02*
X13259724Y-10934762D01*
X13259724Y-10934762D02*
X13254962Y-10920476D01*
X13254962Y-10920476D02*
X13254962Y-10910952D01*
X13254962Y-10910952D02*
X13259724Y-10896667D01*
X13259724Y-10896667D02*
X13264486Y-10891905D01*
X13297819Y-10834762D02*
X13293057Y-10844286D01*
X13293057Y-10844286D02*
X13288295Y-10849048D01*
X13288295Y-10849048D02*
X13278771Y-10853809D01*
X13278771Y-10853809D02*
X13274009Y-10853809D01*
X13274009Y-10853809D02*
X13264486Y-10849048D01*
X13264486Y-10849048D02*
X13259724Y-10844286D01*
X13259724Y-10844286D02*
X13254962Y-10834762D01*
X13254962Y-10834762D02*
X13254962Y-10815714D01*
X13254962Y-10815714D02*
X13259724Y-10806190D01*
X13259724Y-10806190D02*
X13264486Y-10801429D01*
X13264486Y-10801429D02*
X13274009Y-10796667D01*
X13274009Y-10796667D02*
X13278771Y-10796667D01*
X13278771Y-10796667D02*
X13288295Y-10801429D01*
X13288295Y-10801429D02*
X13293057Y-10806190D01*
X13293057Y-10806190D02*
X13297819Y-10815714D01*
X13297819Y-10815714D02*
X13297819Y-10834762D01*
X13297819Y-10834762D02*
X13302581Y-10844286D01*
X13302581Y-10844286D02*
X13307343Y-10849048D01*
X13307343Y-10849048D02*
X13316867Y-10853809D01*
X13316867Y-10853809D02*
X13335914Y-10853809D01*
X13335914Y-10853809D02*
X13345438Y-10849048D01*
X13345438Y-10849048D02*
X13350200Y-10844286D01*
X13350200Y-10844286D02*
X13354962Y-10834762D01*
X13354962Y-10834762D02*
X13354962Y-10815714D01*
X13354962Y-10815714D02*
X13350200Y-10806190D01*
X13350200Y-10806190D02*
X13345438Y-10801429D01*
X13345438Y-10801429D02*
X13335914Y-10796667D01*
X13335914Y-10796667D02*
X13316867Y-10796667D01*
X13316867Y-10796667D02*
X13307343Y-10801429D01*
X13307343Y-10801429D02*
X13302581Y-10806190D01*
X13302581Y-10806190D02*
X13297819Y-10815714D01*
X13254962Y-10734762D02*
X13254962Y-10725238D01*
X13254962Y-10725238D02*
X13259724Y-10715714D01*
X13259724Y-10715714D02*
X13264486Y-10710952D01*
X13264486Y-10710952D02*
X13274009Y-10706190D01*
X13274009Y-10706190D02*
X13293057Y-10701429D01*
X13293057Y-10701429D02*
X13316867Y-10701429D01*
X13316867Y-10701429D02*
X13335914Y-10706190D01*
X13335914Y-10706190D02*
X13345438Y-10710952D01*
X13345438Y-10710952D02*
X13350200Y-10715714D01*
X13350200Y-10715714D02*
X13354962Y-10725238D01*
X13354962Y-10725238D02*
X13354962Y-10734762D01*
X13354962Y-10734762D02*
X13350200Y-10744286D01*
X13350200Y-10744286D02*
X13345438Y-10749048D01*
X13345438Y-10749048D02*
X13335914Y-10753809D01*
X13335914Y-10753809D02*
X13316867Y-10758571D01*
X13316867Y-10758571D02*
X13293057Y-10758571D01*
X13293057Y-10758571D02*
X13274009Y-10753809D01*
X13274009Y-10753809D02*
X13264486Y-10749048D01*
X13264486Y-10749048D02*
X13259724Y-10744286D01*
X13259724Y-10744286D02*
X13254962Y-10734762D01*
X13254962Y-10610952D02*
X13254962Y-10658571D01*
X13254962Y-10658571D02*
X13302581Y-10663333D01*
X13302581Y-10663333D02*
X13297819Y-10658571D01*
X13297819Y-10658571D02*
X13293057Y-10649048D01*
X13293057Y-10649048D02*
X13293057Y-10625238D01*
X13293057Y-10625238D02*
X13297819Y-10615714D01*
X13297819Y-10615714D02*
X13302581Y-10610952D01*
X13302581Y-10610952D02*
X13312105Y-10606190D01*
X13312105Y-10606190D02*
X13335914Y-10606190D01*
X13335914Y-10606190D02*
X13345438Y-10610952D01*
X13345438Y-10610952D02*
X13350200Y-10615714D01*
X13350200Y-10615714D02*
X13354962Y-10625238D01*
X13354962Y-10625238D02*
X13354962Y-10649048D01*
X13354962Y-10649048D02*
X13350200Y-10658571D01*
X13350200Y-10658571D02*
X13345438Y-10663333D01*
X14051428Y-6954962D02*
X14051428Y-7026390D01*
X14051428Y-7026390D02*
X14046667Y-7040676D01*
X14046667Y-7040676D02*
X14037143Y-7050200D01*
X14037143Y-7050200D02*
X14022857Y-7054962D01*
X14022857Y-7054962D02*
X14013333Y-7054962D01*
X14089524Y-6954962D02*
X14151428Y-6954962D01*
X14151428Y-6954962D02*
X14118095Y-6993057D01*
X14118095Y-6993057D02*
X14132381Y-6993057D01*
X14132381Y-6993057D02*
X14141905Y-6997819D01*
X14141905Y-6997819D02*
X14146667Y-7002581D01*
X14146667Y-7002581D02*
X14151428Y-7012105D01*
X14151428Y-7012105D02*
X14151428Y-7035914D01*
X14151428Y-7035914D02*
X14146667Y-7045438D01*
X14146667Y-7045438D02*
X14141905Y-7050200D01*
X14141905Y-7050200D02*
X14132381Y-7054962D01*
X14132381Y-7054962D02*
X14103809Y-7054962D01*
X14103809Y-7054962D02*
X14094286Y-7050200D01*
X14094286Y-7050200D02*
X14089524Y-7045438D01*
X14213333Y-6954962D02*
X14222857Y-6954962D01*
X14222857Y-6954962D02*
X14232381Y-6959724D01*
X14232381Y-6959724D02*
X14237143Y-6964486D01*
X14237143Y-6964486D02*
X14241905Y-6974009D01*
X14241905Y-6974009D02*
X14246667Y-6993057D01*
X14246667Y-6993057D02*
X14246667Y-7016867D01*
X14246667Y-7016867D02*
X14241905Y-7035914D01*
X14241905Y-7035914D02*
X14237143Y-7045438D01*
X14237143Y-7045438D02*
X14232381Y-7050200D01*
X14232381Y-7050200D02*
X14222857Y-7054962D01*
X14222857Y-7054962D02*
X14213333Y-7054962D01*
X14213333Y-7054962D02*
X14203809Y-7050200D01*
X14203809Y-7050200D02*
X14199048Y-7045438D01*
X14199048Y-7045438D02*
X14194286Y-7035914D01*
X14194286Y-7035914D02*
X14189524Y-7016867D01*
X14189524Y-7016867D02*
X14189524Y-6993057D01*
X14189524Y-6993057D02*
X14194286Y-6974009D01*
X14194286Y-6974009D02*
X14199048Y-6964486D01*
X14199048Y-6964486D02*
X14203809Y-6959724D01*
X14203809Y-6959724D02*
X14213333Y-6954962D01*
X14332381Y-6988295D02*
X14332381Y-7054962D01*
X14308571Y-6950200D02*
X14284762Y-7021628D01*
X14284762Y-7021628D02*
X14346667Y-7021628D01*
X14631428Y-12204962D02*
X14631428Y-12276390D01*
X14631428Y-12276390D02*
X14626667Y-12290676D01*
X14626667Y-12290676D02*
X14617143Y-12300200D01*
X14617143Y-12300200D02*
X14602857Y-12304962D01*
X14602857Y-12304962D02*
X14593333Y-12304962D01*
X14669524Y-12204962D02*
X14731428Y-12204962D01*
X14731428Y-12204962D02*
X14698095Y-12243057D01*
X14698095Y-12243057D02*
X14712381Y-12243057D01*
X14712381Y-12243057D02*
X14721905Y-12247819D01*
X14721905Y-12247819D02*
X14726667Y-12252581D01*
X14726667Y-12252581D02*
X14731428Y-12262105D01*
X14731428Y-12262105D02*
X14731428Y-12285914D01*
X14731428Y-12285914D02*
X14726667Y-12295438D01*
X14726667Y-12295438D02*
X14721905Y-12300200D01*
X14721905Y-12300200D02*
X14712381Y-12304962D01*
X14712381Y-12304962D02*
X14683809Y-12304962D01*
X14683809Y-12304962D02*
X14674286Y-12300200D01*
X14674286Y-12300200D02*
X14669524Y-12295438D01*
X14793333Y-12204962D02*
X14802857Y-12204962D01*
X14802857Y-12204962D02*
X14812381Y-12209724D01*
X14812381Y-12209724D02*
X14817143Y-12214486D01*
X14817143Y-12214486D02*
X14821905Y-12224009D01*
X14821905Y-12224009D02*
X14826667Y-12243057D01*
X14826667Y-12243057D02*
X14826667Y-12266867D01*
X14826667Y-12266867D02*
X14821905Y-12285914D01*
X14821905Y-12285914D02*
X14817143Y-12295438D01*
X14817143Y-12295438D02*
X14812381Y-12300200D01*
X14812381Y-12300200D02*
X14802857Y-12304962D01*
X14802857Y-12304962D02*
X14793333Y-12304962D01*
X14793333Y-12304962D02*
X14783809Y-12300200D01*
X14783809Y-12300200D02*
X14779048Y-12295438D01*
X14779048Y-12295438D02*
X14774286Y-12285914D01*
X14774286Y-12285914D02*
X14769524Y-12266867D01*
X14769524Y-12266867D02*
X14769524Y-12243057D01*
X14769524Y-12243057D02*
X14774286Y-12224009D01*
X14774286Y-12224009D02*
X14779048Y-12214486D01*
X14779048Y-12214486D02*
X14783809Y-12209724D01*
X14783809Y-12209724D02*
X14793333Y-12204962D01*
X14860000Y-12204962D02*
X14921905Y-12204962D01*
X14921905Y-12204962D02*
X14888571Y-12243057D01*
X14888571Y-12243057D02*
X14902857Y-12243057D01*
X14902857Y-12243057D02*
X14912381Y-12247819D01*
X14912381Y-12247819D02*
X14917143Y-12252581D01*
X14917143Y-12252581D02*
X14921905Y-12262105D01*
X14921905Y-12262105D02*
X14921905Y-12285914D01*
X14921905Y-12285914D02*
X14917143Y-12295438D01*
X14917143Y-12295438D02*
X14912381Y-12300200D01*
X14912381Y-12300200D02*
X14902857Y-12304962D01*
X14902857Y-12304962D02*
X14874286Y-12304962D01*
X14874286Y-12304962D02*
X14864762Y-12300200D01*
X14864762Y-12300200D02*
X14860000Y-12295438D01*
D13*
%TO.C,R801*%
X14913800Y-9405000D02*
X14806200Y-9405000D01*
%TO.C,TP401*%
X12460000Y-11400000D02*
X12700000Y-11400000D01*
X12460000Y-11640000D02*
X12460000Y-11400000D01*
X12700000Y-11400000D02*
X12700000Y-11640000D01*
X12700000Y-11640000D02*
X12460000Y-11640000D01*
%TO.C,R202*%
X14550000Y-7736200D02*
X14550000Y-7843800D01*
%TO.C,R804*%
X15153800Y-10020000D02*
X15046200Y-10020000D01*
%TO.C,R803*%
X14930000Y-9820000D02*
X14790000Y-9820000D01*
%TO.C,D202*%
X12330000Y-7505000D02*
X12410000Y-7505000D01*
X12370000Y-7085000D02*
X12370000Y-7005000D01*
X12370000Y-7545000D02*
X12370000Y-7465000D01*
%TO.C,R203*%
X12316200Y-7770000D02*
X12423800Y-7770000D01*
%TO.C,D201*%
X12770000Y-7506250D02*
X12850000Y-7506250D01*
X12810000Y-7086250D02*
X12810000Y-7006250D01*
X12810000Y-7546250D02*
X12810000Y-7466250D01*
%TO.C,Q801*%
X13825601Y-10410000D02*
X13825601Y-11060000D01*
X13825601Y-11060000D02*
X14435601Y-11060000D01*
X14435601Y-10410000D02*
X13825601Y-10410000D01*
X13355601Y-10505000D02*
X13324899Y-10530403D01*
X13324899Y-10480403D01*
X13355601Y-10505000D01*
G36*
X13355601Y-10505000D02*
G01*
X13324899Y-10530403D01*
X13324899Y-10480403D01*
X13355601Y-10505000D01*
G37*
%TO.C,R806*%
X14583800Y-10160000D02*
X14476200Y-10160000D01*
%TO.C,C809*%
X13487500Y-9540000D02*
X13592500Y-9540000D01*
%TO.C,R204*%
X15000000Y-7843800D02*
X15000000Y-7736200D01*
%TO.C,D303*%
X12325000Y-10324000D02*
X12325000Y-10905000D01*
X12755000Y-10320000D02*
X12325000Y-10320000D01*
X12755000Y-10324000D02*
X12755000Y-10905000D01*
%TO.C,C203*%
X13620000Y-8220000D02*
X13620000Y-8080000D01*
%TO.C,R401*%
X13643800Y-10200000D02*
X13536200Y-10200000D01*
%TO.C,D602*%
X12777800Y-11453000D02*
X12777800Y-12247000D01*
X13362200Y-12247000D02*
X13362200Y-11390000D01*
X13101082Y-11297112D02*
X13076486Y-11327815D01*
X13051082Y-11297112D01*
X13101082Y-11297112D01*
G36*
X13101082Y-11297112D02*
G01*
X13076486Y-11327815D01*
X13051082Y-11297112D01*
X13101082Y-11297112D01*
G37*
%TO.C,U201*%
X13994000Y-8306500D02*
X14406000Y-8306500D01*
X13994000Y-8313000D02*
X13994000Y-8306500D01*
X13994000Y-9193500D02*
X13994000Y-9187000D01*
X14406000Y-8306500D02*
X14406000Y-8313000D01*
X14406000Y-9187000D02*
X14406000Y-9193500D01*
X14406000Y-9193500D02*
X13994000Y-9193500D01*
X13940000Y-8313000D02*
X13916000Y-8280000D01*
X13964000Y-8280000D01*
X13940000Y-8313000D01*
G36*
X13940000Y-8313000D02*
G01*
X13916000Y-8280000D01*
X13964000Y-8280000D01*
X13940000Y-8313000D01*
G37*
D14*
%TO.C,G\u002A\u002A\u002A*%
G36*
X15504820Y-11844030D02*
G01*
X15507949Y-11846386D01*
X15509553Y-11848145D01*
X15510653Y-11849995D01*
X15511388Y-11852506D01*
X15511898Y-11856243D01*
X15512319Y-11861775D01*
X15512524Y-11865111D01*
X15514976Y-11888011D01*
X15519545Y-11909391D01*
X15526272Y-11929346D01*
X15535199Y-11947971D01*
X15546369Y-11965359D01*
X15559823Y-11981606D01*
X15568301Y-11990174D01*
X15584929Y-12004263D01*
X15602694Y-12015997D01*
X15621511Y-12025341D01*
X15641292Y-12032261D01*
X15661951Y-12036722D01*
X15683401Y-12038689D01*
X15689343Y-12038788D01*
X15709840Y-12037725D01*
X15729317Y-12034432D01*
X15748092Y-12028813D01*
X15766483Y-12020774D01*
X15784808Y-12010217D01*
X15785266Y-12009921D01*
X15801025Y-11998303D01*
X15815455Y-11984829D01*
X15828391Y-11969791D01*
X15839666Y-11953481D01*
X15849114Y-11936189D01*
X15856571Y-11918208D01*
X15861869Y-11899828D01*
X15864843Y-11881341D01*
X15865453Y-11869083D01*
X15865920Y-11859562D01*
X15867320Y-11852354D01*
X15869754Y-11847276D01*
X15873321Y-11844150D01*
X15878120Y-11842795D01*
X15880050Y-11842706D01*
X15884325Y-11843251D01*
X15887803Y-11845288D01*
X15889365Y-11846736D01*
X15893395Y-11850767D01*
X15892643Y-11869403D01*
X15890452Y-11892327D01*
X15885833Y-11914447D01*
X15878901Y-11935628D01*
X15869769Y-11955735D01*
X15858552Y-11974635D01*
X15845362Y-11992193D01*
X15830315Y-12008274D01*
X15813523Y-12022743D01*
X15795101Y-12035466D01*
X15775162Y-12046310D01*
X15753822Y-12055138D01*
X15731192Y-12061816D01*
X15729420Y-12062233D01*
X15722232Y-12063495D01*
X15713155Y-12064491D01*
X15702868Y-12065201D01*
X15692049Y-12065607D01*
X15681377Y-12065688D01*
X15671531Y-12065426D01*
X15663189Y-12064801D01*
X15659120Y-12064232D01*
X15636041Y-12058997D01*
X15614558Y-12051745D01*
X15594464Y-12042372D01*
X15575551Y-12030772D01*
X15557614Y-12016840D01*
X15547702Y-12007773D01*
X15532256Y-11991118D01*
X15518849Y-11973072D01*
X15507575Y-11953853D01*
X15498529Y-11933681D01*
X15491808Y-11912773D01*
X15487505Y-11891348D01*
X15485717Y-11869624D01*
X15485670Y-11865469D01*
X15485693Y-11858967D01*
X15485837Y-11854529D01*
X15486219Y-11851590D01*
X15486951Y-11849587D01*
X15488149Y-11847955D01*
X15489511Y-11846546D01*
X15494321Y-11843363D01*
X15499631Y-11842522D01*
X15504820Y-11844030D01*
G37*
G36*
X15433922Y-11843343D02*
G01*
X15438125Y-11845828D01*
X15440744Y-11849378D01*
X15442043Y-11854508D01*
X15442308Y-11859752D01*
X15443609Y-11884447D01*
X15447438Y-11908924D01*
X15453698Y-11932942D01*
X15462287Y-11956260D01*
X15473108Y-11978640D01*
X15486062Y-11999841D01*
X15501049Y-12019623D01*
X15514369Y-12034199D01*
X15533569Y-12051744D01*
X15554036Y-12066989D01*
X15575792Y-12079949D01*
X15598860Y-12090633D01*
X15623261Y-12099056D01*
X15641771Y-12103748D01*
X15651421Y-12105417D01*
X15662892Y-12106713D01*
X15675423Y-12107604D01*
X15688247Y-12108061D01*
X15700600Y-12108052D01*
X15711719Y-12107547D01*
X15718760Y-12106829D01*
X15743547Y-12102190D01*
X15767597Y-12095173D01*
X15790612Y-12085878D01*
X15810233Y-12075628D01*
X15831951Y-12061471D01*
X15851880Y-12045484D01*
X15869928Y-12027799D01*
X15886001Y-12008544D01*
X15900007Y-11987850D01*
X15911852Y-11965846D01*
X15921443Y-11942663D01*
X15928687Y-11918431D01*
X15931259Y-11906693D01*
X15932285Y-11900430D01*
X15933339Y-11892334D01*
X15934344Y-11883197D01*
X15935223Y-11873810D01*
X15935900Y-11864967D01*
X15936296Y-11857460D01*
X15936367Y-11854102D01*
X15937565Y-11850019D01*
X15940220Y-11846546D01*
X15945070Y-11843331D01*
X15950402Y-11842522D01*
X15955639Y-11844120D01*
X15958818Y-11846546D01*
X15960544Y-11848384D01*
X15961655Y-11850150D01*
X15962286Y-11852454D01*
X15962572Y-11855909D01*
X15962647Y-11861126D01*
X15962648Y-11863957D01*
X15961355Y-11888779D01*
X15957586Y-11913721D01*
X15951452Y-11938424D01*
X15943062Y-11962533D01*
X15932525Y-11985690D01*
X15919952Y-12007538D01*
X15917400Y-12011425D01*
X15901485Y-12032854D01*
X15883642Y-12052620D01*
X15864056Y-12070603D01*
X15842911Y-12086680D01*
X15820392Y-12100730D01*
X15796684Y-12112630D01*
X15771970Y-12122259D01*
X15746437Y-12129495D01*
X15734947Y-12131896D01*
X15727053Y-12133052D01*
X15717278Y-12133994D01*
X15706309Y-12134701D01*
X15694834Y-12135150D01*
X15683539Y-12135319D01*
X15673112Y-12135185D01*
X15664240Y-12134725D01*
X15660434Y-12134345D01*
X15633360Y-12129709D01*
X15607278Y-12122652D01*
X15582272Y-12113221D01*
X15558428Y-12101460D01*
X15535828Y-12087417D01*
X15514559Y-12071136D01*
X15494704Y-12052664D01*
X15480051Y-12036523D01*
X15469578Y-12023545D01*
X15460698Y-12011214D01*
X15452850Y-11998674D01*
X15445471Y-11985068D01*
X15442956Y-11980021D01*
X15432426Y-11955683D01*
X15424504Y-11931073D01*
X15419177Y-11906143D01*
X15416436Y-11880849D01*
X15416027Y-11866391D01*
X15416061Y-11859691D01*
X15416225Y-11855059D01*
X15416613Y-11851934D01*
X15417320Y-11849757D01*
X15418439Y-11847966D01*
X15419297Y-11846904D01*
X15423793Y-11843294D01*
X15428983Y-11842203D01*
X15433922Y-11843343D01*
G37*
G36*
X15694789Y-11454936D02*
G01*
X15695999Y-11455804D01*
X15697340Y-11457643D01*
X15699621Y-11461451D01*
X15702627Y-11466840D01*
X15706140Y-11473419D01*
X15709947Y-11480800D01*
X15710951Y-11482788D01*
X15717372Y-11495293D01*
X15723777Y-11507165D01*
X15730384Y-11518749D01*
X15737411Y-11530392D01*
X15745078Y-11542440D01*
X15753602Y-11555240D01*
X15763203Y-11569139D01*
X15774100Y-11584482D01*
X15782566Y-11596199D01*
X15787495Y-11603093D01*
X15791926Y-11609500D01*
X15795607Y-11615038D01*
X15798283Y-11619323D01*
X15799701Y-11621970D01*
X15799823Y-11622306D01*
X15800066Y-11626849D01*
X15798703Y-11631517D01*
X15796135Y-11635220D01*
X15794662Y-11636299D01*
X15790364Y-11637543D01*
X15785509Y-11637469D01*
X15781344Y-11636153D01*
X15780286Y-11635419D01*
X15778763Y-11633700D01*
X15775986Y-11630182D01*
X15772215Y-11625212D01*
X15767714Y-11619136D01*
X15762743Y-11612302D01*
X15760706Y-11609467D01*
X15749319Y-11593478D01*
X15739361Y-11579295D01*
X15730656Y-11566645D01*
X15723025Y-11555255D01*
X15716290Y-11544851D01*
X15710274Y-11535160D01*
X15704799Y-11525910D01*
X15699687Y-11516827D01*
X15696225Y-11510413D01*
X15688381Y-11495645D01*
X15679029Y-11512616D01*
X15672291Y-11524444D01*
X15664739Y-11536912D01*
X15656199Y-11550290D01*
X15646493Y-11564845D01*
X15635446Y-11580849D01*
X15622883Y-11598568D01*
X15622068Y-11599703D01*
X15611022Y-11615204D01*
X15601462Y-11628878D01*
X15593244Y-11640961D01*
X15586227Y-11651688D01*
X15580267Y-11661294D01*
X15575222Y-11670016D01*
X15570949Y-11678090D01*
X15567305Y-11685750D01*
X15564148Y-11693233D01*
X15562015Y-11698868D01*
X15557416Y-11714191D01*
X15554883Y-11729395D01*
X15554279Y-11745391D01*
X15554434Y-11750067D01*
X15556433Y-11768900D01*
X15560613Y-11786297D01*
X15567008Y-11802337D01*
X15575651Y-11817097D01*
X15586576Y-11830656D01*
X15590628Y-11834821D01*
X15600737Y-11843874D01*
X15611286Y-11851393D01*
X15623117Y-11857938D01*
X15631137Y-11861609D01*
X15637118Y-11864273D01*
X15641152Y-11866368D01*
X15643755Y-11868239D01*
X15645444Y-11870229D01*
X15646275Y-11871708D01*
X15647755Y-11877081D01*
X15646850Y-11881976D01*
X15643660Y-11885920D01*
X15643281Y-11886199D01*
X15639641Y-11888345D01*
X15636137Y-11889154D01*
X15631951Y-11888661D01*
X15626270Y-11886902D01*
X15613747Y-11881598D01*
X15600905Y-11874618D01*
X15588443Y-11866430D01*
X15577058Y-11857499D01*
X15567450Y-11848292D01*
X15565825Y-11846484D01*
X15553626Y-11830571D01*
X15543701Y-11813458D01*
X15536111Y-11795356D01*
X15530916Y-11776478D01*
X15528177Y-11757034D01*
X15527954Y-11737236D01*
X15529748Y-11720538D01*
X15531838Y-11709939D01*
X15534730Y-11699298D01*
X15538535Y-11688402D01*
X15543364Y-11677039D01*
X15549328Y-11664996D01*
X15556538Y-11652061D01*
X15565106Y-11638020D01*
X15575143Y-11622663D01*
X15586760Y-11605775D01*
X15598177Y-11589757D01*
X15610075Y-11573130D01*
X15620514Y-11558182D01*
X15629711Y-11544570D01*
X15637883Y-11531947D01*
X15645247Y-11519969D01*
X15652019Y-11508291D01*
X15658418Y-11496568D01*
X15664660Y-11484457D01*
X15665474Y-11482829D01*
X15670130Y-11473699D01*
X15674184Y-11466156D01*
X15677515Y-11460415D01*
X15679998Y-11456690D01*
X15681290Y-11455307D01*
X15685586Y-11453690D01*
X15690482Y-11453580D01*
X15694789Y-11454936D01*
G37*
G36*
X15827918Y-11636596D02*
G01*
X15830667Y-11637370D01*
X15832970Y-11639020D01*
X15835005Y-11641843D01*
X15836948Y-11646135D01*
X15838976Y-11652191D01*
X15841267Y-11660307D01*
X15843157Y-11667510D01*
X15848383Y-11690401D01*
X15851797Y-11711622D01*
X15853429Y-11731376D01*
X15853589Y-11739386D01*
X15852525Y-11761215D01*
X15849347Y-11781725D01*
X15844100Y-11800837D01*
X15836827Y-11818470D01*
X15827574Y-11834541D01*
X15816385Y-11848972D01*
X15803305Y-11861679D01*
X15788377Y-11872584D01*
X15776725Y-11879165D01*
X15764222Y-11884638D01*
X15749911Y-11889479D01*
X15734579Y-11893465D01*
X15719013Y-11896374D01*
X15712687Y-11897211D01*
X15708465Y-11897894D01*
X15705391Y-11898756D01*
X15704341Y-11899391D01*
X15703742Y-11901600D01*
X15703168Y-11905943D01*
X15702644Y-11911925D01*
X15702192Y-11919053D01*
X15701836Y-11926830D01*
X15701600Y-11934764D01*
X15701508Y-11942360D01*
X15701582Y-11949123D01*
X15701766Y-11953412D01*
X15702213Y-11960343D01*
X15702766Y-11964998D01*
X15703790Y-11967715D01*
X15705652Y-11968834D01*
X15708718Y-11968691D01*
X15713356Y-11967627D01*
X15716333Y-11966867D01*
X15726389Y-11963482D01*
X15737015Y-11958451D01*
X15747501Y-11952218D01*
X15757136Y-11945226D01*
X15765210Y-11937918D01*
X15768270Y-11934492D01*
X15771539Y-11930291D01*
X15775333Y-11925116D01*
X15778315Y-11920837D01*
X15782068Y-11915515D01*
X15785026Y-11912079D01*
X15787700Y-11910133D01*
X15790601Y-11909281D01*
X15793451Y-11909123D01*
X15798685Y-11910323D01*
X15802906Y-11913557D01*
X15805594Y-11918280D01*
X15806291Y-11922614D01*
X15805272Y-11927411D01*
X15802407Y-11933395D01*
X15797985Y-11940217D01*
X15792293Y-11947529D01*
X15785620Y-11954983D01*
X15778253Y-11962232D01*
X15770482Y-11968927D01*
X15763837Y-11973878D01*
X15748217Y-11983198D01*
X15731865Y-11990092D01*
X15714467Y-11994677D01*
X15703140Y-11996397D01*
X15696525Y-11997098D01*
X15691376Y-11997457D01*
X15686718Y-11997471D01*
X15681578Y-11997137D01*
X15674983Y-11996451D01*
X15673575Y-11996291D01*
X15655974Y-11992977D01*
X15638985Y-11987218D01*
X15622862Y-11979175D01*
X15607860Y-11969005D01*
X15594233Y-11956869D01*
X15582236Y-11942926D01*
X15577475Y-11936161D01*
X15573649Y-11929793D01*
X15571602Y-11924719D01*
X15571237Y-11920388D01*
X15572461Y-11916251D01*
X15573651Y-11914062D01*
X15576914Y-11910493D01*
X15580895Y-11908984D01*
X15585819Y-11908730D01*
X15590138Y-11910156D01*
X15594275Y-11913524D01*
X15598655Y-11919095D01*
X15599614Y-11920522D01*
X15609539Y-11933737D01*
X15620546Y-11944740D01*
X15632990Y-11953844D01*
X15644783Y-11960239D01*
X15650998Y-11962915D01*
X15657433Y-11965250D01*
X15663498Y-11967073D01*
X15668599Y-11968214D01*
X15672146Y-11968506D01*
X15673019Y-11968337D01*
X15673745Y-11967585D01*
X15674265Y-11965739D01*
X15674607Y-11962450D01*
X15674803Y-11957368D01*
X15674883Y-11950145D01*
X15674889Y-11946694D01*
X15675375Y-11925910D01*
X15676897Y-11907102D01*
X15679553Y-11889792D01*
X15683438Y-11873502D01*
X15688649Y-11857753D01*
X15695284Y-11842068D01*
X15696585Y-11839321D01*
X15705702Y-11822525D01*
X15716832Y-11805604D01*
X15729515Y-11789115D01*
X15743294Y-11773615D01*
X15757711Y-11759661D01*
X15771199Y-11748626D01*
X15776401Y-11745217D01*
X15780052Y-11743870D01*
X15782127Y-11744587D01*
X15782638Y-11746639D01*
X15781905Y-11748288D01*
X15779846Y-11751750D01*
X15776669Y-11756702D01*
X15772584Y-11762824D01*
X15767801Y-11769795D01*
X15764099Y-11775078D01*
X15758240Y-11783480D01*
X15752287Y-11792214D01*
X15746613Y-11800718D01*
X15741591Y-11808430D01*
X15737596Y-11814788D01*
X15736428Y-11816726D01*
X15731757Y-11824896D01*
X15727237Y-11833333D01*
X15723019Y-11841695D01*
X15719257Y-11849641D01*
X15716104Y-11856831D01*
X15713711Y-11862924D01*
X15712233Y-11867579D01*
X15711821Y-11870455D01*
X15712056Y-11871113D01*
X15713898Y-11871436D01*
X15717729Y-11871139D01*
X15723012Y-11870321D01*
X15729209Y-11869085D01*
X15735783Y-11867533D01*
X15742197Y-11865765D01*
X15745004Y-11864888D01*
X15761956Y-11858146D01*
X15776976Y-11849624D01*
X15790064Y-11839320D01*
X15801224Y-11827233D01*
X15810456Y-11813360D01*
X15817763Y-11797698D01*
X15823147Y-11780246D01*
X15825281Y-11769928D01*
X15826787Y-11757299D01*
X15827305Y-11742940D01*
X15826870Y-11727541D01*
X15825517Y-11711791D01*
X15823280Y-11696383D01*
X15821016Y-11685347D01*
X15818774Y-11675815D01*
X15809259Y-11683599D01*
X15804465Y-11687336D01*
X15799190Y-11691050D01*
X15793119Y-11694925D01*
X15785938Y-11699146D01*
X15777331Y-11703896D01*
X15766985Y-11709362D01*
X15754584Y-11715727D01*
X15753730Y-11716160D01*
X15739422Y-11723665D01*
X15727335Y-11730596D01*
X15717190Y-11737197D01*
X15708709Y-11743708D01*
X15701615Y-11750371D01*
X15695630Y-11757430D01*
X15690475Y-11765125D01*
X15685873Y-11773698D01*
X15684636Y-11776309D01*
X15679956Y-11789367D01*
X15677245Y-11803867D01*
X15676561Y-11819443D01*
X15676772Y-11824447D01*
X15677094Y-11832199D01*
X15676860Y-11837824D01*
X15675929Y-11841791D01*
X15674161Y-11844567D01*
X15671418Y-11846622D01*
X15669939Y-11847383D01*
X15664417Y-11848759D01*
X15659322Y-11847644D01*
X15655073Y-11844135D01*
X15654833Y-11843822D01*
X15652965Y-11839741D01*
X15651661Y-11833581D01*
X15650926Y-11825829D01*
X15650762Y-11816973D01*
X15651172Y-11807501D01*
X15652161Y-11797902D01*
X15653730Y-11788663D01*
X15654432Y-11785546D01*
X15659593Y-11769731D01*
X15667193Y-11754686D01*
X15677096Y-11740646D01*
X15685469Y-11731399D01*
X15690113Y-11726934D01*
X15694815Y-11722848D01*
X15699898Y-11718934D01*
X15705688Y-11714984D01*
X15712508Y-11710789D01*
X15720684Y-11706142D01*
X15730540Y-11700835D01*
X15742402Y-11694659D01*
X15744530Y-11693565D01*
X15756962Y-11687116D01*
X15767367Y-11681524D01*
X15776093Y-11676536D01*
X15783495Y-11671894D01*
X15789922Y-11667344D01*
X15795726Y-11662629D01*
X15801259Y-11657493D01*
X15806872Y-11651682D01*
X15812916Y-11644939D01*
X15815591Y-11641857D01*
X15818931Y-11638434D01*
X15821780Y-11636786D01*
X15824547Y-11636404D01*
X15827918Y-11636596D01*
G37*
D13*
%TO.C,IC801*%
X13944899Y-9670000D02*
X14174899Y-9670000D01*
X13944899Y-9970000D02*
X13944899Y-9670000D01*
X14174899Y-9670000D02*
X14174899Y-9970000D01*
X14174899Y-9970000D02*
X13944899Y-9970000D01*
X14410601Y-9944597D02*
X14379899Y-9920000D01*
X14410601Y-9894597D01*
X14410601Y-9944597D01*
G36*
X14410601Y-9944597D02*
G01*
X14379899Y-9920000D01*
X14410601Y-9894597D01*
X14410601Y-9944597D01*
G37*
%TO.C,TP202*%
X12880000Y-10310000D02*
X13120000Y-10310000D01*
X12880000Y-10550000D02*
X12880000Y-10310000D01*
X13120000Y-10310000D02*
X13120000Y-10550000D01*
X13120000Y-10550000D02*
X12880000Y-10550000D01*
%TO.C,C806*%
X12947500Y-10770000D02*
X13052500Y-10770000D01*
%TO.C,S201*%
X15505000Y-7290000D02*
X15528000Y-7290000D01*
X15505000Y-7690000D02*
X15505000Y-7290000D01*
X15528000Y-7690000D02*
X15505000Y-7690000D01*
X15795000Y-7290000D02*
X15772000Y-7290000D01*
X15795000Y-7290000D02*
X15795000Y-7690000D01*
X15795000Y-7690000D02*
X15772000Y-7690000D01*
%TO.C,R802*%
X15153800Y-9620000D02*
X15046200Y-9620000D01*
%TO.C,C804*%
X15347500Y-10410000D02*
X15452500Y-10410000D01*
%TO.C,R201*%
X12756200Y-7770000D02*
X12863800Y-7770000D01*
%TO.C,R805*%
X13890000Y-10173800D02*
X13890000Y-10066200D01*
%TO.C,J304*%
X14003000Y-7127000D02*
X14136000Y-7127000D01*
X14003000Y-7260000D02*
X14003000Y-7127000D01*
X14263000Y-7127000D02*
X14777000Y-7127000D01*
X14263000Y-7393000D02*
X14263000Y-7127000D01*
X14263000Y-7393000D02*
X14777000Y-7393000D01*
X14777000Y-7393000D02*
X14777000Y-7127000D01*
D11*
%TO.C,J303*%
X13517601Y-11335000D02*
X14533601Y-11335000D01*
D13*
X13517601Y-11335000D02*
X14533601Y-11335000D01*
D11*
X13517601Y-12315000D02*
X13517601Y-11335000D01*
D13*
X13517601Y-12315000D02*
X13517601Y-11335000D01*
D11*
X14533601Y-11335000D02*
X14533601Y-12315000D01*
D13*
X14533601Y-11335000D02*
X14533601Y-12315000D01*
D11*
X14533601Y-12315000D02*
X13517601Y-12315000D01*
D13*
X14533601Y-12315000D02*
X13517601Y-12315000D01*
D11*
X13461601Y-11855000D02*
X13430899Y-11880403D01*
X13430899Y-11830403D01*
X13461601Y-11855000D01*
G36*
X13461601Y-11855000D02*
G01*
X13430899Y-11880403D01*
X13430899Y-11830403D01*
X13461601Y-11855000D01*
G37*
%TD*%
M02*
