%TF.GenerationSoftware,KiCad,Pcbnew,9.0.6*%
%TF.CreationDate,2026-08-16T15:46:55+08:00*%
%TF.ProjectId,MQTT-Module-PumpController,4d515454-2d4d-46f6-9475-6c652d50756d,rev?*%
%TF.SameCoordinates,Original*%
%TF.FileFunction,Legend,Bot*%
%TF.FilePolarity,Positive*%
%FSLAX45Y45*%
G04 Gerber Fmt 4.5, Leading zero omitted, Abs format (unit mm)*
G04 Created by KiCad (PCBNEW 9.0.6) date 2026-08-16 15:46:55*
%MOMM*%
%LPD*%
G01*
G04 APERTURE LIST*
%ADD10C,0.250000*%
%ADD11C,0.120000*%
%ADD12C,0.000000*%
G04 APERTURE END LIST*
D10*
X15748571Y-9534962D02*
X15748571Y-9434962D01*
X15748571Y-9434962D02*
X15715238Y-9506390D01*
X15715238Y-9506390D02*
X15681905Y-9434962D01*
X15681905Y-9434962D02*
X15681905Y-9534962D01*
X15615238Y-9434962D02*
X15596190Y-9434962D01*
X15596190Y-9434962D02*
X15586667Y-9439724D01*
X15586667Y-9439724D02*
X15577143Y-9449248D01*
X15577143Y-9449248D02*
X15572381Y-9468295D01*
X15572381Y-9468295D02*
X15572381Y-9501629D01*
X15572381Y-9501629D02*
X15577143Y-9520676D01*
X15577143Y-9520676D02*
X15586667Y-9530200D01*
X15586667Y-9530200D02*
X15596190Y-9534962D01*
X15596190Y-9534962D02*
X15615238Y-9534962D01*
X15615238Y-9534962D02*
X15624762Y-9530200D01*
X15624762Y-9530200D02*
X15634286Y-9520676D01*
X15634286Y-9520676D02*
X15639048Y-9501629D01*
X15639048Y-9501629D02*
X15639048Y-9468295D01*
X15639048Y-9468295D02*
X15634286Y-9449248D01*
X15634286Y-9449248D02*
X15624762Y-9439724D01*
X15624762Y-9439724D02*
X15615238Y-9434962D01*
X15529524Y-9534962D02*
X15529524Y-9434962D01*
X15529524Y-9434962D02*
X15505714Y-9434962D01*
X15505714Y-9434962D02*
X15491429Y-9439724D01*
X15491429Y-9439724D02*
X15481905Y-9449248D01*
X15481905Y-9449248D02*
X15477143Y-9458771D01*
X15477143Y-9458771D02*
X15472381Y-9477819D01*
X15472381Y-9477819D02*
X15472381Y-9492105D01*
X15472381Y-9492105D02*
X15477143Y-9511152D01*
X15477143Y-9511152D02*
X15481905Y-9520676D01*
X15481905Y-9520676D02*
X15491429Y-9530200D01*
X15491429Y-9530200D02*
X15505714Y-9534962D01*
X15505714Y-9534962D02*
X15529524Y-9534962D01*
X12547619Y-10194962D02*
X12485714Y-10194962D01*
X12485714Y-10194962D02*
X12519047Y-10233057D01*
X12519047Y-10233057D02*
X12504762Y-10233057D01*
X12504762Y-10233057D02*
X12495238Y-10237819D01*
X12495238Y-10237819D02*
X12490476Y-10242581D01*
X12490476Y-10242581D02*
X12485714Y-10252105D01*
X12485714Y-10252105D02*
X12485714Y-10275914D01*
X12485714Y-10275914D02*
X12490476Y-10285438D01*
X12490476Y-10285438D02*
X12495238Y-10290200D01*
X12495238Y-10290200D02*
X12504762Y-10294962D01*
X12504762Y-10294962D02*
X12533333Y-10294962D01*
X12533333Y-10294962D02*
X12542857Y-10290200D01*
X12542857Y-10290200D02*
X12547619Y-10285438D01*
X12442857Y-10285438D02*
X12438095Y-10290200D01*
X12438095Y-10290200D02*
X12442857Y-10294962D01*
X12442857Y-10294962D02*
X12447619Y-10290200D01*
X12447619Y-10290200D02*
X12442857Y-10285438D01*
X12442857Y-10285438D02*
X12442857Y-10294962D01*
X12404762Y-10194962D02*
X12342857Y-10194962D01*
X12342857Y-10194962D02*
X12376190Y-10233057D01*
X12376190Y-10233057D02*
X12361905Y-10233057D01*
X12361905Y-10233057D02*
X12352381Y-10237819D01*
X12352381Y-10237819D02*
X12347619Y-10242581D01*
X12347619Y-10242581D02*
X12342857Y-10252105D01*
X12342857Y-10252105D02*
X12342857Y-10275914D01*
X12342857Y-10275914D02*
X12347619Y-10285438D01*
X12347619Y-10285438D02*
X12352381Y-10290200D01*
X12352381Y-10290200D02*
X12361905Y-10294962D01*
X12361905Y-10294962D02*
X12390476Y-10294962D01*
X12390476Y-10294962D02*
X12400000Y-10290200D01*
X12400000Y-10290200D02*
X12404762Y-10285438D01*
X12314286Y-10194962D02*
X12280952Y-10294962D01*
X12280952Y-10294962D02*
X12247619Y-10194962D01*
X12516190Y-9949724D02*
X12525714Y-9944962D01*
X12525714Y-9944962D02*
X12540000Y-9944962D01*
X12540000Y-9944962D02*
X12554286Y-9949724D01*
X12554286Y-9949724D02*
X12563809Y-9959248D01*
X12563809Y-9959248D02*
X12568571Y-9968771D01*
X12568571Y-9968771D02*
X12573333Y-9987819D01*
X12573333Y-9987819D02*
X12573333Y-10002105D01*
X12573333Y-10002105D02*
X12568571Y-10021152D01*
X12568571Y-10021152D02*
X12563809Y-10030676D01*
X12563809Y-10030676D02*
X12554286Y-10040200D01*
X12554286Y-10040200D02*
X12540000Y-10044962D01*
X12540000Y-10044962D02*
X12530476Y-10044962D01*
X12530476Y-10044962D02*
X12516190Y-10040200D01*
X12516190Y-10040200D02*
X12511428Y-10035438D01*
X12511428Y-10035438D02*
X12511428Y-10002105D01*
X12511428Y-10002105D02*
X12530476Y-10002105D01*
X12468571Y-10044962D02*
X12468571Y-9944962D01*
X12468571Y-9944962D02*
X12411428Y-10044962D01*
X12411428Y-10044962D02*
X12411428Y-9944962D01*
X12363809Y-10044962D02*
X12363809Y-9944962D01*
X12363809Y-9944962D02*
X12340000Y-9944962D01*
X12340000Y-9944962D02*
X12325714Y-9949724D01*
X12325714Y-9949724D02*
X12316190Y-9959248D01*
X12316190Y-9959248D02*
X12311428Y-9968771D01*
X12311428Y-9968771D02*
X12306667Y-9987819D01*
X12306667Y-9987819D02*
X12306667Y-10002105D01*
X12306667Y-10002105D02*
X12311428Y-10021152D01*
X12311428Y-10021152D02*
X12316190Y-10030676D01*
X12316190Y-10030676D02*
X12325714Y-10040200D01*
X12325714Y-10040200D02*
X12340000Y-10044962D01*
X12340000Y-10044962D02*
X12363809Y-10044962D01*
X12491905Y-10804962D02*
X12549047Y-10804962D01*
X12520476Y-10804962D02*
X12520476Y-10704962D01*
X12520476Y-10704962D02*
X12530000Y-10719248D01*
X12530000Y-10719248D02*
X12539524Y-10728771D01*
X12539524Y-10728771D02*
X12549047Y-10733533D01*
X12453809Y-10714486D02*
X12449047Y-10709724D01*
X12449047Y-10709724D02*
X12439524Y-10704962D01*
X12439524Y-10704962D02*
X12415714Y-10704962D01*
X12415714Y-10704962D02*
X12406190Y-10709724D01*
X12406190Y-10709724D02*
X12401428Y-10714486D01*
X12401428Y-10714486D02*
X12396667Y-10724010D01*
X12396667Y-10724010D02*
X12396667Y-10733533D01*
X12396667Y-10733533D02*
X12401428Y-10747819D01*
X12401428Y-10747819D02*
X12458571Y-10804962D01*
X12458571Y-10804962D02*
X12396667Y-10804962D01*
X12368095Y-10704962D02*
X12334762Y-10804962D01*
X12334762Y-10804962D02*
X12301428Y-10704962D01*
X15679048Y-9689724D02*
X15688571Y-9684962D01*
X15688571Y-9684962D02*
X15702857Y-9684962D01*
X15702857Y-9684962D02*
X15717143Y-9689724D01*
X15717143Y-9689724D02*
X15726667Y-9699248D01*
X15726667Y-9699248D02*
X15731428Y-9708771D01*
X15731428Y-9708771D02*
X15736190Y-9727819D01*
X15736190Y-9727819D02*
X15736190Y-9742105D01*
X15736190Y-9742105D02*
X15731428Y-9761152D01*
X15731428Y-9761152D02*
X15726667Y-9770676D01*
X15726667Y-9770676D02*
X15717143Y-9780200D01*
X15717143Y-9780200D02*
X15702857Y-9784962D01*
X15702857Y-9784962D02*
X15693333Y-9784962D01*
X15693333Y-9784962D02*
X15679048Y-9780200D01*
X15679048Y-9780200D02*
X15674286Y-9775438D01*
X15674286Y-9775438D02*
X15674286Y-9742105D01*
X15674286Y-9742105D02*
X15693333Y-9742105D01*
X15631428Y-9784962D02*
X15631428Y-9684962D01*
X15631428Y-9684962D02*
X15574286Y-9784962D01*
X15574286Y-9784962D02*
X15574286Y-9684962D01*
X15526667Y-9784962D02*
X15526667Y-9684962D01*
X15526667Y-9684962D02*
X15502857Y-9684962D01*
X15502857Y-9684962D02*
X15488571Y-9689724D01*
X15488571Y-9689724D02*
X15479048Y-9699248D01*
X15479048Y-9699248D02*
X15474286Y-9708771D01*
X15474286Y-9708771D02*
X15469524Y-9727819D01*
X15469524Y-9727819D02*
X15469524Y-9742105D01*
X15469524Y-9742105D02*
X15474286Y-9761152D01*
X15474286Y-9761152D02*
X15479048Y-9770676D01*
X15479048Y-9770676D02*
X15488571Y-9780200D01*
X15488571Y-9780200D02*
X15502857Y-9784962D01*
X15502857Y-9784962D02*
X15526667Y-9784962D01*
X12547143Y-9264962D02*
X12547143Y-9164962D01*
X12547143Y-9164962D02*
X12513809Y-9236390D01*
X12513809Y-9236390D02*
X12480476Y-9164962D01*
X12480476Y-9164962D02*
X12480476Y-9264962D01*
X12432857Y-9264962D02*
X12432857Y-9164962D01*
X12390000Y-9260200D02*
X12375714Y-9264962D01*
X12375714Y-9264962D02*
X12351905Y-9264962D01*
X12351905Y-9264962D02*
X12342381Y-9260200D01*
X12342381Y-9260200D02*
X12337619Y-9255438D01*
X12337619Y-9255438D02*
X12332857Y-9245914D01*
X12332857Y-9245914D02*
X12332857Y-9236390D01*
X12332857Y-9236390D02*
X12337619Y-9226867D01*
X12337619Y-9226867D02*
X12342381Y-9222105D01*
X12342381Y-9222105D02*
X12351905Y-9217343D01*
X12351905Y-9217343D02*
X12370952Y-9212581D01*
X12370952Y-9212581D02*
X12380476Y-9207819D01*
X12380476Y-9207819D02*
X12385238Y-9203057D01*
X12385238Y-9203057D02*
X12390000Y-9193533D01*
X12390000Y-9193533D02*
X12390000Y-9184010D01*
X12390000Y-9184010D02*
X12385238Y-9174486D01*
X12385238Y-9174486D02*
X12380476Y-9169724D01*
X12380476Y-9169724D02*
X12370952Y-9164962D01*
X12370952Y-9164962D02*
X12347143Y-9164962D01*
X12347143Y-9164962D02*
X12332857Y-9169724D01*
X12270952Y-9164962D02*
X12251905Y-9164962D01*
X12251905Y-9164962D02*
X12242381Y-9169724D01*
X12242381Y-9169724D02*
X12232857Y-9179248D01*
X12232857Y-9179248D02*
X12228095Y-9198295D01*
X12228095Y-9198295D02*
X12228095Y-9231629D01*
X12228095Y-9231629D02*
X12232857Y-9250676D01*
X12232857Y-9250676D02*
X12242381Y-9260200D01*
X12242381Y-9260200D02*
X12251905Y-9264962D01*
X12251905Y-9264962D02*
X12270952Y-9264962D01*
X12270952Y-9264962D02*
X12280476Y-9260200D01*
X12280476Y-9260200D02*
X12290000Y-9250676D01*
X12290000Y-9250676D02*
X12294762Y-9231629D01*
X12294762Y-9231629D02*
X12294762Y-9198295D01*
X12294762Y-9198295D02*
X12290000Y-9179248D01*
X12290000Y-9179248D02*
X12280476Y-9169724D01*
X12280476Y-9169724D02*
X12270952Y-9164962D01*
X12548571Y-9020200D02*
X12534286Y-9024962D01*
X12534286Y-9024962D02*
X12510476Y-9024962D01*
X12510476Y-9024962D02*
X12500952Y-9020200D01*
X12500952Y-9020200D02*
X12496190Y-9015438D01*
X12496190Y-9015438D02*
X12491428Y-9005914D01*
X12491428Y-9005914D02*
X12491428Y-8996390D01*
X12491428Y-8996390D02*
X12496190Y-8986867D01*
X12496190Y-8986867D02*
X12500952Y-8982105D01*
X12500952Y-8982105D02*
X12510476Y-8977343D01*
X12510476Y-8977343D02*
X12529524Y-8972581D01*
X12529524Y-8972581D02*
X12539047Y-8967819D01*
X12539047Y-8967819D02*
X12543809Y-8963057D01*
X12543809Y-8963057D02*
X12548571Y-8953533D01*
X12548571Y-8953533D02*
X12548571Y-8944010D01*
X12548571Y-8944010D02*
X12543809Y-8934486D01*
X12543809Y-8934486D02*
X12539047Y-8929724D01*
X12539047Y-8929724D02*
X12529524Y-8924962D01*
X12529524Y-8924962D02*
X12505714Y-8924962D01*
X12505714Y-8924962D02*
X12491428Y-8929724D01*
X12391428Y-9015438D02*
X12396190Y-9020200D01*
X12396190Y-9020200D02*
X12410476Y-9024962D01*
X12410476Y-9024962D02*
X12420000Y-9024962D01*
X12420000Y-9024962D02*
X12434286Y-9020200D01*
X12434286Y-9020200D02*
X12443809Y-9010676D01*
X12443809Y-9010676D02*
X12448571Y-9001152D01*
X12448571Y-9001152D02*
X12453333Y-8982105D01*
X12453333Y-8982105D02*
X12453333Y-8967819D01*
X12453333Y-8967819D02*
X12448571Y-8948771D01*
X12448571Y-8948771D02*
X12443809Y-8939248D01*
X12443809Y-8939248D02*
X12434286Y-8929724D01*
X12434286Y-8929724D02*
X12420000Y-8924962D01*
X12420000Y-8924962D02*
X12410476Y-8924962D01*
X12410476Y-8924962D02*
X12396190Y-8929724D01*
X12396190Y-8929724D02*
X12391428Y-8934486D01*
X12348571Y-9024962D02*
X12348571Y-8924962D01*
X12291428Y-9024962D02*
X12334286Y-8967819D01*
X12291428Y-8924962D02*
X12348571Y-8982105D01*
X15551905Y-10444962D02*
X15599524Y-10444962D01*
X15599524Y-10444962D02*
X15604286Y-10492581D01*
X15604286Y-10492581D02*
X15599524Y-10487819D01*
X15599524Y-10487819D02*
X15590000Y-10483057D01*
X15590000Y-10483057D02*
X15566190Y-10483057D01*
X15566190Y-10483057D02*
X15556667Y-10487819D01*
X15556667Y-10487819D02*
X15551905Y-10492581D01*
X15551905Y-10492581D02*
X15547143Y-10502105D01*
X15547143Y-10502105D02*
X15547143Y-10525914D01*
X15547143Y-10525914D02*
X15551905Y-10535438D01*
X15551905Y-10535438D02*
X15556667Y-10540200D01*
X15556667Y-10540200D02*
X15566190Y-10544962D01*
X15566190Y-10544962D02*
X15590000Y-10544962D01*
X15590000Y-10544962D02*
X15599524Y-10540200D01*
X15599524Y-10540200D02*
X15604286Y-10535438D01*
X15518571Y-10444962D02*
X15485238Y-10544962D01*
X15485238Y-10544962D02*
X15451905Y-10444962D01*
X15714286Y-9020200D02*
X15700000Y-9024962D01*
X15700000Y-9024962D02*
X15676190Y-9024962D01*
X15676190Y-9024962D02*
X15666667Y-9020200D01*
X15666667Y-9020200D02*
X15661905Y-9015438D01*
X15661905Y-9015438D02*
X15657143Y-9005914D01*
X15657143Y-9005914D02*
X15657143Y-8996390D01*
X15657143Y-8996390D02*
X15661905Y-8986867D01*
X15661905Y-8986867D02*
X15666667Y-8982105D01*
X15666667Y-8982105D02*
X15676190Y-8977343D01*
X15676190Y-8977343D02*
X15695238Y-8972581D01*
X15695238Y-8972581D02*
X15704762Y-8967819D01*
X15704762Y-8967819D02*
X15709524Y-8963057D01*
X15709524Y-8963057D02*
X15714286Y-8953533D01*
X15714286Y-8953533D02*
X15714286Y-8944010D01*
X15714286Y-8944010D02*
X15709524Y-8934486D01*
X15709524Y-8934486D02*
X15704762Y-8929724D01*
X15704762Y-8929724D02*
X15695238Y-8924962D01*
X15695238Y-8924962D02*
X15671429Y-8924962D01*
X15671429Y-8924962D02*
X15657143Y-8929724D01*
X15614286Y-9024962D02*
X15614286Y-8924962D01*
X15614286Y-8924962D02*
X15590476Y-8924962D01*
X15590476Y-8924962D02*
X15576190Y-8929724D01*
X15576190Y-8929724D02*
X15566667Y-8939248D01*
X15566667Y-8939248D02*
X15561905Y-8948771D01*
X15561905Y-8948771D02*
X15557143Y-8967819D01*
X15557143Y-8967819D02*
X15557143Y-8982105D01*
X15557143Y-8982105D02*
X15561905Y-9001152D01*
X15561905Y-9001152D02*
X15566667Y-9010676D01*
X15566667Y-9010676D02*
X15576190Y-9020200D01*
X15576190Y-9020200D02*
X15590476Y-9024962D01*
X15590476Y-9024962D02*
X15614286Y-9024962D01*
X15519048Y-8996390D02*
X15471429Y-8996390D01*
X15528571Y-9024962D02*
X15495238Y-8924962D01*
X15495238Y-8924962D02*
X15461905Y-9024962D01*
X12496667Y-9515438D02*
X12501428Y-9520200D01*
X12501428Y-9520200D02*
X12515714Y-9524962D01*
X12515714Y-9524962D02*
X12525238Y-9524962D01*
X12525238Y-9524962D02*
X12539524Y-9520200D01*
X12539524Y-9520200D02*
X12549047Y-9510676D01*
X12549047Y-9510676D02*
X12553809Y-9501152D01*
X12553809Y-9501152D02*
X12558571Y-9482105D01*
X12558571Y-9482105D02*
X12558571Y-9467819D01*
X12558571Y-9467819D02*
X12553809Y-9448771D01*
X12553809Y-9448771D02*
X12549047Y-9439248D01*
X12549047Y-9439248D02*
X12539524Y-9429724D01*
X12539524Y-9429724D02*
X12525238Y-9424962D01*
X12525238Y-9424962D02*
X12515714Y-9424962D01*
X12515714Y-9424962D02*
X12501428Y-9429724D01*
X12501428Y-9429724D02*
X12496667Y-9434486D01*
X12458571Y-9520200D02*
X12444286Y-9524962D01*
X12444286Y-9524962D02*
X12420476Y-9524962D01*
X12420476Y-9524962D02*
X12410952Y-9520200D01*
X12410952Y-9520200D02*
X12406190Y-9515438D01*
X12406190Y-9515438D02*
X12401428Y-9505914D01*
X12401428Y-9505914D02*
X12401428Y-9496390D01*
X12401428Y-9496390D02*
X12406190Y-9486867D01*
X12406190Y-9486867D02*
X12410952Y-9482105D01*
X12410952Y-9482105D02*
X12420476Y-9477343D01*
X12420476Y-9477343D02*
X12439524Y-9472581D01*
X12439524Y-9472581D02*
X12449047Y-9467819D01*
X12449047Y-9467819D02*
X12453809Y-9463057D01*
X12453809Y-9463057D02*
X12458571Y-9453533D01*
X12458571Y-9453533D02*
X12458571Y-9444010D01*
X12458571Y-9444010D02*
X12453809Y-9434486D01*
X12453809Y-9434486D02*
X12449047Y-9429724D01*
X12449047Y-9429724D02*
X12439524Y-9424962D01*
X12439524Y-9424962D02*
X12415714Y-9424962D01*
X12415714Y-9424962D02*
X12401428Y-9429724D01*
X15208571Y-12196462D02*
X15256190Y-12196462D01*
X15256190Y-12196462D02*
X15256190Y-12096462D01*
X15175238Y-12196462D02*
X15175238Y-12129795D01*
X15175238Y-12096462D02*
X15180000Y-12101224D01*
X15180000Y-12101224D02*
X15175238Y-12105986D01*
X15175238Y-12105986D02*
X15170476Y-12101224D01*
X15170476Y-12101224D02*
X15175238Y-12096462D01*
X15175238Y-12096462D02*
X15175238Y-12105986D01*
X15084762Y-12191700D02*
X15094286Y-12196462D01*
X15094286Y-12196462D02*
X15113333Y-12196462D01*
X15113333Y-12196462D02*
X15122857Y-12191700D01*
X15122857Y-12191700D02*
X15127619Y-12186938D01*
X15127619Y-12186938D02*
X15132381Y-12177414D01*
X15132381Y-12177414D02*
X15132381Y-12148843D01*
X15132381Y-12148843D02*
X15127619Y-12139319D01*
X15127619Y-12139319D02*
X15122857Y-12134557D01*
X15122857Y-12134557D02*
X15113333Y-12129795D01*
X15113333Y-12129795D02*
X15094286Y-12129795D01*
X15094286Y-12129795D02*
X15084762Y-12134557D01*
X15003810Y-12191700D02*
X15013333Y-12196462D01*
X15013333Y-12196462D02*
X15032381Y-12196462D01*
X15032381Y-12196462D02*
X15041905Y-12191700D01*
X15041905Y-12191700D02*
X15046667Y-12182176D01*
X15046667Y-12182176D02*
X15046667Y-12144081D01*
X15046667Y-12144081D02*
X15041905Y-12134557D01*
X15041905Y-12134557D02*
X15032381Y-12129795D01*
X15032381Y-12129795D02*
X15013333Y-12129795D01*
X15013333Y-12129795D02*
X15003810Y-12134557D01*
X15003810Y-12134557D02*
X14999048Y-12144081D01*
X14999048Y-12144081D02*
X14999048Y-12153605D01*
X14999048Y-12153605D02*
X15046667Y-12163128D01*
X14956190Y-12129795D02*
X14956190Y-12196462D01*
X14956190Y-12139319D02*
X14951429Y-12134557D01*
X14951429Y-12134557D02*
X14941905Y-12129795D01*
X14941905Y-12129795D02*
X14927619Y-12129795D01*
X14927619Y-12129795D02*
X14918095Y-12134557D01*
X14918095Y-12134557D02*
X14913333Y-12144081D01*
X14913333Y-12144081D02*
X14913333Y-12196462D01*
X14870476Y-12191700D02*
X14860952Y-12196462D01*
X14860952Y-12196462D02*
X14841905Y-12196462D01*
X14841905Y-12196462D02*
X14832381Y-12191700D01*
X14832381Y-12191700D02*
X14827619Y-12182176D01*
X14827619Y-12182176D02*
X14827619Y-12177414D01*
X14827619Y-12177414D02*
X14832381Y-12167890D01*
X14832381Y-12167890D02*
X14841905Y-12163128D01*
X14841905Y-12163128D02*
X14856190Y-12163128D01*
X14856190Y-12163128D02*
X14865714Y-12158367D01*
X14865714Y-12158367D02*
X14870476Y-12148843D01*
X14870476Y-12148843D02*
X14870476Y-12144081D01*
X14870476Y-12144081D02*
X14865714Y-12134557D01*
X14865714Y-12134557D02*
X14856190Y-12129795D01*
X14856190Y-12129795D02*
X14841905Y-12129795D01*
X14841905Y-12129795D02*
X14832381Y-12134557D01*
X14746667Y-12191700D02*
X14756190Y-12196462D01*
X14756190Y-12196462D02*
X14775238Y-12196462D01*
X14775238Y-12196462D02*
X14784762Y-12191700D01*
X14784762Y-12191700D02*
X14789524Y-12182176D01*
X14789524Y-12182176D02*
X14789524Y-12144081D01*
X14789524Y-12144081D02*
X14784762Y-12134557D01*
X14784762Y-12134557D02*
X14775238Y-12129795D01*
X14775238Y-12129795D02*
X14756190Y-12129795D01*
X14756190Y-12129795D02*
X14746667Y-12134557D01*
X14746667Y-12134557D02*
X14741905Y-12144081D01*
X14741905Y-12144081D02*
X14741905Y-12153605D01*
X14741905Y-12153605D02*
X14789524Y-12163128D01*
X14656190Y-12196462D02*
X14656190Y-12096462D01*
X14656190Y-12191700D02*
X14665714Y-12196462D01*
X14665714Y-12196462D02*
X14684762Y-12196462D01*
X14684762Y-12196462D02*
X14694286Y-12191700D01*
X14694286Y-12191700D02*
X14699048Y-12186938D01*
X14699048Y-12186938D02*
X14703809Y-12177414D01*
X14703809Y-12177414D02*
X14703809Y-12148843D01*
X14703809Y-12148843D02*
X14699048Y-12139319D01*
X14699048Y-12139319D02*
X14694286Y-12134557D01*
X14694286Y-12134557D02*
X14684762Y-12129795D01*
X14684762Y-12129795D02*
X14665714Y-12129795D01*
X14665714Y-12129795D02*
X14656190Y-12134557D01*
X14489524Y-12129795D02*
X14489524Y-12196462D01*
X14532381Y-12129795D02*
X14532381Y-12182176D01*
X14532381Y-12182176D02*
X14527619Y-12191700D01*
X14527619Y-12191700D02*
X14518095Y-12196462D01*
X14518095Y-12196462D02*
X14503809Y-12196462D01*
X14503809Y-12196462D02*
X14494286Y-12191700D01*
X14494286Y-12191700D02*
X14489524Y-12186938D01*
X14441905Y-12129795D02*
X14441905Y-12196462D01*
X14441905Y-12139319D02*
X14437143Y-12134557D01*
X14437143Y-12134557D02*
X14427619Y-12129795D01*
X14427619Y-12129795D02*
X14413333Y-12129795D01*
X14413333Y-12129795D02*
X14403809Y-12134557D01*
X14403809Y-12134557D02*
X14399048Y-12144081D01*
X14399048Y-12144081D02*
X14399048Y-12196462D01*
X14308571Y-12196462D02*
X14308571Y-12096462D01*
X14308571Y-12191700D02*
X14318095Y-12196462D01*
X14318095Y-12196462D02*
X14337143Y-12196462D01*
X14337143Y-12196462D02*
X14346667Y-12191700D01*
X14346667Y-12191700D02*
X14351428Y-12186938D01*
X14351428Y-12186938D02*
X14356190Y-12177414D01*
X14356190Y-12177414D02*
X14356190Y-12148843D01*
X14356190Y-12148843D02*
X14351428Y-12139319D01*
X14351428Y-12139319D02*
X14346667Y-12134557D01*
X14346667Y-12134557D02*
X14337143Y-12129795D01*
X14337143Y-12129795D02*
X14318095Y-12129795D01*
X14318095Y-12129795D02*
X14308571Y-12134557D01*
X14222857Y-12191700D02*
X14232381Y-12196462D01*
X14232381Y-12196462D02*
X14251428Y-12196462D01*
X14251428Y-12196462D02*
X14260952Y-12191700D01*
X14260952Y-12191700D02*
X14265714Y-12182176D01*
X14265714Y-12182176D02*
X14265714Y-12144081D01*
X14265714Y-12144081D02*
X14260952Y-12134557D01*
X14260952Y-12134557D02*
X14251428Y-12129795D01*
X14251428Y-12129795D02*
X14232381Y-12129795D01*
X14232381Y-12129795D02*
X14222857Y-12134557D01*
X14222857Y-12134557D02*
X14218095Y-12144081D01*
X14218095Y-12144081D02*
X14218095Y-12153605D01*
X14218095Y-12153605D02*
X14265714Y-12163128D01*
X14175238Y-12196462D02*
X14175238Y-12129795D01*
X14175238Y-12148843D02*
X14170476Y-12139319D01*
X14170476Y-12139319D02*
X14165714Y-12134557D01*
X14165714Y-12134557D02*
X14156190Y-12129795D01*
X14156190Y-12129795D02*
X14146667Y-12129795D01*
X13980000Y-12186938D02*
X13984762Y-12191700D01*
X13984762Y-12191700D02*
X13999047Y-12196462D01*
X13999047Y-12196462D02*
X14008571Y-12196462D01*
X14008571Y-12196462D02*
X14022857Y-12191700D01*
X14022857Y-12191700D02*
X14032381Y-12182176D01*
X14032381Y-12182176D02*
X14037143Y-12172652D01*
X14037143Y-12172652D02*
X14041905Y-12153605D01*
X14041905Y-12153605D02*
X14041905Y-12139319D01*
X14041905Y-12139319D02*
X14037143Y-12120271D01*
X14037143Y-12120271D02*
X14032381Y-12110748D01*
X14032381Y-12110748D02*
X14022857Y-12101224D01*
X14022857Y-12101224D02*
X14008571Y-12096462D01*
X14008571Y-12096462D02*
X13999047Y-12096462D01*
X13999047Y-12096462D02*
X13984762Y-12101224D01*
X13984762Y-12101224D02*
X13980000Y-12105986D01*
X13937143Y-12144081D02*
X13903809Y-12144081D01*
X13889524Y-12196462D02*
X13937143Y-12196462D01*
X13937143Y-12196462D02*
X13937143Y-12096462D01*
X13937143Y-12096462D02*
X13889524Y-12096462D01*
X13789524Y-12196462D02*
X13822857Y-12148843D01*
X13846666Y-12196462D02*
X13846666Y-12096462D01*
X13846666Y-12096462D02*
X13808571Y-12096462D01*
X13808571Y-12096462D02*
X13799047Y-12101224D01*
X13799047Y-12101224D02*
X13794286Y-12105986D01*
X13794286Y-12105986D02*
X13789524Y-12115509D01*
X13789524Y-12115509D02*
X13789524Y-12129795D01*
X13789524Y-12129795D02*
X13794286Y-12139319D01*
X13794286Y-12139319D02*
X13799047Y-12144081D01*
X13799047Y-12144081D02*
X13808571Y-12148843D01*
X13808571Y-12148843D02*
X13846666Y-12148843D01*
X13746666Y-12196462D02*
X13746666Y-12096462D01*
X13746666Y-12096462D02*
X13689524Y-12196462D01*
X13689524Y-12196462D02*
X13689524Y-12096462D01*
X13641905Y-12158367D02*
X13565714Y-12158367D01*
X13499047Y-12096462D02*
X13480000Y-12096462D01*
X13480000Y-12096462D02*
X13470476Y-12101224D01*
X13470476Y-12101224D02*
X13460952Y-12110748D01*
X13460952Y-12110748D02*
X13456190Y-12129795D01*
X13456190Y-12129795D02*
X13456190Y-12163128D01*
X13456190Y-12163128D02*
X13460952Y-12182176D01*
X13460952Y-12182176D02*
X13470476Y-12191700D01*
X13470476Y-12191700D02*
X13480000Y-12196462D01*
X13480000Y-12196462D02*
X13499047Y-12196462D01*
X13499047Y-12196462D02*
X13508571Y-12191700D01*
X13508571Y-12191700D02*
X13518095Y-12182176D01*
X13518095Y-12182176D02*
X13522857Y-12163128D01*
X13522857Y-12163128D02*
X13522857Y-12129795D01*
X13522857Y-12129795D02*
X13518095Y-12110748D01*
X13518095Y-12110748D02*
X13508571Y-12101224D01*
X13508571Y-12101224D02*
X13499047Y-12096462D01*
X13413333Y-12196462D02*
X13413333Y-12096462D01*
X13413333Y-12144081D02*
X13356190Y-12144081D01*
X13356190Y-12196462D02*
X13356190Y-12096462D01*
X13260952Y-12196462D02*
X13308571Y-12196462D01*
X13308571Y-12196462D02*
X13308571Y-12096462D01*
X13227619Y-12158367D02*
X13151428Y-12158367D01*
X13103809Y-12196462D02*
X13103809Y-12096462D01*
X13103809Y-12096462D02*
X13065714Y-12096462D01*
X13065714Y-12096462D02*
X13056190Y-12101224D01*
X13056190Y-12101224D02*
X13051428Y-12105986D01*
X13051428Y-12105986D02*
X13046667Y-12115509D01*
X13046667Y-12115509D02*
X13046667Y-12129795D01*
X13046667Y-12129795D02*
X13051428Y-12139319D01*
X13051428Y-12139319D02*
X13056190Y-12144081D01*
X13056190Y-12144081D02*
X13065714Y-12148843D01*
X13065714Y-12148843D02*
X13103809Y-12148843D01*
X12937143Y-12129795D02*
X12913333Y-12196462D01*
X12913333Y-12196462D02*
X12889524Y-12129795D01*
X12856190Y-12105986D02*
X12851428Y-12101224D01*
X12851428Y-12101224D02*
X12841905Y-12096462D01*
X12841905Y-12096462D02*
X12818095Y-12096462D01*
X12818095Y-12096462D02*
X12808571Y-12101224D01*
X12808571Y-12101224D02*
X12803809Y-12105986D01*
X12803809Y-12105986D02*
X12799047Y-12115509D01*
X12799047Y-12115509D02*
X12799047Y-12125033D01*
X12799047Y-12125033D02*
X12803809Y-12139319D01*
X12803809Y-12139319D02*
X12860952Y-12196462D01*
X12860952Y-12196462D02*
X12799047Y-12196462D01*
X15721428Y-9270200D02*
X15707143Y-9274962D01*
X15707143Y-9274962D02*
X15683333Y-9274962D01*
X15683333Y-9274962D02*
X15673809Y-9270200D01*
X15673809Y-9270200D02*
X15669048Y-9265438D01*
X15669048Y-9265438D02*
X15664286Y-9255914D01*
X15664286Y-9255914D02*
X15664286Y-9246390D01*
X15664286Y-9246390D02*
X15669048Y-9236867D01*
X15669048Y-9236867D02*
X15673809Y-9232105D01*
X15673809Y-9232105D02*
X15683333Y-9227343D01*
X15683333Y-9227343D02*
X15702381Y-9222581D01*
X15702381Y-9222581D02*
X15711905Y-9217819D01*
X15711905Y-9217819D02*
X15716667Y-9213057D01*
X15716667Y-9213057D02*
X15721428Y-9203533D01*
X15721428Y-9203533D02*
X15721428Y-9194010D01*
X15721428Y-9194010D02*
X15716667Y-9184486D01*
X15716667Y-9184486D02*
X15711905Y-9179724D01*
X15711905Y-9179724D02*
X15702381Y-9174962D01*
X15702381Y-9174962D02*
X15678571Y-9174962D01*
X15678571Y-9174962D02*
X15664286Y-9179724D01*
X15621428Y-9274962D02*
X15621428Y-9174962D01*
X15621428Y-9174962D02*
X15564286Y-9274962D01*
X15564286Y-9274962D02*
X15564286Y-9174962D01*
X15521428Y-9270200D02*
X15507143Y-9274962D01*
X15507143Y-9274962D02*
X15483333Y-9274962D01*
X15483333Y-9274962D02*
X15473809Y-9270200D01*
X15473809Y-9270200D02*
X15469048Y-9265438D01*
X15469048Y-9265438D02*
X15464286Y-9255914D01*
X15464286Y-9255914D02*
X15464286Y-9246390D01*
X15464286Y-9246390D02*
X15469048Y-9236867D01*
X15469048Y-9236867D02*
X15473809Y-9232105D01*
X15473809Y-9232105D02*
X15483333Y-9227343D01*
X15483333Y-9227343D02*
X15502381Y-9222581D01*
X15502381Y-9222581D02*
X15511905Y-9217819D01*
X15511905Y-9217819D02*
X15516667Y-9213057D01*
X15516667Y-9213057D02*
X15521428Y-9203533D01*
X15521428Y-9203533D02*
X15521428Y-9194010D01*
X15521428Y-9194010D02*
X15516667Y-9184486D01*
X15516667Y-9184486D02*
X15511905Y-9179724D01*
X15511905Y-9179724D02*
X15502381Y-9174962D01*
X15502381Y-9174962D02*
X15478571Y-9174962D01*
X15478571Y-9174962D02*
X15464286Y-9179724D01*
X12509048Y-10444962D02*
X12556667Y-10444962D01*
X12556667Y-10444962D02*
X12561428Y-10492581D01*
X12561428Y-10492581D02*
X12556667Y-10487819D01*
X12556667Y-10487819D02*
X12547143Y-10483057D01*
X12547143Y-10483057D02*
X12523333Y-10483057D01*
X12523333Y-10483057D02*
X12513809Y-10487819D01*
X12513809Y-10487819D02*
X12509048Y-10492581D01*
X12509048Y-10492581D02*
X12504286Y-10502105D01*
X12504286Y-10502105D02*
X12504286Y-10525914D01*
X12504286Y-10525914D02*
X12509048Y-10535438D01*
X12509048Y-10535438D02*
X12513809Y-10540200D01*
X12513809Y-10540200D02*
X12523333Y-10544962D01*
X12523333Y-10544962D02*
X12547143Y-10544962D01*
X12547143Y-10544962D02*
X12556667Y-10540200D01*
X12556667Y-10540200D02*
X12561428Y-10535438D01*
X12475714Y-10444962D02*
X12442381Y-10544962D01*
X12442381Y-10544962D02*
X12409048Y-10444962D01*
X15679048Y-9949724D02*
X15688571Y-9944962D01*
X15688571Y-9944962D02*
X15702857Y-9944962D01*
X15702857Y-9944962D02*
X15717143Y-9949724D01*
X15717143Y-9949724D02*
X15726667Y-9959248D01*
X15726667Y-9959248D02*
X15731428Y-9968771D01*
X15731428Y-9968771D02*
X15736190Y-9987819D01*
X15736190Y-9987819D02*
X15736190Y-10002105D01*
X15736190Y-10002105D02*
X15731428Y-10021152D01*
X15731428Y-10021152D02*
X15726667Y-10030676D01*
X15726667Y-10030676D02*
X15717143Y-10040200D01*
X15717143Y-10040200D02*
X15702857Y-10044962D01*
X15702857Y-10044962D02*
X15693333Y-10044962D01*
X15693333Y-10044962D02*
X15679048Y-10040200D01*
X15679048Y-10040200D02*
X15674286Y-10035438D01*
X15674286Y-10035438D02*
X15674286Y-10002105D01*
X15674286Y-10002105D02*
X15693333Y-10002105D01*
X15631428Y-10044962D02*
X15631428Y-9944962D01*
X15631428Y-9944962D02*
X15574286Y-10044962D01*
X15574286Y-10044962D02*
X15574286Y-9944962D01*
X15526667Y-10044962D02*
X15526667Y-9944962D01*
X15526667Y-9944962D02*
X15502857Y-9944962D01*
X15502857Y-9944962D02*
X15488571Y-9949724D01*
X15488571Y-9949724D02*
X15479048Y-9959248D01*
X15479048Y-9959248D02*
X15474286Y-9968771D01*
X15474286Y-9968771D02*
X15469524Y-9987819D01*
X15469524Y-9987819D02*
X15469524Y-10002105D01*
X15469524Y-10002105D02*
X15474286Y-10021152D01*
X15474286Y-10021152D02*
X15479048Y-10030676D01*
X15479048Y-10030676D02*
X15488571Y-10040200D01*
X15488571Y-10040200D02*
X15502857Y-10044962D01*
X15502857Y-10044962D02*
X15526667Y-10044962D01*
X15711905Y-8770200D02*
X15697619Y-8774962D01*
X15697619Y-8774962D02*
X15673809Y-8774962D01*
X15673809Y-8774962D02*
X15664286Y-8770200D01*
X15664286Y-8770200D02*
X15659524Y-8765438D01*
X15659524Y-8765438D02*
X15654762Y-8755914D01*
X15654762Y-8755914D02*
X15654762Y-8746390D01*
X15654762Y-8746390D02*
X15659524Y-8736867D01*
X15659524Y-8736867D02*
X15664286Y-8732105D01*
X15664286Y-8732105D02*
X15673809Y-8727343D01*
X15673809Y-8727343D02*
X15692857Y-8722581D01*
X15692857Y-8722581D02*
X15702381Y-8717819D01*
X15702381Y-8717819D02*
X15707143Y-8713057D01*
X15707143Y-8713057D02*
X15711905Y-8703533D01*
X15711905Y-8703533D02*
X15711905Y-8694010D01*
X15711905Y-8694010D02*
X15707143Y-8684486D01*
X15707143Y-8684486D02*
X15702381Y-8679724D01*
X15702381Y-8679724D02*
X15692857Y-8674962D01*
X15692857Y-8674962D02*
X15669048Y-8674962D01*
X15669048Y-8674962D02*
X15654762Y-8679724D01*
X15554762Y-8765438D02*
X15559524Y-8770200D01*
X15559524Y-8770200D02*
X15573809Y-8774962D01*
X15573809Y-8774962D02*
X15583333Y-8774962D01*
X15583333Y-8774962D02*
X15597619Y-8770200D01*
X15597619Y-8770200D02*
X15607143Y-8760676D01*
X15607143Y-8760676D02*
X15611905Y-8751152D01*
X15611905Y-8751152D02*
X15616667Y-8732105D01*
X15616667Y-8732105D02*
X15616667Y-8717819D01*
X15616667Y-8717819D02*
X15611905Y-8698771D01*
X15611905Y-8698771D02*
X15607143Y-8689248D01*
X15607143Y-8689248D02*
X15597619Y-8679724D01*
X15597619Y-8679724D02*
X15583333Y-8674962D01*
X15583333Y-8674962D02*
X15573809Y-8674962D01*
X15573809Y-8674962D02*
X15559524Y-8679724D01*
X15559524Y-8679724D02*
X15554762Y-8684486D01*
X15464286Y-8774962D02*
X15511905Y-8774962D01*
X15511905Y-8774962D02*
X15511905Y-8674962D01*
X15654762Y-11054962D02*
X15711905Y-11054962D01*
X15683333Y-11054962D02*
X15683333Y-10954962D01*
X15683333Y-10954962D02*
X15692857Y-10969248D01*
X15692857Y-10969248D02*
X15702381Y-10978771D01*
X15702381Y-10978771D02*
X15711905Y-10983533D01*
X15616667Y-10964486D02*
X15611905Y-10959724D01*
X15611905Y-10959724D02*
X15602381Y-10954962D01*
X15602381Y-10954962D02*
X15578571Y-10954962D01*
X15578571Y-10954962D02*
X15569048Y-10959724D01*
X15569048Y-10959724D02*
X15564286Y-10964486D01*
X15564286Y-10964486D02*
X15559524Y-10974010D01*
X15559524Y-10974010D02*
X15559524Y-10983533D01*
X15559524Y-10983533D02*
X15564286Y-10997819D01*
X15564286Y-10997819D02*
X15621428Y-11054962D01*
X15621428Y-11054962D02*
X15559524Y-11054962D01*
X15530952Y-10954962D02*
X15497619Y-11054962D01*
X15497619Y-11054962D02*
X15464286Y-10954962D01*
X15654762Y-10804962D02*
X15711905Y-10804962D01*
X15683333Y-10804962D02*
X15683333Y-10704962D01*
X15683333Y-10704962D02*
X15692857Y-10719248D01*
X15692857Y-10719248D02*
X15702381Y-10728771D01*
X15702381Y-10728771D02*
X15711905Y-10733533D01*
X15616667Y-10714486D02*
X15611905Y-10709724D01*
X15611905Y-10709724D02*
X15602381Y-10704962D01*
X15602381Y-10704962D02*
X15578571Y-10704962D01*
X15578571Y-10704962D02*
X15569048Y-10709724D01*
X15569048Y-10709724D02*
X15564286Y-10714486D01*
X15564286Y-10714486D02*
X15559524Y-10724010D01*
X15559524Y-10724010D02*
X15559524Y-10733533D01*
X15559524Y-10733533D02*
X15564286Y-10747819D01*
X15564286Y-10747819D02*
X15621428Y-10804962D01*
X15621428Y-10804962D02*
X15559524Y-10804962D01*
X15530952Y-10704962D02*
X15497619Y-10804962D01*
X15497619Y-10804962D02*
X15464286Y-10704962D01*
X12547143Y-8764962D02*
X12547143Y-8664962D01*
X12547143Y-8664962D02*
X12513809Y-8736390D01*
X12513809Y-8736390D02*
X12480476Y-8664962D01*
X12480476Y-8664962D02*
X12480476Y-8764962D01*
X12413809Y-8664962D02*
X12394762Y-8664962D01*
X12394762Y-8664962D02*
X12385238Y-8669724D01*
X12385238Y-8669724D02*
X12375714Y-8679248D01*
X12375714Y-8679248D02*
X12370952Y-8698295D01*
X12370952Y-8698295D02*
X12370952Y-8731629D01*
X12370952Y-8731629D02*
X12375714Y-8750676D01*
X12375714Y-8750676D02*
X12385238Y-8760200D01*
X12385238Y-8760200D02*
X12394762Y-8764962D01*
X12394762Y-8764962D02*
X12413809Y-8764962D01*
X12413809Y-8764962D02*
X12423333Y-8760200D01*
X12423333Y-8760200D02*
X12432857Y-8750676D01*
X12432857Y-8750676D02*
X12437619Y-8731629D01*
X12437619Y-8731629D02*
X12437619Y-8698295D01*
X12437619Y-8698295D02*
X12432857Y-8679248D01*
X12432857Y-8679248D02*
X12423333Y-8669724D01*
X12423333Y-8669724D02*
X12413809Y-8664962D01*
X12332857Y-8760200D02*
X12318571Y-8764962D01*
X12318571Y-8764962D02*
X12294762Y-8764962D01*
X12294762Y-8764962D02*
X12285238Y-8760200D01*
X12285238Y-8760200D02*
X12280476Y-8755438D01*
X12280476Y-8755438D02*
X12275714Y-8745914D01*
X12275714Y-8745914D02*
X12275714Y-8736390D01*
X12275714Y-8736390D02*
X12280476Y-8726867D01*
X12280476Y-8726867D02*
X12285238Y-8722105D01*
X12285238Y-8722105D02*
X12294762Y-8717343D01*
X12294762Y-8717343D02*
X12313809Y-8712581D01*
X12313809Y-8712581D02*
X12323333Y-8707819D01*
X12323333Y-8707819D02*
X12328095Y-8703057D01*
X12328095Y-8703057D02*
X12332857Y-8693533D01*
X12332857Y-8693533D02*
X12332857Y-8684010D01*
X12332857Y-8684010D02*
X12328095Y-8674486D01*
X12328095Y-8674486D02*
X12323333Y-8669724D01*
X12323333Y-8669724D02*
X12313809Y-8664962D01*
X12313809Y-8664962D02*
X12290000Y-8664962D01*
X12290000Y-8664962D02*
X12275714Y-8669724D01*
X12232857Y-8764962D02*
X12232857Y-8664962D01*
X12491905Y-11054962D02*
X12549047Y-11054962D01*
X12520476Y-11054962D02*
X12520476Y-10954962D01*
X12520476Y-10954962D02*
X12530000Y-10969248D01*
X12530000Y-10969248D02*
X12539524Y-10978771D01*
X12539524Y-10978771D02*
X12549047Y-10983533D01*
X12453809Y-10964486D02*
X12449047Y-10959724D01*
X12449047Y-10959724D02*
X12439524Y-10954962D01*
X12439524Y-10954962D02*
X12415714Y-10954962D01*
X12415714Y-10954962D02*
X12406190Y-10959724D01*
X12406190Y-10959724D02*
X12401428Y-10964486D01*
X12401428Y-10964486D02*
X12396667Y-10974010D01*
X12396667Y-10974010D02*
X12396667Y-10983533D01*
X12396667Y-10983533D02*
X12401428Y-10997819D01*
X12401428Y-10997819D02*
X12458571Y-11054962D01*
X12458571Y-11054962D02*
X12396667Y-11054962D01*
X12368095Y-10954962D02*
X12334762Y-11054962D01*
X12334762Y-11054962D02*
X12301428Y-10954962D01*
X12516190Y-9689724D02*
X12525714Y-9684962D01*
X12525714Y-9684962D02*
X12540000Y-9684962D01*
X12540000Y-9684962D02*
X12554286Y-9689724D01*
X12554286Y-9689724D02*
X12563809Y-9699248D01*
X12563809Y-9699248D02*
X12568571Y-9708771D01*
X12568571Y-9708771D02*
X12573333Y-9727819D01*
X12573333Y-9727819D02*
X12573333Y-9742105D01*
X12573333Y-9742105D02*
X12568571Y-9761152D01*
X12568571Y-9761152D02*
X12563809Y-9770676D01*
X12563809Y-9770676D02*
X12554286Y-9780200D01*
X12554286Y-9780200D02*
X12540000Y-9784962D01*
X12540000Y-9784962D02*
X12530476Y-9784962D01*
X12530476Y-9784962D02*
X12516190Y-9780200D01*
X12516190Y-9780200D02*
X12511428Y-9775438D01*
X12511428Y-9775438D02*
X12511428Y-9742105D01*
X12511428Y-9742105D02*
X12530476Y-9742105D01*
X12468571Y-9784962D02*
X12468571Y-9684962D01*
X12468571Y-9684962D02*
X12411428Y-9784962D01*
X12411428Y-9784962D02*
X12411428Y-9684962D01*
X12363809Y-9784962D02*
X12363809Y-9684962D01*
X12363809Y-9684962D02*
X12340000Y-9684962D01*
X12340000Y-9684962D02*
X12325714Y-9689724D01*
X12325714Y-9689724D02*
X12316190Y-9699248D01*
X12316190Y-9699248D02*
X12311428Y-9708771D01*
X12311428Y-9708771D02*
X12306667Y-9727819D01*
X12306667Y-9727819D02*
X12306667Y-9742105D01*
X12306667Y-9742105D02*
X12311428Y-9761152D01*
X12311428Y-9761152D02*
X12316190Y-9770676D01*
X12316190Y-9770676D02*
X12325714Y-9780200D01*
X12325714Y-9780200D02*
X12340000Y-9784962D01*
X12340000Y-9784962D02*
X12363809Y-9784962D01*
X14955714Y-7558801D02*
X14955714Y-7639753D01*
X14955714Y-7639753D02*
X14960476Y-7649277D01*
X14960476Y-7649277D02*
X14965238Y-7654039D01*
X14965238Y-7654039D02*
X14974762Y-7658801D01*
X14974762Y-7658801D02*
X14989047Y-7658801D01*
X14989047Y-7658801D02*
X14998571Y-7654039D01*
X14955714Y-7620706D02*
X14965238Y-7625467D01*
X14965238Y-7625467D02*
X14984286Y-7625467D01*
X14984286Y-7625467D02*
X14993809Y-7620706D01*
X14993809Y-7620706D02*
X14998571Y-7615944D01*
X14998571Y-7615944D02*
X15003333Y-7606420D01*
X15003333Y-7606420D02*
X15003333Y-7577848D01*
X15003333Y-7577848D02*
X14998571Y-7568325D01*
X14998571Y-7568325D02*
X14993809Y-7563563D01*
X14993809Y-7563563D02*
X14984286Y-7558801D01*
X14984286Y-7558801D02*
X14965238Y-7558801D01*
X14965238Y-7558801D02*
X14955714Y-7563563D01*
X14908095Y-7625467D02*
X14908095Y-7558801D01*
X14908095Y-7525467D02*
X14912857Y-7530229D01*
X14912857Y-7530229D02*
X14908095Y-7534991D01*
X14908095Y-7534991D02*
X14903333Y-7530229D01*
X14903333Y-7530229D02*
X14908095Y-7525467D01*
X14908095Y-7525467D02*
X14908095Y-7534991D01*
X14874762Y-7558801D02*
X14836667Y-7558801D01*
X14860476Y-7525467D02*
X14860476Y-7611182D01*
X14860476Y-7611182D02*
X14855714Y-7620706D01*
X14855714Y-7620706D02*
X14846190Y-7625467D01*
X14846190Y-7625467D02*
X14836667Y-7625467D01*
X14803333Y-7625467D02*
X14803333Y-7525467D01*
X14760476Y-7625467D02*
X14760476Y-7573086D01*
X14760476Y-7573086D02*
X14765238Y-7563563D01*
X14765238Y-7563563D02*
X14774762Y-7558801D01*
X14774762Y-7558801D02*
X14789047Y-7558801D01*
X14789047Y-7558801D02*
X14798571Y-7563563D01*
X14798571Y-7563563D02*
X14803333Y-7568325D01*
X14670000Y-7558801D02*
X14670000Y-7625467D01*
X14712857Y-7558801D02*
X14712857Y-7611182D01*
X14712857Y-7611182D02*
X14708095Y-7620706D01*
X14708095Y-7620706D02*
X14698571Y-7625467D01*
X14698571Y-7625467D02*
X14684286Y-7625467D01*
X14684286Y-7625467D02*
X14674762Y-7620706D01*
X14674762Y-7620706D02*
X14670000Y-7615944D01*
X14622381Y-7625467D02*
X14622381Y-7525467D01*
X14622381Y-7563563D02*
X14612857Y-7558801D01*
X14612857Y-7558801D02*
X14593809Y-7558801D01*
X14593809Y-7558801D02*
X14584286Y-7563563D01*
X14584286Y-7563563D02*
X14579524Y-7568325D01*
X14579524Y-7568325D02*
X14574762Y-7577848D01*
X14574762Y-7577848D02*
X14574762Y-7606420D01*
X14574762Y-7606420D02*
X14579524Y-7615944D01*
X14579524Y-7615944D02*
X14584286Y-7620706D01*
X14584286Y-7620706D02*
X14593809Y-7625467D01*
X14593809Y-7625467D02*
X14612857Y-7625467D01*
X14612857Y-7625467D02*
X14622381Y-7620706D01*
X14531905Y-7615944D02*
X14527143Y-7620706D01*
X14527143Y-7620706D02*
X14531905Y-7625467D01*
X14531905Y-7625467D02*
X14536666Y-7620706D01*
X14536666Y-7620706D02*
X14531905Y-7615944D01*
X14531905Y-7615944D02*
X14531905Y-7625467D01*
X14441428Y-7620706D02*
X14450952Y-7625467D01*
X14450952Y-7625467D02*
X14470000Y-7625467D01*
X14470000Y-7625467D02*
X14479524Y-7620706D01*
X14479524Y-7620706D02*
X14484286Y-7615944D01*
X14484286Y-7615944D02*
X14489047Y-7606420D01*
X14489047Y-7606420D02*
X14489047Y-7577848D01*
X14489047Y-7577848D02*
X14484286Y-7568325D01*
X14484286Y-7568325D02*
X14479524Y-7563563D01*
X14479524Y-7563563D02*
X14470000Y-7558801D01*
X14470000Y-7558801D02*
X14450952Y-7558801D01*
X14450952Y-7558801D02*
X14441428Y-7563563D01*
X14384286Y-7625467D02*
X14393809Y-7620706D01*
X14393809Y-7620706D02*
X14398571Y-7615944D01*
X14398571Y-7615944D02*
X14403333Y-7606420D01*
X14403333Y-7606420D02*
X14403333Y-7577848D01*
X14403333Y-7577848D02*
X14398571Y-7568325D01*
X14398571Y-7568325D02*
X14393809Y-7563563D01*
X14393809Y-7563563D02*
X14384286Y-7558801D01*
X14384286Y-7558801D02*
X14370000Y-7558801D01*
X14370000Y-7558801D02*
X14360476Y-7563563D01*
X14360476Y-7563563D02*
X14355714Y-7568325D01*
X14355714Y-7568325D02*
X14350952Y-7577848D01*
X14350952Y-7577848D02*
X14350952Y-7606420D01*
X14350952Y-7606420D02*
X14355714Y-7615944D01*
X14355714Y-7615944D02*
X14360476Y-7620706D01*
X14360476Y-7620706D02*
X14370000Y-7625467D01*
X14370000Y-7625467D02*
X14384286Y-7625467D01*
X14308095Y-7625467D02*
X14308095Y-7558801D01*
X14308095Y-7568325D02*
X14303333Y-7563563D01*
X14303333Y-7563563D02*
X14293809Y-7558801D01*
X14293809Y-7558801D02*
X14279524Y-7558801D01*
X14279524Y-7558801D02*
X14270000Y-7563563D01*
X14270000Y-7563563D02*
X14265238Y-7573086D01*
X14265238Y-7573086D02*
X14265238Y-7625467D01*
X14265238Y-7573086D02*
X14260476Y-7563563D01*
X14260476Y-7563563D02*
X14250952Y-7558801D01*
X14250952Y-7558801D02*
X14236667Y-7558801D01*
X14236667Y-7558801D02*
X14227143Y-7563563D01*
X14227143Y-7563563D02*
X14222381Y-7573086D01*
X14222381Y-7573086D02*
X14222381Y-7625467D01*
X14103333Y-7520706D02*
X14189047Y-7649277D01*
X14079524Y-7525467D02*
X14055714Y-7625467D01*
X14055714Y-7625467D02*
X14036667Y-7554039D01*
X14036667Y-7554039D02*
X14017619Y-7625467D01*
X14017619Y-7625467D02*
X13993809Y-7525467D01*
X13955714Y-7625467D02*
X13955714Y-7558801D01*
X13955714Y-7525467D02*
X13960476Y-7530229D01*
X13960476Y-7530229D02*
X13955714Y-7534991D01*
X13955714Y-7534991D02*
X13950952Y-7530229D01*
X13950952Y-7530229D02*
X13955714Y-7525467D01*
X13955714Y-7525467D02*
X13955714Y-7534991D01*
X13865238Y-7625467D02*
X13865238Y-7525467D01*
X13865238Y-7620706D02*
X13874762Y-7625467D01*
X13874762Y-7625467D02*
X13893809Y-7625467D01*
X13893809Y-7625467D02*
X13903333Y-7620706D01*
X13903333Y-7620706D02*
X13908095Y-7615944D01*
X13908095Y-7615944D02*
X13912857Y-7606420D01*
X13912857Y-7606420D02*
X13912857Y-7577848D01*
X13912857Y-7577848D02*
X13908095Y-7568325D01*
X13908095Y-7568325D02*
X13903333Y-7563563D01*
X13903333Y-7563563D02*
X13893809Y-7558801D01*
X13893809Y-7558801D02*
X13874762Y-7558801D01*
X13874762Y-7558801D02*
X13865238Y-7563563D01*
X13774762Y-7625467D02*
X13774762Y-7525467D01*
X13774762Y-7620706D02*
X13784286Y-7625467D01*
X13784286Y-7625467D02*
X13803333Y-7625467D01*
X13803333Y-7625467D02*
X13812857Y-7620706D01*
X13812857Y-7620706D02*
X13817619Y-7615944D01*
X13817619Y-7615944D02*
X13822381Y-7606420D01*
X13822381Y-7606420D02*
X13822381Y-7577848D01*
X13822381Y-7577848D02*
X13817619Y-7568325D01*
X13817619Y-7568325D02*
X13812857Y-7563563D01*
X13812857Y-7563563D02*
X13803333Y-7558801D01*
X13803333Y-7558801D02*
X13784286Y-7558801D01*
X13784286Y-7558801D02*
X13774762Y-7563563D01*
X13712857Y-7625467D02*
X13722381Y-7620706D01*
X13722381Y-7620706D02*
X13727143Y-7611182D01*
X13727143Y-7611182D02*
X13727143Y-7525467D01*
X13636667Y-7620706D02*
X13646190Y-7625467D01*
X13646190Y-7625467D02*
X13665238Y-7625467D01*
X13665238Y-7625467D02*
X13674762Y-7620706D01*
X13674762Y-7620706D02*
X13679524Y-7611182D01*
X13679524Y-7611182D02*
X13679524Y-7573086D01*
X13679524Y-7573086D02*
X13674762Y-7563563D01*
X13674762Y-7563563D02*
X13665238Y-7558801D01*
X13665238Y-7558801D02*
X13646190Y-7558801D01*
X13646190Y-7558801D02*
X13636667Y-7563563D01*
X13636667Y-7563563D02*
X13631905Y-7573086D01*
X13631905Y-7573086D02*
X13631905Y-7582610D01*
X13631905Y-7582610D02*
X13679524Y-7592134D01*
X13598571Y-7525467D02*
X13574762Y-7625467D01*
X13574762Y-7625467D02*
X13555714Y-7554039D01*
X13555714Y-7554039D02*
X13536667Y-7625467D01*
X13536667Y-7625467D02*
X13512857Y-7525467D01*
X13431905Y-7625467D02*
X13431905Y-7573086D01*
X13431905Y-7573086D02*
X13436667Y-7563563D01*
X13436667Y-7563563D02*
X13446190Y-7558801D01*
X13446190Y-7558801D02*
X13465238Y-7558801D01*
X13465238Y-7558801D02*
X13474762Y-7563563D01*
X13431905Y-7620706D02*
X13441428Y-7625467D01*
X13441428Y-7625467D02*
X13465238Y-7625467D01*
X13465238Y-7625467D02*
X13474762Y-7620706D01*
X13474762Y-7620706D02*
X13479524Y-7611182D01*
X13479524Y-7611182D02*
X13479524Y-7601658D01*
X13479524Y-7601658D02*
X13474762Y-7592134D01*
X13474762Y-7592134D02*
X13465238Y-7587372D01*
X13465238Y-7587372D02*
X13441428Y-7587372D01*
X13441428Y-7587372D02*
X13431905Y-7582610D01*
X13384286Y-7625467D02*
X13384286Y-7525467D01*
X13384286Y-7563563D02*
X13374762Y-7558801D01*
X13374762Y-7558801D02*
X13355714Y-7558801D01*
X13355714Y-7558801D02*
X13346190Y-7563563D01*
X13346190Y-7563563D02*
X13341428Y-7568325D01*
X13341428Y-7568325D02*
X13336667Y-7577848D01*
X13336667Y-7577848D02*
X13336667Y-7606420D01*
X13336667Y-7606420D02*
X13341428Y-7615944D01*
X13341428Y-7615944D02*
X13346190Y-7620706D01*
X13346190Y-7620706D02*
X13355714Y-7625467D01*
X13355714Y-7625467D02*
X13374762Y-7625467D01*
X13374762Y-7625467D02*
X13384286Y-7620706D01*
X13293809Y-7625467D02*
X13293809Y-7525467D01*
X13293809Y-7563563D02*
X13284286Y-7558801D01*
X13284286Y-7558801D02*
X13265238Y-7558801D01*
X13265238Y-7558801D02*
X13255714Y-7563563D01*
X13255714Y-7563563D02*
X13250952Y-7568325D01*
X13250952Y-7568325D02*
X13246190Y-7577848D01*
X13246190Y-7577848D02*
X13246190Y-7606420D01*
X13246190Y-7606420D02*
X13250952Y-7615944D01*
X13250952Y-7615944D02*
X13255714Y-7620706D01*
X13255714Y-7620706D02*
X13265238Y-7625467D01*
X13265238Y-7625467D02*
X13284286Y-7625467D01*
X13284286Y-7625467D02*
X13293809Y-7620706D01*
X13203333Y-7625467D02*
X13203333Y-7558801D01*
X13203333Y-7525467D02*
X13208095Y-7530229D01*
X13208095Y-7530229D02*
X13203333Y-7534991D01*
X13203333Y-7534991D02*
X13198571Y-7530229D01*
X13198571Y-7530229D02*
X13203333Y-7525467D01*
X13203333Y-7525467D02*
X13203333Y-7534991D01*
X13170000Y-7558801D02*
X13131905Y-7558801D01*
X13155714Y-7525467D02*
X13155714Y-7611182D01*
X13155714Y-7611182D02*
X13150952Y-7620706D01*
X13150952Y-7620706D02*
X13141428Y-7625467D01*
X13141428Y-7625467D02*
X13131905Y-7625467D01*
X13027143Y-7520706D02*
X13112857Y-7649277D01*
X15146190Y-7786462D02*
X15146190Y-7686462D01*
X15146190Y-7686462D02*
X15112857Y-7757890D01*
X15112857Y-7757890D02*
X15079524Y-7686462D01*
X15079524Y-7686462D02*
X15079524Y-7786462D01*
X14965238Y-7795986D02*
X14974762Y-7791224D01*
X14974762Y-7791224D02*
X14984286Y-7781700D01*
X14984286Y-7781700D02*
X14998571Y-7767414D01*
X14998571Y-7767414D02*
X15008095Y-7762652D01*
X15008095Y-7762652D02*
X15017619Y-7762652D01*
X15012857Y-7786462D02*
X15022381Y-7781700D01*
X15022381Y-7781700D02*
X15031905Y-7772176D01*
X15031905Y-7772176D02*
X15036667Y-7753128D01*
X15036667Y-7753128D02*
X15036667Y-7719795D01*
X15036667Y-7719795D02*
X15031905Y-7700748D01*
X15031905Y-7700748D02*
X15022381Y-7691224D01*
X15022381Y-7691224D02*
X15012857Y-7686462D01*
X15012857Y-7686462D02*
X14993810Y-7686462D01*
X14993810Y-7686462D02*
X14984286Y-7691224D01*
X14984286Y-7691224D02*
X14974762Y-7700748D01*
X14974762Y-7700748D02*
X14970000Y-7719795D01*
X14970000Y-7719795D02*
X14970000Y-7753128D01*
X14970000Y-7753128D02*
X14974762Y-7772176D01*
X14974762Y-7772176D02*
X14984286Y-7781700D01*
X14984286Y-7781700D02*
X14993810Y-7786462D01*
X14993810Y-7786462D02*
X15012857Y-7786462D01*
X14941429Y-7686462D02*
X14884286Y-7686462D01*
X14912857Y-7786462D02*
X14912857Y-7686462D01*
X14865238Y-7686462D02*
X14808095Y-7686462D01*
X14836667Y-7786462D02*
X14836667Y-7686462D01*
X14774762Y-7748367D02*
X14698571Y-7748367D01*
X14650952Y-7786462D02*
X14650952Y-7686462D01*
X14650952Y-7686462D02*
X14617619Y-7757890D01*
X14617619Y-7757890D02*
X14584286Y-7686462D01*
X14584286Y-7686462D02*
X14584286Y-7786462D01*
X14522381Y-7786462D02*
X14531905Y-7781700D01*
X14531905Y-7781700D02*
X14536667Y-7776938D01*
X14536667Y-7776938D02*
X14541429Y-7767414D01*
X14541429Y-7767414D02*
X14541429Y-7738843D01*
X14541429Y-7738843D02*
X14536667Y-7729319D01*
X14536667Y-7729319D02*
X14531905Y-7724557D01*
X14531905Y-7724557D02*
X14522381Y-7719795D01*
X14522381Y-7719795D02*
X14508095Y-7719795D01*
X14508095Y-7719795D02*
X14498571Y-7724557D01*
X14498571Y-7724557D02*
X14493810Y-7729319D01*
X14493810Y-7729319D02*
X14489048Y-7738843D01*
X14489048Y-7738843D02*
X14489048Y-7767414D01*
X14489048Y-7767414D02*
X14493810Y-7776938D01*
X14493810Y-7776938D02*
X14498571Y-7781700D01*
X14498571Y-7781700D02*
X14508095Y-7786462D01*
X14508095Y-7786462D02*
X14522381Y-7786462D01*
X14403333Y-7786462D02*
X14403333Y-7686462D01*
X14403333Y-7781700D02*
X14412857Y-7786462D01*
X14412857Y-7786462D02*
X14431905Y-7786462D01*
X14431905Y-7786462D02*
X14441429Y-7781700D01*
X14441429Y-7781700D02*
X14446190Y-7776938D01*
X14446190Y-7776938D02*
X14450952Y-7767414D01*
X14450952Y-7767414D02*
X14450952Y-7738843D01*
X14450952Y-7738843D02*
X14446190Y-7729319D01*
X14446190Y-7729319D02*
X14441429Y-7724557D01*
X14441429Y-7724557D02*
X14431905Y-7719795D01*
X14431905Y-7719795D02*
X14412857Y-7719795D01*
X14412857Y-7719795D02*
X14403333Y-7724557D01*
X14312857Y-7719795D02*
X14312857Y-7786462D01*
X14355714Y-7719795D02*
X14355714Y-7772176D01*
X14355714Y-7772176D02*
X14350952Y-7781700D01*
X14350952Y-7781700D02*
X14341429Y-7786462D01*
X14341429Y-7786462D02*
X14327143Y-7786462D01*
X14327143Y-7786462D02*
X14317619Y-7781700D01*
X14317619Y-7781700D02*
X14312857Y-7776938D01*
X14250952Y-7786462D02*
X14260476Y-7781700D01*
X14260476Y-7781700D02*
X14265238Y-7772176D01*
X14265238Y-7772176D02*
X14265238Y-7686462D01*
X14174762Y-7781700D02*
X14184286Y-7786462D01*
X14184286Y-7786462D02*
X14203333Y-7786462D01*
X14203333Y-7786462D02*
X14212857Y-7781700D01*
X14212857Y-7781700D02*
X14217619Y-7772176D01*
X14217619Y-7772176D02*
X14217619Y-7734081D01*
X14217619Y-7734081D02*
X14212857Y-7724557D01*
X14212857Y-7724557D02*
X14203333Y-7719795D01*
X14203333Y-7719795D02*
X14184286Y-7719795D01*
X14184286Y-7719795D02*
X14174762Y-7724557D01*
X14174762Y-7724557D02*
X14170000Y-7734081D01*
X14170000Y-7734081D02*
X14170000Y-7743605D01*
X14170000Y-7743605D02*
X14217619Y-7753128D01*
X14127143Y-7748367D02*
X14050952Y-7748367D01*
X14003333Y-7786462D02*
X14003333Y-7686462D01*
X14003333Y-7686462D02*
X13965238Y-7686462D01*
X13965238Y-7686462D02*
X13955714Y-7691224D01*
X13955714Y-7691224D02*
X13950952Y-7695986D01*
X13950952Y-7695986D02*
X13946190Y-7705509D01*
X13946190Y-7705509D02*
X13946190Y-7719795D01*
X13946190Y-7719795D02*
X13950952Y-7729319D01*
X13950952Y-7729319D02*
X13955714Y-7734081D01*
X13955714Y-7734081D02*
X13965238Y-7738843D01*
X13965238Y-7738843D02*
X14003333Y-7738843D01*
X13860476Y-7719795D02*
X13860476Y-7786462D01*
X13903333Y-7719795D02*
X13903333Y-7772176D01*
X13903333Y-7772176D02*
X13898571Y-7781700D01*
X13898571Y-7781700D02*
X13889048Y-7786462D01*
X13889048Y-7786462D02*
X13874762Y-7786462D01*
X13874762Y-7786462D02*
X13865238Y-7781700D01*
X13865238Y-7781700D02*
X13860476Y-7776938D01*
X13812857Y-7786462D02*
X13812857Y-7719795D01*
X13812857Y-7729319D02*
X13808095Y-7724557D01*
X13808095Y-7724557D02*
X13798571Y-7719795D01*
X13798571Y-7719795D02*
X13784286Y-7719795D01*
X13784286Y-7719795D02*
X13774762Y-7724557D01*
X13774762Y-7724557D02*
X13770000Y-7734081D01*
X13770000Y-7734081D02*
X13770000Y-7786462D01*
X13770000Y-7734081D02*
X13765238Y-7724557D01*
X13765238Y-7724557D02*
X13755714Y-7719795D01*
X13755714Y-7719795D02*
X13741429Y-7719795D01*
X13741429Y-7719795D02*
X13731905Y-7724557D01*
X13731905Y-7724557D02*
X13727143Y-7734081D01*
X13727143Y-7734081D02*
X13727143Y-7786462D01*
X13679524Y-7719795D02*
X13679524Y-7819795D01*
X13679524Y-7724557D02*
X13670000Y-7719795D01*
X13670000Y-7719795D02*
X13650952Y-7719795D01*
X13650952Y-7719795D02*
X13641429Y-7724557D01*
X13641429Y-7724557D02*
X13636667Y-7729319D01*
X13636667Y-7729319D02*
X13631905Y-7738843D01*
X13631905Y-7738843D02*
X13631905Y-7767414D01*
X13631905Y-7767414D02*
X13636667Y-7776938D01*
X13636667Y-7776938D02*
X13641429Y-7781700D01*
X13641429Y-7781700D02*
X13650952Y-7786462D01*
X13650952Y-7786462D02*
X13670000Y-7786462D01*
X13670000Y-7786462D02*
X13679524Y-7781700D01*
X13531905Y-7776938D02*
X13536667Y-7781700D01*
X13536667Y-7781700D02*
X13550952Y-7786462D01*
X13550952Y-7786462D02*
X13560476Y-7786462D01*
X13560476Y-7786462D02*
X13574762Y-7781700D01*
X13574762Y-7781700D02*
X13584286Y-7772176D01*
X13584286Y-7772176D02*
X13589048Y-7762652D01*
X13589048Y-7762652D02*
X13593809Y-7743605D01*
X13593809Y-7743605D02*
X13593809Y-7729319D01*
X13593809Y-7729319D02*
X13589048Y-7710271D01*
X13589048Y-7710271D02*
X13584286Y-7700748D01*
X13584286Y-7700748D02*
X13574762Y-7691224D01*
X13574762Y-7691224D02*
X13560476Y-7686462D01*
X13560476Y-7686462D02*
X13550952Y-7686462D01*
X13550952Y-7686462D02*
X13536667Y-7691224D01*
X13536667Y-7691224D02*
X13531905Y-7695986D01*
X13474762Y-7786462D02*
X13484286Y-7781700D01*
X13484286Y-7781700D02*
X13489048Y-7776938D01*
X13489048Y-7776938D02*
X13493809Y-7767414D01*
X13493809Y-7767414D02*
X13493809Y-7738843D01*
X13493809Y-7738843D02*
X13489048Y-7729319D01*
X13489048Y-7729319D02*
X13484286Y-7724557D01*
X13484286Y-7724557D02*
X13474762Y-7719795D01*
X13474762Y-7719795D02*
X13460476Y-7719795D01*
X13460476Y-7719795D02*
X13450952Y-7724557D01*
X13450952Y-7724557D02*
X13446190Y-7729319D01*
X13446190Y-7729319D02*
X13441429Y-7738843D01*
X13441429Y-7738843D02*
X13441429Y-7767414D01*
X13441429Y-7767414D02*
X13446190Y-7776938D01*
X13446190Y-7776938D02*
X13450952Y-7781700D01*
X13450952Y-7781700D02*
X13460476Y-7786462D01*
X13460476Y-7786462D02*
X13474762Y-7786462D01*
X13398571Y-7719795D02*
X13398571Y-7786462D01*
X13398571Y-7729319D02*
X13393809Y-7724557D01*
X13393809Y-7724557D02*
X13384286Y-7719795D01*
X13384286Y-7719795D02*
X13370000Y-7719795D01*
X13370000Y-7719795D02*
X13360476Y-7724557D01*
X13360476Y-7724557D02*
X13355714Y-7734081D01*
X13355714Y-7734081D02*
X13355714Y-7786462D01*
X13322381Y-7719795D02*
X13284286Y-7719795D01*
X13308095Y-7686462D02*
X13308095Y-7772176D01*
X13308095Y-7772176D02*
X13303333Y-7781700D01*
X13303333Y-7781700D02*
X13293809Y-7786462D01*
X13293809Y-7786462D02*
X13284286Y-7786462D01*
X13250952Y-7786462D02*
X13250952Y-7719795D01*
X13250952Y-7738843D02*
X13246190Y-7729319D01*
X13246190Y-7729319D02*
X13241428Y-7724557D01*
X13241428Y-7724557D02*
X13231905Y-7719795D01*
X13231905Y-7719795D02*
X13222381Y-7719795D01*
X13174762Y-7786462D02*
X13184286Y-7781700D01*
X13184286Y-7781700D02*
X13189047Y-7776938D01*
X13189047Y-7776938D02*
X13193809Y-7767414D01*
X13193809Y-7767414D02*
X13193809Y-7738843D01*
X13193809Y-7738843D02*
X13189047Y-7729319D01*
X13189047Y-7729319D02*
X13184286Y-7724557D01*
X13184286Y-7724557D02*
X13174762Y-7719795D01*
X13174762Y-7719795D02*
X13160476Y-7719795D01*
X13160476Y-7719795D02*
X13150952Y-7724557D01*
X13150952Y-7724557D02*
X13146190Y-7729319D01*
X13146190Y-7729319D02*
X13141428Y-7738843D01*
X13141428Y-7738843D02*
X13141428Y-7767414D01*
X13141428Y-7767414D02*
X13146190Y-7776938D01*
X13146190Y-7776938D02*
X13150952Y-7781700D01*
X13150952Y-7781700D02*
X13160476Y-7786462D01*
X13160476Y-7786462D02*
X13174762Y-7786462D01*
X13084286Y-7786462D02*
X13093809Y-7781700D01*
X13093809Y-7781700D02*
X13098571Y-7772176D01*
X13098571Y-7772176D02*
X13098571Y-7686462D01*
X13031905Y-7786462D02*
X13041428Y-7781700D01*
X13041428Y-7781700D02*
X13046190Y-7772176D01*
X13046190Y-7772176D02*
X13046190Y-7686462D01*
X12955714Y-7781700D02*
X12965238Y-7786462D01*
X12965238Y-7786462D02*
X12984285Y-7786462D01*
X12984285Y-7786462D02*
X12993809Y-7781700D01*
X12993809Y-7781700D02*
X12998571Y-7772176D01*
X12998571Y-7772176D02*
X12998571Y-7734081D01*
X12998571Y-7734081D02*
X12993809Y-7724557D01*
X12993809Y-7724557D02*
X12984285Y-7719795D01*
X12984285Y-7719795D02*
X12965238Y-7719795D01*
X12965238Y-7719795D02*
X12955714Y-7724557D01*
X12955714Y-7724557D02*
X12950952Y-7734081D01*
X12950952Y-7734081D02*
X12950952Y-7743605D01*
X12950952Y-7743605D02*
X12998571Y-7753128D01*
X12908095Y-7786462D02*
X12908095Y-7719795D01*
X12908095Y-7738843D02*
X12903333Y-7729319D01*
X12903333Y-7729319D02*
X12898571Y-7724557D01*
X12898571Y-7724557D02*
X12889047Y-7719795D01*
X12889047Y-7719795D02*
X12879524Y-7719795D01*
X15770476Y-10194962D02*
X15708571Y-10194962D01*
X15708571Y-10194962D02*
X15741905Y-10233057D01*
X15741905Y-10233057D02*
X15727619Y-10233057D01*
X15727619Y-10233057D02*
X15718095Y-10237819D01*
X15718095Y-10237819D02*
X15713333Y-10242581D01*
X15713333Y-10242581D02*
X15708571Y-10252105D01*
X15708571Y-10252105D02*
X15708571Y-10275914D01*
X15708571Y-10275914D02*
X15713333Y-10285438D01*
X15713333Y-10285438D02*
X15718095Y-10290200D01*
X15718095Y-10290200D02*
X15727619Y-10294962D01*
X15727619Y-10294962D02*
X15756190Y-10294962D01*
X15756190Y-10294962D02*
X15765714Y-10290200D01*
X15765714Y-10290200D02*
X15770476Y-10285438D01*
X15665714Y-10285438D02*
X15660952Y-10290200D01*
X15660952Y-10290200D02*
X15665714Y-10294962D01*
X15665714Y-10294962D02*
X15670476Y-10290200D01*
X15670476Y-10290200D02*
X15665714Y-10285438D01*
X15665714Y-10285438D02*
X15665714Y-10294962D01*
X15627619Y-10194962D02*
X15565714Y-10194962D01*
X15565714Y-10194962D02*
X15599048Y-10233057D01*
X15599048Y-10233057D02*
X15584762Y-10233057D01*
X15584762Y-10233057D02*
X15575238Y-10237819D01*
X15575238Y-10237819D02*
X15570476Y-10242581D01*
X15570476Y-10242581D02*
X15565714Y-10252105D01*
X15565714Y-10252105D02*
X15565714Y-10275914D01*
X15565714Y-10275914D02*
X15570476Y-10285438D01*
X15570476Y-10285438D02*
X15575238Y-10290200D01*
X15575238Y-10290200D02*
X15584762Y-10294962D01*
X15584762Y-10294962D02*
X15613333Y-10294962D01*
X15613333Y-10294962D02*
X15622857Y-10290200D01*
X15622857Y-10290200D02*
X15627619Y-10285438D01*
X15537143Y-10194962D02*
X15503809Y-10294962D01*
X15503809Y-10294962D02*
X15470476Y-10194962D01*
X12168571Y-8404962D02*
X12168571Y-8476390D01*
X12168571Y-8476390D02*
X12173333Y-8490676D01*
X12173333Y-8490676D02*
X12182857Y-8500200D01*
X12182857Y-8500200D02*
X12197143Y-8504962D01*
X12197143Y-8504962D02*
X12206667Y-8504962D01*
X12130476Y-8404962D02*
X12068571Y-8404962D01*
X12068571Y-8404962D02*
X12101905Y-8443057D01*
X12101905Y-8443057D02*
X12087619Y-8443057D01*
X12087619Y-8443057D02*
X12078095Y-8447819D01*
X12078095Y-8447819D02*
X12073333Y-8452581D01*
X12073333Y-8452581D02*
X12068571Y-8462105D01*
X12068571Y-8462105D02*
X12068571Y-8485914D01*
X12068571Y-8485914D02*
X12073333Y-8495438D01*
X12073333Y-8495438D02*
X12078095Y-8500200D01*
X12078095Y-8500200D02*
X12087619Y-8504962D01*
X12087619Y-8504962D02*
X12116190Y-8504962D01*
X12116190Y-8504962D02*
X12125714Y-8500200D01*
X12125714Y-8500200D02*
X12130476Y-8495438D01*
X12006667Y-8404962D02*
X11997143Y-8404962D01*
X11997143Y-8404962D02*
X11987619Y-8409724D01*
X11987619Y-8409724D02*
X11982857Y-8414486D01*
X11982857Y-8414486D02*
X11978095Y-8424010D01*
X11978095Y-8424010D02*
X11973333Y-8443057D01*
X11973333Y-8443057D02*
X11973333Y-8466867D01*
X11973333Y-8466867D02*
X11978095Y-8485914D01*
X11978095Y-8485914D02*
X11982857Y-8495438D01*
X11982857Y-8495438D02*
X11987619Y-8500200D01*
X11987619Y-8500200D02*
X11997143Y-8504962D01*
X11997143Y-8504962D02*
X12006667Y-8504962D01*
X12006667Y-8504962D02*
X12016190Y-8500200D01*
X12016190Y-8500200D02*
X12020952Y-8495438D01*
X12020952Y-8495438D02*
X12025714Y-8485914D01*
X12025714Y-8485914D02*
X12030476Y-8466867D01*
X12030476Y-8466867D02*
X12030476Y-8443057D01*
X12030476Y-8443057D02*
X12025714Y-8424010D01*
X12025714Y-8424010D02*
X12020952Y-8414486D01*
X12020952Y-8414486D02*
X12016190Y-8409724D01*
X12016190Y-8409724D02*
X12006667Y-8404962D01*
X11878095Y-8504962D02*
X11935238Y-8504962D01*
X11906667Y-8504962D02*
X11906667Y-8404962D01*
X11906667Y-8404962D02*
X11916190Y-8419248D01*
X11916190Y-8419248D02*
X11925714Y-8428771D01*
X11925714Y-8428771D02*
X11935238Y-8433533D01*
X16078571Y-8404962D02*
X16078571Y-8476390D01*
X16078571Y-8476390D02*
X16083333Y-8490676D01*
X16083333Y-8490676D02*
X16092857Y-8500200D01*
X16092857Y-8500200D02*
X16107143Y-8504962D01*
X16107143Y-8504962D02*
X16116667Y-8504962D01*
X16040476Y-8404962D02*
X15978571Y-8404962D01*
X15978571Y-8404962D02*
X16011905Y-8443057D01*
X16011905Y-8443057D02*
X15997619Y-8443057D01*
X15997619Y-8443057D02*
X15988095Y-8447819D01*
X15988095Y-8447819D02*
X15983333Y-8452581D01*
X15983333Y-8452581D02*
X15978571Y-8462105D01*
X15978571Y-8462105D02*
X15978571Y-8485914D01*
X15978571Y-8485914D02*
X15983333Y-8495438D01*
X15983333Y-8495438D02*
X15988095Y-8500200D01*
X15988095Y-8500200D02*
X15997619Y-8504962D01*
X15997619Y-8504962D02*
X16026190Y-8504962D01*
X16026190Y-8504962D02*
X16035714Y-8500200D01*
X16035714Y-8500200D02*
X16040476Y-8495438D01*
X15916667Y-8404962D02*
X15907143Y-8404962D01*
X15907143Y-8404962D02*
X15897619Y-8409724D01*
X15897619Y-8409724D02*
X15892857Y-8414486D01*
X15892857Y-8414486D02*
X15888095Y-8424010D01*
X15888095Y-8424010D02*
X15883333Y-8443057D01*
X15883333Y-8443057D02*
X15883333Y-8466867D01*
X15883333Y-8466867D02*
X15888095Y-8485914D01*
X15888095Y-8485914D02*
X15892857Y-8495438D01*
X15892857Y-8495438D02*
X15897619Y-8500200D01*
X15897619Y-8500200D02*
X15907143Y-8504962D01*
X15907143Y-8504962D02*
X15916667Y-8504962D01*
X15916667Y-8504962D02*
X15926190Y-8500200D01*
X15926190Y-8500200D02*
X15930952Y-8495438D01*
X15930952Y-8495438D02*
X15935714Y-8485914D01*
X15935714Y-8485914D02*
X15940476Y-8466867D01*
X15940476Y-8466867D02*
X15940476Y-8443057D01*
X15940476Y-8443057D02*
X15935714Y-8424010D01*
X15935714Y-8424010D02*
X15930952Y-8414486D01*
X15930952Y-8414486D02*
X15926190Y-8409724D01*
X15926190Y-8409724D02*
X15916667Y-8404962D01*
X15845238Y-8414486D02*
X15840476Y-8409724D01*
X15840476Y-8409724D02*
X15830952Y-8404962D01*
X15830952Y-8404962D02*
X15807143Y-8404962D01*
X15807143Y-8404962D02*
X15797619Y-8409724D01*
X15797619Y-8409724D02*
X15792857Y-8414486D01*
X15792857Y-8414486D02*
X15788095Y-8424010D01*
X15788095Y-8424010D02*
X15788095Y-8433533D01*
X15788095Y-8433533D02*
X15792857Y-8447819D01*
X15792857Y-8447819D02*
X15850000Y-8504962D01*
X15850000Y-8504962D02*
X15788095Y-8504962D01*
D11*
%TO.C,J301*%
X11862000Y-8582000D02*
X12138000Y-8582000D01*
X11862000Y-10879000D02*
X11862000Y-8582000D01*
X11862000Y-10879000D02*
X12138000Y-10879000D01*
X11862000Y-11006000D02*
X11862000Y-11144000D01*
X11862000Y-11144000D02*
X12000000Y-11144000D01*
X12138000Y-10879000D02*
X12138000Y-8582000D01*
D12*
%TO.C,G\u002A\u002A\u002A*%
G36*
X14254662Y-9774217D02*
G01*
X14260676Y-9778198D01*
X14262378Y-9779959D01*
X14263876Y-9782000D01*
X14264792Y-9784505D01*
X14265269Y-9788179D01*
X14265450Y-9793728D01*
X14265479Y-9801858D01*
X14265419Y-9807053D01*
X14263184Y-9834215D01*
X14257804Y-9861003D01*
X14249400Y-9887145D01*
X14238091Y-9912367D01*
X14223994Y-9936396D01*
X14207230Y-9958959D01*
X14187918Y-9979784D01*
X14175525Y-9991120D01*
X14153098Y-10008539D01*
X14129451Y-10023043D01*
X14104327Y-10034763D01*
X14077466Y-10043830D01*
X14048609Y-10050375D01*
X14043522Y-10051087D01*
X14033093Y-10051869D01*
X14020782Y-10052197D01*
X14007438Y-10052095D01*
X13993911Y-10051588D01*
X13981048Y-10050699D01*
X13969699Y-10049454D01*
X13960711Y-10047876D01*
X13958496Y-10047355D01*
X13930202Y-10039005D01*
X13903519Y-10027967D01*
X13878590Y-10014409D01*
X13855556Y-9998501D01*
X13834561Y-9980410D01*
X13815747Y-9960303D01*
X13799256Y-9938351D01*
X13785230Y-9914720D01*
X13773812Y-9889578D01*
X13765145Y-9863095D01*
X13759370Y-9835439D01*
X13756630Y-9806776D01*
X13755690Y-9783475D01*
X13760730Y-9778436D01*
X13762682Y-9776625D01*
X13767031Y-9774078D01*
X13772376Y-9773396D01*
X13774789Y-9773508D01*
X13780790Y-9775202D01*
X13785249Y-9779111D01*
X13788292Y-9785459D01*
X13790043Y-9794472D01*
X13790627Y-9806376D01*
X13791389Y-9821703D01*
X13795108Y-9844818D01*
X13801732Y-9867798D01*
X13811055Y-9890281D01*
X13822869Y-9911901D01*
X13836966Y-9932294D01*
X13853140Y-9951096D01*
X13871182Y-9967943D01*
X13890886Y-9982470D01*
X13891459Y-9982839D01*
X13914371Y-9996039D01*
X13937365Y-10006091D01*
X13960840Y-10013116D01*
X13985193Y-10017233D01*
X14010821Y-10018562D01*
X14018250Y-10018438D01*
X14045070Y-10015979D01*
X14070900Y-10010402D01*
X14095633Y-10001750D01*
X14119160Y-9990066D01*
X14141373Y-9975395D01*
X14162163Y-9957780D01*
X14172764Y-9947066D01*
X14189586Y-9926752D01*
X14203551Y-9905012D01*
X14214713Y-9881725D01*
X14223123Y-9856775D01*
X14228836Y-9830042D01*
X14231903Y-9801409D01*
X14232159Y-9797239D01*
X14232685Y-9790322D01*
X14233322Y-9785649D01*
X14234242Y-9782511D01*
X14235617Y-9780197D01*
X14237623Y-9777997D01*
X14241535Y-9775052D01*
X14248023Y-9773167D01*
X14254662Y-9774217D01*
G37*
G36*
X14342844Y-9774132D02*
G01*
X14348466Y-9778646D01*
X14349538Y-9779973D01*
X14350938Y-9782212D01*
X14351822Y-9784935D01*
X14352307Y-9788842D01*
X14352513Y-9794634D01*
X14352555Y-9803011D01*
X14352043Y-9821087D01*
X14348616Y-9852714D01*
X14341956Y-9883884D01*
X14332050Y-9914655D01*
X14318884Y-9945084D01*
X14315740Y-9951396D01*
X14306514Y-9968407D01*
X14296701Y-9984086D01*
X14285599Y-9999504D01*
X14272504Y-10015731D01*
X14254183Y-10035911D01*
X14229358Y-10059008D01*
X14202764Y-10079364D01*
X14174508Y-10096923D01*
X14144694Y-10111627D01*
X14113429Y-10123420D01*
X14080818Y-10132243D01*
X14046966Y-10138040D01*
X14042208Y-10138514D01*
X14031115Y-10139090D01*
X14018078Y-10139258D01*
X14003956Y-10139047D01*
X13989608Y-10138485D01*
X13975893Y-10137601D01*
X13963671Y-10136422D01*
X13953801Y-10134978D01*
X13939436Y-10131975D01*
X13907510Y-10122928D01*
X13876611Y-10110889D01*
X13846967Y-10096010D01*
X13818811Y-10078443D01*
X13792373Y-10058342D01*
X13767884Y-10035857D01*
X13745575Y-10011142D01*
X13725676Y-9984350D01*
X13722485Y-9979490D01*
X13706765Y-9952173D01*
X13693591Y-9923219D01*
X13683100Y-9893075D01*
X13675431Y-9862188D01*
X13670719Y-9831003D01*
X13669101Y-9799967D01*
X13669103Y-9796428D01*
X13669196Y-9789905D01*
X13669554Y-9785585D01*
X13670343Y-9782704D01*
X13671732Y-9780496D01*
X13673890Y-9778198D01*
X13677865Y-9775165D01*
X13684413Y-9773167D01*
X13691079Y-9774178D01*
X13697144Y-9778198D01*
X13700463Y-9782540D01*
X13701961Y-9787645D01*
X13702050Y-9791844D01*
X13702546Y-9801230D01*
X13703391Y-9812287D01*
X13704490Y-9824023D01*
X13705747Y-9835448D01*
X13707065Y-9845571D01*
X13708349Y-9853401D01*
X13711564Y-9868077D01*
X13720621Y-9898375D01*
X13732613Y-9927361D01*
X13747423Y-9954873D01*
X13764935Y-9980747D01*
X13785031Y-10004822D01*
X13807597Y-10026935D01*
X13832516Y-10046923D01*
X13859670Y-10064624D01*
X13884203Y-10077440D01*
X13912979Y-10089061D01*
X13943049Y-10097835D01*
X13974041Y-10103636D01*
X13982845Y-10104534D01*
X13996746Y-10105165D01*
X14012192Y-10105176D01*
X14028226Y-10104605D01*
X14043893Y-10103490D01*
X14058237Y-10101871D01*
X14070302Y-10099784D01*
X14093445Y-10093917D01*
X14123955Y-10083386D01*
X14152797Y-10070026D01*
X14179999Y-10053823D01*
X14205589Y-10034761D01*
X14229595Y-10012825D01*
X14246250Y-9994600D01*
X14264988Y-9969866D01*
X14281184Y-9943358D01*
X14294714Y-9915376D01*
X14305454Y-9886220D01*
X14313280Y-9856190D01*
X14318068Y-9825587D01*
X14319695Y-9794709D01*
X14320026Y-9788153D01*
X14321650Y-9781739D01*
X14324925Y-9777300D01*
X14330180Y-9774193D01*
X14336356Y-9772767D01*
X14342844Y-9774132D01*
G37*
G36*
X14015518Y-9287001D02*
G01*
X14020890Y-9289023D01*
X14022505Y-9290752D01*
X14025610Y-9295410D01*
X14029775Y-9302588D01*
X14034844Y-9312018D01*
X14040665Y-9323434D01*
X14041683Y-9325469D01*
X14049487Y-9340613D01*
X14057488Y-9355269D01*
X14065956Y-9369870D01*
X14075163Y-9384847D01*
X14085381Y-9400630D01*
X14096880Y-9417650D01*
X14109931Y-9436339D01*
X14124808Y-9457128D01*
X14139084Y-9477156D01*
X14153608Y-9498271D01*
X14166157Y-9517473D01*
X14176870Y-9535028D01*
X14185885Y-9551201D01*
X14193342Y-9566259D01*
X14199380Y-9580466D01*
X14204137Y-9594090D01*
X14207753Y-9607395D01*
X14210367Y-9620647D01*
X14212610Y-9641525D01*
X14212331Y-9666279D01*
X14208906Y-9690590D01*
X14202411Y-9714194D01*
X14192920Y-9736827D01*
X14180511Y-9758224D01*
X14165259Y-9778121D01*
X14163227Y-9780381D01*
X14151213Y-9791892D01*
X14136979Y-9803059D01*
X14121397Y-9813297D01*
X14105340Y-9822024D01*
X14089683Y-9828655D01*
X14082580Y-9830855D01*
X14077346Y-9831472D01*
X14072965Y-9830460D01*
X14068413Y-9827777D01*
X14067940Y-9827428D01*
X14063951Y-9822497D01*
X14062820Y-9816376D01*
X14064671Y-9809659D01*
X14065710Y-9807809D01*
X14067821Y-9805320D01*
X14071075Y-9802982D01*
X14076119Y-9800362D01*
X14083598Y-9797031D01*
X14093626Y-9792441D01*
X14108418Y-9784259D01*
X14121607Y-9774856D01*
X14134247Y-9763538D01*
X14139314Y-9758330D01*
X14152973Y-9741377D01*
X14163780Y-9722922D01*
X14171776Y-9702868D01*
X14177002Y-9681115D01*
X14179501Y-9657568D01*
X14179695Y-9651721D01*
X14178940Y-9631721D01*
X14175772Y-9612711D01*
X14170023Y-9593552D01*
X14167355Y-9586507D01*
X14163408Y-9577151D01*
X14158852Y-9567573D01*
X14153509Y-9557479D01*
X14147201Y-9546573D01*
X14139750Y-9534562D01*
X14130976Y-9521150D01*
X14120701Y-9506043D01*
X14108747Y-9488946D01*
X14094936Y-9469565D01*
X14093918Y-9468145D01*
X14078210Y-9445990D01*
X14064398Y-9425981D01*
X14052263Y-9407781D01*
X14041584Y-9391055D01*
X14032142Y-9375466D01*
X14023717Y-9360678D01*
X14012024Y-9339458D01*
X14002217Y-9357922D01*
X13997887Y-9365943D01*
X13991496Y-9377299D01*
X13984650Y-9388865D01*
X13977129Y-9400981D01*
X13968708Y-9413989D01*
X13959167Y-9428231D01*
X13948282Y-9444048D01*
X13935832Y-9461781D01*
X13921595Y-9481772D01*
X13919048Y-9485317D01*
X13912832Y-9493862D01*
X13907204Y-9501459D01*
X13902490Y-9507673D01*
X13899017Y-9512072D01*
X13897113Y-9514221D01*
X13895791Y-9515138D01*
X13890582Y-9516784D01*
X13884512Y-9516877D01*
X13879138Y-9515321D01*
X13877297Y-9513972D01*
X13874086Y-9509342D01*
X13872382Y-9503505D01*
X13872686Y-9497825D01*
X13872838Y-9497406D01*
X13874611Y-9494095D01*
X13877957Y-9488738D01*
X13882559Y-9481814D01*
X13888100Y-9473802D01*
X13894262Y-9465183D01*
X13904847Y-9450533D01*
X13918472Y-9431349D01*
X13930477Y-9413972D01*
X13941135Y-9397967D01*
X13950721Y-9382902D01*
X13959507Y-9368345D01*
X13967768Y-9353861D01*
X13975776Y-9339018D01*
X13983805Y-9323383D01*
X13985060Y-9320897D01*
X13989819Y-9311669D01*
X13994212Y-9303442D01*
X13997970Y-9296704D01*
X14000823Y-9291943D01*
X14002499Y-9289644D01*
X14004012Y-9288558D01*
X14009398Y-9286863D01*
X14015518Y-9287001D01*
G37*
G36*
X13845233Y-9515930D02*
G01*
X13848794Y-9517991D01*
X13852970Y-9522270D01*
X13856315Y-9526123D01*
X13863872Y-9534555D01*
X13870890Y-9541821D01*
X13877808Y-9548241D01*
X13885065Y-9554137D01*
X13893101Y-9559826D01*
X13902355Y-9565630D01*
X13913267Y-9571867D01*
X13926275Y-9578858D01*
X13941820Y-9586922D01*
X13944481Y-9588290D01*
X13959311Y-9596012D01*
X13971635Y-9602648D01*
X13981858Y-9608458D01*
X13990385Y-9613702D01*
X13997624Y-9618642D01*
X14003980Y-9623535D01*
X14009858Y-9628644D01*
X14015666Y-9634227D01*
X14026133Y-9645788D01*
X14038516Y-9663343D01*
X14048018Y-9682155D01*
X14054472Y-9701928D01*
X14055349Y-9705825D01*
X14057311Y-9717377D01*
X14058547Y-9729379D01*
X14059060Y-9741222D01*
X14058855Y-9752294D01*
X14057935Y-9761987D01*
X14056306Y-9769689D01*
X14053970Y-9774791D01*
X14053670Y-9775183D01*
X14048358Y-9779570D01*
X14041987Y-9780965D01*
X14035083Y-9779244D01*
X14033233Y-9778292D01*
X14029803Y-9775724D01*
X14027593Y-9772252D01*
X14026429Y-9767293D01*
X14026136Y-9760259D01*
X14026540Y-9750567D01*
X14026802Y-9744310D01*
X14025948Y-9724835D01*
X14022557Y-9706706D01*
X14016706Y-9690379D01*
X14015160Y-9687114D01*
X14009406Y-9676395D01*
X14002961Y-9666773D01*
X13995477Y-9657948D01*
X13986607Y-9649616D01*
X13976004Y-9641476D01*
X13963320Y-9633223D01*
X13948206Y-9624557D01*
X13930317Y-9615173D01*
X13929249Y-9614631D01*
X13913744Y-9606673D01*
X13900807Y-9599840D01*
X13890046Y-9593900D01*
X13881067Y-9588622D01*
X13873477Y-9583777D01*
X13866881Y-9579134D01*
X13860887Y-9574461D01*
X13848991Y-9564729D01*
X13846187Y-9576647D01*
X13843357Y-9590445D01*
X13840560Y-9609711D01*
X13838868Y-9629402D01*
X13838325Y-9648657D01*
X13838972Y-9666610D01*
X13840855Y-9682401D01*
X13843523Y-9695301D01*
X13850255Y-9717122D01*
X13859391Y-9736704D01*
X13870934Y-9754050D01*
X13884887Y-9769163D01*
X13901252Y-9782046D01*
X13920031Y-9792701D01*
X13941227Y-9801132D01*
X13944737Y-9802228D01*
X13952756Y-9804438D01*
X13960976Y-9806379D01*
X13968724Y-9807924D01*
X13975330Y-9808947D01*
X13980120Y-9809319D01*
X13982423Y-9808914D01*
X13982716Y-9808092D01*
X13982201Y-9804496D01*
X13980353Y-9798676D01*
X13977362Y-9791057D01*
X13973419Y-9782068D01*
X13968715Y-9772132D01*
X13963442Y-9761677D01*
X13957790Y-9751128D01*
X13951950Y-9740913D01*
X13950490Y-9738490D01*
X13945494Y-9730540D01*
X13939216Y-9720898D01*
X13932121Y-9710265D01*
X13924678Y-9699345D01*
X13917352Y-9688840D01*
X13912724Y-9682234D01*
X13906743Y-9673518D01*
X13901635Y-9665864D01*
X13897663Y-9659672D01*
X13895088Y-9655344D01*
X13894172Y-9653281D01*
X13894811Y-9650716D01*
X13897406Y-9649819D01*
X13901970Y-9651504D01*
X13908475Y-9655766D01*
X13925339Y-9669563D01*
X13943365Y-9687011D01*
X13960593Y-9706391D01*
X13976452Y-9727007D01*
X13990367Y-9748164D01*
X14001766Y-9769165D01*
X14003394Y-9772599D01*
X14011689Y-9792211D01*
X14018205Y-9811901D01*
X14023062Y-9832269D01*
X14026383Y-9853912D01*
X14028286Y-9877428D01*
X14028894Y-9903415D01*
X14028901Y-9907730D01*
X14029001Y-9916761D01*
X14029245Y-9923115D01*
X14029674Y-9927227D01*
X14030323Y-9929535D01*
X14031232Y-9930476D01*
X14032323Y-9930687D01*
X14036758Y-9930323D01*
X14043136Y-9928895D01*
X14050719Y-9926616D01*
X14058765Y-9923697D01*
X14066536Y-9920351D01*
X14081280Y-9912355D01*
X14096840Y-9900972D01*
X14110602Y-9887215D01*
X14123012Y-9870692D01*
X14124211Y-9868908D01*
X14129687Y-9861942D01*
X14134860Y-9857731D01*
X14140259Y-9855948D01*
X14146416Y-9856266D01*
X14151394Y-9858153D01*
X14155473Y-9862615D01*
X14156962Y-9865352D01*
X14158492Y-9870524D01*
X14158036Y-9875939D01*
X14155476Y-9882284D01*
X14150693Y-9890245D01*
X14144739Y-9898704D01*
X14129740Y-9916137D01*
X14112702Y-9931311D01*
X14093944Y-9944026D01*
X14073785Y-9954084D01*
X14052544Y-9961284D01*
X14030537Y-9965428D01*
X14028776Y-9965628D01*
X14020530Y-9966486D01*
X14014104Y-9966903D01*
X14008280Y-9966885D01*
X14001841Y-9966436D01*
X13993570Y-9965560D01*
X13979408Y-9963409D01*
X13957655Y-9957677D01*
X13937210Y-9949057D01*
X13917680Y-9937404D01*
X13909372Y-9931213D01*
X13899655Y-9922842D01*
X13890444Y-9913779D01*
X13882101Y-9904459D01*
X13874984Y-9895317D01*
X13869455Y-9886787D01*
X13865873Y-9879306D01*
X13864599Y-9873307D01*
X13865471Y-9867888D01*
X13868831Y-9861983D01*
X13874108Y-9857939D01*
X13880653Y-9856440D01*
X13884216Y-9856637D01*
X13887843Y-9857701D01*
X13891187Y-9860135D01*
X13894885Y-9864431D01*
X13899577Y-9871085D01*
X13903306Y-9876435D01*
X13908050Y-9882907D01*
X13912138Y-9888158D01*
X13915963Y-9892442D01*
X13926058Y-9901580D01*
X13938105Y-9910322D01*
X13951216Y-9918115D01*
X13964502Y-9924405D01*
X13977075Y-9928638D01*
X13980797Y-9929589D01*
X13986596Y-9930919D01*
X13990430Y-9931097D01*
X13992758Y-9929698D01*
X13994038Y-9926301D01*
X13994729Y-9920481D01*
X13995289Y-9911814D01*
X13995518Y-9906452D01*
X13995611Y-9897996D01*
X13995496Y-9888499D01*
X13995201Y-9878579D01*
X13994756Y-9868855D01*
X13994191Y-9859943D01*
X13993535Y-9852463D01*
X13992818Y-9847033D01*
X13992068Y-9844271D01*
X13990757Y-9843477D01*
X13986912Y-9842399D01*
X13981633Y-9841545D01*
X13973724Y-9840499D01*
X13954262Y-9836861D01*
X13935092Y-9831878D01*
X13917198Y-9825825D01*
X13901565Y-9818982D01*
X13886996Y-9810753D01*
X13868332Y-9797119D01*
X13851977Y-9781231D01*
X13837987Y-9763188D01*
X13826418Y-9743093D01*
X13817325Y-9721047D01*
X13810764Y-9697151D01*
X13806790Y-9671506D01*
X13805460Y-9644213D01*
X13805661Y-9634198D01*
X13807701Y-9609499D01*
X13811969Y-9582966D01*
X13818504Y-9554345D01*
X13820867Y-9545339D01*
X13823731Y-9535191D01*
X13826268Y-9527619D01*
X13828697Y-9522253D01*
X13831241Y-9518723D01*
X13834121Y-9516660D01*
X13837557Y-9515693D01*
X13841772Y-9515453D01*
X13845233Y-9515930D01*
G37*
D11*
%TO.C,J302*%
X15862000Y-8582000D02*
X16138000Y-8582000D01*
X15862000Y-10879000D02*
X15862000Y-8582000D01*
X15862000Y-10879000D02*
X16138000Y-10879000D01*
X15862000Y-11006000D02*
X15862000Y-11144000D01*
X15862000Y-11144000D02*
X16000000Y-11144000D01*
X16138000Y-10879000D02*
X16138000Y-8582000D01*
%TD*%
M02*
