%TF.GenerationSoftware,KiCad,Pcbnew,9.0.6*%
%TF.CreationDate,2026-08-16T15:46:55+08:00*%
%TF.ProjectId,MQTT-Module-PumpController,4d515454-2d4d-46f6-9475-6c652d50756d,rev?*%
%TF.SameCoordinates,Original*%
%TF.FileFunction,Paste,Top*%
%TF.FilePolarity,Positive*%
%FSLAX45Y45*%
G04 Gerber Fmt 4.5, Leading zero omitted, Abs format (unit mm)*
G04 Created by KiCad (PCBNEW 9.0.6) date 2026-08-16 15:46:55*
%MOMM*%
%LPD*%
G01*
G04 APERTURE LIST*
G04 Aperture macros list*
%AMRoundRect*
0 Rectangle with rounded corners*
0 $1 Rounding radius*
0 $2 $3 $4 $5 $6 $7 $8 $9 X,Y pos of 4 corners*
0 Add a 4 corners polygon primitive as box body*
4,1,4,$2,$3,$4,$5,$6,$7,$8,$9,$2,$3,0*
0 Add four circle primitives for the rounded corners*
1,1,$1+$1,$2,$3*
1,1,$1+$1,$4,$5*
1,1,$1+$1,$6,$7*
1,1,$1+$1,$8,$9*
0 Add four rect primitives between the rounded corners*
20,1,$1+$1,$2,$3,$4,$5,0*
20,1,$1+$1,$4,$5,$6,$7,0*
20,1,$1+$1,$6,$7,$8,$9,0*
20,1,$1+$1,$8,$9,$2,$3,0*%
G04 Aperture macros list end*
%ADD10R,1.450000X1.000000*%
%ADD11R,1.000000X1.450000*%
%ADD12R,1.750000X1.000000*%
%ADD13R,1.400000X0.975000*%
%ADD14R,3.000000X1.600000*%
%ADD15R,6.200000X5.800000*%
%ADD16R,1.390000X0.910000*%
%ADD17R,2.300000X2.400000*%
%ADD18R,1.050000X1.820000*%
%ADD19R,3.800000X2.700000*%
%ADD20RoundRect,0.150000X-0.825000X-0.150000X0.825000X-0.150000X0.825000X0.150000X-0.825000X0.150000X0*%
%ADD21R,1.400000X0.300000*%
%ADD22R,0.830000X0.940000*%
%ADD23R,0.940000X0.830000*%
%ADD24R,2.000000X1.350000*%
G04 APERTURE END LIST*
D10*
%TO.C,R801*%
X14860000Y-9310000D03*
X14860000Y-9500000D03*
%TD*%
D11*
%TO.C,R202*%
X14455000Y-7790000D03*
X14645000Y-7790000D03*
%TD*%
D10*
%TO.C,R804*%
X15100000Y-9925000D03*
X15100000Y-10115000D03*
%TD*%
D12*
%TO.C,R803*%
X14860000Y-9670000D03*
X14860000Y-9970000D03*
%TD*%
D13*
%TO.C,D202*%
X12370000Y-7368750D03*
X12370000Y-7181250D03*
%TD*%
D10*
%TO.C,R203*%
X12370000Y-7865000D03*
X12370000Y-7675000D03*
%TD*%
D13*
%TO.C,D201*%
X12810000Y-7370000D03*
X12810000Y-7182500D03*
%TD*%
D14*
%TO.C,Q801*%
X13540601Y-10506500D03*
D15*
X14258601Y-10735000D03*
D14*
X13540601Y-10963500D03*
%TD*%
D10*
%TO.C,R806*%
X14530000Y-10065000D03*
X14530000Y-10255000D03*
%TD*%
D16*
%TO.C,C809*%
X13540000Y-9622000D03*
X13540000Y-9458000D03*
%TD*%
D11*
%TO.C,R204*%
X15095000Y-7790000D03*
X14905000Y-7790000D03*
%TD*%
D17*
%TO.C,D303*%
X12540000Y-10450000D03*
X12540000Y-10930000D03*
%TD*%
D18*
%TO.C,C203*%
X13759000Y-8150000D03*
X13481000Y-8150000D03*
%TD*%
D10*
%TO.C,R401*%
X13590000Y-10105000D03*
X13590000Y-10295000D03*
%TD*%
D19*
%TO.C,D602*%
X13070000Y-11500000D03*
X13070000Y-12200000D03*
%TD*%
D20*
%TO.C,U201*%
X13952500Y-8369000D03*
X13952500Y-8496000D03*
X13952500Y-8623000D03*
X13952500Y-8750000D03*
X13952500Y-8877000D03*
X13952500Y-9004000D03*
X13952500Y-9131000D03*
X14447500Y-9131000D03*
X14447500Y-9004000D03*
X14447500Y-8877000D03*
X14447500Y-8750000D03*
X14447500Y-8623000D03*
X14447500Y-8496000D03*
X14447500Y-8369000D03*
%TD*%
D21*
%TO.C,IC801*%
X14279899Y-9920000D03*
X14279899Y-9870000D03*
X14279899Y-9820000D03*
X14279899Y-9770000D03*
X14279899Y-9720000D03*
X13839899Y-9720000D03*
X13839899Y-9770000D03*
X13839899Y-9820000D03*
X13839899Y-9870000D03*
X13839899Y-9920000D03*
%TD*%
D22*
%TO.C,C201*%
X13614000Y-8350000D03*
X13746000Y-8350000D03*
%TD*%
%TO.C,C801*%
X14276000Y-10090000D03*
X14144000Y-10090000D03*
%TD*%
D23*
%TO.C,C802*%
X13360000Y-9586000D03*
X13360000Y-9454000D03*
%TD*%
D16*
%TO.C,C806*%
X13000000Y-10852000D03*
X13000000Y-10688000D03*
%TD*%
D24*
%TO.C,S201*%
X15650000Y-7697500D03*
X15650000Y-7282500D03*
%TD*%
D10*
%TO.C,R802*%
X15100000Y-9525000D03*
X15100000Y-9715000D03*
%TD*%
D23*
%TO.C,C205*%
X15330000Y-7546000D03*
X15330000Y-7414000D03*
%TD*%
D16*
%TO.C,C804*%
X15400000Y-10492000D03*
X15400000Y-10328000D03*
%TD*%
D10*
%TO.C,R201*%
X12810000Y-7865000D03*
X12810000Y-7675000D03*
%TD*%
D11*
%TO.C,R805*%
X13985000Y-10120000D03*
X13795000Y-10120000D03*
%TD*%
D23*
%TO.C,C805*%
X13180000Y-10846000D03*
X13180000Y-10714000D03*
%TD*%
M02*
