%TF.GenerationSoftware,KiCad,Pcbnew,9.0.6*%
%TF.CreationDate,2026-08-16T15:46:55+08:00*%
%TF.ProjectId,MQTT-Module-PumpController,4d515454-2d4d-46f6-9475-6c652d50756d,rev?*%
%TF.SameCoordinates,Original*%
%TF.FileFunction,Copper,L4,Bot*%
%TF.FilePolarity,Positive*%
%FSLAX45Y45*%
G04 Gerber Fmt 4.5, Leading zero omitted, Abs format (unit mm)*
G04 Created by KiCad (PCBNEW 9.0.6) date 2026-08-16 15:46:55*
%MOMM*%
%LPD*%
G01*
G04 APERTURE LIST*
%TA.AperFunction,ComponentPad*%
%ADD10R,1.700000X1.700000*%
%TD*%
%TA.AperFunction,ComponentPad*%
%ADD11C,1.700000*%
%TD*%
%TA.AperFunction,ComponentPad*%
%ADD12R,1.950000X1.950000*%
%TD*%
%TA.AperFunction,ComponentPad*%
%ADD13C,1.950000*%
%TD*%
%TA.AperFunction,ViaPad*%
%ADD14C,0.600000*%
%TD*%
%TA.AperFunction,Conductor*%
%ADD15C,0.250000*%
%TD*%
%TA.AperFunction,Conductor*%
%ADD16C,1.000000*%
%TD*%
G04 APERTURE END LIST*
D10*
%TO.P,J304,1,Pin_1*%
%TO.N,+3V3*%
X14136000Y-7260000D03*
D11*
%TO.P,J304,2,Pin_2*%
%TO.N,GND*%
X14390000Y-7260000D03*
%TO.P,J304,3,Pin_3*%
%TO.N,/Controller/UDPI_C*%
X14644000Y-7260000D03*
%TD*%
D12*
%TO.P,J303,1,Pin_1*%
%TO.N,/Headers/PMP+*%
X13771601Y-11855000D03*
D13*
%TO.P,J303,2,Pin_2*%
%TO.N,GND*%
X14279601Y-11855000D03*
%TD*%
D10*
%TO.P,J301,1,Pin_1*%
%TO.N,+12V*%
X12000000Y-11006000D03*
D11*
%TO.P,J301,2,Pin_2*%
X12000000Y-10752000D03*
%TO.P,J301,3,Pin_3*%
%TO.N,/Headers/+5V_1*%
X12000000Y-10498000D03*
%TO.P,J301,4,Pin_4*%
%TO.N,+3V3*%
X12000000Y-10244000D03*
%TO.P,J301,5,Pin_5*%
%TO.N,GND*%
X12000000Y-9990000D03*
%TO.P,J301,6,Pin_6*%
X12000000Y-9736000D03*
%TO.P,J301,7,Pin_7*%
%TO.N,/Headers/CS*%
X12000000Y-9482000D03*
%TO.P,J301,8,Pin_8*%
%TO.N,/Headers/MISO*%
X12000000Y-9228000D03*
%TO.P,J301,9,Pin_9*%
%TO.N,/Headers/SCK*%
X12000000Y-8974000D03*
%TO.P,J301,10,Pin_10*%
%TO.N,/Headers/MOSI*%
X12000000Y-8720000D03*
%TD*%
D10*
%TO.P,J302,1,Pin_1*%
%TO.N,+12V*%
X16000000Y-11006000D03*
D11*
%TO.P,J302,2,Pin_2*%
X16000000Y-10752000D03*
%TO.P,J302,3,Pin_3*%
%TO.N,/Headers/+5V_2*%
X16000000Y-10498000D03*
%TO.P,J302,4,Pin_4*%
%TO.N,+3V3*%
X16000000Y-10244000D03*
%TO.P,J302,5,Pin_5*%
%TO.N,GND*%
X16000000Y-9990000D03*
%TO.P,J302,6,Pin_6*%
X16000000Y-9736000D03*
%TO.P,J302,7,Pin_7*%
%TO.N,/Controller/MOD*%
X16000000Y-9482000D03*
%TO.P,J302,8,Pin_8*%
%TO.N,/Controller/SNS*%
X16000000Y-9228000D03*
%TO.P,J302,9,Pin_9*%
%TO.N,/Controller/SDA*%
X16000000Y-8974000D03*
%TO.P,J302,10,Pin_10*%
%TO.N,/Controller/SCL*%
X16000000Y-8720000D03*
%TD*%
D14*
%TO.N,GND*%
X15650000Y-7150000D03*
X13360000Y-9340000D03*
X13500000Y-7900000D03*
X13320000Y-12300000D03*
X14220000Y-12030000D03*
X14860000Y-9200000D03*
X13240000Y-7900000D03*
X13540000Y-9340000D03*
X15330000Y-7310000D03*
X12620000Y-10270000D03*
X13370000Y-7900000D03*
X13370000Y-8370000D03*
X14610000Y-8370000D03*
X13310000Y-8260000D03*
X13310000Y-8010000D03*
X13320000Y-12100000D03*
X12820000Y-12300000D03*
X13500000Y-8350000D03*
X13840000Y-9640000D03*
X13320000Y-12200000D03*
X12860000Y-7060000D03*
X12820000Y-12200000D03*
X15500000Y-10080000D03*
X14450000Y-11900000D03*
X13440000Y-8010000D03*
X12820000Y-12100000D03*
X12320000Y-7060000D03*
X14320000Y-11680000D03*
X15400000Y-10220000D03*
X14320000Y-12030000D03*
X14140000Y-10200000D03*
X15320000Y-10080000D03*
X14100000Y-11900000D03*
X14220000Y-11680000D03*
X13240000Y-8130000D03*
X12720000Y-10360000D03*
X14450000Y-11800000D03*
X12720000Y-10510000D03*
X13370000Y-8130000D03*
X14100000Y-11800000D03*
X13180000Y-10620000D03*
X13000000Y-10590000D03*
X15100000Y-9410000D03*
X12450000Y-10270000D03*
%TO.N,/Controller/MOD*%
X15660000Y-9360000D03*
X14120000Y-8750000D03*
%TO.N,/Controller/SNS*%
X14120000Y-8880000D03*
X15520000Y-9000000D03*
%TO.N,+3V3*%
X13870000Y-8090000D03*
X14640000Y-8100000D03*
X13870000Y-8270000D03*
X14010000Y-8250000D03*
X14010000Y-8090000D03*
%TO.N,+12V*%
X14700000Y-10850000D03*
X14700000Y-10630000D03*
X14990000Y-10740000D03*
X15130000Y-10680000D03*
X14700000Y-10960000D03*
X14990000Y-10630000D03*
X14700000Y-10520000D03*
X15130000Y-10900000D03*
X14840000Y-10570000D03*
X15130000Y-10570000D03*
X14840000Y-10900000D03*
X14840000Y-10790000D03*
X14990000Y-10520000D03*
X15130000Y-10790000D03*
X14990000Y-10850000D03*
X14700000Y-10740000D03*
X14990000Y-10960000D03*
X14840000Y-10680000D03*
%TO.N,Net-(IC801-OUT)*%
X13450000Y-9860000D03*
X13450000Y-10020000D03*
%TD*%
D15*
%TO.N,/Controller/MOD*%
X15660000Y-9360000D02*
X15660000Y-8960000D01*
X15660000Y-8960000D02*
X15450000Y-8750000D01*
X15450000Y-8750000D02*
X14120000Y-8750000D01*
%TO.N,/Controller/SNS*%
X15400000Y-8880000D02*
X14120000Y-8880000D01*
X15520000Y-9000000D02*
X15400000Y-8880000D01*
D16*
%TO.N,+3V3*%
X12610000Y-9790000D02*
X12610000Y-9190000D01*
X13190000Y-9100000D02*
X14330000Y-9100000D01*
X12156000Y-10244000D02*
X12610000Y-9790000D01*
X12610000Y-9190000D02*
X12690000Y-9110000D01*
X14330000Y-9100000D02*
X14940000Y-9710000D01*
X12000000Y-10244000D02*
X12156000Y-10244000D01*
X12690000Y-9110000D02*
X13180000Y-9110000D01*
X14940000Y-9710000D02*
X15350000Y-9710000D01*
X15884000Y-10244000D02*
X16000000Y-10244000D01*
X13180000Y-9110000D02*
X13190000Y-9100000D01*
X15350000Y-9710000D02*
X15884000Y-10244000D01*
D15*
%TO.N,/Controller/SCL*%
X15980000Y-8700000D02*
X16000000Y-8720000D01*
%TO.N,Net-(IC801-OUT)*%
X13450000Y-9860000D02*
X13450000Y-10020000D01*
%TD*%
%TA.AperFunction,Conductor*%
%TO.N,+12V*%
G36*
X15322162Y-10441969D02*
G01*
X15323467Y-10442934D01*
X15580000Y-10660000D01*
X16123254Y-10660000D01*
X16129958Y-10661969D01*
X16134534Y-10667249D01*
X16135654Y-10672400D01*
X16135654Y-11557600D01*
X16133686Y-11564304D01*
X16128405Y-11568879D01*
X16123254Y-11570000D01*
X11872341Y-11570000D01*
X11865637Y-11568031D01*
X11861062Y-11562751D01*
X11859941Y-11557659D01*
X11855714Y-10672459D01*
X11857650Y-10665746D01*
X11862909Y-10661145D01*
X11868114Y-10660000D01*
X12500000Y-10660000D01*
X12586046Y-10596900D01*
X12929950Y-10596900D01*
X12932642Y-10610432D01*
X12932642Y-10610433D01*
X12937922Y-10623180D01*
X12937923Y-10623182D01*
X12945588Y-10634654D01*
X12945589Y-10634655D01*
X12955345Y-10644411D01*
X12955346Y-10644411D01*
X12966818Y-10652077D01*
X12966819Y-10652078D01*
X12979567Y-10657358D01*
X12979567Y-10657358D01*
X12979568Y-10657358D01*
X12979568Y-10657358D01*
X12993100Y-10660050D01*
X12993101Y-10660050D01*
X13006899Y-10660050D01*
X13016004Y-10658239D01*
X13020433Y-10657358D01*
X13033181Y-10652078D01*
X13044654Y-10644411D01*
X13054411Y-10634654D01*
X13059593Y-10626900D01*
X13109950Y-10626900D01*
X13112642Y-10640432D01*
X13112642Y-10640433D01*
X13117922Y-10653180D01*
X13117923Y-10653182D01*
X13125588Y-10664654D01*
X13125589Y-10664655D01*
X13135345Y-10674411D01*
X13135346Y-10674411D01*
X13146818Y-10682077D01*
X13146819Y-10682078D01*
X13159567Y-10687358D01*
X13159567Y-10687358D01*
X13159568Y-10687358D01*
X13159568Y-10687358D01*
X13173100Y-10690050D01*
X13173101Y-10690050D01*
X13186899Y-10690050D01*
X13196004Y-10688239D01*
X13200433Y-10687358D01*
X13213181Y-10682078D01*
X13224654Y-10674411D01*
X13234411Y-10664654D01*
X13242077Y-10653181D01*
X13247358Y-10640433D01*
X13250050Y-10626899D01*
X13250050Y-10613101D01*
X13250050Y-10613100D01*
X13247358Y-10599568D01*
X13247358Y-10599568D01*
X13247358Y-10599567D01*
X13246253Y-10596899D01*
X13242078Y-10586820D01*
X13242077Y-10586818D01*
X13234411Y-10575346D01*
X13234411Y-10575345D01*
X13224654Y-10565589D01*
X13224654Y-10565589D01*
X13213182Y-10557923D01*
X13213180Y-10557922D01*
X13200433Y-10552642D01*
X13200432Y-10552642D01*
X13186899Y-10549950D01*
X13186899Y-10549950D01*
X13173101Y-10549950D01*
X13173100Y-10549950D01*
X13159568Y-10552642D01*
X13159567Y-10552642D01*
X13146819Y-10557922D01*
X13146818Y-10557923D01*
X13135346Y-10565589D01*
X13135345Y-10565589D01*
X13125589Y-10575345D01*
X13125588Y-10575346D01*
X13117923Y-10586818D01*
X13117922Y-10586820D01*
X13112642Y-10599567D01*
X13112642Y-10599568D01*
X13109950Y-10613100D01*
X13109950Y-10613101D01*
X13109950Y-10626899D01*
X13109950Y-10626900D01*
X13109950Y-10626900D01*
X13059593Y-10626900D01*
X13062077Y-10623181D01*
X13067358Y-10610433D01*
X13070050Y-10596899D01*
X13070050Y-10583101D01*
X13070050Y-10583100D01*
X13067358Y-10569568D01*
X13067358Y-10569568D01*
X13067358Y-10569567D01*
X13064862Y-10563541D01*
X13062078Y-10556820D01*
X13062077Y-10556818D01*
X13054411Y-10545346D01*
X13054411Y-10545345D01*
X13044654Y-10535589D01*
X13044654Y-10535589D01*
X13033182Y-10527923D01*
X13033180Y-10527922D01*
X13020433Y-10522642D01*
X13020432Y-10522642D01*
X13006899Y-10519950D01*
X13006899Y-10519950D01*
X12993101Y-10519950D01*
X12993100Y-10519950D01*
X12979568Y-10522642D01*
X12979567Y-10522642D01*
X12966819Y-10527922D01*
X12966818Y-10527923D01*
X12955346Y-10535589D01*
X12955345Y-10535589D01*
X12945589Y-10545345D01*
X12945588Y-10545346D01*
X12937923Y-10556818D01*
X12937922Y-10556820D01*
X12932642Y-10569567D01*
X12932642Y-10569568D01*
X12929950Y-10583100D01*
X12929950Y-10583101D01*
X12929950Y-10596899D01*
X12929950Y-10596900D01*
X12929950Y-10596900D01*
X12586046Y-10596900D01*
X12647929Y-10551519D01*
X12654499Y-10549142D01*
X12661311Y-10550694D01*
X12665142Y-10554232D01*
X12665202Y-10554183D01*
X12665556Y-10554615D01*
X12665572Y-10554629D01*
X12665589Y-10554654D01*
X12675345Y-10564411D01*
X12675346Y-10564411D01*
X12686818Y-10572077D01*
X12686819Y-10572078D01*
X12699567Y-10577358D01*
X12699567Y-10577358D01*
X12699568Y-10577358D01*
X12699568Y-10577358D01*
X12713100Y-10580050D01*
X12713101Y-10580050D01*
X12726899Y-10580050D01*
X12736004Y-10578239D01*
X12740433Y-10577358D01*
X12753181Y-10572078D01*
X12753182Y-10572077D01*
X12753182Y-10572077D01*
X12757092Y-10569465D01*
X12764654Y-10564411D01*
X12774411Y-10554654D01*
X12782077Y-10543181D01*
X12787358Y-10530433D01*
X12788908Y-10522642D01*
X12790050Y-10516900D01*
X12790050Y-10503100D01*
X12787358Y-10489568D01*
X12787358Y-10489568D01*
X12787358Y-10489567D01*
X12786774Y-10488158D01*
X12782078Y-10476820D01*
X12782078Y-10476819D01*
X12782077Y-10476819D01*
X12778055Y-10470798D01*
X12777866Y-10470195D01*
X12777423Y-10469744D01*
X12776834Y-10466901D01*
X12775967Y-10464131D01*
X12776134Y-10463521D01*
X12776006Y-10462903D01*
X12777047Y-10460192D01*
X12777815Y-10457393D01*
X12778342Y-10456822D01*
X12778512Y-10456381D01*
X12781031Y-10453911D01*
X12796727Y-10442400D01*
X12803297Y-10440024D01*
X12804059Y-10440000D01*
X15315458Y-10440000D01*
X15322162Y-10441969D01*
G37*
%TD.AperFunction*%
%TD*%
%TA.AperFunction,Conductor*%
%TO.N,+3V3*%
G36*
X14224304Y-7321968D02*
G01*
X14228879Y-7327249D01*
X14230000Y-7332400D01*
X14230000Y-7680000D01*
X14677600Y-7680000D01*
X14684304Y-7681968D01*
X14688879Y-7687249D01*
X14690000Y-7692400D01*
X14690000Y-8157600D01*
X14688031Y-8164304D01*
X14682751Y-8168879D01*
X14677600Y-8170000D01*
X14460000Y-8170000D01*
X14289300Y-8329568D01*
X14000000Y-8600000D01*
X14000000Y-9227600D01*
X13998031Y-9234304D01*
X13992751Y-9238879D01*
X13987600Y-9240000D01*
X12332400Y-9240000D01*
X12325696Y-9238032D01*
X12321121Y-9232751D01*
X12320000Y-9227600D01*
X12320000Y-8590000D01*
X12320000Y-8590000D01*
X12110000Y-8390000D01*
X11882285Y-8390000D01*
X11875581Y-8388031D01*
X11871005Y-8382751D01*
X11869885Y-8377716D01*
X11865485Y-7906899D01*
X13169950Y-7906899D01*
X13172642Y-7920432D01*
X13172642Y-7920433D01*
X13177922Y-7933180D01*
X13177923Y-7933182D01*
X13185588Y-7944654D01*
X13185589Y-7944654D01*
X13195345Y-7954411D01*
X13195346Y-7954411D01*
X13206818Y-7962077D01*
X13206819Y-7962078D01*
X13219567Y-7967358D01*
X13219567Y-7967358D01*
X13219568Y-7967358D01*
X13219568Y-7967358D01*
X13233100Y-7970050D01*
X13233396Y-7970079D01*
X13233541Y-7970137D01*
X13233698Y-7970169D01*
X13233692Y-7970199D01*
X13239875Y-7972695D01*
X13243911Y-7978398D01*
X13244223Y-7985378D01*
X13243637Y-7987164D01*
X13242642Y-7989567D01*
X13242642Y-7989568D01*
X13239950Y-8003100D01*
X13239950Y-8003101D01*
X13239950Y-8016899D01*
X13239950Y-8016899D01*
X13239950Y-8016899D01*
X13242642Y-8030432D01*
X13242642Y-8030433D01*
X13247767Y-8042805D01*
X13248513Y-8049752D01*
X13245386Y-8056000D01*
X13239377Y-8059565D01*
X13236310Y-8059950D01*
X13233100Y-8059950D01*
X13219568Y-8062642D01*
X13219567Y-8062642D01*
X13206819Y-8067922D01*
X13206818Y-8067923D01*
X13195346Y-8075588D01*
X13195345Y-8075589D01*
X13185589Y-8085345D01*
X13185588Y-8085346D01*
X13177923Y-8096818D01*
X13177922Y-8096819D01*
X13172642Y-8109567D01*
X13172642Y-8109568D01*
X13169950Y-8123100D01*
X13169950Y-8123101D01*
X13169950Y-8136899D01*
X13169950Y-8136899D01*
X13169950Y-8136899D01*
X13172642Y-8150432D01*
X13172642Y-8150433D01*
X13177922Y-8163180D01*
X13177923Y-8163182D01*
X13185588Y-8174654D01*
X13185589Y-8174654D01*
X13195345Y-8184411D01*
X13195346Y-8184411D01*
X13206818Y-8192077D01*
X13206819Y-8192078D01*
X13219567Y-8197358D01*
X13219567Y-8197358D01*
X13219568Y-8197358D01*
X13219568Y-8197358D01*
X13233100Y-8200050D01*
X13242610Y-8200050D01*
X13249314Y-8202018D01*
X13253889Y-8207299D01*
X13254884Y-8214215D01*
X13252920Y-8219339D01*
X13247923Y-8226818D01*
X13247922Y-8226819D01*
X13242642Y-8239567D01*
X13242642Y-8239568D01*
X13239950Y-8253100D01*
X13239950Y-8253101D01*
X13239950Y-8266899D01*
X13239950Y-8266899D01*
X13239950Y-8266899D01*
X13242642Y-8280432D01*
X13242642Y-8280433D01*
X13247922Y-8293180D01*
X13247923Y-8293182D01*
X13255588Y-8304654D01*
X13255589Y-8304654D01*
X13265345Y-8314411D01*
X13265346Y-8314411D01*
X13276818Y-8322077D01*
X13276819Y-8322078D01*
X13289567Y-8327358D01*
X13289567Y-8327358D01*
X13295327Y-8328504D01*
X13301518Y-8331742D01*
X13304975Y-8337813D01*
X13304601Y-8344790D01*
X13304364Y-8345410D01*
X13302642Y-8349567D01*
X13302642Y-8349568D01*
X13299950Y-8363100D01*
X13299950Y-8363101D01*
X13299950Y-8376899D01*
X13299950Y-8376899D01*
X13299950Y-8376899D01*
X13302642Y-8390432D01*
X13302642Y-8390433D01*
X13307922Y-8403180D01*
X13307923Y-8403182D01*
X13315588Y-8414654D01*
X13315589Y-8414655D01*
X13325345Y-8424411D01*
X13325346Y-8424411D01*
X13336818Y-8432077D01*
X13336819Y-8432078D01*
X13349567Y-8437358D01*
X13349567Y-8437358D01*
X13349568Y-8437358D01*
X13349568Y-8437358D01*
X13363100Y-8440050D01*
X13363101Y-8440050D01*
X13376899Y-8440050D01*
X13386004Y-8438239D01*
X13390433Y-8437358D01*
X13403181Y-8432078D01*
X13414654Y-8424411D01*
X13424411Y-8414654D01*
X13428419Y-8408657D01*
X13432416Y-8402675D01*
X13432617Y-8402809D01*
X13436763Y-8398583D01*
X13443576Y-8397034D01*
X13450145Y-8399414D01*
X13451576Y-8400642D01*
X13455345Y-8404411D01*
X13455346Y-8404411D01*
X13466818Y-8412077D01*
X13466819Y-8412078D01*
X13479567Y-8417358D01*
X13479567Y-8417358D01*
X13479568Y-8417358D01*
X13479568Y-8417358D01*
X13493100Y-8420050D01*
X13493101Y-8420050D01*
X13506899Y-8420050D01*
X13516004Y-8418239D01*
X13520433Y-8417358D01*
X13533181Y-8412078D01*
X13544654Y-8404411D01*
X13554411Y-8394654D01*
X13562077Y-8383181D01*
X13567358Y-8370433D01*
X13570050Y-8356899D01*
X13570050Y-8343101D01*
X13570050Y-8343100D01*
X13567358Y-8329568D01*
X13567358Y-8329568D01*
X13567358Y-8329567D01*
X13566443Y-8327358D01*
X13562078Y-8316819D01*
X13562077Y-8316818D01*
X13554411Y-8305346D01*
X13554411Y-8305345D01*
X13544654Y-8295589D01*
X13544654Y-8295588D01*
X13533182Y-8287923D01*
X13533180Y-8287922D01*
X13520433Y-8282642D01*
X13520432Y-8282642D01*
X13506899Y-8279950D01*
X13506899Y-8279950D01*
X13493101Y-8279950D01*
X13493100Y-8279950D01*
X13479568Y-8282642D01*
X13479567Y-8282642D01*
X13466819Y-8287922D01*
X13466818Y-8287923D01*
X13455346Y-8295588D01*
X13455345Y-8295589D01*
X13445589Y-8305345D01*
X13445588Y-8305346D01*
X13437584Y-8317325D01*
X13437385Y-8317192D01*
X13433228Y-8321421D01*
X13426414Y-8322965D01*
X13419847Y-8320580D01*
X13418424Y-8319358D01*
X13414654Y-8315589D01*
X13414654Y-8315588D01*
X13403182Y-8307923D01*
X13403180Y-8307922D01*
X13390433Y-8302642D01*
X13390432Y-8302642D01*
X13384673Y-8301496D01*
X13378482Y-8298258D01*
X13375025Y-8292186D01*
X13375399Y-8285209D01*
X13375636Y-8284589D01*
X13377358Y-8280433D01*
X13380050Y-8266899D01*
X13380050Y-8253101D01*
X13380050Y-8253100D01*
X13377358Y-8239568D01*
X13377358Y-8239568D01*
X13377358Y-8239567D01*
X13377358Y-8239567D01*
X13372078Y-8226819D01*
X13372077Y-8226818D01*
X13367080Y-8219339D01*
X13364992Y-8212671D01*
X13366840Y-8205933D01*
X13372038Y-8201264D01*
X13376311Y-8200295D01*
X13376293Y-8200110D01*
X13376899Y-8200050D01*
X13387595Y-8197922D01*
X13390433Y-8197358D01*
X13403181Y-8192077D01*
X13414654Y-8184411D01*
X13424411Y-8174654D01*
X13432077Y-8163181D01*
X13437358Y-8150433D01*
X13440050Y-8136899D01*
X13440050Y-8123101D01*
X13440050Y-8123100D01*
X13437358Y-8109568D01*
X13437358Y-8109568D01*
X13437358Y-8109567D01*
X13432233Y-8097195D01*
X13431486Y-8090248D01*
X13434614Y-8084000D01*
X13440623Y-8080435D01*
X13443689Y-8080050D01*
X13446899Y-8080050D01*
X13456004Y-8078239D01*
X13460433Y-8077358D01*
X13473181Y-8072077D01*
X13484654Y-8064411D01*
X13494411Y-8054654D01*
X13502077Y-8043181D01*
X13507358Y-8030433D01*
X13510050Y-8016899D01*
X13510050Y-8003101D01*
X13510050Y-8003100D01*
X13507358Y-7989568D01*
X13507358Y-7989568D01*
X13507358Y-7989567D01*
X13506363Y-7987164D01*
X13505636Y-7985410D01*
X13504889Y-7978464D01*
X13508017Y-7972216D01*
X13514026Y-7968650D01*
X13514669Y-7968504D01*
X13520433Y-7967358D01*
X13533181Y-7962077D01*
X13544654Y-7954411D01*
X13554411Y-7944654D01*
X13562077Y-7933181D01*
X13567358Y-7920433D01*
X13570050Y-7906899D01*
X13570050Y-7893101D01*
X13570050Y-7893100D01*
X13567358Y-7879568D01*
X13567358Y-7879568D01*
X13567358Y-7879567D01*
X13565000Y-7873874D01*
X13562078Y-7866819D01*
X13562077Y-7866818D01*
X13554411Y-7855346D01*
X13554411Y-7855345D01*
X13544654Y-7845589D01*
X13544654Y-7845588D01*
X13533182Y-7837923D01*
X13533180Y-7837922D01*
X13520433Y-7832642D01*
X13520432Y-7832642D01*
X13506899Y-7829950D01*
X13506899Y-7829950D01*
X13493101Y-7829950D01*
X13493100Y-7829950D01*
X13479568Y-7832642D01*
X13479567Y-7832642D01*
X13466819Y-7837922D01*
X13466818Y-7837923D01*
X13455346Y-7845588D01*
X13455345Y-7845589D01*
X13445589Y-7855345D01*
X13445588Y-7855346D01*
X13445310Y-7855762D01*
X13439949Y-7860243D01*
X13433016Y-7861114D01*
X13426714Y-7858098D01*
X13424690Y-7855762D01*
X13424411Y-7855346D01*
X13424411Y-7855345D01*
X13414654Y-7845589D01*
X13414654Y-7845588D01*
X13403182Y-7837923D01*
X13403180Y-7837922D01*
X13390433Y-7832642D01*
X13390432Y-7832642D01*
X13376899Y-7829950D01*
X13376899Y-7829950D01*
X13363101Y-7829950D01*
X13363100Y-7829950D01*
X13349568Y-7832642D01*
X13349567Y-7832642D01*
X13336819Y-7837922D01*
X13336818Y-7837923D01*
X13325346Y-7845588D01*
X13325345Y-7845589D01*
X13315589Y-7855345D01*
X13315588Y-7855346D01*
X13315310Y-7855762D01*
X13309949Y-7860243D01*
X13303016Y-7861114D01*
X13296714Y-7858098D01*
X13294690Y-7855762D01*
X13294411Y-7855346D01*
X13294411Y-7855345D01*
X13284654Y-7845589D01*
X13284654Y-7845588D01*
X13273182Y-7837923D01*
X13273180Y-7837922D01*
X13260433Y-7832642D01*
X13260432Y-7832642D01*
X13246899Y-7829950D01*
X13246899Y-7829950D01*
X13233101Y-7829950D01*
X13233100Y-7829950D01*
X13219568Y-7832642D01*
X13219567Y-7832642D01*
X13206819Y-7837922D01*
X13206818Y-7837923D01*
X13195346Y-7845588D01*
X13195345Y-7845589D01*
X13185589Y-7855345D01*
X13185588Y-7855346D01*
X13177923Y-7866818D01*
X13177922Y-7866819D01*
X13172642Y-7879567D01*
X13172642Y-7879568D01*
X13169950Y-7893100D01*
X13169950Y-7893101D01*
X13169950Y-7906899D01*
X13169950Y-7906899D01*
X13169950Y-7906899D01*
X11865485Y-7906899D01*
X11865351Y-7892607D01*
X11860117Y-7332516D01*
X11862023Y-7325794D01*
X11867260Y-7321169D01*
X11872516Y-7320000D01*
X14217600Y-7320000D01*
X14224304Y-7321968D01*
G37*
%TD.AperFunction*%
%TD*%
M02*
